<?xml version="1.0" encoding="utf-8"?>
<!-- Generator: Adobe Illustrator 16.0.0, SVG Export Plug-In . SVG Version: 6.00 Build 0)  -->
<!DOCTYPE svg PUBLIC "-//W3C//DTD SVG 1.1//EN" "http://www.w3.org/Graphics/SVG/1.1/DTD/svg11.dtd">
<svg version="1.1" id="Layer_1" xmlns="http://www.w3.org/2000/svg" xmlns:xlink="http://www.w3.org/1999/xlink" x="0px" y="0px"
	 width="512px" height="308px" viewBox="0 0 512 308" enable-background="new 0 0 512 308" xml:space="preserve">
<g id="Background">
</g>
<g id="Objects">
	<g>
		<g>
			<path fill="#497193" d="M407.468,228.26c-3.92,5.836-9.14,9.193-10.442,13.404c-2.106,6.801,5.475,6.807,9.935,5.527
				c4.179-1.201,6.474-4.004,8.889-4.701c6.229-1.797,6.39-5.482,3.869-14.23C417.196,219.512,410.621,222.799,407.468,228.26z"/>
			<path fill="#497193" d="M443.044,228.26c3.92,5.836,9.14,9.193,10.443,13.404c2.146,6.93-5.847,6.719-10.186,5.436
				c-4.109-1.217-6.244-3.918-8.639-4.608c-6.229-1.798-6.389-5.482-3.869-14.23C433.315,219.512,439.891,222.799,443.044,228.26z"
				/>
			<path fill="#304D66" d="M403.356,152.873h44.076v80.264h-18.309v-58.285c0-5.004-7.461-5.033-7.461,0v58.285h-18.308
				L403.356,152.873L403.356,152.873z"/>
			<path fill="#497193" d="M413.673,99.604l-10.723,33.752c-1.366,4.299-6.001,6.699-10.301,5.334l0,0
				c-4.3-1.367-6.699-6.002-5.333-10.301l10.722-33.752C401.153,84.832,416.626,90.305,413.673,99.604z"/>
			<path fill="#FBD9BD" d="M397.944,159.176L397.944,159.176c1.089,0.135,1.868,1.135,1.734,2.223l-0.593,4.804
				c-0.135,1.09-1.135,1.868-2.223,1.733h-0.001c-1.089-0.135-1.869-1.135-1.734-2.223l0.593-4.803
				C395.856,159.822,396.855,159.043,397.944,159.176z"/>
			<path fill="#FBD9BD" d="M399.679,161.398l0.288-2.662l-15.952-1.871l-0.288,2.664
				C382.44,171.301,398.208,175.018,399.679,161.398z"/>
			<path fill="#497193" d="M399.967,158.736l3.092-25.445c0.545-4.477-2.79-8.551-7.273-9.035l0,0
				c-4.486-0.482-8.552,2.791-9.035,7.275l-2.734,25.334L399.967,158.736z"/>
			<path fill="#497193" d="M437.292,99.604l10.722,33.752c1.366,4.299,6.001,6.699,10.302,5.334l0,0
				c4.299-1.367,6.698-6.002,5.333-10.301l-10.723-33.752C449.812,84.832,434.338,90.305,437.292,99.604z"/>
			<path fill="#FBD9BD" d="M453.02,159.176L453.02,159.176c-1.089,0.135-1.868,1.135-1.734,2.223l0.593,4.804
				c0.135,1.09,1.135,1.868,2.224,1.733l0,0c1.09-0.135,1.869-1.135,1.734-2.223l-0.593-4.803
				C455.108,159.822,454.108,159.043,453.02,159.176z"/>
			<path fill="#FBD9BD" d="M451.285,161.398l-0.288-2.662l15.953-1.871l0.287,2.664
				C468.523,171.301,452.755,175.018,451.285,161.398z"/>
			<path fill="#497193" d="M450.997,158.736l-3.091-25.445c-0.544-4.477,2.788-8.551,7.273-9.035l0,0
				c4.485-0.482,8.552,2.791,9.034,7.275l2.735,25.334L450.997,158.736z"/>
			<polygon fill="#497193" points="403.356,89.408 447.433,89.408 447.433,129.246 447.433,169.082 427.142,169.082 
				425.395,160.029 423.262,169.082 403.356,169.082 			"/>
			<polygon fill="#FFFFFF" points="415.895,101.68 425.426,98.711 436.267,102.936 425.845,137.959 			"/>
			<path fill="#FBD9BD" d="M425.395,56.65L425.395,56.65c5.476,0,9.954,4.479,9.954,9.953V89.41c0,5.475-4.479,9.953-9.954,9.953
				l0,0c-5.475,0-9.952-4.479-9.952-9.953V66.604C415.441,61.129,419.92,56.65,425.395,56.65z"/>
			<path fill="#ECC2A0" d="M435.214,70.107v15.008c-3.716,2.709-7.297,4.225-9.819,4.225c-2.521,0-6.103-1.516-9.817-4.225V70.107
				C415.576,58.002,435.214,58.002,435.214,70.107z"/>
			<g>
				<path fill="#4D1B02" d="M441.848,29.701c4.838,0.771,7.515,4.088,8.659,8.59c2.982,11.719-3.261,37.131-24.869,37.436
					c-11.144,0.154-19.169-2.678-22.093-11.697c-2.925-9.021-4.125-23.553,2.23-31.699
					C413.771,22.082,430.557,21.984,441.848,29.701z"/>
				<path fill="#FBD9BD" d="M425.438,31.521c-32.955,0-21.104,39.822-18.951,42.992c2.374,3.494,13.628,12.762,18.951,12.762
					c5.324,0,16.577-9.266,18.951-12.762C446.543,71.344,458.395,31.521,425.438,31.521z"/>
				<path fill="#ECC2A0" d="M434.216,75.156c-7.727,0.354-15.367-2.488-20.039-6.707C414.468,74.842,429.188,79.822,434.216,75.156z
					"/>
				<path fill="#ECC2A0" d="M416.208,67.893c-1.611,0.627-2.914,1.898-3.488,3.184C412.343,69.328,414.91,66.951,416.208,67.893z"/>
				
					<ellipse transform="matrix(-0.9498 0.3129 -0.3129 -0.9498 801.9812 -11.1874)" fill="#FBD9BD" cx="401.888" cy="58.751" rx="3.297" ry="5.701"/>
				
					<ellipse transform="matrix(-0.9498 -0.3128 0.3128 -0.9498 856.8947 254.9754)" fill="#FBD9BD" cx="448.9" cy="58.753" rx="3.297" ry="5.701"/>
				<path fill="#4D1B02" d="M441.593,41.428c-5.791,3.562-12.679,2.309-10.005-0.811c2.673-3.117-0.266-0.943-5.494,1.338
					c-5.229,2.279-11.243,1.9-7.679-0.029c4.321-2.34-12.549-3.873-15.635,20.223c-4.948-17.475,3.407-32.109,22.273-32.939
					c20.15-0.889,28.312,15.062,22.739,32.42C448.16,52.225,445.888,46.072,441.593,41.428z"/>
			</g>
			<path fill="#E5E5E5" d="M415.225,86.023l-0.884,3.438l2.476,17.914l8.576-8.699L415.225,86.023z"/>
			<path fill="#9C3421" d="M420.99,103.361l2.449,3.795c1.267,0,2.533,0,3.8,0l2.45-3.795l-4.298-4.686L420.99,103.361z"/>
			<polygon fill="#9C3421" points="423.439,107.156 420.65,126.797 425.845,137.959 429.992,126.537 427.239,107.156 			"/>
			<path fill="#E5E5E5" d="M435.455,86.023l0.697,3.381l-2.325,18.148l-8.436-8.877L435.455,86.023z"/>
			<path fill="#FFFFFF" d="M415.225,86.023l-0.884,3.109l2.476,16.203l8.61-6.623L415.225,86.023z"/>
			<path fill="#FFFFFF" d="M435.455,86.023l0.697,3.059l-2.325,16.418l-8.401-6.787L435.455,86.023z"/>
			<polygon fill="#304D66" points="435.844,88.285 437.046,93.621 426.111,136.881 444.683,108.516 438.945,104.451 
				446.707,100.965 439.031,89.773 			"/>
			<polygon fill="#497193" points="435.844,88.285 435.531,91.807 426.111,136.881 442.919,107.957 437.181,103.893 
				444.942,100.408 439.031,89.773 			"/>
			<polygon fill="#304D66" points="415.542,88.285 414.341,93.621 425.274,136.881 406.703,108.516 412.439,104.451 
				404.679,100.965 412.354,89.773 			"/>
			<polygon fill="#497193" stroke="#497193" stroke-width="0.216" stroke-miterlimit="22.9256" points="415.542,88.285 
				415.854,91.807 425.274,136.881 408.467,107.957 414.204,103.893 406.443,100.408 412.354,89.773 			"/>
		</g>
	</g>
	<g>
		<g>
			<path fill="#D56C2B" d="M44.802,95.62c-1.654-2.22-0.555-4.351,1.943-5.762c3.6-2.035,2.699-5.217-1.741-7.251
				c-4.44-2.034-5.279-8.145-0.6-11.513c4.681-3.37,5.878-6.073,2.576-10.653c-3.302-4.58-0.824-12.336,4.216-13.352
				c5.041-1.018,4.28-1.615,5.355-5.646c1.872-7.01,9.939-12.36,14.26-7.779c6.177-7.562,20.066-1.79,22.581,5.205
				c2.665,7.412,5.076,7.338,9.037,9.386c3.961,2.049,5.255,11.289,2.251,15.142c-3.974,5.098-1.786,7.37,3.074,9.787
				c4.859,2.416,3.67,5.982-0.2,7.983c-3.869,2.001-6.271,5.575-2.67,7.61c2.636,1.49,3.413,3.615,2.397,6.859
				C102.468,111.016,58.167,113.552,44.802,95.62z"/>
			<path fill="#FBD9BD" d="M63.963,233.357c-2.929,4.238-6.83,6.679-7.804,9.736c-0.552,1.729-0.143,3.916,1.615,4.135
				c7.562,0.936,9.759-2.779,12.451-3.535c4.654-1.305,4.774-3.981,2.891-10.336C71.234,227.002,66.321,229.391,63.963,233.357z"/>
			<path fill="#FBD9BD" d="M59.548,152.777h34.599l-4.415,80.581h-9.153l-1.862-61.289c-0.147-4.857-3.589-4.887-3.737,0
				l-1.862,61.289h-9.153L59.548,152.777z"/>
			<path fill="#FBD9BD" d="M88.585,102.64l9.279,34.158c1.109,4.084,9.72,0.062,9.079-3.748l-5.611-33.42
				C99.195,89.785,86.079,93.41,88.585,102.64z"/>
			<path fill="#E2687F" d="M104.448,112.82l-1.565-12.154c-0.955-7.417-8.852-8.541-11.988-4.834l0.791,12.938l1.614,6.457
				L104.448,112.82z"/>
			<path fill="#FBD9BD" d="M65.218,102.64l-9.278,34.158c-1.109,4.084-9.72,0.062-9.08-3.748l5.611-33.42
				C54.608,89.785,67.724,93.41,65.218,102.64z"/>
			<path fill="#E2687F" d="M49.356,112.82l1.564-12.154c0.955-7.417,8.852-8.541,11.987-4.834l-0.791,12.938l-1.614,6.457
				L49.356,112.82z"/>
			<path fill="#FBD9BD" d="M57.356,157.484L57.356,157.484c0.335-0.226,0.752,0.227,0.781,0.621l0.437,5.84
				c0.029,0.396-0.35,0.592-0.684,0.815l0,0c-0.334,0.226-0.751-0.226-0.781-0.62l-0.437-5.841
				C56.643,157.905,56.954,157.538,57.356,157.484z"/>
			<path fill="#FBD9BD" d="M58.153,159.98l-0.19-2.512l-8.297,1.194l0.19,2.511C50.659,168.736,59.095,169.162,58.153,159.98z"/>
			<path fill="#FBD9BD" d="M58.053,158.21l-1.793-24.122c-1.549-6.392-9.062-5.879-9.397-0.193l2.968,25.474L58.053,158.21z"/>
			<polygon fill="#FF93A7" points="97.443,93.777 94.147,152.777 76.566,152.777 59.548,152.777 56.252,93.777 			"/>
			<polygon fill="#4E6078" points="58.815,139.651 60.83,176.157 92.776,176.157 94.875,139.727 			"/>
			<path fill="#FBD9BD" d="M89.752,233.357c2.929,4.238,6.831,6.679,7.804,9.736c0.551,1.729,0.142,3.916-1.615,4.135
				c-7.563,0.936-9.759-2.779-12.452-3.535c-4.655-1.305-4.774-3.981-2.892-10.336C82.481,227.002,87.395,229.391,89.752,233.357z"
				/>
			<path fill="#E2687F" d="M58.615,239.425c-1.138,1.231-2.05,2.397-2.455,3.67c-1.382,4.335,2.254,4.538,5.467,4.208
				c4.585-0.474,6.432-3.001,8.6-3.607c4.182-1.174,4.703-3.453,3.4-8.512c-0.179,4.412-7.146,7.26-8.891,7.787
				C62.991,243.497,58.944,241.143,58.615,239.425z"/>
			<path fill="#E2687F" d="M95.104,239.425c1.138,1.231,2.049,2.397,2.455,3.67c1.474,4.624-2.919,4.638-6.205,4.11
				c-4.054-0.648-5.815-2.938-7.862-3.512c-4.182-1.172-4.704-3.452-3.401-8.512c0.179,4.413,7.175,7.659,8.994,7.788
				C90.906,243.1,95.701,239.961,95.104,239.425z"/>
			<polygon fill="#FF93A7" points="66.316,93.777 76.847,103.321 86.801,93.646 96.479,111.04 57.18,110.392 			"/>
			
				<ellipse transform="matrix(-0.9189 -0.3946 0.3946 -0.9189 161.2424 167.8484)" fill="#FBD9BD" cx="97.878" cy="67.347" rx="3.297" ry="5.702"/>
			<path fill="#FBD9BD" d="M84.858,73.058v23.166c-2.199,2.103-4.611,4.526-8.01,7.098c-2.887-2.183-5.772-5.115-7.968-7.098V73.058
				C68.88,62.489,84.858,62.489,84.858,73.058z"/>
			<path fill="#ECC2A0" d="M84.858,73.058v13.104c-3.023,2.365-5.938,3.69-7.989,3.69c-2.051,0-4.966-1.325-7.988-3.689V73.058
				C68.88,62.489,84.858,62.489,84.858,73.058z"/>
			<path fill="#FBD9BD" d="M76.87,86.596c-5.202,0-16.19-8.177-19.587-19.889c-3.43-11.826,3.029-28.789,19.587-28.789
				c16.556,0,23.017,16.962,19.586,28.789C93.058,78.419,82.071,86.596,76.87,86.596z"/>
			<path fill="#FF386A" d="M70.603,74.805c2.651-2.564,4.718-0.641,6.266-0.641c1.548,0,3.615-1.924,6.266,0.641
				C81.71,81.572,72.493,81.781,70.603,74.805z"/>
			<path fill="#FFFFFF" d="M71.417,75.155c1.449-0.37,8.828-0.445,10.903-0.081C80.607,78.229,72.868,78.047,71.417,75.155z"/>
			<path fill="#FF386A" d="M70.603,74.805c2.65-2.564,4.718-0.641,6.267-0.641c1.547,0,3.614-1.924,6.265,0.641
				C79.082,76.802,73.332,75.869,70.603,74.805z"/>
			<path fill="#D56C2B" d="M93.738,78.27c-3.991,7.492,16.048-18.937-1.214-36.471C82.218,31.33,65.14,32.062,58.465,43.686
				c3.267,4.947,10.256,9.366,18.446,9.195c13.924-0.29-1.079,8.469,10.264,9.963c8.259,1.088,6.647,2.585,2.61,7.101
				C86.958,73.106,87.758,77.225,93.738,78.27z"/>
			
				<ellipse transform="matrix(-0.9188 0.3946 -0.3946 -0.9188 134.4444 107.0501)" fill="#FBD9BD" cx="56.214" cy="67.35" rx="3.297" ry="5.702"/>
			<path fill="#D56C2B" d="M66.208,43.922c-1.554,6.383,1.028,11.354-4.236,11.978c-6.851,0.812-3.59,5.116-4.118,10.401
				C54.071,61.588,52.851,40.644,66.208,43.922z"/>
			<polygon fill="#E2687F" points="80.679,96.024 76.847,103.321 89.465,93.777 86.801,90.847 			"/>
			<polygon fill="#E2687F" points="73.016,96.024 76.847,103.321 64.231,93.777 66.895,90.847 			"/>
			<path fill="#FFFFFF" d="M66.895,90.847l-2.664,2.931l2.548,11.026l6.237-8.779L66.895,90.847L66.895,90.847z M86.801,90.847
				l2.664,2.931l-2.548,11.026l-6.238-8.779L86.801,90.847z"/>
			<path fill="#E2687F" d="M66.845,242.305c-0.022-0.138-0.072-0.291-0.145-0.457c-0.427-0.965-1.521-2.043-2.827-2.852
				c-1.257-0.775-2.921-1.271-4.035-1.122c0.577-0.597,1.177-1.22,1.773-1.888c1.062,0.229,2.399,0.697,3.376,1.301
				c1.634,1.01,3.036,2.434,3.625,3.77c0.136,0.308,0.232,0.619,0.283,0.932L66.845,242.305z"/>
			<path fill="#E2687F" d="M86.966,242.305c0.022-0.138,0.073-0.291,0.146-0.457c0.426-0.965,1.521-2.043,2.827-2.852
				c1.256-0.775,2.921-1.271,4.035-1.122c-0.577-0.597-1.177-1.22-1.773-1.888c-1.062,0.229-2.399,0.697-3.377,1.301
				c-1.634,1.01-3.035,2.434-3.625,3.77c-0.135,0.308-0.231,0.619-0.283,0.932L86.966,242.305z"/>
			<path fill="#FBD9BD" d="M96.447,157.484L96.447,157.484c-0.334-0.226-0.752,0.227-0.781,0.621l-0.437,5.84
				c-0.029,0.396,0.35,0.592,0.684,0.815h0.001c0.333,0.226,0.751-0.226,0.781-0.62l0.437-5.841
				C97.161,157.905,96.851,157.538,96.447,157.484z"/>
			<path fill="#FBD9BD" d="M95.65,159.98l0.191-2.512l8.297,1.194l-0.19,2.511C103.145,168.736,94.708,169.162,95.65,159.98z"/>
			<path fill="#FBD9BD" d="M95.75,158.21l1.793-24.122c1.55-6.392,9.062-5.879,9.398-0.193l-2.969,25.474L95.75,158.21z"/>
		</g>
	</g>
	<g>
		<g>
			<path fill="#FBD9BD" d="M322.477,101.358l9.819,34.025c1.251,4.334,5.82,6.857,10.154,5.605l0,0
				c4.334-1.251,6.856-5.82,5.604-10.154l-9.817-34.024C335.384,86.927,319.771,91.984,322.477,101.358z"/>
			<path fill="#8599B4" d="M291.167,230.286c-3.92,5.836-9.14,9.192-10.442,13.403c-2.106,6.802,5.475,6.809,9.935,5.527
				c4.179-1.199,6.474-4.005,8.89-4.701c6.229-1.797,6.389-5.481,3.868-14.229S294.32,224.825,291.167,230.286z"/>
			<path fill="#8599B4" d="M326.744,230.286c3.919,5.836,9.139,9.192,10.441,13.403c2.146,6.931-5.846,6.72-10.185,5.437
				c-4.11-1.217-6.245-3.919-8.638-4.608c-6.229-1.797-6.39-5.482-3.869-14.23C317.014,221.539,323.59,224.825,326.744,230.286z"/>
			<path fill="#E7962D" d="M287.057,154.9h44.075v80.263h-18.307v-58.286c0-5.002-7.462-5.032-7.462,0v58.286h-18.309V154.9H287.057
				z"/>
			<path fill="#A5B7CE" d="M281.3,242.458c-0.229,0.444-0.419,0.894-0.562,1.354c-2.112,6.823,5.099,6.686,9.517,5.621
				c4.624-1.111,6.771-4.062,9.307-4.795c3.343-0.965,4.937-2.473,5.31-5.013c-3.545,2.758-8.907,5.017-14.594,6.888
				C287.857,243.833,284.363,242.501,281.3,242.458z"/>
			<path fill="#A5B7CE" d="M288.891,235.109c0.305,0.095,0.592,0.214,0.856,0.353l0.078-0.006c1.707-0.136,3.468,0.026,4.759,0.74
				c0.252,0.137,0.344,0.452,0.206,0.704c-0.14,0.252-0.455,0.345-0.707,0.205c-0.81-0.444-1.873-0.635-2.992-0.651
				c0.708,0.694,1.214,1.504,1.609,2.185c0.188,0.155,0.245,0.43,0.123,0.649c-0.138,0.252-0.454,0.344-0.705,0.206
				c-0.791-0.438-1.761-0.688-2.763-0.796c0.67,0.71,1.15,1.508,1.527,2.157c0.145,0.248,0.059,0.566-0.189,0.711
				c-0.247,0.144-0.565,0.06-0.709-0.188c-0.289-0.498-0.645-1.09-1.096-1.639v-2.122c0.725,0.044,1.447,0.15,2.129,0.335
				c-0.276-0.369-0.596-0.729-0.967-1.039c-0.165-0.14-0.342-0.269-0.531-0.384c-0.213,0.021-0.424,0.05-0.631,0.08v-1.5H288.891z
				 M283.747,239.583c-0.229,0.169-0.558,0.119-0.726-0.11c-0.17-0.232-0.121-0.56,0.11-0.729c0.407-0.299,1.042-0.562,1.81-0.766
				l-0.014,0.002c-0.15,0.015-0.293-0.039-0.396-0.133c-0.054-0.035-0.103-0.078-0.142-0.133c-0.17-0.23-0.121-0.557,0.111-0.727
				c0.505-0.371,1.441-0.762,2.572-1.062c-0.082,0.003-0.166,0.009-0.25,0.017c-0.285,0.026-0.539-0.185-0.564-0.469
				c-0.025-0.285,0.186-0.539,0.471-0.564c0.816-0.074,1.529,0.008,2.158,0.199v1.5c-0.772,0.115-1.504,0.285-2.129,0.481
				c0.446,0.117,0.852,0.289,1.221,0.502c0.302-0.003,0.604,0.005,0.908,0.022v2.121c-0.217-0.262-0.455-0.514-0.719-0.739
				c-0.15-0.129-0.309-0.25-0.479-0.361C285.98,238.691,284.432,239.082,283.747,239.583z"/>
			<path fill="#A5B7CE" d="M336.608,242.395c0.229,0.442,0.418,0.893,0.561,1.354c2.113,6.822-5.164,6.684-9.581,5.621
				c-4.624-1.112-6.704-4.064-9.242-4.796c-3.341-0.964-4.935-2.472-5.308-5.013c3.545,2.758,8.907,5.018,14.592,6.889
				C330.05,243.77,333.545,242.436,336.608,242.395z"/>
			<path fill="#A5B7CE" d="M334.161,239.518c0.229,0.17,0.557,0.119,0.726-0.111s0.119-0.557-0.111-0.727
				c-0.406-0.299-1.041-0.562-1.809-0.765l0.012,0.002c0.151,0.015,0.295-0.039,0.397-0.135c0.053-0.033,0.102-0.078,0.142-0.134
				c0.17-0.229,0.119-0.556-0.111-0.726c-0.506-0.37-1.442-0.761-2.572-1.062c0.082,0.004,0.166,0.01,0.25,0.018
				c0.285,0.025,0.538-0.186,0.564-0.47c0.024-0.285-0.187-0.538-0.472-0.563c-0.815-0.074-1.529,0.008-2.158,0.198v1.501
				c0.772,0.115,1.505,0.285,2.13,0.48c-0.447,0.117-0.853,0.291-1.222,0.502c-0.301-0.002-0.604,0.006-0.908,0.022v2.123
				c0.218-0.263,0.455-0.515,0.72-0.741c0.149-0.129,0.31-0.25,0.479-0.359C331.927,238.627,333.478,239.018,334.161,239.518z
				 M329.019,235.045c-0.306,0.094-0.592,0.213-0.857,0.354l-0.078-0.008c-1.706-0.136-3.468,0.028-4.759,0.739
				c-0.251,0.14-0.344,0.455-0.205,0.707c0.139,0.251,0.455,0.343,0.707,0.205c0.809-0.446,1.873-0.635,2.992-0.653
				c-0.708,0.696-1.213,1.506-1.609,2.186c-0.188,0.156-0.246,0.428-0.123,0.65c0.138,0.252,0.453,0.344,0.705,0.205
				c0.791-0.437,1.76-0.688,2.762-0.796c-0.669,0.709-1.149,1.509-1.526,2.157c-0.146,0.249-0.061,0.566,0.188,0.71
				c0.249,0.146,0.566,0.06,0.71-0.188c0.289-0.498,0.645-1.09,1.096-1.638v-2.123c-0.724,0.046-1.446,0.152-2.129,0.337
				c0.277-0.371,0.597-0.729,0.967-1.039c0.166-0.14,0.343-0.269,0.531-0.386c0.213,0.022,0.425,0.052,0.631,0.082L329.019,235.045
				L329.019,235.045z"/>
			<path fill="#FBD9BD" d="M295.57,101.358l-9.819,34.025c-1.25,4.334-5.819,6.857-10.153,5.605l0,0
				c-4.334-1.251-6.857-5.82-5.605-10.154l9.818-34.024C282.663,86.927,298.276,91.984,295.57,101.358z"/>
			<path fill="#FBD9BD" d="M283.053,160.618L283.053,160.618c1.098,0.022,1.975,0.938,1.95,2.036l-0.104,4.838
				c-0.023,1.097-0.939,1.974-2.035,1.949h-0.002c-1.096-0.023-1.973-0.939-1.949-2.037l0.105-4.838
				C281.04,161.473,281.956,160.595,283.053,160.618z"/>
			<path fill="#FBD9BD" d="M285.003,162.654l0.019-2.68l-7.264-2.58l-8.798,2.33l-0.017,2.681
				C268.854,174.247,284.915,176.352,285.003,162.654z"/>
			<path fill="#FBD9BD" d="M285.021,159.975l0.508-25.625c0.088-4.509-3.639-8.226-8.15-8.255l0,0
				c-4.511-0.029-8.225,3.639-8.254,8.149l-0.164,25.48L285.021,159.975z"/>
			<path fill="#497193" d="M330.86,91.437h-43.675c-3.172-0.082-6.256,1.494-7.377,5.374l-6.043,20.944l13.289,3.606v39.569h44.076
				v-39.606l13.149-3.568l-6.044-20.944C337.117,92.931,334.032,91.354,330.86,91.437z"/>
			<g>
				<rect x="287.057" y="155.792" fill="#779AB9" width="44.075" height="2.769"/>
				<rect x="287.057" y="150.009" fill="#779AB9" width="44.075" height="2.768"/>
				<rect x="287.057" y="144.226" fill="#779AB9" width="44.075" height="2.768"/>
				<rect x="287.057" y="138.442" fill="#779AB9" width="44.075" height="2.768"/>
				<rect x="287.057" y="132.659" fill="#779AB9" width="44.075" height="2.768"/>
				<rect x="287.057" y="126.876" fill="#779AB9" width="44.075" height="2.768"/>
				<polygon fill="#779AB9" points="286.066,121.093 331.98,121.093 331.132,121.323 331.132,123.86 287.057,123.86 
					287.057,121.361 				"/>
				<polygon fill="#779AB9" points="274.473,115.31 343.575,115.31 344.281,117.755 343.095,118.077 274.952,118.077 
					273.766,117.755 				"/>
				<polygon fill="#779AB9" points="276.141,109.526 341.907,109.526 342.705,112.294 275.342,112.294 				"/>
				<polygon fill="#779AB9" points="277.811,103.743 340.237,103.743 341.036,106.511 277.011,106.511 				"/>
				<polygon fill="#779AB9" points="279.479,97.96 338.569,97.96 339.367,100.728 278.682,100.728 				"/>
				<path fill="#779AB9" d="M283.54,92.177h50.967c1.179,0.567,2.208,1.475,2.949,2.768h-56.865
					C281.332,93.651,282.361,92.744,283.54,92.177z"/>
			</g>
			<path fill="#FBD9BD" d="M309.094,58.677L309.094,58.677c-5.474,0-9.953,4.479-9.953,9.953v22.807
				c0,5.475,4.479,9.953,9.953,9.953l0,0c5.476,0,9.954-4.479,9.954-9.953V68.63C319.048,63.155,314.568,58.677,309.094,58.677z"/>
			<path fill="#FBD9BD" d="M334.995,160.618h-0.002c-1.097,0.022-1.974,0.938-1.949,2.036l0.105,4.838
				c0.022,1.097,0.938,1.974,2.034,1.949h0.001c1.098-0.023,1.975-0.939,1.95-2.037l-0.104-4.838
				C337.007,161.473,336.091,160.595,334.995,160.618z"/>
			<path fill="#FBD9BD" d="M333.044,162.654l-0.018-2.68l7.263-2.58l8.798,2.33l0.017,2.681
				C349.195,174.247,333.132,176.352,333.044,162.654z"/>
			<path fill="#FBD9BD" d="M333.026,159.975l-0.509-25.625c-0.089-4.509,3.64-8.226,8.15-8.255l0,0
				c4.511-0.029,8.225,3.639,8.254,8.149l0.164,25.48L333.026,159.975z"/>
			<path fill="#ECC2A0" d="M318.913,73.794v15.008c-3.715,2.709-7.297,4.227-9.818,4.227c-2.521,0-6.104-1.518-9.817-4.227V73.794
				C299.276,61.69,318.913,61.69,318.913,73.794z"/>
			<path fill="#FBD9BD" d="M309.095,33.548c-32.956,0-21.104,39.822-18.952,42.992c2.375,3.495,13.629,12.76,18.952,12.76
				c5.324,0,16.578-9.265,18.951-12.76C330.199,73.37,342.051,33.548,309.095,33.548z"/>
			<path fill="#ECC2A0" d="M298.528,73.056c2.765,2.169,18.369,2.049,21.133,0C317.259,84.467,301.714,84.817,298.528,73.056z"/>
			<path fill="#FFFFFF" d="M301.812,75.116c1.905,1.139,12.66,1.076,14.565,0C314.722,81.107,304.007,81.292,301.812,75.116z"/>
			
				<ellipse transform="matrix(-0.9498 0.3129 -0.3129 -0.9498 576.5519 34.0879)" fill="#FBD9BD" cx="285.541" cy="63.302" rx="3.298" ry="5.701"/>
			
				<ellipse transform="matrix(-0.9498 -0.3128 0.3128 -0.9498 628.6151 227.4751)" fill="#FBD9BD" cx="332.554" cy="63.314" rx="3.297" ry="5.701"/>
			<path fill="#FFC55D" d="M291.32,54.189c-1.961,2.428-3.174,4.259-3.605,11.905c-1.578-9.552-4.199-22.988,2.114-31.639
				c4.297-5.889,26.052-12.879,35.007-2.447c15.085,0.223,7.849,27.053,6.979,32.384c-0.564-12.271-7.117-10.853-10.457-19.861
				C316.827,47.696,307.827,53.413,291.32,54.189z"/>
			<path fill="#27557D" d="M318.661,69.451c0.213-0.003,0.433-0.013,0.66-0.03c4.988-0.392,6.143-2.472,6.61-5.1
				c0.516-2.885,0.521-3.889,1.314-4.156c0.582-0.196,0.703-0.842,0.658-1.592c-0.047-0.751-0.076-0.832-1.064-1.146
				c-0.771-0.244-4.998-0.596-8.18-0.418v0.778c2.496-0.122,4.906,0.157,5.62,0.575c1.642,0.962,1.337,5.605,0.065,7.907
				c-0.896,1.624-3.42,2.441-5.687,2.45v0.732H318.661z M309.058,58.538c-1.104,0.027-5.66-1.178-8.883-1.434
				c-0.205-0.016-0.416-0.029-0.632-0.04v0.777c2.597,0.114,5.282,0.661,6.249,1.942c1.598,2.115-0.951,7.292-3.377,8.447
				c-0.764,0.363-1.789,0.545-2.872,0.542v0.731c4.421,0.061,5.938-2.872,6.442-3.846c0.939-1.814,0.643-4.311,3.115-4.318
				c2.475-0.006,2.233,2.447,3.186,4.256c0.508,0.968,1.992,3.917,6.375,3.854V68.72c-1.067,0.004-2.078-0.172-2.834-0.526
				c-2.434-1.142-5.01-6.303-3.426-8.429c0.963-1.29,3.657-1.852,6.26-1.978v-0.778c-0.226,0.013-0.443,0.028-0.656,0.047
				C315.122,57.3,311.655,58.474,309.058,58.538z M299.543,57.064c-3.186-0.163-7.432,0.213-8.203,0.464
				c-0.986,0.319-1.015,0.4-1.057,1.151c-0.042,0.751,0.083,1.396,0.667,1.588c0.796,0.263,0.806,1.269,1.338,4.149
				c0.483,2.624,1.647,4.698,6.641,5.062c0.211,0.015,0.416,0.023,0.614,0.026v-0.731c-2.255-0.005-4.76-0.808-5.66-2.417
				c-1.281-2.295-1.611-6.938,0.021-7.908c0.714-0.424,3.135-0.717,5.639-0.606V57.064z"/>
		</g>
	</g>
	<g>
		<g>
			<path fill="#8599B4" d="M174.824,228.073c-3.919,5.837-9.139,9.194-10.443,13.405c-2.114,6.823,5.034,6.489,9.451,5.427
				c4.624-1.112,6.834-3.869,9.373-4.601c6.229-1.799,6.389-5.482,3.869-14.231C184.554,219.325,177.979,222.611,174.824,228.073z"
				/>
			<path fill="#8599B4" d="M209.333,228.073c3.919,5.837,9.14,9.194,10.444,13.405c2.267,7.318-6.292,6.512-10.64,5.09
				c-3.835-1.254-5.874-3.599-8.184-4.265c-6.229-1.798-6.389-5.481-3.87-14.23C199.604,219.325,206.179,222.611,209.333,228.073z"
				/>
			<path fill="#425156" d="M170.713,152.688h44.077v80.264h-18.308v-58.286c0-5.003-7.461-5.032-7.461,0v58.286h-18.308V152.688z"/>
			<path fill="#FBD9BD" d="M218.428,157.993L218.428,157.993c-1.097-0.003-1.995,0.893-1.997,1.989l-0.009,4.838
				c-0.002,1.098,0.893,1.996,1.988,1.998h0.002c1.096,0.002,1.994-0.894,1.997-1.989l0.009-4.839
				C220.42,158.895,219.525,157.995,218.428,157.993z"/>
			<path fill="#FBD9BD" d="M216.43,159.982l0.047-2.68l16.062,0.131l-0.046,2.678C232.303,171.953,216.195,173.678,216.43,159.982z"
				/>
			<path fill="#E72C4F" d="M216.477,157.305l0.098-25.632c0.018-4.509,3.832-8.136,8.342-8.06l0,0
				c4.512,0.078,8.138,3.832,8.061,8.342l-0.438,25.479L216.477,157.305z"/>
			<polygon fill="#CB1A3B" points="232.537,157.434 232.598,153.95 216.49,153.811 216.477,157.305 			"/>
			<path fill="#E72C4F" d="M179.915,99.66l-11.818,33.384c-1.505,4.252-6.216,6.5-10.469,4.994l0,0
				c-4.253-1.506-6.5-6.216-4.995-10.469l11.818-33.384C167.884,84.488,183.17,90.463,179.915,99.66z"/>
			<path fill="#FBD9BD" d="M166.7,157.993L166.7,157.993c1.098-0.003,1.996,0.893,1.999,1.989l0.009,4.838
				c0.002,1.098-0.893,1.996-1.99,1.998h-0.001c-1.097,0.002-1.995-0.894-1.997-1.989l-0.009-4.839
				C164.709,158.895,165.604,157.995,166.7,157.993z"/>
			<path fill="#FBD9BD" d="M168.699,159.982l-0.046-2.68l-16.062,0.131l0.046,2.678
				C152.825,171.953,168.933,173.678,168.699,159.982z"/>
			<path fill="#E72C4F" d="M168.653,157.305l-0.098-25.632c-0.017-4.509-3.832-8.136-8.342-8.06l0,0
				c-4.51,0.078-8.137,3.832-8.059,8.342l0.438,25.479L168.653,157.305z"/>
			<polygon fill="#CB1A3B" points="152.591,157.434 152.531,153.95 168.639,153.811 168.653,157.305 			"/>
			<rect x="170.713" y="89.223" fill="#E72C4F" width="44.076" height="69.494"/>
			<path fill="#CB1A3B" d="M180.502,89.223h24.5v1.54c0,6.737-5.513,12.249-12.25,12.249l0,0c-6.737,0-12.25-5.512-12.25-12.249
				V89.223z"/>
			<path fill="#FBD9BD" d="M192.751,56.464L192.751,56.464c5.475,0,9.954,4.479,9.954,9.953v22.807c0,5.475-4.479,9.953-9.954,9.953
				l0,0c-5.475,0-9.954-4.479-9.954-9.953V66.417C182.798,60.943,187.277,56.464,192.751,56.464z"/>
			<path fill="#A0B1C8" d="M164.941,240.125c-0.229,0.443-0.418,0.895-0.561,1.354c-2.114,6.824,5.034,6.49,9.451,5.428
				c4.624-1.112,6.834-3.869,9.373-4.602c3.341-0.965,4.936-2.472,5.307-5.012c-3.544,2.757-8.907,5.018-14.592,6.887
				C171.501,241.5,168.005,240.168,164.941,240.125z"/>
			<path fill="#A0B1C8" d="M172.531,232.777c0.306,0.094,0.591,0.212,0.858,0.352l0.078-0.006c1.706-0.137,3.468,0.027,4.758,0.738
				c0.251,0.14,0.343,0.455,0.205,0.707c-0.138,0.252-0.454,0.344-0.706,0.205c-0.81-0.445-1.873-0.635-2.992-0.652
				c0.708,0.695,1.212,1.504,1.609,2.184c0.188,0.156,0.245,0.43,0.123,0.65c-0.138,0.252-0.455,0.344-0.707,0.206
				c-0.79-0.437-1.758-0.687-2.76-0.796c0.668,0.71,1.15,1.509,1.527,2.158c0.144,0.248,0.059,0.565-0.189,0.709
				c-0.248,0.145-0.566,0.061-0.709-0.188c-0.289-0.498-0.644-1.09-1.096-1.638v-2.122c0.723,0.044,1.447,0.151,2.128,0.335
				c-0.277-0.369-0.595-0.729-0.966-1.039c-0.166-0.139-0.342-0.268-0.532-0.384c-0.212,0.021-0.423,0.05-0.63,0.081v-1.5H172.531z
				 M167.39,237.25c-0.232,0.169-0.557,0.119-0.727-0.111c-0.17-0.231-0.119-0.558,0.112-0.728c0.406-0.298,1.041-0.563,1.808-0.765
				l-0.012,0.002c-0.151,0.014-0.293-0.039-0.397-0.135c-0.054-0.033-0.102-0.078-0.142-0.132c-0.169-0.231-0.12-0.557,0.112-0.728
				c0.506-0.37,1.442-0.762,2.572-1.062c-0.082,0.005-0.165,0.011-0.25,0.019c-0.285,0.024-0.538-0.186-0.563-0.471
				c-0.025-0.285,0.185-0.537,0.47-0.562c0.816-0.075,1.53,0.007,2.158,0.197v1.5c-0.772,0.115-1.503,0.285-2.128,0.481
				c0.446,0.117,0.852,0.29,1.221,0.503c0.301-0.003,0.604,0.004,0.908,0.022v2.122c-0.216-0.262-0.455-0.514-0.719-0.74
				c-0.149-0.129-0.308-0.25-0.478-0.361C169.623,236.359,168.072,236.749,167.39,237.25z"/>
			<path fill="#A0B1C8" d="M219.208,240.125c0.229,0.443,0.419,0.895,0.562,1.354c2.113,6.824-5.034,6.49-9.451,5.428
				c-4.624-1.112-6.835-3.869-9.373-4.602c-3.341-0.965-4.935-2.472-5.307-5.012c3.545,2.757,8.907,5.018,14.593,6.887
				C212.648,241.5,216.145,240.168,219.208,240.125z"/>
			<path fill="#A0B1C8" d="M216.76,237.25c0.232,0.169,0.558,0.119,0.727-0.111c0.17-0.231,0.119-0.558-0.111-0.728
				c-0.406-0.298-1.041-0.563-1.809-0.765l0.012,0.002c0.151,0.014,0.294-0.039,0.397-0.135c0.054-0.033,0.102-0.078,0.142-0.132
				c0.17-0.231,0.119-0.557-0.111-0.728c-0.506-0.37-1.443-0.762-2.572-1.062c0.082,0.005,0.165,0.011,0.25,0.019
				c0.285,0.024,0.537-0.186,0.563-0.471c0.025-0.285-0.185-0.537-0.471-0.562c-0.815-0.075-1.53,0.007-2.157,0.197v1.5
				c0.771,0.115,1.502,0.285,2.127,0.481c-0.445,0.117-0.851,0.29-1.22,0.503c-0.301-0.003-0.604,0.004-0.907,0.022v2.122
				c0.216-0.262,0.454-0.514,0.719-0.74c0.149-0.129,0.309-0.25,0.478-0.361C214.526,236.359,216.077,236.749,216.76,237.25z
				 M211.619,232.777c-0.307,0.094-0.592,0.212-0.859,0.352l-0.078-0.006c-1.706-0.137-3.468,0.027-4.758,0.738
				c-0.252,0.14-0.344,0.455-0.206,0.707c0.138,0.252,0.455,0.344,0.706,0.205c0.809-0.445,1.874-0.635,2.992-0.652
				c-0.708,0.695-1.212,1.504-1.609,2.184c-0.188,0.156-0.245,0.43-0.124,0.65c0.138,0.252,0.455,0.344,0.707,0.206
				c0.791-0.437,1.759-0.687,2.762-0.796c-0.67,0.71-1.151,1.509-1.528,2.158c-0.145,0.248-0.059,0.565,0.189,0.709
				c0.249,0.145,0.566,0.061,0.71-0.188c0.289-0.497,0.643-1.089,1.096-1.638v-2.122c-0.724,0.044-1.447,0.151-2.129,0.335
				c0.277-0.369,0.595-0.729,0.965-1.039c0.166-0.139,0.343-0.268,0.533-0.384c0.213,0.021,0.423,0.05,0.631,0.081V232.777
				L211.619,232.777z"/>
			<path fill="#E72C4F" d="M205.215,99.66l11.818,33.384c1.506,4.252,6.217,6.5,10.469,4.994l0,0
				c4.252-1.506,6.5-6.216,4.994-10.469l-11.818-33.384C217.246,84.488,201.959,90.463,205.215,99.66z"/>
			<rect x="170.713" y="115.094" fill="#CB1A3B" width="44.076" height="13.649"/>
			<path fill="#F6C4A9" d="M202.705,71.681V86.69c-3.767,2.708-7.397,4.227-9.953,4.227c-2.557,0-6.188-1.519-9.953-4.227V71.681
				C182.799,59.576,202.705,59.576,202.705,71.681z"/>
			
				<ellipse transform="matrix(-0.9498 0.3128 -0.3128 -0.9498 348.5528 61.2074)" fill="#FFDDCB" cx="169.367" cy="58.558" rx="3.298" ry="5.701"/>
			
				<ellipse transform="matrix(-0.9498 -0.3128 0.3128 -0.9498 403.5612 181.8766)" fill="#FFDDCB" cx="216.372" cy="58.562" rx="3.297" ry="5.701"/>
			<path fill="#F6C4A9" d="M181.5,70.941c3.041,2.17,20.205,2.05,23.246,0C202.104,82.354,185.004,82.705,181.5,70.941z"/>
			<path fill="#FBD9BD" d="M192.751,31.336c-32.956,0-21.104,39.821-18.952,42.991c2.374,3.495,13.627,12.762,18.952,12.762
				s16.578-9.266,18.952-12.762C213.856,71.157,225.707,31.336,192.751,31.336z"/>
			<path fill="#FFFFFF" d="M185.111,73.003c2.096,1.139,13.927,1.075,16.022,0C199.312,78.994,187.527,79.178,185.111,73.003z"/>
			<path fill="#E19C26" d="M227.023,61.562C217.9,61.131,215.182,57,214.476,46.25c-1.243-18.916-35.598-20.931-40.411-9.188
				c-10.682,9.438-2.823,34.458-2.823,28.101c0-6.356,1.993-11.822,4.802-16.572c3.49,7.256,11.32,13.82,19.556,13.104
				c-5.644-4.736-8.774-6.779-10.086-14.406C189.557,58.787,208.172,66.025,227.023,61.562z"/>
		</g>
	</g>
	<g enable-background="new    ">
		<path d="M46.886,287.46c0.6-1.279,1.329-3,2.19-5.16c0.86-2.16,1.81-4.47,2.85-6.93c1.04-2.46,2.16-4.95,3.36-7.47
			c1.2-2.521,2.4-4.779,3.6-6.78c0.279-0.2,0.52-0.24,0.72-0.12c0.2,0.12,0.38,0.3,0.54,0.54c1.04,1.92,2,4.101,2.88,6.54
			c0.879,2.44,1.68,4.9,2.4,7.38c0.2,0,0.399-0.01,0.6-0.03c0.2-0.02,0.399-0.029,0.6-0.029c0.28,0,0.48,0.08,0.6,0.239
			c0.12,0.161,0.16,0.341,0.12,0.54c-0.041,0.201-0.141,0.391-0.3,0.57c-0.161,0.18-0.36,0.291-0.6,0.33h-0.6
			c0.399,1.4,0.77,2.751,1.11,4.05c0.339,1.301,0.65,2.5,0.93,3.601c0.279,1.101,0.53,2.061,0.75,2.88
			c0.219,0.82,0.429,1.47,0.63,1.949c-0.081,0.641-0.38,0.99-0.9,1.051c-0.521,0.06-0.921-0.17-1.2-0.69
			c-0.44-2.119-0.9-4.229-1.38-6.33c-0.48-2.1-1.02-4.209-1.62-6.33c-1.76,0.201-3.58,0.471-5.46,0.811
			c-1.88,0.34-4.02,0.569-6.42,0.689c-0.72,1.641-1.431,3.28-2.13,4.92c-0.7,1.641-1.371,3.301-2.01,4.98
			c-0.201,0.24-0.39,0.351-0.57,0.33c-0.18-0.02-0.34-0.11-0.48-0.271c-0.141-0.159-0.23-0.359-0.27-0.6
			S46.807,287.66,46.886,287.46z M59.546,263.4c-1.08,2.279-2.17,4.55-3.27,6.81c-1.101,2.261-2.17,4.53-3.21,6.81
			c1.8-0.119,3.579-0.329,5.34-0.63c1.76-0.3,3.54-0.549,5.34-0.75c-0.6-2.079-1.25-4.14-1.95-6.18
			C61.096,267.42,60.346,265.4,59.546,263.4z"/>
		<path d="M71.485,262.44c0.081-0.52,0.34-0.86,0.78-1.021c0.44-0.159,0.7,0.081,0.78,0.72c0.08,4.761,0.3,9.48,0.66,14.16
			c0.36,4.681,0.58,9.4,0.66,14.16c-0.12,0.4-0.37,0.69-0.75,0.87c-0.38,0.18-0.65-0.011-0.81-0.57
			c-0.081-4.76-0.3-9.489-0.66-14.189C71.785,271.87,71.565,267.16,71.485,262.44z"/>
		<path d="M77.785,280.68c0.08-0.52,0.339-0.859,0.78-1.02c0.44-0.159,0.7,0.08,0.78,0.72c-0.041,1.641-0.15,3.25-0.33,4.83
			c-0.18,1.581-0.291,3.19-0.33,4.83c-0.12,0.4-0.37,0.69-0.75,0.87c-0.38,0.18-0.65-0.01-0.81-0.57c0.04-1.64,0.15-3.26,0.33-4.859
			S77.745,282.28,77.785,280.68z M79.945,273.6c-0.28,0.041-0.491,0-0.63-0.119c-0.141-0.12-0.21-0.271-0.21-0.45
			c0-0.181,0.05-0.36,0.15-0.54c0.1-0.181,0.25-0.33,0.45-0.45c0.2-0.439,0.489-0.69,0.87-0.75c0.379-0.06,0.609,0.19,0.69,0.75
			c-0.081,0.36-0.22,0.681-0.42,0.96C80.645,273.28,80.345,273.48,79.945,273.6z"/>
		<path d="M89.004,281.04c0.16,0.2,0.24,0.41,0.24,0.63c0,0.221-0.06,0.411-0.18,0.57c-0.12,0.16-0.28,0.27-0.48,0.33
			c-0.201,0.06-0.42,0.01-0.66-0.15l-1.26-1.14c-0.6,0-1.08,0.21-1.44,0.63s-0.63,0.91-0.81,1.47c-0.18,0.561-0.261,1.15-0.24,1.771
			c0.02,0.62,0.129,1.17,0.33,1.649c0.36,0.84,0.92,1.38,1.68,1.62c0.759,0.24,1.569,0.3,2.43,0.18
			c0.859-0.119,1.71-0.369,2.55-0.75c0.84-0.379,1.54-0.81,2.1-1.29c0.08-0.319,0.26-0.549,0.54-0.689
			c0.279-0.14,0.56-0.05,0.84,0.27l0.06,0.12c0.2,0.4,0.099,0.801-0.3,1.2c-0.52,0.48-1.101,0.88-1.74,1.2
			c-0.64,0.32-1.281,0.62-1.92,0.899c-0.6,0.24-1.191,0.431-1.77,0.57c-0.581,0.141-1.21,0.23-1.89,0.271
			c-1.32,0.04-2.301-0.271-2.94-0.931c-0.64-0.66-1.05-1.47-1.23-2.43s-0.16-1.97,0.06-3.03c0.219-1.06,0.51-1.97,0.87-2.729
			c0.12-0.24,0.33-0.5,0.63-0.78c0.3-0.279,0.63-0.52,0.99-0.72c0.36-0.2,0.729-0.32,1.11-0.36c0.379-0.039,0.709,0.061,0.99,0.3
			c0.279,0.201,0.53,0.411,0.75,0.63C88.534,280.57,88.765,280.8,89.004,281.04z"/>
		<path d="M102.744,279.36c0.68,0.64,1.11,1.25,1.29,1.83s0.169,1.13-0.03,1.649c-0.2,0.521-0.53,0.99-0.99,1.41
			c-0.46,0.42-0.99,0.761-1.59,1.02c-0.6,0.261-1.221,0.431-1.86,0.511c-0.64,0.08-1.221,0.04-1.74-0.12
			c0.32,2.16,1.28,3.43,2.88,3.81c1.6,0.381,3.62-0.409,6.06-2.37c0.279-0.199,0.51-0.279,0.69-0.239s0.31,0.13,0.39,0.27
			c0.08,0.141,0.099,0.32,0.06,0.54c-0.041,0.221-0.161,0.431-0.36,0.63c-1.041,0.84-2.09,1.53-3.15,2.07
			c-1.06,0.54-2.08,0.84-3.06,0.899c-0.98,0.061-1.89-0.18-2.73-0.72c-0.84-0.54-1.56-1.509-2.16-2.91
			c-0.24-0.6-0.39-1.419-0.45-2.46c-0.06-1.039,0.03-2.079,0.27-3.12c0.24-1.039,0.62-1.97,1.14-2.79
			c0.519-0.819,1.239-1.31,2.16-1.47c0.64-0.12,1.23,0.03,1.77,0.45S102.343,279.04,102.744,279.36z M98.063,281.28
			c-0.16,0.76-0.28,1.521-0.36,2.279c0.2,0.28,0.53,0.441,0.99,0.48c0.459,0.04,0.939,0,1.44-0.12c0.5-0.12,0.979-0.29,1.44-0.51
			c0.459-0.22,0.77-0.45,0.93-0.69c-0.081-0.52-0.32-1.06-0.72-1.62c-0.4-0.56-0.84-0.979-1.32-1.26
			c-0.48-0.279-0.951-0.339-1.41-0.18C98.593,279.82,98.263,280.36,98.063,281.28z"/>
	</g>
	<g enable-background="new    ">
		<path d="M171.845,264.12c-0.279-0.039-0.459-0.15-0.54-0.33c-0.08-0.18-0.09-0.369-0.03-0.57c0.06-0.199,0.18-0.38,0.36-0.54
			c0.18-0.159,0.39-0.239,0.63-0.239c0.321,0.04,0.61,0.06,0.87,0.06s0.51,0,0.75,0v-0.6c0.08-0.52,0.339-0.86,0.78-1.021
			c0.44-0.159,0.699,0.081,0.78,0.72v0.96l2.76,0.301c0.72,0.08,1.58,0.2,2.58,0.359c1,0.16,1.95,0.42,2.85,0.78
			c0.9,0.36,1.64,0.851,2.22,1.47c0.58,0.621,0.83,1.471,0.75,2.55c-0.081,0.562-0.38,1.121-0.9,1.681
			c-0.521,0.561-1.17,1.109-1.95,1.649c-0.78,0.54-1.62,1.071-2.52,1.591c-0.9,0.52-1.75,1.02-2.55,1.5
			c0.84,0.04,1.67,0.08,2.49,0.119c0.819,0.041,1.629,0.12,2.43,0.24c2.68,0.36,4.46,1.071,5.34,2.13
			c0.879,1.061,1.119,2.261,0.72,3.601c-0.4,1.341-1.29,2.71-2.67,4.109c-1.38,1.401-2.96,2.621-4.74,3.66
			c-1.78,1.041-3.63,1.791-5.55,2.25c-1.92,0.46-3.62,0.411-5.1-0.149c-0.519-0.2-0.919-0.55-1.2-1.051
			c-0.28-0.499-0.6-0.969-0.96-1.409c-0.2-0.399-0.18-0.78,0.06-1.141c0.24-0.359,0.581-0.439,1.02-0.24
			c0.321,0.36,0.621,0.75,0.9,1.171c0.28,0.42,0.621,0.79,1.02,1.109c0.561,0.4,1.26,0.601,2.1,0.601
			c-0.04-4.24-0.13-8.45-0.27-12.631c-0.141-4.179-0.25-8.39-0.33-12.63c-0.441,0-0.84,0-1.2,0S172.085,264.16,171.845,264.12z
			 M175.925,274.5v-0.06c0.759-0.561,1.549-1.08,2.37-1.561c0.819-0.479,1.629-0.97,2.43-1.47c0.8-0.5,1.56-1.029,2.28-1.59
			c0.72-0.56,1.38-1.18,1.98-1.86c-0.12-0.64-0.49-1.189-1.11-1.65c-0.621-0.459-1.39-0.819-2.31-1.079
			c-0.92-0.26-1.92-0.46-3-0.601c-1.08-0.14-2.1-0.249-3.06-0.33L175.925,274.5z M176.105,289.2c0,0.04-0.021,0.08-0.06,0.12
			c1.32-0.24,2.72-0.77,4.2-1.59c1.479-0.82,2.84-1.771,4.08-2.851c1.239-1.08,2.259-2.199,3.06-3.36
			c0.799-1.159,1.179-2.199,1.14-3.119c-0.84-0.64-1.78-1.12-2.82-1.44c-1.041-0.319-2.121-0.54-3.24-0.66
			c-1.121-0.12-2.25-0.18-3.39-0.18s-2.211,0-3.21,0h-0.06c0.08,2.2,0.14,4.38,0.18,6.54
			C176.024,284.82,176.065,287.001,176.105,289.2z"/>
		<path d="M193.745,279.78c0.32-0.08,0.74-0.1,1.26-0.061c0.52,0.041,1.05,0.12,1.59,0.24s1.05,0.28,1.53,0.48s0.84,0.44,1.08,0.72
			c0.879,1.16,1.25,2.31,1.11,3.45c-0.141,1.14-0.58,2.11-1.32,2.909c-0.741,0.801-1.69,1.351-2.85,1.65
			c-1.161,0.3-2.32,0.171-3.48-0.39c-0.321-0.159-0.63-0.3-0.93-0.42c-0.3-0.12-0.57-0.301-0.81-0.54
			c-0.4-0.399-0.591-1.051-0.57-1.95c0.02-0.9,0.18-1.8,0.48-2.7c0.3-0.9,0.71-1.689,1.23-2.37
			C192.584,280.12,193.145,279.78,193.745,279.78z M196.745,281.94c-0.921-0.52-1.74-0.601-2.46-0.24
			c-0.72,0.359-1.3,0.84-1.74,1.439c-0.081,0.081-0.17,0.271-0.27,0.57c-0.1,0.3-0.201,0.621-0.3,0.96
			c-0.1,0.341-0.15,0.681-0.15,1.021s0.099,0.59,0.3,0.75c0.68,0.6,1.38,0.96,2.1,1.079c0.72,0.12,1.38,0.091,1.98-0.09
			c0.6-0.18,1.11-0.489,1.53-0.93c0.42-0.439,0.69-0.93,0.81-1.47c0.12-0.54,0.04-1.08-0.24-1.62
			C198.024,282.87,197.504,282.381,196.745,281.94z"/>
		<path d="M200.944,260.88c0.081-0.52,0.34-0.859,0.78-1.02c0.439-0.16,0.699,0.08,0.78,0.72c0.04,1.8,0.09,3.36,0.15,4.68
			c0.06,1.32,0.14,2.601,0.24,3.84c0.099,1.24,0.21,2.521,0.33,3.841c0.12,1.319,0.24,2.88,0.36,4.68c0.08,1.16,0.14,2.29,0.18,3.39
			c0.039,1.101,0.08,2.23,0.12,3.391c0.24-0.64,0.51-1.24,0.81-1.801c0.3-0.56,0.669-1.1,1.11-1.619c0.84-1,1.76-1.561,2.76-1.681
			c1-0.12,1.929,0.04,2.79,0.48c0.86,0.44,1.59,1.08,2.19,1.92s0.95,1.72,1.05,2.64c0.1,0.921-0.12,1.8-0.66,2.641
			c-0.54,0.84-1.53,1.479-2.97,1.92c-0.64,0.2-1.29,0.32-1.95,0.359c-0.66,0.041-1.331,0.101-2.01,0.181
			c-0.321,0.04-0.54-0.01-0.66-0.15c-0.12-0.14-0.17-0.31-0.15-0.51c0.02-0.2,0.1-0.399,0.24-0.601
			c0.14-0.199,0.309-0.339,0.51-0.42c1-0.159,1.989-0.27,2.97-0.33c0.979-0.06,1.85-0.47,2.61-1.229c0.6-0.56,0.819-1.17,0.66-1.83
			c-0.161-0.66-0.501-1.25-1.02-1.771c-0.521-0.519-1.14-0.93-1.86-1.229c-0.72-0.3-1.36-0.369-1.92-0.21
			c-0.88,0.24-1.6,0.75-2.16,1.53c-0.561,0.779-1,1.67-1.32,2.67c-0.32,1-0.55,2.02-0.69,3.06c-0.141,1.041-0.25,1.94-0.33,2.7
			c-0.48,0.479-0.84,0.729-1.08,0.75c-0.24,0.02-0.4-0.131-0.48-0.45c0-2.28,0-4.539,0-6.78c0-2.239-0.1-4.5-0.3-6.779
			c-0.12-1.76-0.24-3.31-0.36-4.65c-0.12-1.34-0.23-2.619-0.33-3.84c-0.1-1.22-0.18-2.499-0.24-3.84
			C201.035,264.19,200.985,262.641,200.944,260.88z"/>
	</g>
	<g enable-background="new    ">
		<path d="M288.826,269.34c0.039,0.48-0.16,0.831-0.601,1.05c-0.44,0.221-0.741,0.051-0.899-0.51c-0.081-0.8-0.141-1.579-0.181-2.34
			c-0.04-0.76-0.18-1.5-0.42-2.22c-0.239-0.64-0.66-1.1-1.26-1.38c-0.601-0.28-1.221-0.24-1.86,0.119
			c-0.92,0.521-1.811,1.351-2.67,2.49c-0.86,1.141-1.631,2.431-2.311,3.87c-0.68,1.44-1.27,2.99-1.77,4.65s-0.83,3.27-0.99,4.83
			c-0.16,1.56-0.149,3.029,0.03,4.409c0.181,1.381,0.59,2.511,1.229,3.391c0.68,0.96,1.621,1.5,2.82,1.62
			c1.2,0.12,2.42-0.01,3.66-0.391c1.24-0.379,2.39-0.939,3.45-1.68c1.06-0.739,1.81-1.53,2.25-2.37c0.159-0.279,0.3-0.6,0.42-0.96
			s0.22-0.699,0.3-1.02c0.199-0.44,0.49-0.69,0.87-0.75c0.38-0.061,0.609,0.189,0.69,0.75c-0.441,1.521-1.11,2.85-2.01,3.989
			c-0.9,1.141-1.961,2.061-3.181,2.761c-1.221,0.7-2.55,1.14-3.989,1.319c-1.44,0.181-2.901,0.05-4.381-0.39
			c-1.521-0.439-2.59-1.43-3.21-2.97s-0.899-3.33-0.84-5.37s0.39-4.2,0.99-6.48c0.6-2.279,1.35-4.38,2.25-6.3
			c0.899-1.92,1.88-3.529,2.94-4.83c1.059-1.299,2.089-2.01,3.09-2.13c1.359-0.159,2.389-0.05,3.09,0.33
			c0.699,0.381,1.219,0.9,1.56,1.56c0.339,0.66,0.55,1.431,0.63,2.311S288.705,268.461,288.826,269.34z"/>
		<path d="M291.525,263.88c0.08-0.52,0.34-0.859,0.779-1.02s0.699,0.08,0.78,0.72c0.079,0.72,0.13,1.62,0.149,2.7
			s0.07,2.511,0.15,4.29c0.08,1.78,0.23,3.989,0.45,6.63c0.22,2.64,0.569,5.9,1.05,9.78c0.879-1.96,1.95-3.44,3.21-4.44
			c1.261-0.999,2.46-1.46,3.601-1.38c1.14,0.08,2.129,0.7,2.97,1.859c0.84,1.161,1.28,2.921,1.319,5.28v0.3
			c-0.119,0.4-0.359,0.681-0.719,0.841c-0.361,0.16-0.641,0-0.841-0.48v-0.36c-0.04-0.999-0.19-1.979-0.45-2.939
			s-0.65-1.71-1.17-2.25s-1.19-0.76-2.01-0.66c-0.82,0.101-1.791,0.711-2.91,1.83c-0.72,0.76-1.23,1.62-1.529,2.58
			c-0.301,0.96-0.651,1.9-1.051,2.82c-0.16,0.28-0.381,0.479-0.66,0.6s-0.52,0-0.72-0.36c-0.28-1.599-0.54-3.35-0.78-5.25
			c-0.24-1.899-0.449-3.81-0.629-5.729c-0.181-1.92-0.34-3.79-0.48-5.61c-0.141-1.819-0.25-3.439-0.33-4.86
			c-0.08-1.419-0.14-2.569-0.18-3.449S291.485,263.961,291.525,263.88z"/>
		<path d="M311.265,281.28c-0.16,0.08-0.44,0.261-0.84,0.54c-0.4,0.28-0.741,0.54-1.021,0.779c-0.08,0.321-0.24,0.57-0.479,0.75
			c-0.24,0.181-0.521,0.15-0.84-0.09l-0.12-0.12c-0.201-0.399-0.141-0.819,0.18-1.26c0.32-0.36,0.699-0.689,1.141-0.99
			c0.439-0.3,0.84-0.589,1.199-0.87c1.92-1.399,3.64-1.969,5.16-1.71c1.52,0.261,2.779,1.011,3.78,2.25
			c0.999,1.241,1.7,2.79,2.101,4.65c0.398,1.86,0.42,3.69,0.06,5.49c-0.081,0.319-0.251,0.579-0.511,0.78
			c-0.26,0.199-0.55,0.18-0.869-0.061c-0.32-0.479-0.6-0.979-0.84-1.5c-0.24-0.52-0.501-1.02-0.78-1.5
			c-0.28-0.479-0.61-0.93-0.99-1.35s-0.87-0.75-1.47-0.99c-0.24-0.12-0.6-0.229-1.08-0.33c-0.48-0.1-0.921-0.09-1.32,0.03
			c-0.16,0.08-0.43,0.22-0.811,0.42c-0.38,0.2-0.77,0.44-1.17,0.72c-0.4,0.28-0.75,0.561-1.049,0.84
			c-0.301,0.28-0.411,0.521-0.33,0.721c0.479,0.28,0.959,0.43,1.439,0.449c0.48,0.021,0.949-0.02,1.41-0.12
			c0.459-0.099,0.93-0.219,1.41-0.359c0.48-0.14,0.96-0.25,1.439-0.33c0.279,0,0.48,0.08,0.6,0.24c0.121,0.16,0.16,0.34,0.121,0.54
			c-0.041,0.2-0.141,0.39-0.301,0.569c-0.16,0.181-0.359,0.291-0.6,0.33c-0.12,0-0.44,0.081-0.96,0.24
			c-0.521,0.16-1.181,0.32-1.979,0.479c-1.48,0.281-2.531,0.251-3.15-0.09c-0.621-0.339-0.921-0.829-0.9-1.47
			c0.02-0.64,0.301-1.34,0.84-2.1c0.541-0.76,1.21-1.41,2.01-1.95c0.801-0.54,1.681-0.88,2.641-1.021c0.96-0.14,1.859,0.07,2.7,0.63
			c0.88,0.601,1.53,1.211,1.95,1.83c0.42,0.621,0.829,1.271,1.229,1.95c0-1.359-0.21-2.679-0.63-3.96
			c-0.42-1.279-1.02-2.319-1.8-3.12c-0.78-0.8-1.731-1.239-2.851-1.319C313.864,279.82,312.624,280.28,311.265,281.28z"/>
		<path d="M323.504,279.3c0.08-0.52,0.34-0.859,0.78-1.02c0.439-0.159,0.699,0.08,0.78,0.72c0.039,0.921,0.139,1.83,0.3,2.73
			c0.159,0.899,0.339,1.81,0.54,2.729c0.119-0.64,0.42-1.38,0.9-2.22c0.479-0.84,1.059-1.63,1.739-2.37
			c0.68-0.74,1.419-1.359,2.22-1.86c0.801-0.499,1.58-0.75,2.34-0.75c0.24,0.081,0.4,0.261,0.48,0.54v0.12
			c0.039,0.4-0.1,0.72-0.42,0.96s-0.6,0.261-0.84,0.061c-2.16,1.079-3.61,2.5-4.35,4.26c-0.741,1.761-1.031,3.78-0.871,6.06
			c-0.08,0.321-0.279,0.601-0.6,0.84c-0.32,0.24-0.621,0.141-0.9-0.3c-0.4-1.6-0.82-3.219-1.26-4.859
			C323.903,283.301,323.624,281.421,323.504,279.3z"/>
		<path d="M333.943,262.44c0.08-0.52,0.34-0.86,0.779-1.021c0.44-0.159,0.7,0.081,0.781,0.72c0.079,4.761,0.299,9.48,0.659,14.16
			c0.36,4.681,0.579,9.4,0.66,14.16c-0.12,0.4-0.37,0.69-0.75,0.87s-0.65-0.011-0.81-0.57c-0.081-4.76-0.301-9.489-0.66-14.189
			C334.243,271.87,334.023,267.16,333.943,262.44z"/>
		<path d="M340.243,280.68c0.079-0.52,0.339-0.859,0.78-1.02c0.439-0.159,0.699,0.08,0.779,0.72c-0.04,1.641-0.149,3.25-0.33,4.83
			c-0.18,1.581-0.29,3.19-0.33,4.83c-0.119,0.4-0.369,0.69-0.75,0.87c-0.38,0.18-0.65-0.01-0.81-0.57
			c0.04-1.64,0.149-3.26,0.33-4.859S340.203,282.28,340.243,280.68z M342.403,273.6c-0.28,0.041-0.491,0-0.63-0.119
			c-0.141-0.12-0.211-0.271-0.211-0.45c0-0.181,0.051-0.36,0.15-0.54c0.1-0.181,0.25-0.33,0.45-0.45c0.2-0.439,0.489-0.69,0.87-0.75
			c0.379-0.06,0.609,0.19,0.689,0.75c-0.08,0.36-0.22,0.681-0.42,0.96C343.103,273.28,342.803,273.48,342.403,273.6z"/>
		<path d="M350.982,279.36c0.68,0.64,1.11,1.25,1.291,1.83c0.18,0.58,0.169,1.13-0.031,1.649c-0.199,0.521-0.529,0.99-0.989,1.41
			s-0.99,0.761-1.59,1.02c-0.601,0.261-1.221,0.431-1.86,0.511c-0.641,0.08-1.221,0.04-1.74-0.12c0.32,2.16,1.28,3.43,2.881,3.81
			c1.6,0.381,3.619-0.409,6.06-2.37c0.279-0.199,0.51-0.279,0.69-0.239c0.18,0.04,0.309,0.13,0.39,0.27
			c0.079,0.141,0.099,0.32,0.06,0.54c-0.04,0.221-0.16,0.431-0.359,0.63c-1.041,0.84-2.091,1.53-3.15,2.07
			c-1.061,0.54-2.08,0.84-3.061,0.899c-0.98,0.061-1.889-0.18-2.729-0.72c-0.84-0.54-1.56-1.509-2.159-2.91
			c-0.24-0.6-0.391-1.419-0.451-2.46c-0.06-1.039,0.03-2.079,0.271-3.12c0.239-1.039,0.62-1.97,1.14-2.79
			c0.52-0.819,1.24-1.31,2.16-1.47c0.64-0.12,1.23,0.03,1.77,0.45C350.113,278.67,350.582,279.04,350.982,279.36z M346.303,281.28
			c-0.16,0.76-0.28,1.521-0.359,2.279c0.199,0.28,0.529,0.441,0.99,0.48c0.459,0.04,0.938,0,1.439-0.12
			c0.5-0.12,0.979-0.29,1.439-0.51s0.77-0.45,0.93-0.69c-0.08-0.52-0.32-1.06-0.719-1.62c-0.4-0.56-0.84-0.979-1.32-1.26
			c-0.48-0.279-0.951-0.339-1.41-0.18C346.832,279.82,346.502,280.36,346.303,281.28z"/>
	</g>
	<g enable-background="new    ">
		<path d="M397.284,262.08c-0.039-0.279,0.04-0.529,0.24-0.75c0.2-0.22,0.46-0.33,0.78-0.33c2.318-0.76,4.449-0.81,6.39-0.15
			c1.939,0.66,3.649,1.751,5.13,3.271c1.479,1.521,2.68,3.34,3.6,5.46s1.49,4.26,1.711,6.42c0.219,2.16,0.068,4.21-0.451,6.15
			s-1.5,3.471-2.939,4.59c-1.4,1.12-2.58,1.94-3.54,2.46c-0.96,0.521-1.92,0.891-2.88,1.109c-0.96,0.221-2.04,0.381-3.24,0.48
			c-1.199,0.101-2.74,0.29-4.619,0.57c-0.32,0.039-0.541-0.011-0.66-0.15c-0.121-0.141-0.17-0.31-0.15-0.51
			c0.021-0.2,0.1-0.399,0.24-0.601c0.141-0.199,0.311-0.339,0.51-0.42c1.359-0.199,2.649-0.339,3.87-0.42
			c1.22-0.079,2.38-0.229,3.479-0.45c1.1-0.219,2.16-0.579,3.18-1.079c1.021-0.5,2.03-1.25,3.031-2.25
			c1.238-1.24,2.049-2.77,2.43-4.591c0.379-1.819,0.41-3.699,0.09-5.64c-0.32-1.939-0.93-3.83-1.83-5.67s-2.01-3.39-3.33-4.65
			c-1.32-1.26-2.79-2.109-4.41-2.55c-1.619-0.439-3.291-0.26-5.01,0.54c0.32,4.161,0.54,8.311,0.66,12.45
			c0.119,4.14,0.319,8.29,0.6,12.45c-0.119,0.4-0.37,0.689-0.75,0.87c-0.381,0.18-0.65-0.01-0.81-0.57
			c-0.28-4.359-0.491-8.7-0.63-13.021C397.834,270.78,397.604,266.44,397.284,262.08z"/>
		<path d="M419.724,281.28c-0.16,0.08-0.44,0.261-0.84,0.54c-0.4,0.28-0.741,0.54-1.021,0.779c-0.08,0.321-0.24,0.57-0.479,0.75
			c-0.24,0.181-0.521,0.15-0.84-0.09l-0.12-0.12c-0.201-0.399-0.141-0.819,0.18-1.26c0.32-0.36,0.699-0.689,1.141-0.99
			c0.439-0.3,0.84-0.589,1.199-0.87c1.92-1.399,3.64-1.969,5.16-1.71c1.52,0.261,2.779,1.011,3.78,2.25
			c0.999,1.241,1.7,2.79,2.101,4.65c0.398,1.86,0.42,3.69,0.06,5.49c-0.081,0.319-0.251,0.579-0.511,0.78
			c-0.26,0.199-0.55,0.18-0.869-0.061c-0.32-0.479-0.6-0.979-0.84-1.5c-0.24-0.52-0.501-1.02-0.78-1.5
			c-0.28-0.479-0.61-0.93-0.99-1.35s-0.87-0.75-1.47-0.99c-0.24-0.12-0.6-0.229-1.08-0.33c-0.48-0.1-0.921-0.09-1.32,0.03
			c-0.16,0.08-0.43,0.22-0.811,0.42c-0.38,0.2-0.77,0.44-1.17,0.72c-0.4,0.28-0.75,0.561-1.049,0.84
			c-0.301,0.28-0.411,0.521-0.33,0.721c0.479,0.28,0.959,0.43,1.439,0.449c0.48,0.021,0.949-0.02,1.41-0.12
			c0.459-0.099,0.93-0.219,1.41-0.359c0.48-0.14,0.96-0.25,1.439-0.33c0.279,0,0.48,0.08,0.6,0.24c0.121,0.16,0.16,0.34,0.121,0.54
			c-0.041,0.2-0.141,0.39-0.301,0.569c-0.16,0.181-0.359,0.291-0.6,0.33c-0.12,0-0.44,0.081-0.96,0.24
			c-0.521,0.16-1.181,0.32-1.979,0.479c-1.48,0.281-2.531,0.251-3.15-0.09c-0.621-0.339-0.921-0.829-0.9-1.47
			c0.02-0.64,0.301-1.34,0.84-2.1c0.541-0.76,1.21-1.41,2.01-1.95c0.801-0.54,1.681-0.88,2.641-1.021c0.96-0.14,1.859,0.07,2.7,0.63
			c0.88,0.601,1.53,1.211,1.95,1.83c0.42,0.621,0.829,1.271,1.229,1.95c0-1.359-0.21-2.679-0.63-3.96
			c-0.42-1.279-1.02-2.319-1.8-3.12c-0.78-0.8-1.731-1.239-2.851-1.319C422.323,279.82,421.083,280.28,419.724,281.28z"/>
		<path d="M432.083,281.76c-0.12-0.199-0.16-0.42-0.12-0.66c0.039-0.239,0.14-0.429,0.301-0.569c0.158-0.14,0.33-0.229,0.51-0.271
			c0.18-0.039,0.369,0.061,0.57,0.3c0.559,0.681,1.029,1.36,1.409,2.04c0.38,0.681,0.729,1.371,1.05,2.07
			c0.32,0.7,0.631,1.41,0.93,2.13c0.301,0.72,0.65,1.461,1.051,2.22c0.48-0.84,0.93-1.859,1.35-3.06s0.811-2.379,1.17-3.54
			c0.36-1.159,0.71-2.189,1.051-3.09c0.339-0.9,0.689-1.449,1.05-1.65c0.199-0.159,0.39-0.249,0.569-0.27
			c0.181-0.02,0.369,0.07,0.57,0.27c0.039,0.12-0.029,0.471-0.21,1.051c-0.18,0.58-0.42,1.289-0.72,2.13
			c-0.301,0.84-0.631,1.761-0.99,2.76c-0.359,1-0.72,1.96-1.08,2.88c-0.359,0.921-0.689,1.74-0.99,2.46
			c-0.3,0.72-0.53,1.24-0.689,1.56c-0.12,0.24-0.28,0.352-0.48,0.33c-0.2-0.02-0.4,0.07-0.6,0.271c-0.08,0.12-0.261-0.03-0.54-0.45
			c-0.28-0.42-0.62-0.96-1.021-1.62s-0.81-1.399-1.229-2.22c-0.42-0.819-0.831-1.59-1.229-2.311c-0.4-0.72-0.75-1.339-1.051-1.859
			C432.413,282.141,432.203,281.841,432.083,281.76z"/>
		<path d="M451.763,279.36c0.68,0.64,1.11,1.25,1.29,1.83s0.17,1.13-0.03,1.649c-0.2,0.521-0.53,0.99-0.989,1.41
			c-0.461,0.42-0.99,0.761-1.59,1.02c-0.601,0.261-1.221,0.431-1.861,0.511c-0.64,0.08-1.221,0.04-1.739-0.12
			c0.319,2.16,1.28,3.43,2.88,3.81c1.6,0.381,3.619-0.409,6.061-2.37c0.279-0.199,0.51-0.279,0.689-0.239s0.31,0.13,0.391,0.27
			c0.079,0.141,0.099,0.32,0.06,0.54c-0.04,0.221-0.161,0.431-0.36,0.63c-1.041,0.84-2.09,1.53-3.15,2.07
			c-1.06,0.54-2.08,0.84-3.06,0.899c-0.98,0.061-1.89-0.18-2.729-0.72s-1.561-1.509-2.16-2.91c-0.24-0.6-0.391-1.419-0.45-2.46
			c-0.06-1.039,0.03-2.079,0.271-3.12c0.239-1.039,0.619-1.97,1.14-2.79c0.519-0.819,1.239-1.31,2.159-1.47
			c0.641-0.12,1.23,0.03,1.771,0.45S451.362,279.04,451.763,279.36z M447.082,281.28c-0.16,0.76-0.279,1.521-0.359,2.279
			c0.199,0.28,0.529,0.441,0.99,0.48c0.459,0.04,0.939,0,1.439-0.12s0.98-0.29,1.44-0.51s0.77-0.45,0.93-0.69
			c-0.081-0.52-0.32-1.06-0.72-1.62c-0.4-0.56-0.84-0.979-1.32-1.26c-0.48-0.279-0.95-0.339-1.41-0.18
			C447.612,279.82,447.282,280.36,447.082,281.28z"/>
	</g>
</g>
</svg>
