<?xml version="1.0" encoding="utf-8"?>
<!-- Generator: Adobe Illustrator 16.0.0, SVG Export Plug-In . SVG Version: 6.00 Build 0)  -->
<!DOCTYPE svg PUBLIC "-//W3C//DTD SVG 1.1//EN" "http://www.w3.org/Graphics/SVG/1.1/DTD/svg11.dtd">
<svg version="1.1" id="Layer_1" xmlns="http://www.w3.org/2000/svg" xmlns:xlink="http://www.w3.org/1999/xlink" x="0px" y="0px"
	 width="362px" height="462px" viewBox="0 0 362 462" enable-background="new 0 0 362 462" xml:space="preserve">
<g>
	<g>
		<path fill="#010101" d="M314.945,261.403v3.261l-11.59-5.023v-2.787l11.59-5.023v3.283l-8.076,3.111L314.945,261.403z"/>
		<path fill="#010101" d="M322.111,251.761l-3.227,13.283c-0.107,0.438-0.201,0.783-0.281,1.037
			c-0.082,0.253-0.205,0.452-0.369,0.593c-0.165,0.143-0.406,0.213-0.72,0.213c-0.784,0-1.176-0.34-1.176-1.014
			c0-0.177,0.077-0.618,0.23-1.324l3.215-13.283c0.169-0.707,0.329-1.191,0.483-1.451c0.153-0.262,0.453-0.393,0.898-0.393
			c0.385,0,0.678,0.093,0.881,0.277c0.204,0.184,0.307,0.438,0.307,0.76C322.354,250.697,322.271,251.131,322.111,251.761z"/>
		<path fill="#010101" d="M335.324,259.641l-11.589,5.047v-3.261l8.1-3.18l-8.1-3.134v-3.237l11.589,5V259.641z"/>
	</g>
	<path fill="#010101" d="M342.784,233.112h-46.888c-1.766,0-3.197,1.431-3.197,3.196v40.495c0,1.765,1.432,3.196,3.197,3.196h46.888
		c1.767,0,3.196-1.432,3.196-3.196v-40.495C345.98,234.543,344.551,233.112,342.784,233.112z M334.792,235.243
		c1.175,0,2.132,0.956,2.132,2.132c0,1.175-0.957,2.131-2.132,2.131s-2.132-0.956-2.132-2.131
		C332.66,236.199,333.617,235.243,334.792,235.243z M328.931,235.243c1.175,0,2.132,0.956,2.132,2.132
		c0,1.175-0.957,2.131-2.132,2.131s-2.132-0.956-2.132-2.131C326.799,236.199,327.756,235.243,328.931,235.243z M342.784,276.804
		h-46.888v-35.166h46.888V276.804z M340.652,239.506c-1.174,0-2.131-0.956-2.131-2.131c0-1.176,0.957-2.132,2.131-2.132
		c1.175,0,2.132,0.956,2.132,2.132C342.784,238.55,341.827,239.506,340.652,239.506z"/>
</g>
<g>
	<g id="c43_terminal">
		<path fill="#010101" d="M175.92,362.19h-46.884c-2.157,0-3.907,1.747-3.907,3.904v39.076c0,2.155,1.75,3.907,3.907,3.907h46.884
			c2.154,0,3.91-1.752,3.91-3.907v-39.076C179.83,363.938,178.072,362.19,175.92,362.19z M137.828,365.123
			c1.076,0,1.953,0.871,1.953,1.956c0,1.075-0.876,1.946-1.953,1.946c-1.084,0-1.958-0.869-1.958-1.946
			C135.871,365.996,136.744,365.123,137.828,365.123z M131.964,365.123c1.078,0,1.954,0.871,1.954,1.956
			c0,1.075-0.875,1.946-1.954,1.946c-1.08,0-1.956-0.869-1.956-1.946C130.01,365.996,130.884,365.123,131.964,365.123z
			 M175.92,405.172h-46.884V372h46.884V405.172z"/>
		<polygon fill="#010101" points="147.028,380.029 134.481,374.291 134.481,377.06 144.182,381.209 144.182,381.26 134.481,385.402 
			134.481,388.168 147.028,382.43 		"/>
		<rect x="152.934" y="379.914" fill="#010101" width="6.836" height="2.635"/>
	</g>
	<g id="Capa_1_86_">
	</g>
</g>
<g>
	<g>
		<path fill="#010101" d="M201.302,26.388h-27.197c-1.938,0-3.513,1.576-3.513,3.512v2.243h-3.197c-1.936,0-3.512,1.576-3.512,3.512
			v36.463c0,1.936,1.576,3.512,3.512,3.512h27.2c1.936,0,3.512-1.576,3.512-3.512v-2.243h3.195c1.937,0,3.513-1.576,3.513-3.512
			V29.9C204.814,27.964,203.238,26.388,201.302,26.388z M195.297,72.118c0,0.387-0.315,0.702-0.702,0.702h-27.2
			c-0.387,0-0.701-0.316-0.701-0.702V35.655c0-0.388,0.314-0.703,0.701-0.703h3.197v31.411c0,1.935,1.575,3.512,3.513,3.512h21.192
			V72.118L195.297,72.118z M202.005,66.363c0,0.387-0.314,0.703-0.703,0.703h-27.197c-0.389,0-0.704-0.316-0.704-0.703V29.9
			c0-0.387,0.315-0.702,0.704-0.702h27.197c0.389,0,0.703,0.315,0.703,0.702V66.363L202.005,66.363z"/>
		<path fill="#010101" d="M198.004,35.112h-20.602c-0.776,0-1.405,0.63-1.405,1.405c0,0.776,0.629,1.404,1.405,1.404h20.602
			c0.775,0,1.404-0.628,1.404-1.404C199.408,35.743,198.779,35.112,198.004,35.112z"/>
		<path fill="#010101" d="M198.004,41.799h-20.602c-0.776,0-1.405,0.629-1.405,1.404c0,0.777,0.629,1.406,1.405,1.406h20.602
			c0.775,0,1.404-0.629,1.404-1.406C199.408,42.428,198.779,41.799,198.004,41.799z"/>
		<path fill="#010101" d="M198.004,48.485h-20.602c-0.776,0-1.405,0.629-1.405,1.404c0,0.776,0.629,1.404,1.405,1.404h20.602
			c0.775,0,1.404-0.628,1.404-1.404C199.408,49.114,198.779,48.485,198.004,48.485z"/>
		<path fill="#010101" d="M198.004,55.17h-20.602c-0.776,0-1.405,0.629-1.405,1.405c0,0.777,0.629,1.404,1.405,1.404h20.602
			c0.775,0,1.404-0.628,1.404-1.404S198.779,55.17,198.004,55.17z"/>
	</g>
</g>
<g>
	<g>
		<path fill="#010101" d="M65.205,235.008l-9.182-9.181c-0.183-0.182-0.43-0.285-0.688-0.285H27.628
			c-0.537,0-0.974,0.437-0.974,0.974v43.812c0,0.539,0.437,0.975,0.974,0.975h36.887c0.538,0,0.975-0.436,0.975-0.975v-34.631
			C65.49,235.439,65.386,235.191,65.205,235.008z M56.307,228.867l5.857,5.856h-5.857V228.867z M28.603,269.355V227.49h25.758v8.207
			c0,0.538,0.436,0.974,0.975,0.974h8.206v32.685H28.603L28.603,269.355z"/>
		<g>
			<g>
				<path fill="#010101" d="M38.744,241.558h-6.842c-0.539,0-0.975-0.437-0.975-0.974v-6.844c0-0.537,0.436-0.973,0.975-0.973h6.842
					c0.537,0,0.974,0.436,0.974,0.973v6.844C39.717,241.121,39.281,241.558,38.744,241.558z M32.875,239.61h4.895v-4.896h-4.895
					V239.61z"/>
			</g>
			<g>
				<g>
					<path fill="#010101" d="M50.229,236.281h-8.358c-0.536,0-0.973-0.436-0.973-0.974s0.437-0.974,0.973-0.974h8.358
						c0.536,0,0.973,0.436,0.973,0.974S50.765,236.281,50.229,236.281z"/>
				</g>
				<g>
					<path fill="#010101" d="M48.142,239.992h-6.271c-0.536,0-0.973-0.436-0.973-0.975c0-0.537,0.437-0.973,0.973-0.973h6.271
						c0.539,0,0.975,0.436,0.975,0.973C49.117,239.557,48.681,239.992,48.142,239.992z"/>
				</g>
			</g>
		</g>
		<g>
			<g>
				<path fill="#010101" d="M38.744,253.807h-6.842c-0.539,0-0.975-0.436-0.975-0.974v-6.843c0-0.537,0.436-0.975,0.975-0.975h6.842
					c0.537,0,0.974,0.438,0.974,0.975v6.843C39.717,253.371,39.281,253.807,38.744,253.807z M32.875,251.859h4.895v-4.896h-4.895
					V251.859z"/>
			</g>
			<g>
				<g>
					<path fill="#010101" d="M55.185,248.53H41.871c-0.536,0-0.973-0.437-0.973-0.974c0-0.539,0.437-0.974,0.973-0.974h13.314
						c0.538,0,0.974,0.435,0.974,0.974C56.159,248.094,55.723,248.53,55.185,248.53z"/>
				</g>
				<g>
					<path fill="#010101" d="M50.732,252.24h-8.861c-0.536,0-0.973-0.436-0.973-0.974c0-0.537,0.437-0.974,0.973-0.974h8.861
						c0.536,0,0.974,0.437,0.974,0.974C51.706,251.805,51.268,252.24,50.732,252.24z"/>
				</g>
			</g>
		</g>
		<g>
			<g>
				<path fill="#010101" d="M38.744,266.055h-6.842c-0.539,0-0.975-0.436-0.975-0.973v-6.844c0-0.537,0.436-0.974,0.975-0.974h6.842
					c0.537,0,0.974,0.437,0.974,0.974v6.844C39.717,265.619,39.281,266.055,38.744,266.055z M32.875,264.107h4.895v-4.895h-4.895
					V264.107z"/>
			</g>
			<g>
				<g>
					<path fill="#010101" d="M56.812,260.778H41.871c-0.536,0-0.973-0.436-0.973-0.974c0-0.537,0.437-0.974,0.973-0.974h14.941
						c0.539,0,0.975,0.437,0.975,0.974C57.787,260.343,57.351,260.778,56.812,260.778z"/>
				</g>
				<g>
					<path fill="#010101" d="M54.415,264.49H41.871c-0.536,0-0.973-0.437-0.973-0.975s0.437-0.975,0.973-0.975h12.544
						c0.536,0,0.974,0.437,0.974,0.975S54.951,264.49,54.415,264.49z"/>
				</g>
			</g>
		</g>
	</g>
</g>
<g>
	<path d="M300.422,306.04c0.16,0.2,0.24,0.41,0.24,0.63c0,0.221-0.061,0.411-0.18,0.57c-0.121,0.16-0.281,0.27-0.48,0.33
		c-0.201,0.06-0.42,0.01-0.66-0.15l-1.26-1.14c-0.6,0-1.08,0.21-1.439,0.63c-0.36,0.42-0.631,0.91-0.811,1.47
		c-0.18,0.561-0.261,1.15-0.24,1.771c0.02,0.62,0.129,1.17,0.33,1.649c0.36,0.84,0.92,1.38,1.68,1.62s1.57,0.3,2.431,0.18
		c0.859-0.119,1.71-0.369,2.55-0.75c0.84-0.379,1.539-0.81,2.1-1.29c0.08-0.319,0.26-0.549,0.541-0.689
		c0.279-0.14,0.559-0.05,0.84,0.27l0.06,0.12c0.2,0.4,0.099,0.801-0.3,1.2c-0.521,0.48-1.102,0.88-1.74,1.2
		c-0.641,0.32-1.281,0.62-1.92,0.899c-0.6,0.24-1.191,0.431-1.77,0.57c-0.581,0.141-1.211,0.23-1.891,0.271
		c-1.32,0.04-2.301-0.271-2.939-0.931c-0.641-0.66-1.051-1.47-1.23-2.43s-0.16-1.97,0.061-3.03c0.219-1.06,0.51-1.97,0.869-2.729
		c0.12-0.24,0.33-0.5,0.631-0.78c0.299-0.279,0.629-0.52,0.989-0.72s0.729-0.32,1.11-0.36c0.379-0.039,0.709,0.061,0.99,0.3
		c0.279,0.201,0.529,0.411,0.75,0.63C299.951,305.57,300.182,305.8,300.422,306.04z"/>
	<path d="M310.682,304.78c0.319-0.08,0.739-0.1,1.26-0.061c0.52,0.041,1.05,0.12,1.59,0.24s1.05,0.28,1.529,0.48
		c0.48,0.2,0.84,0.44,1.08,0.72c0.88,1.16,1.25,2.31,1.11,3.45c-0.141,1.14-0.58,2.11-1.319,2.909
		c-0.741,0.801-1.691,1.351-2.851,1.65c-1.161,0.3-2.32,0.171-3.479-0.39c-0.321-0.159-0.631-0.3-0.931-0.42s-0.569-0.301-0.81-0.54
		c-0.4-0.399-0.591-1.051-0.57-1.95c0.02-0.9,0.18-1.8,0.48-2.7c0.3-0.9,0.709-1.689,1.229-2.37
		C309.521,305.12,310.081,304.78,310.682,304.78z M313.682,306.94c-0.922-0.52-1.74-0.601-2.461-0.24
		c-0.72,0.359-1.3,0.84-1.74,1.439c-0.08,0.081-0.17,0.271-0.27,0.57s-0.201,0.621-0.3,0.96c-0.101,0.341-0.149,0.681-0.149,1.021
		s0.099,0.59,0.299,0.75c0.68,0.6,1.381,0.96,2.101,1.079c0.72,0.12,1.38,0.091,1.979-0.09c0.601-0.18,1.11-0.489,1.53-0.93
		c0.421-0.439,0.69-0.93,0.81-1.47c0.121-0.54,0.04-1.08-0.239-1.62C314.961,307.87,314.44,307.381,313.682,306.94z"/>
	<path d="M332.041,312.46c-0.201,0.561-0.521,0.86-0.96,0.9c-0.521,0-0.86-0.189-1.021-0.57c-0.16-0.38-0.24-0.819-0.24-1.32
		c0-0.499,0.031-1.02,0.091-1.56s0.05-0.97-0.03-1.29c-0.12-0.601-0.43-1.11-0.93-1.53c-0.501-0.42-1.061-0.759-1.68-1.02
		c-0.621-0.26-1.271-0.46-1.951-0.601c-0.68-0.14-1.279-0.21-1.799-0.21c-0.922-0.039-1.641,0.19-2.16,0.69
		c-0.521,0.5-0.871,1.12-1.051,1.859c-0.18,0.741-0.2,1.53-0.06,2.37c0.14,0.84,0.399,1.59,0.78,2.25
		c0.379,0.66,0.869,1.15,1.47,1.471s1.28,0.32,2.04,0c0.56-0.24,1.07-0.57,1.529-0.99c0.46-0.42,0.931-0.789,1.41-1.11
		c0.561-0.199,0.871-0.1,0.931,0.3c0.06,0.4-0.07,0.761-0.39,1.08c-0.561,0.4-1.091,0.84-1.59,1.32
		c-0.502,0.48-1.071,0.84-1.711,1.08c-1,0.36-1.89,0.381-2.67,0.06c-0.779-0.319-1.431-0.849-1.949-1.59
		c-0.521-0.739-0.911-1.609-1.17-2.609c-0.262-1-0.361-1.97-0.301-2.91c0.061-0.939,0.279-1.79,0.66-2.55
		c0.379-0.76,0.93-1.261,1.65-1.5c3.158-1.12,5.959-0.8,8.399,0.96c0.319,0.239,0.56,0.5,0.72,0.779c0-0.039-0.029-0.479-0.09-1.319
		c-0.06-0.841-0.13-1.891-0.21-3.15c-0.081-1.26-0.18-2.649-0.3-4.17c-0.12-1.52-0.24-2.99-0.359-4.41
		c-0.121-1.419-0.24-2.7-0.361-3.84c-0.119-1.14-0.239-1.989-0.359-2.55c0.08-0.52,0.34-0.86,0.78-1.021
		c0.439-0.159,0.699,0.081,0.78,0.721L332.041,312.46z"/>
	<path d="M340.201,304.36c0.68,0.64,1.109,1.25,1.289,1.83c0.181,0.58,0.17,1.13-0.029,1.649c-0.201,0.521-0.531,0.99-0.99,1.41
		c-0.461,0.42-0.99,0.761-1.59,1.02c-0.6,0.261-1.221,0.431-1.86,0.511s-1.221,0.04-1.739-0.12c0.319,2.16,1.279,3.43,2.879,3.81
		c1.6,0.381,3.62-0.409,6.061-2.37c0.279-0.199,0.51-0.279,0.689-0.239c0.181,0.04,0.311,0.13,0.391,0.27
		c0.08,0.141,0.1,0.32,0.061,0.54c-0.041,0.221-0.161,0.431-0.361,0.63c-1.04,0.84-2.09,1.53-3.149,2.07s-2.08,0.84-3.06,0.899
		c-0.98,0.061-1.891-0.18-2.73-0.72s-1.561-1.509-2.16-2.91c-0.24-0.6-0.39-1.419-0.449-2.46c-0.061-1.039,0.029-2.079,0.27-3.12
		c0.24-1.039,0.619-1.97,1.141-2.79c0.519-0.819,1.238-1.31,2.159-1.47c0.64-0.12,1.229,0.03,1.771,0.45
		C339.33,303.67,339.801,304.04,340.201,304.36z M335.521,306.28c-0.16,0.76-0.28,1.521-0.36,2.279c0.2,0.28,0.53,0.441,0.99,0.48
		c0.459,0.04,0.939,0,1.44-0.12c0.499-0.12,0.979-0.29,1.44-0.51c0.459-0.22,0.77-0.45,0.93-0.69c-0.081-0.52-0.32-1.06-0.721-1.62
		c-0.4-0.56-0.84-0.979-1.319-1.26c-0.48-0.279-0.95-0.339-1.41-0.18C336.051,304.82,335.721,305.36,335.521,306.28z"/>
</g>
<g>
	<path d="M71.127,438.04c0.16,0.2,0.24,0.41,0.24,0.63c0,0.221-0.06,0.411-0.18,0.57c-0.12,0.16-0.28,0.27-0.48,0.33
		c-0.201,0.06-0.42,0.01-0.66-0.15l-1.26-1.14c-0.6,0-1.08,0.21-1.44,0.63s-0.63,0.91-0.81,1.47c-0.18,0.561-0.261,1.15-0.24,1.771
		c0.02,0.62,0.129,1.17,0.33,1.649c0.36,0.84,0.92,1.38,1.68,1.62c0.759,0.24,1.569,0.3,2.43,0.18c0.859-0.119,1.71-0.369,2.55-0.75
		c0.84-0.379,1.54-0.81,2.1-1.29c0.08-0.319,0.26-0.549,0.54-0.689c0.279-0.14,0.56-0.05,0.84,0.27l0.06,0.12
		c0.2,0.4,0.099,0.801-0.3,1.2c-0.52,0.48-1.101,0.88-1.74,1.2c-0.64,0.32-1.281,0.62-1.92,0.899c-0.6,0.24-1.191,0.431-1.77,0.57
		c-0.581,0.141-1.21,0.23-1.89,0.271c-1.32,0.04-2.301-0.271-2.94-0.931c-0.64-0.66-1.05-1.47-1.23-2.43s-0.16-1.97,0.06-3.03
		c0.219-1.06,0.51-1.97,0.87-2.729c0.12-0.24,0.33-0.5,0.63-0.78c0.3-0.279,0.63-0.52,0.99-0.72c0.36-0.2,0.729-0.32,1.11-0.36
		c0.379-0.039,0.709,0.061,0.99,0.3c0.279,0.201,0.53,0.411,0.75,0.63C70.656,437.57,70.887,437.8,71.127,438.04z"/>
	<path d="M81.386,436.78c0.32-0.08,0.74-0.1,1.26-0.061c0.52,0.041,1.05,0.12,1.59,0.24s1.05,0.28,1.53,0.48s0.84,0.44,1.08,0.72
		c0.879,1.16,1.25,2.31,1.11,3.45c-0.141,1.14-0.58,2.11-1.32,2.909c-0.741,0.801-1.69,1.351-2.85,1.65
		c-1.161,0.3-2.32,0.171-3.48-0.39c-0.321-0.159-0.63-0.3-0.93-0.42c-0.3-0.12-0.57-0.301-0.81-0.54
		c-0.4-0.399-0.591-1.051-0.57-1.95c0.02-0.9,0.18-1.8,0.48-2.7c0.3-0.9,0.71-1.689,1.23-2.37
		C80.226,437.12,80.786,436.78,81.386,436.78z M84.386,438.94c-0.921-0.52-1.74-0.601-2.46-0.24c-0.72,0.359-1.3,0.84-1.74,1.439
		c-0.081,0.081-0.17,0.271-0.27,0.57c-0.1,0.3-0.201,0.621-0.3,0.96c-0.1,0.341-0.15,0.681-0.15,1.021s0.099,0.59,0.3,0.75
		c0.68,0.6,1.38,0.96,2.1,1.079c0.72,0.12,1.38,0.091,1.98-0.09c0.6-0.18,1.11-0.489,1.53-0.93c0.42-0.439,0.69-0.93,0.81-1.47
		c0.12-0.54,0.04-1.08-0.24-1.62C85.666,439.87,85.146,439.381,84.386,438.94z"/>
	<path d="M89.966,435.1c0.08-0.519,0.339-0.859,0.78-1.02c0.439-0.159,0.699,0.08,0.78,0.72c0,1.041-0.01,2.061-0.03,3.061
		c-0.021,1-0.051,2.02-0.09,3.06c0.919-1.32,1.71-2.31,2.37-2.97c0.66-0.66,1.28-0.97,1.86-0.931c0.579,0.041,1.149,0.45,1.71,1.23
		c0.56,0.78,1.2,1.91,1.92,3.39c0.32-2.52,1.2-4.159,2.64-4.92c1.44-0.759,3.24-0.479,5.4,0.84c0.68,0.441,1.23,1.001,1.65,1.681
		c0.42,0.681,0.75,1.41,0.99,2.189c0.24,0.78,0.42,1.581,0.54,2.4c0.12,0.82,0.22,1.59,0.3,2.31c0.039,0.48-0.161,0.831-0.6,1.051
		c-0.44,0.22-0.741,0.05-0.9-0.511c-0.081-0.72-0.18-1.43-0.3-2.13c-0.12-0.699-0.28-1.369-0.48-2.01
		c-0.201-0.64-0.48-1.25-0.84-1.83c-0.36-0.579-0.84-1.13-1.44-1.65c-1-0.879-2.04-1.209-3.12-0.989s-1.8,1.011-2.16,2.37
		c-0.24,0.92-0.37,1.71-0.39,2.369c-0.021,0.66-0.03,1.41-0.03,2.25c-0.12,0.321-0.34,0.601-0.66,0.841
		c-0.321,0.239-0.6,0.141-0.84-0.301c-0.201-0.6-0.411-1.229-0.63-1.89c-0.22-0.66-0.48-1.3-0.78-1.92
		c-0.3-0.62-0.651-1.209-1.05-1.771c-0.4-0.56-0.86-1.02-1.38-1.38c-0.44,0.161-0.84,0.441-1.2,0.841
		c-0.36,0.399-0.69,0.85-0.99,1.35c-0.3,0.501-0.591,1.011-0.87,1.53c-0.28,0.52-0.54,0.96-0.78,1.319
		c-0.201,0.28-0.441,0.48-0.72,0.601c-0.28,0.12-0.52,0-0.72-0.36c-0.201-0.479-0.3-1.119-0.3-1.92c0-0.8,0.02-1.629,0.06-2.49
		c0.04-0.859,0.1-1.689,0.18-2.49C89.926,436.221,89.966,435.58,89.966,435.1z"/>
	<path d="M112.765,435.1c0.08-0.519,0.339-0.859,0.78-1.02c0.439-0.159,0.699,0.08,0.78,0.72c0,1.041-0.01,2.061-0.03,3.061
		c-0.021,1-0.051,2.02-0.09,3.06c0.919-1.32,1.71-2.31,2.37-2.97c0.66-0.66,1.28-0.97,1.86-0.931c0.579,0.041,1.149,0.45,1.71,1.23
		c0.56,0.78,1.2,1.91,1.92,3.39c0.319-2.52,1.2-4.159,2.64-4.92c1.44-0.759,3.24-0.479,5.4,0.84c0.68,0.441,1.23,1.001,1.65,1.681
		c0.42,0.681,0.75,1.41,0.989,2.189c0.24,0.78,0.421,1.581,0.54,2.4c0.12,0.82,0.22,1.59,0.301,2.31
		c0.039,0.48-0.161,0.831-0.601,1.051c-0.44,0.22-0.741,0.05-0.899-0.511c-0.081-0.72-0.181-1.43-0.301-2.13
		c-0.119-0.699-0.28-1.369-0.48-2.01c-0.2-0.64-0.479-1.25-0.84-1.83c-0.359-0.579-0.84-1.13-1.439-1.65
		c-1-0.879-2.04-1.209-3.12-0.989s-1.8,1.011-2.16,2.37c-0.239,0.92-0.37,1.71-0.39,2.369c-0.021,0.66-0.03,1.41-0.03,2.25
		c-0.12,0.321-0.341,0.601-0.659,0.841c-0.321,0.239-0.601,0.141-0.841-0.301c-0.2-0.6-0.411-1.229-0.63-1.89
		c-0.221-0.66-0.48-1.3-0.779-1.92c-0.301-0.62-0.651-1.209-1.051-1.771c-0.4-0.56-0.86-1.02-1.38-1.38
		c-0.44,0.161-0.84,0.441-1.2,0.841c-0.36,0.399-0.69,0.85-0.99,1.35c-0.3,0.501-0.591,1.011-0.87,1.53
		c-0.28,0.52-0.54,0.96-0.78,1.319c-0.201,0.28-0.441,0.48-0.72,0.601c-0.28,0.12-0.52,0-0.72-0.36c-0.201-0.479-0.3-1.119-0.3-1.92
		c0-0.8,0.02-1.629,0.06-2.49c0.04-0.859,0.1-1.689,0.18-2.49C112.725,436.221,112.765,435.58,112.765,435.1z"/>
	<path d="M138.685,438.28c-0.16,0.08-0.44,0.261-0.84,0.54c-0.4,0.28-0.741,0.54-1.021,0.779c-0.08,0.321-0.24,0.57-0.479,0.75
		c-0.24,0.181-0.521,0.15-0.84-0.09l-0.12-0.12c-0.201-0.399-0.141-0.819,0.18-1.26c0.32-0.36,0.699-0.689,1.141-0.99
		c0.439-0.3,0.84-0.589,1.199-0.87c1.92-1.399,3.64-1.969,5.16-1.71c1.52,0.261,2.779,1.011,3.78,2.25
		c0.999,1.241,1.7,2.79,2.101,4.65c0.398,1.86,0.42,3.69,0.06,5.49c-0.081,0.319-0.251,0.579-0.511,0.78
		c-0.26,0.199-0.55,0.18-0.869-0.061c-0.32-0.479-0.6-0.979-0.84-1.5c-0.24-0.52-0.501-1.02-0.78-1.5
		c-0.28-0.479-0.61-0.93-0.99-1.35s-0.87-0.75-1.47-0.99c-0.24-0.12-0.6-0.229-1.08-0.33c-0.48-0.1-0.921-0.09-1.32,0.03
		c-0.16,0.08-0.43,0.22-0.811,0.42c-0.38,0.2-0.77,0.44-1.17,0.72c-0.4,0.28-0.75,0.561-1.049,0.84
		c-0.301,0.28-0.411,0.521-0.33,0.721c0.479,0.28,0.959,0.43,1.439,0.449c0.48,0.021,0.949-0.02,1.41-0.12
		c0.459-0.099,0.93-0.219,1.41-0.359c0.48-0.14,0.96-0.25,1.439-0.33c0.279,0,0.48,0.08,0.6,0.24c0.121,0.16,0.16,0.34,0.121,0.54
		c-0.041,0.2-0.141,0.39-0.301,0.569c-0.16,0.181-0.359,0.291-0.6,0.33c-0.12,0-0.44,0.081-0.96,0.24
		c-0.521,0.16-1.181,0.32-1.979,0.479c-1.48,0.281-2.531,0.251-3.15-0.09c-0.621-0.339-0.921-0.829-0.9-1.47
		c0.02-0.64,0.301-1.34,0.84-2.1c0.541-0.76,1.21-1.41,2.01-1.95c0.801-0.54,1.681-0.88,2.641-1.021c0.96-0.14,1.859,0.07,2.7,0.63
		c0.88,0.601,1.53,1.211,1.95,1.83c0.42,0.621,0.829,1.271,1.229,1.95c0-1.359-0.21-2.679-0.63-3.96
		c-0.42-1.279-1.02-2.319-1.8-3.12c-0.78-0.8-1.731-1.239-2.851-1.319C141.284,436.82,140.044,437.28,138.685,438.28z"/>
	<path d="M150.984,437.08c0.08-0.52,0.34-0.859,0.78-1.021c0.439-0.159,0.699,0.081,0.78,0.721l-0.121,3.66
		c0.961-1.359,2.07-2.28,3.33-2.761c1.261-0.479,2.439-0.499,3.541-0.06c1.1,0.44,2.01,1.33,2.73,2.67
		c0.719,1.341,0.998,3.13,0.84,5.37v0.06h-0.061c-0.121,0.36-0.359,0.621-0.721,0.78c-0.359,0.16-0.619-0.02-0.779-0.54v-0.72
		c0.039-1.92-0.33-3.41-1.109-4.471c-0.781-1.059-1.681-1.649-2.701-1.77c-1.02-0.12-2.03,0.261-3.029,1.14
		c-1,0.881-1.721,2.341-2.16,4.38c0,0.081-0.021,0.12-0.061,0.12V445h-0.18c-0.201,0.24-0.44,0.381-0.72,0.42
		c-0.28,0.04-0.479-0.159-0.601-0.6v-0.24c0.08-1.279,0.13-2.529,0.15-3.75C150.914,439.61,150.944,438.36,150.984,437.08z"/>
	<path d="M177.984,444.46c-0.201,0.561-0.52,0.86-0.961,0.9c-0.52,0-0.859-0.189-1.02-0.57c-0.16-0.38-0.24-0.819-0.24-1.32
		c0-0.499,0.031-1.02,0.09-1.56c0.061-0.54,0.051-0.97-0.029-1.29c-0.119-0.601-0.43-1.11-0.93-1.53s-1.061-0.759-1.68-1.02
		c-0.621-0.26-1.271-0.46-1.951-0.601c-0.68-0.14-1.279-0.21-1.799-0.21c-0.922-0.039-1.641,0.19-2.16,0.69
		c-0.521,0.5-0.871,1.12-1.051,1.859c-0.18,0.741-0.201,1.53-0.061,2.37s0.4,1.59,0.781,2.25c0.379,0.66,0.869,1.15,1.469,1.471
		c0.602,0.32,1.281,0.32,2.041,0c0.561-0.24,1.07-0.57,1.529-0.99c0.461-0.42,0.93-0.789,1.41-1.11c0.561-0.199,0.871-0.1,0.93,0.3
		c0.061,0.4-0.07,0.761-0.389,1.08c-0.561,0.4-1.092,0.84-1.59,1.32c-0.502,0.48-1.072,0.84-1.711,1.08
		c-1,0.36-1.891,0.381-2.67,0.06c-0.779-0.319-1.43-0.849-1.949-1.59c-0.521-0.739-0.91-1.609-1.17-2.609
		c-0.262-1-0.361-1.97-0.301-2.91c0.061-0.939,0.279-1.79,0.66-2.55c0.379-0.76,0.93-1.261,1.65-1.5c3.158-1.12,5.959-0.8,8.4,0.96
		c0.318,0.239,0.559,0.5,0.719,0.779c0-0.039-0.029-0.479-0.09-1.319c-0.061-0.841-0.131-1.891-0.209-3.15
		c-0.082-1.26-0.182-2.649-0.301-4.17c-0.119-1.52-0.24-2.99-0.359-4.41c-0.121-1.419-0.24-2.7-0.361-3.84
		c-0.119-1.14-0.24-1.989-0.359-2.55c0.08-0.52,0.34-0.86,0.779-1.021c0.441-0.159,0.699,0.081,0.781,0.721L177.984,444.46z"/>
	<path d="M178.223,419.44c0.082-0.52,0.342-0.86,0.781-1.021c0.439-0.159,0.699,0.081,0.779,0.72c0.08,4.761,0.301,9.48,0.66,14.16
		c0.359,4.681,0.58,9.4,0.66,14.16c-0.119,0.4-0.371,0.69-0.75,0.87c-0.381,0.18-0.65-0.011-0.811-0.57
		c-0.08-4.76-0.299-9.489-0.66-14.189C178.523,428.87,178.305,424.16,178.223,419.44z"/>
	<path d="M184.523,437.68c0.08-0.52,0.34-0.859,0.781-1.02c0.439-0.159,0.699,0.08,0.779,0.72c-0.041,1.641-0.15,3.25-0.33,4.83
		c-0.18,1.581-0.291,3.19-0.33,4.83c-0.119,0.4-0.371,0.69-0.75,0.87c-0.381,0.18-0.65-0.01-0.811-0.57
		c0.039-1.64,0.15-3.26,0.33-4.859S184.484,439.28,184.523,437.68z M186.684,430.6c-0.279,0.041-0.49,0-0.629-0.119
		c-0.141-0.12-0.211-0.271-0.211-0.45c0-0.181,0.051-0.36,0.15-0.54c0.1-0.181,0.25-0.33,0.449-0.45
		c0.201-0.439,0.49-0.69,0.871-0.75c0.379-0.06,0.609,0.19,0.689,0.75c-0.08,0.36-0.221,0.681-0.42,0.96
		C187.383,430.28,187.084,430.48,186.684,430.6z"/>
	<path d="M189.744,437.08c0.078-0.52,0.338-0.859,0.779-1.021c0.439-0.159,0.699,0.081,0.779,0.721l-0.119,3.66
		c0.959-1.359,2.07-2.28,3.33-2.761c1.26-0.479,2.439-0.499,3.539-0.06c1.1,0.44,2.01,1.33,2.73,2.67c0.721,1.341,1,3.13,0.84,5.37
		v0.06h-0.061c-0.119,0.36-0.359,0.621-0.719,0.78c-0.361,0.16-0.621-0.02-0.781-0.54v-0.72c0.041-1.92-0.33-3.41-1.109-4.471
		c-0.779-1.059-1.68-1.649-2.699-1.77c-1.021-0.12-2.031,0.261-3.031,1.14c-1,0.881-1.719,2.341-2.16,4.38
		c0,0.081-0.02,0.12-0.059,0.12V445h-0.18c-0.201,0.24-0.441,0.381-0.721,0.42c-0.281,0.04-0.48-0.159-0.6-0.6v-0.24
		c0.078-1.279,0.129-2.529,0.148-3.75C189.674,439.61,189.703,438.36,189.744,437.08z"/>
	<path d="M210.203,436.36c0.68,0.64,1.109,1.25,1.289,1.83c0.182,0.58,0.17,1.13-0.029,1.649c-0.201,0.521-0.531,0.99-0.99,1.41
		s-0.99,0.761-1.59,1.02c-0.6,0.261-1.221,0.431-1.859,0.511c-0.641,0.08-1.221,0.04-1.74-0.12c0.32,2.16,1.279,3.43,2.881,3.81
		c1.598,0.381,3.619-0.409,6.059-2.37c0.279-0.199,0.51-0.279,0.691-0.239c0.18,0.04,0.309,0.13,0.389,0.27
		c0.08,0.141,0.1,0.32,0.061,0.54c-0.041,0.221-0.16,0.431-0.359,0.63c-1.041,0.84-2.092,1.53-3.15,2.07
		c-1.061,0.54-2.08,0.84-3.061,0.899c-0.98,0.061-1.891-0.18-2.73-0.72s-1.559-1.509-2.16-2.91c-0.238-0.6-0.389-1.419-0.449-2.46
		c-0.061-1.039,0.029-2.079,0.27-3.12c0.24-1.039,0.621-1.97,1.141-2.79c0.52-0.819,1.238-1.31,2.16-1.47
		c0.639-0.12,1.23,0.03,1.77,0.45C209.334,435.67,209.803,436.04,210.203,436.36z M205.523,438.28
		c-0.16,0.76-0.281,1.521-0.359,2.279c0.199,0.28,0.529,0.441,0.988,0.48c0.461,0.04,0.939,0,1.441-0.12
		c0.5-0.12,0.979-0.29,1.439-0.51c0.459-0.22,0.77-0.45,0.93-0.69c-0.08-0.52-0.32-1.06-0.721-1.62
		c-0.398-0.56-0.84-0.979-1.318-1.26c-0.48-0.279-0.951-0.339-1.41-0.18C206.053,436.82,205.723,437.36,205.523,438.28z"/>
	<path d="M222.98,433.78c-0.279-0.04-0.459-0.14-0.539-0.3s-0.09-0.33-0.029-0.511c0.059-0.18,0.16-0.35,0.299-0.51
		c0.141-0.159,0.291-0.279,0.451-0.36c0.6,0,1.18-0.02,1.738-0.06c0.561-0.039,1.121-0.1,1.682-0.18
		c-0.082-1.16-0.131-2.39-0.15-3.69c-0.021-1.299-0.051-2.709-0.09-4.229c0.078-0.52,0.338-0.86,0.779-1.021
		c0.439-0.159,0.699,0.081,0.779,0.72c0.041,1.521,0.07,2.94,0.09,4.261c0.021,1.319,0.07,2.58,0.15,3.779
		c1.041-0.199,2.07-0.409,3.09-0.63c1.021-0.219,2.051-0.429,3.09-0.63c0.279,0,0.48,0.07,0.602,0.21
		c0.119,0.141,0.158,0.3,0.119,0.48c-0.041,0.18-0.119,0.359-0.24,0.54c-0.119,0.18-0.26,0.33-0.42,0.449
		c-1.041,0.201-2.061,0.411-3.061,0.631s-2.02,0.41-3.059,0.569c0.119,2.2,0.229,4.391,0.33,6.57c0.1,2.181,0.189,4.69,0.27,7.53
		c-0.121,0.4-0.371,0.689-0.75,0.869c-0.381,0.181-0.65-0.01-0.811-0.569c-0.08-2.84-0.17-5.36-0.27-7.561
		c-0.1-2.199-0.211-4.399-0.33-6.6c-0.639,0.081-1.26,0.141-1.859,0.18C224.24,433.761,223.621,433.78,222.98,433.78z"/>
	<path d="M235.279,436.78c0.32-0.08,0.74-0.1,1.26-0.061c0.52,0.041,1.051,0.12,1.59,0.24c0.541,0.12,1.051,0.28,1.531,0.48
		s0.84,0.44,1.08,0.72c0.879,1.16,1.25,2.31,1.109,3.45c-0.141,1.14-0.58,2.11-1.32,2.909c-0.74,0.801-1.689,1.351-2.85,1.65
		s-2.32,0.171-3.48-0.39c-0.32-0.159-0.629-0.3-0.93-0.42c-0.299-0.12-0.57-0.301-0.811-0.54c-0.4-0.399-0.59-1.051-0.568-1.95
		c0.02-0.9,0.18-1.8,0.479-2.7c0.301-0.9,0.711-1.689,1.23-2.37C234.119,437.12,234.68,436.78,235.279,436.78z M238.279,438.94
		c-0.92-0.52-1.74-0.601-2.459-0.24c-0.721,0.359-1.301,0.84-1.74,1.439c-0.08,0.081-0.172,0.271-0.27,0.57
		c-0.102,0.3-0.201,0.621-0.301,0.96c-0.1,0.341-0.15,0.681-0.15,1.021s0.1,0.59,0.301,0.75c0.68,0.6,1.379,0.96,2.1,1.079
		c0.721,0.12,1.381,0.091,1.98-0.09c0.6-0.18,1.109-0.489,1.529-0.93c0.42-0.439,0.689-0.93,0.811-1.47
		c0.119-0.54,0.039-1.08-0.24-1.62C239.559,439.87,239.039,439.381,238.279,438.94z"/>
	<path d="M246.619,436.78c0.32-0.08,0.74-0.1,1.26-0.061c0.52,0.041,1.051,0.12,1.59,0.24c0.541,0.12,1.051,0.28,1.531,0.48
		s0.84,0.44,1.08,0.72c0.879,1.16,1.25,2.31,1.109,3.45c-0.141,1.14-0.58,2.11-1.32,2.909c-0.74,0.801-1.689,1.351-2.85,1.65
		s-2.32,0.171-3.48-0.39c-0.32-0.159-0.629-0.3-0.93-0.42c-0.299-0.12-0.57-0.301-0.811-0.54c-0.4-0.399-0.59-1.051-0.568-1.95
		c0.02-0.9,0.18-1.8,0.479-2.7c0.301-0.9,0.711-1.689,1.23-2.37C245.459,437.12,246.02,436.78,246.619,436.78z M249.619,438.94
		c-0.92-0.52-1.74-0.601-2.459-0.24c-0.721,0.359-1.301,0.84-1.74,1.439c-0.08,0.081-0.172,0.271-0.27,0.57
		c-0.102,0.3-0.201,0.621-0.301,0.96c-0.1,0.341-0.15,0.681-0.15,1.021s0.1,0.59,0.301,0.75c0.68,0.6,1.379,0.96,2.1,1.079
		c0.721,0.12,1.381,0.091,1.98-0.09c0.6-0.18,1.109-0.489,1.529-0.93c0.42-0.439,0.689-0.93,0.811-1.47
		c0.119-0.54,0.039-1.08-0.24-1.62C250.898,439.87,250.379,439.381,249.619,438.94z"/>
	<path d="M253.52,419.44c0.08-0.52,0.34-0.86,0.779-1.021c0.439-0.159,0.699,0.081,0.781,0.72c0.078,4.761,0.299,9.48,0.66,14.16
		c0.359,4.681,0.578,9.4,0.66,14.16c-0.121,0.4-0.371,0.69-0.75,0.87c-0.381,0.18-0.652-0.011-0.811-0.57
		c-0.08-4.76-0.301-9.489-0.66-14.189S253.6,424.16,253.52,419.44z"/>
</g>
<g>
	<path d="M120.803,101.321c-0.201,0.561-0.521,0.86-0.96,0.9c-0.521,0-0.861-0.189-1.02-0.57c-0.16-0.38-0.24-0.819-0.24-1.32
		c0-0.499,0.03-1.02,0.09-1.56s0.049-0.97-0.03-1.29c-0.12-0.601-0.43-1.11-0.93-1.53c-0.501-0.42-1.061-0.759-1.68-1.02
		c-0.621-0.26-1.271-0.46-1.95-0.601c-0.681-0.14-1.28-0.21-1.8-0.21c-0.921-0.039-1.641,0.19-2.16,0.69
		c-0.52,0.5-0.87,1.12-1.05,1.859c-0.18,0.741-0.201,1.53-0.06,2.37c0.14,0.84,0.399,1.59,0.78,2.25c0.38,0.66,0.87,1.15,1.47,1.471
		s1.28,0.32,2.04,0c0.56-0.24,1.07-0.57,1.53-0.99c0.459-0.42,0.93-0.789,1.41-1.11c0.56-0.199,0.87-0.1,0.93,0.3
		c0.06,0.4-0.07,0.761-0.39,1.08c-0.561,0.4-1.09,0.84-1.59,1.32c-0.501,0.48-1.071,0.84-1.71,1.08c-1,0.36-1.89,0.381-2.67,0.06
		c-0.78-0.319-1.431-0.849-1.95-1.59c-0.521-0.739-0.911-1.609-1.17-2.609c-0.261-1-0.36-1.97-0.3-2.91
		c0.06-0.939,0.279-1.79,0.66-2.55c0.379-0.76,0.93-1.261,1.65-1.5c3.159-1.12,5.96-0.8,8.4,0.96c0.32,0.239,0.56,0.5,0.72,0.779
		c0-0.039-0.03-0.479-0.09-1.319c-0.06-0.841-0.13-1.891-0.21-3.15c-0.081-1.26-0.18-2.649-0.3-4.17c-0.12-1.52-0.24-2.99-0.36-4.41
		c-0.12-1.419-0.24-2.7-0.36-3.84c-0.12-1.14-0.24-1.989-0.36-2.55c0.08-0.52,0.339-0.86,0.78-1.021
		c0.439-0.159,0.699,0.081,0.78,0.721L120.803,101.321z"/>
	<path d="M125.482,93.641c0.32-0.08,0.74-0.1,1.26-0.061c0.52,0.041,1.051,0.12,1.59,0.24c0.541,0.12,1.051,0.28,1.53,0.48
		s0.84,0.44,1.08,0.72c0.88,1.16,1.249,2.31,1.11,3.45c-0.141,1.14-0.58,2.11-1.32,2.909c-0.74,0.801-1.69,1.351-2.85,1.65
		c-1.161,0.3-2.32,0.171-3.48-0.39c-0.32-0.159-0.63-0.3-0.93-0.42c-0.301-0.12-0.57-0.301-0.811-0.54
		c-0.4-0.399-0.59-1.051-0.57-1.95c0.021-0.9,0.181-1.8,0.48-2.7c0.301-0.9,0.71-1.689,1.23-2.37
		C124.322,93.981,124.883,93.641,125.482,93.641z M128.482,95.801c-0.921-0.52-1.74-0.601-2.46-0.24
		c-0.72,0.359-1.3,0.84-1.74,1.439c-0.081,0.081-0.171,0.271-0.271,0.57s-0.2,0.621-0.299,0.96c-0.101,0.341-0.15,0.681-0.15,1.021
		s0.1,0.59,0.3,0.75c0.68,0.6,1.38,0.96,2.101,1.079c0.72,0.12,1.379,0.091,1.979-0.09c0.601-0.18,1.11-0.489,1.53-0.93
		c0.42-0.439,0.689-0.93,0.81-1.47s0.04-1.08-0.239-1.62C129.762,96.731,129.242,96.242,128.482,95.801z"/>
	<path d="M139.643,94.901c0.159,0.2,0.24,0.41,0.24,0.63c0,0.221-0.061,0.411-0.181,0.57c-0.12,0.16-0.28,0.27-0.479,0.33
		c-0.201,0.06-0.42,0.01-0.66-0.15l-1.26-1.14c-0.601,0-1.08,0.21-1.44,0.63s-0.63,0.91-0.81,1.47
		c-0.181,0.561-0.262,1.15-0.24,1.771c0.02,0.62,0.129,1.17,0.33,1.649c0.359,0.84,0.92,1.38,1.68,1.62s1.569,0.3,2.43,0.18
		c0.859-0.119,1.711-0.369,2.551-0.75c0.84-0.379,1.539-0.81,2.1-1.29c0.08-0.319,0.26-0.549,0.54-0.689
		c0.279-0.14,0.56-0.05,0.84,0.27l0.06,0.12c0.2,0.4,0.1,0.801-0.3,1.2c-0.521,0.48-1.101,0.88-1.739,1.2
		c-0.641,0.32-1.281,0.62-1.92,0.899c-0.601,0.24-1.191,0.431-1.771,0.57c-0.581,0.141-1.21,0.23-1.89,0.271
		c-1.32,0.04-2.301-0.271-2.94-0.931s-1.05-1.47-1.229-2.43c-0.181-0.96-0.16-1.97,0.06-3.03c0.22-1.06,0.51-1.97,0.87-2.729
		c0.119-0.24,0.33-0.5,0.63-0.78c0.3-0.279,0.63-0.52,0.989-0.72c0.361-0.2,0.73-0.32,1.111-0.36c0.379-0.039,0.709,0.061,0.989,0.3
		c0.279,0.201,0.53,0.411,0.75,0.63C139.172,94.431,139.402,94.661,139.643,94.901z"/>
	<path d="M146.721,94.361c0-0.199,0.07-0.39,0.211-0.57c0.139-0.18,0.289-0.319,0.449-0.42c0.16-0.1,0.32-0.12,0.48-0.06
		c0.159,0.06,0.279,0.23,0.359,0.51c0.08,0.641,0.141,1.221,0.181,1.74c0.04,0.521,0.099,1.02,0.181,1.5
		c0.079,0.479,0.209,0.95,0.389,1.41c0.181,0.46,0.43,0.97,0.75,1.529c0.52,0.841,1.12,1.44,1.801,1.801
		c0.68,0.359,1.359,0.5,2.04,0.42c0.68-0.08,1.29-0.399,1.829-0.96c0.541-0.561,0.931-1.32,1.171-2.28
		c0.2-0.8,0.319-1.569,0.36-2.311c0.039-0.739,0.079-1.489,0.119-2.25c0.039-0.359,0.211-0.669,0.51-0.93
		c0.301-0.26,0.609-0.21,0.931,0.15c0.239,0.44,0.439,1.19,0.601,2.25c0.158,1.06,0.289,2.14,0.389,3.239
		c0.1,1.102,0.181,2.091,0.24,2.971c0.061,0.88,0.09,1.341,0.09,1.38c0.04,0.479-0.16,0.83-0.6,1.05
		c-0.44,0.221-0.74,0.051-0.9-0.51c-0.16-0.72-0.25-1.46-0.27-2.22c-0.021-0.76-0.051-1.54-0.09-2.341
		c-0.201,0.441-0.381,0.891-0.54,1.351c-0.16,0.46-0.4,0.891-0.72,1.29c-1.2,1.521-2.4,2.279-3.6,2.279
		c-1.201,0-2.281-0.459-3.24-1.38c-0.961-0.919-1.73-2.169-2.311-3.75C146.951,97.671,146.682,96.041,146.721,94.361z"/>
	<path d="M161.721,91.96c0.08-0.519,0.34-0.859,0.78-1.02c0.439-0.159,0.699,0.08,0.78,0.72c0,1.041-0.011,2.061-0.03,3.061
		c-0.021,1-0.051,2.02-0.09,3.06c0.919-1.32,1.71-2.31,2.37-2.97s1.279-0.97,1.859-0.931c0.58,0.041,1.15,0.45,1.711,1.23
		c0.559,0.78,1.199,1.91,1.92,3.39c0.319-2.52,1.199-4.159,2.64-4.92c1.44-0.759,3.239-0.479,5.399,0.84
		c0.68,0.441,1.23,1.001,1.65,1.681c0.42,0.681,0.75,1.41,0.99,2.189c0.24,0.78,0.42,1.581,0.539,2.4
		c0.121,0.82,0.221,1.59,0.301,2.31c0.039,0.48-0.16,0.831-0.6,1.051c-0.441,0.22-0.741,0.05-0.9-0.511
		c-0.08-0.72-0.18-1.43-0.301-2.13c-0.119-0.699-0.279-1.369-0.479-2.01c-0.2-0.64-0.479-1.25-0.84-1.83
		c-0.36-0.579-0.84-1.13-1.44-1.65c-1-0.879-2.039-1.209-3.119-0.989s-1.801,1.011-2.16,2.37c-0.24,0.92-0.371,1.71-0.391,2.369
		c-0.02,0.66-0.029,1.41-0.029,2.25c-0.12,0.321-0.341,0.601-0.66,0.841c-0.32,0.239-0.6,0.141-0.84-0.301
		c-0.201-0.6-0.411-1.229-0.631-1.89s-0.479-1.3-0.779-1.92c-0.301-0.62-0.65-1.209-1.051-1.771c-0.4-0.56-0.859-1.02-1.379-1.38
		c-0.441,0.161-0.84,0.441-1.201,0.841c-0.359,0.399-0.689,0.85-0.989,1.35c-0.3,0.501-0.591,1.011-0.87,1.53
		c-0.28,0.52-0.54,0.96-0.779,1.319c-0.201,0.28-0.441,0.48-0.721,0.601c-0.28,0.12-0.52,0-0.72-0.36c-0.2-0.479-0.3-1.119-0.3-1.92
		c0-0.8,0.02-1.629,0.06-2.49c0.04-0.859,0.1-1.689,0.181-2.49C161.681,93.082,161.721,92.441,161.721,91.96z"/>
	<path d="M190.761,93.221c0.68,0.64,1.11,1.25,1.29,1.83s0.17,1.13-0.03,1.649c-0.2,0.521-0.53,0.99-0.989,1.41
		c-0.461,0.42-0.99,0.761-1.59,1.02c-0.601,0.261-1.221,0.431-1.861,0.511c-0.64,0.08-1.221,0.04-1.739-0.12
		c0.319,2.16,1.28,3.43,2.88,3.81c1.6,0.381,3.619-0.409,6.061-2.37c0.279-0.199,0.51-0.279,0.689-0.239s0.31,0.13,0.391,0.27
		c0.079,0.141,0.099,0.32,0.06,0.54c-0.04,0.221-0.161,0.431-0.36,0.63c-1.041,0.84-2.09,1.53-3.15,2.07
		c-1.06,0.54-2.08,0.84-3.06,0.899c-0.98,0.061-1.89-0.18-2.729-0.72s-1.561-1.509-2.16-2.91c-0.24-0.6-0.391-1.419-0.45-2.46
		c-0.06-1.039,0.03-2.079,0.271-3.12c0.239-1.039,0.619-1.97,1.14-2.79c0.519-0.819,1.239-1.31,2.159-1.47
		c0.641-0.12,1.23,0.03,1.771,0.45S190.36,92.901,190.761,93.221z M186.08,95.141c-0.16,0.76-0.279,1.521-0.359,2.279
		c0.199,0.28,0.529,0.441,0.99,0.48c0.459,0.04,0.939,0,1.439-0.12s0.98-0.29,1.44-0.51s0.77-0.45,0.93-0.69
		c-0.081-0.52-0.32-1.06-0.72-1.62c-0.4-0.56-0.84-0.979-1.32-1.26c-0.48-0.279-0.95-0.339-1.41-0.18
		C186.61,93.681,186.28,94.221,186.08,95.141z"/>
	<path d="M197.959,93.941c0.08-0.52,0.34-0.859,0.781-1.021c0.439-0.159,0.699,0.081,0.779,0.721l-0.12,3.66
		c0.96-1.359,2.07-2.28,3.33-2.761c1.261-0.479,2.439-0.499,3.54-0.06c1.1,0.44,2.01,1.33,2.73,2.67
		c0.72,1.341,0.999,3.13,0.84,5.37v0.06h-0.061c-0.119,0.36-0.359,0.621-0.72,0.78c-0.36,0.16-0.62-0.02-0.78-0.54v-0.72
		c0.039-1.92-0.33-3.41-1.109-4.471c-0.78-1.059-1.68-1.649-2.7-1.77s-2.03,0.261-3.03,1.14c-1,0.881-1.721,2.341-2.16,4.38
		c0,0.081-0.021,0.12-0.06,0.12v0.36h-0.181c-0.2,0.24-0.439,0.381-0.719,0.42c-0.281,0.04-0.48-0.159-0.601-0.6v-0.24
		c0.079-1.279,0.13-2.529,0.149-3.75C197.889,96.471,197.92,95.221,197.959,93.941z"/>
	<path d="M208.159,90.641c-0.279-0.04-0.459-0.14-0.54-0.3c-0.08-0.16-0.09-0.33-0.029-0.511c0.06-0.18,0.16-0.35,0.3-0.51
		c0.141-0.159,0.29-0.279,0.45-0.36c0.6,0,1.18-0.02,1.74-0.06c0.561-0.039,1.119-0.1,1.68-0.18c-0.081-1.16-0.131-2.39-0.15-3.69
		c-0.021-1.299-0.051-2.709-0.09-4.229c0.08-0.52,0.34-0.86,0.779-1.021c0.44-0.159,0.7,0.081,0.781,0.72
		c0.039,1.521,0.068,2.94,0.09,4.261c0.02,1.319,0.068,2.58,0.149,3.779c1.04-0.199,2.07-0.409,3.09-0.63
		c1.021-0.219,2.05-0.429,3.091-0.63c0.279,0,0.479,0.07,0.6,0.21c0.119,0.141,0.159,0.3,0.119,0.48
		c-0.039,0.18-0.119,0.359-0.239,0.54c-0.12,0.18-0.261,0.33-0.42,0.449c-1.041,0.201-2.061,0.411-3.06,0.631
		c-1.001,0.22-2.021,0.41-3.061,0.569c0.12,2.2,0.229,4.391,0.33,6.57c0.1,2.181,0.189,4.69,0.27,7.53
		c-0.119,0.4-0.37,0.689-0.75,0.869c-0.381,0.181-0.65-0.01-0.81-0.569c-0.081-2.84-0.171-5.36-0.271-7.561
		c-0.1-2.199-0.209-4.399-0.33-6.6c-0.639,0.081-1.26,0.141-1.859,0.18C209.42,90.622,208.8,90.641,208.159,90.641z"/>
	<path d="M219.379,95.141c-0.16,0.08-0.44,0.261-0.84,0.54c-0.4,0.28-0.74,0.54-1.02,0.779c-0.081,0.321-0.24,0.57-0.48,0.75
		c-0.24,0.181-0.521,0.15-0.84-0.09l-0.12-0.12c-0.2-0.399-0.141-0.819,0.18-1.26c0.319-0.36,0.7-0.689,1.14-0.99
		c0.44-0.3,0.84-0.589,1.201-0.87c1.92-1.399,3.639-1.969,5.159-1.71c1.521,0.261,2.78,1.011,3.78,2.25c1,1.241,1.699,2.79,2.1,4.65
		s0.42,3.69,0.061,5.49c-0.081,0.319-0.25,0.579-0.51,0.78c-0.262,0.199-0.551,0.18-0.871-0.061c-0.32-0.479-0.6-0.979-0.84-1.5
		c-0.24-0.52-0.5-1.02-0.779-1.5c-0.281-0.479-0.61-0.93-0.99-1.35c-0.381-0.42-0.87-0.75-1.471-0.99
		c-0.239-0.12-0.6-0.229-1.079-0.33c-0.479-0.1-0.921-0.09-1.32,0.03c-0.16,0.08-0.431,0.22-0.81,0.42
		c-0.381,0.2-0.771,0.44-1.17,0.72c-0.4,0.28-0.75,0.561-1.051,0.84c-0.3,0.28-0.41,0.521-0.33,0.721
		c0.48,0.28,0.961,0.43,1.44,0.449c0.479,0.021,0.95-0.02,1.41-0.12c0.46-0.099,0.93-0.219,1.409-0.359
		c0.48-0.14,0.961-0.25,1.441-0.33c0.279,0,0.479,0.08,0.6,0.24c0.119,0.16,0.159,0.34,0.119,0.54
		c-0.039,0.2-0.141,0.39-0.299,0.569c-0.161,0.181-0.361,0.291-0.601,0.33c-0.12,0-0.44,0.081-0.96,0.24
		c-0.521,0.16-1.18,0.32-1.98,0.479c-1.48,0.281-2.529,0.251-3.149-0.09c-0.62-0.339-0.921-0.829-0.9-1.47
		c0.021-0.64,0.3-1.34,0.841-2.1c0.539-0.76,1.209-1.41,2.01-1.95c0.799-0.54,1.68-0.88,2.64-1.021c0.96-0.14,1.86,0.07,2.7,0.63
		c0.879,0.601,1.529,1.211,1.949,1.83c0.42,0.621,0.83,1.271,1.23,1.95c0-1.359-0.21-2.679-0.63-3.96
		c-0.42-1.279-1.021-2.319-1.8-3.12c-0.78-0.8-1.73-1.239-2.85-1.319C221.979,93.681,220.738,94.141,219.379,95.141z"/>
	<path d="M228.078,90.641c-0.279-0.04-0.459-0.14-0.539-0.3s-0.09-0.33-0.03-0.511c0.06-0.18,0.16-0.35,0.3-0.51
		c0.141-0.159,0.291-0.279,0.45-0.36c0.601,0,1.181-0.02,1.74-0.06c0.561-0.039,1.12-0.1,1.68-0.18
		c-0.081-1.16-0.13-2.39-0.149-3.69c-0.021-1.299-0.051-2.709-0.09-4.229c0.079-0.52,0.339-0.86,0.779-1.021
		c0.439-0.159,0.699,0.081,0.78,0.72c0.039,1.521,0.069,2.94,0.09,4.261c0.02,1.319,0.069,2.58,0.149,3.779
		c1.04-0.199,2.07-0.409,3.09-0.63c1.021-0.219,2.051-0.429,3.091-0.63c0.279,0,0.479,0.07,0.601,0.21
		c0.119,0.141,0.158,0.3,0.119,0.48c-0.04,0.18-0.119,0.359-0.24,0.54c-0.119,0.18-0.26,0.33-0.42,0.449
		c-1.041,0.201-2.061,0.411-3.06,0.631c-1.001,0.22-2.021,0.41-3.06,0.569c0.119,2.2,0.229,4.391,0.33,6.57
		c0.099,2.181,0.189,4.69,0.27,7.53c-0.12,0.4-0.371,0.689-0.75,0.869c-0.381,0.181-0.65-0.01-0.811-0.569
		c-0.08-2.84-0.17-5.36-0.27-7.561c-0.101-2.199-0.21-4.399-0.33-6.6c-0.639,0.081-1.26,0.141-1.859,0.18
		C229.339,90.622,228.719,90.641,228.078,90.641z"/>
	<path d="M240.617,94.541c0.08-0.52,0.34-0.859,0.78-1.02c0.44-0.159,0.7,0.08,0.78,0.72c-0.041,1.641-0.15,3.25-0.33,4.83
		c-0.18,1.581-0.291,3.19-0.33,4.83c-0.12,0.4-0.37,0.69-0.75,0.87c-0.381,0.18-0.65-0.01-0.811-0.57
		c0.04-1.64,0.15-3.26,0.33-4.859C240.468,97.742,240.577,96.141,240.617,94.541z M242.777,87.46c-0.279,0.041-0.49,0-0.63-0.119
		c-0.141-0.12-0.21-0.271-0.21-0.45c0-0.181,0.05-0.36,0.15-0.54c0.1-0.181,0.249-0.33,0.449-0.45c0.2-0.439,0.49-0.69,0.871-0.75
		c0.379-0.06,0.609,0.19,0.689,0.75c-0.08,0.36-0.221,0.681-0.42,0.96C243.477,87.141,243.178,87.341,242.777,87.46z"/>
	<path d="M249.018,93.641c0.319-0.08,0.739-0.1,1.26-0.061c0.52,0.041,1.05,0.12,1.59,0.24s1.05,0.28,1.529,0.48
		c0.48,0.2,0.84,0.44,1.08,0.72c0.88,1.16,1.25,2.31,1.11,3.45c-0.141,1.14-0.58,2.11-1.319,2.909
		c-0.741,0.801-1.691,1.351-2.851,1.65c-1.161,0.3-2.32,0.171-3.479-0.39c-0.321-0.159-0.631-0.3-0.931-0.42s-0.569-0.301-0.81-0.54
		c-0.4-0.399-0.591-1.051-0.57-1.95c0.02-0.9,0.18-1.8,0.48-2.7c0.3-0.9,0.709-1.689,1.229-2.37
		C247.856,93.981,248.417,93.641,249.018,93.641z M252.018,95.801c-0.922-0.52-1.74-0.601-2.461-0.24
		c-0.72,0.359-1.3,0.84-1.74,1.439c-0.08,0.081-0.17,0.271-0.27,0.57s-0.201,0.621-0.3,0.96c-0.101,0.341-0.149,0.681-0.149,1.021
		s0.099,0.59,0.299,0.75c0.68,0.6,1.381,0.96,2.101,1.079c0.72,0.12,1.38,0.091,1.979-0.09c0.601-0.18,1.11-0.489,1.53-0.93
		c0.421-0.439,0.69-0.93,0.81-1.47c0.121-0.54,0.04-1.08-0.239-1.62C253.297,96.731,252.776,96.242,252.018,95.801z"/>
	<path d="M257.177,93.941c0.079-0.52,0.339-0.859,0.78-1.021c0.439-0.159,0.699,0.081,0.779,0.721l-0.119,3.66
		c0.959-1.359,2.07-2.28,3.33-2.761c1.26-0.479,2.439-0.499,3.539-0.06c1.1,0.44,2.011,1.33,2.73,2.67c0.721,1.341,1,3.13,0.84,5.37
		v0.06h-0.06c-0.12,0.36-0.36,0.621-0.72,0.78c-0.36,0.16-0.621-0.02-0.78-0.54v-0.72c0.039-1.92-0.33-3.41-1.11-4.471
		c-0.779-1.059-1.68-1.649-2.699-1.77c-1.021-0.12-2.031,0.261-3.031,1.14c-1,0.881-1.72,2.341-2.159,4.38
		c0,0.081-0.021,0.12-0.06,0.12v0.36h-0.181c-0.2,0.24-0.44,0.381-0.72,0.42c-0.281,0.04-0.48-0.159-0.6-0.6v-0.24
		c0.079-1.279,0.129-2.529,0.149-3.75C257.106,96.471,257.137,95.221,257.177,93.941z"/>
</g>
<g>
	<path d="M17.486,293.071c-0.279-0.04-0.459-0.14-0.54-0.3c-0.08-0.16-0.09-0.33-0.03-0.511c0.06-0.18,0.16-0.35,0.3-0.51
		c0.141-0.159,0.291-0.279,0.45-0.36c0.6,0,1.18-0.02,1.74-0.06c0.561-0.039,1.12-0.1,1.68-0.18c-0.081-1.16-0.13-2.39-0.15-3.69
		c-0.021-1.299-0.051-2.709-0.09-4.229c0.08-0.52,0.339-0.86,0.78-1.021c0.44-0.159,0.7,0.081,0.78,0.72
		c0.039,1.521,0.069,2.94,0.09,4.261c0.02,1.319,0.069,2.58,0.15,3.779c1.04-0.199,2.07-0.409,3.09-0.63
		c1.02-0.219,2.05-0.429,3.09-0.63c0.279,0,0.48,0.07,0.6,0.21c0.12,0.141,0.159,0.3,0.12,0.48c-0.04,0.18-0.12,0.359-0.24,0.54
		c-0.12,0.18-0.261,0.33-0.42,0.449c-1.041,0.201-2.061,0.411-3.06,0.631c-1,0.22-2.021,0.41-3.06,0.569
		c0.12,2.2,0.229,4.391,0.33,6.57c0.099,2.181,0.189,4.69,0.27,7.53c-0.12,0.4-0.371,0.689-0.75,0.869
		c-0.381,0.181-0.651-0.01-0.81-0.569c-0.081-2.84-0.171-5.36-0.27-7.561c-0.101-2.199-0.21-4.399-0.33-6.6
		c-0.639,0.081-1.26,0.141-1.86,0.18C18.747,293.052,18.127,293.071,17.486,293.071z"/>
	<path d="M33.206,295.651c0.68,0.64,1.11,1.25,1.29,1.83s0.169,1.13-0.03,1.649c-0.2,0.521-0.53,0.99-0.99,1.41
		c-0.46,0.42-0.99,0.761-1.59,1.02c-0.6,0.261-1.221,0.431-1.86,0.511c-0.64,0.08-1.221,0.04-1.74-0.12
		c0.32,2.16,1.28,3.43,2.88,3.81c1.6,0.381,3.62-0.409,6.06-2.37c0.279-0.199,0.51-0.279,0.69-0.239s0.31,0.13,0.39,0.27
		c0.08,0.141,0.099,0.32,0.06,0.54c-0.041,0.221-0.161,0.431-0.36,0.63c-1.041,0.84-2.09,1.53-3.15,2.07
		c-1.06,0.54-2.08,0.84-3.06,0.899c-0.98,0.061-1.89-0.18-2.73-0.72c-0.84-0.54-1.56-1.509-2.16-2.91
		c-0.24-0.6-0.39-1.419-0.45-2.46c-0.06-1.039,0.03-2.079,0.27-3.12c0.24-1.039,0.62-1.97,1.14-2.79
		c0.519-0.819,1.239-1.31,2.16-1.47c0.64-0.12,1.23,0.03,1.77,0.45S32.806,295.331,33.206,295.651z M28.526,297.571
		c-0.16,0.76-0.28,1.521-0.36,2.279c0.2,0.28,0.53,0.441,0.99,0.48c0.459,0.04,0.939,0,1.44-0.12c0.5-0.12,0.979-0.29,1.44-0.51
		c0.459-0.22,0.77-0.45,0.93-0.69c-0.081-0.52-0.32-1.06-0.72-1.62c-0.4-0.56-0.84-0.979-1.32-1.26
		c-0.48-0.279-0.951-0.339-1.41-0.18C29.056,296.111,28.726,296.651,28.526,297.571z"/>
	<path d="M50.726,296.551c0.08,0.201,0.08,0.42,0,0.66c-0.081,0.24-0.201,0.431-0.36,0.57c-0.161,0.141-0.33,0.2-0.51,0.18
		c-0.18-0.02-0.351-0.15-0.51-0.39c-0.201-0.44-0.561-0.76-1.08-0.96c-0.521-0.2-1.131-0.301-1.83-0.301
		c-0.7,0-1.45,0.07-2.25,0.211c-0.801,0.141-1.551,0.31-2.25,0.51c-0.7,0.2-1.311,0.42-1.83,0.66c-0.52,0.239-0.86,0.46-1.02,0.659
		c0.48,0.681,1.17,1.23,2.07,1.65c0.9,0.42,1.85,0.801,2.85,1.14c1,0.341,2.01,0.66,3.03,0.96c1.02,0.301,1.89,0.69,2.61,1.171
		c0.12,0.08,0.189,0.17,0.21,0.27c0.02,0.101,0.05,0.23,0.09,0.39c-0.12,1.08-0.561,1.941-1.32,2.58
		c-0.76,0.641-1.65,1.05-2.67,1.23c-1.02,0.18-2.05,0.14-3.09-0.12c-1.041-0.261-1.881-0.75-2.52-1.47
		c-0.201-0.399-0.18-0.78,0.06-1.141c0.24-0.359,0.579-0.439,1.02-0.239c0.399,0.399,0.97,0.72,1.71,0.96
		c0.739,0.239,1.479,0.37,2.22,0.39c0.74,0.021,1.4-0.09,1.98-0.33c0.58-0.24,0.91-0.66,0.99-1.26c-0.84-0.56-1.761-0.99-2.76-1.29
		c-1-0.3-2-0.601-3-0.9c-1-0.3-1.94-0.68-2.82-1.14c-0.88-0.46-1.62-1.149-2.22-2.07c-0.24-0.399-0.201-0.819,0.12-1.26
		c0.08-0.08,0.24-0.3,0.48-0.66c0.24-0.36,0.48-0.6,0.72-0.72c0.56-0.32,1.43-0.67,2.61-1.05c1.179-0.38,2.4-0.631,3.66-0.75
		c1.26-0.12,2.419-0.061,3.48,0.18C49.655,295.111,50.366,295.672,50.726,296.551z"/>
	<path d="M48.685,293.071c-0.279-0.04-0.459-0.14-0.54-0.3c-0.08-0.16-0.09-0.33-0.03-0.511c0.06-0.18,0.16-0.35,0.3-0.51
		c0.141-0.159,0.291-0.279,0.45-0.36c0.6,0,1.18-0.02,1.74-0.06c0.561-0.039,1.12-0.1,1.68-0.18c-0.081-1.16-0.13-2.39-0.15-3.69
		c-0.021-1.299-0.051-2.709-0.09-4.229c0.08-0.52,0.339-0.86,0.78-1.021c0.44-0.159,0.7,0.081,0.78,0.72
		c0.039,1.521,0.069,2.94,0.09,4.261c0.02,1.319,0.069,2.58,0.15,3.779c1.04-0.199,2.07-0.409,3.09-0.63
		c1.02-0.219,2.05-0.429,3.09-0.63c0.279,0,0.48,0.07,0.6,0.21c0.12,0.141,0.159,0.3,0.12,0.48c-0.04,0.18-0.12,0.359-0.24,0.54
		c-0.12,0.18-0.261,0.33-0.42,0.449c-1.041,0.201-2.061,0.411-3.06,0.631c-1,0.22-2.021,0.41-3.06,0.569
		c0.12,2.2,0.229,4.391,0.33,6.57c0.099,2.181,0.189,4.69,0.27,7.53c-0.12,0.4-0.371,0.689-0.75,0.869
		c-0.381,0.181-0.651-0.01-0.81-0.569c-0.081-2.84-0.171-5.36-0.27-7.561c-0.101-2.199-0.21-4.399-0.33-6.6
		c-0.639,0.081-1.26,0.141-1.86,0.18C49.945,293.052,49.325,293.071,48.685,293.071z"/>
	<path d="M69.864,296.551c0.08,0.201,0.08,0.42,0,0.66c-0.081,0.24-0.201,0.431-0.36,0.57c-0.161,0.141-0.33,0.2-0.51,0.18
		c-0.18-0.02-0.351-0.15-0.51-0.39c-0.201-0.44-0.561-0.76-1.08-0.96c-0.521-0.2-1.131-0.301-1.83-0.301
		c-0.7,0-1.45,0.07-2.25,0.211c-0.801,0.141-1.551,0.31-2.25,0.51c-0.7,0.2-1.311,0.42-1.83,0.66c-0.52,0.239-0.86,0.46-1.02,0.659
		c0.48,0.681,1.17,1.23,2.07,1.65c0.9,0.42,1.85,0.801,2.85,1.14c1,0.341,2.01,0.66,3.03,0.96c1.02,0.301,1.89,0.69,2.61,1.171
		c0.12,0.08,0.189,0.17,0.21,0.27c0.02,0.101,0.05,0.23,0.09,0.39c-0.12,1.08-0.561,1.941-1.32,2.58
		c-0.76,0.641-1.65,1.05-2.67,1.23c-1.02,0.18-2.05,0.14-3.09-0.12c-1.041-0.261-1.881-0.75-2.52-1.47
		c-0.201-0.399-0.18-0.78,0.06-1.141c0.24-0.359,0.579-0.439,1.02-0.239c0.399,0.399,0.97,0.72,1.71,0.96
		c0.739,0.239,1.479,0.37,2.22,0.39c0.74,0.021,1.4-0.09,1.98-0.33c0.58-0.24,0.91-0.66,0.99-1.26c-0.84-0.56-1.761-0.99-2.76-1.29
		c-1-0.3-2-0.601-3-0.9c-1-0.3-1.94-0.68-2.82-1.14c-0.88-0.46-1.62-1.149-2.22-2.07c-0.24-0.399-0.201-0.819,0.12-1.26
		c0.08-0.08,0.24-0.3,0.48-0.66c0.24-0.36,0.48-0.6,0.72-0.72c0.56-0.32,1.43-0.67,2.61-1.05c1.179-0.38,2.4-0.631,3.66-0.75
		c1.26-0.12,2.419-0.061,3.48,0.18C68.793,295.111,69.504,295.672,69.864,296.551z"/>
</g>
<g>
	<path d="M111.232,176.26c0.08,0.201,0.08,0.42,0,0.66c-0.081,0.24-0.201,0.431-0.36,0.57c-0.161,0.141-0.33,0.2-0.51,0.18
		c-0.18-0.02-0.351-0.15-0.51-0.39c-0.201-0.44-0.561-0.76-1.08-0.96c-0.521-0.2-1.131-0.301-1.83-0.301
		c-0.7,0-1.45,0.07-2.25,0.211c-0.801,0.141-1.551,0.31-2.25,0.51c-0.7,0.2-1.311,0.42-1.83,0.66c-0.52,0.239-0.86,0.46-1.02,0.659
		c0.48,0.681,1.17,1.23,2.07,1.65c0.9,0.42,1.85,0.801,2.85,1.14c1,0.341,2.01,0.66,3.03,0.96c1.02,0.301,1.89,0.69,2.61,1.171
		c0.12,0.08,0.189,0.17,0.21,0.27c0.02,0.101,0.05,0.23,0.09,0.39c-0.12,1.08-0.561,1.941-1.32,2.58
		c-0.76,0.641-1.65,1.05-2.67,1.23c-1.02,0.18-2.05,0.14-3.09-0.12c-1.041-0.261-1.881-0.75-2.52-1.47
		c-0.201-0.399-0.18-0.78,0.06-1.141c0.24-0.359,0.579-0.439,1.02-0.239c0.399,0.399,0.97,0.72,1.71,0.96
		c0.739,0.239,1.479,0.37,2.22,0.39c0.74,0.021,1.4-0.09,1.98-0.33c0.58-0.24,0.91-0.66,0.99-1.26c-0.84-0.56-1.761-0.99-2.76-1.29
		c-1-0.3-2-0.601-3-0.9c-1-0.3-1.94-0.68-2.82-1.14c-0.88-0.46-1.62-1.149-2.22-2.07c-0.24-0.399-0.201-0.819,0.12-1.26
		c0.08-0.08,0.24-0.3,0.48-0.66c0.24-0.36,0.48-0.6,0.72-0.72c0.56-0.32,1.43-0.67,2.61-1.05c1.179-0.38,2.4-0.631,3.66-0.75
		c1.26-0.12,2.419-0.061,3.48,0.18C110.161,174.82,110.872,175.381,111.232,176.26z"/>
	<path d="M109.191,172.78c-0.279-0.04-0.459-0.14-0.54-0.3c-0.08-0.16-0.09-0.33-0.03-0.511c0.06-0.18,0.16-0.35,0.3-0.51
		c0.141-0.159,0.291-0.279,0.45-0.36c0.6,0,1.18-0.02,1.74-0.06c0.561-0.039,1.12-0.1,1.68-0.18c-0.081-1.16-0.13-2.39-0.15-3.69
		c-0.021-1.299-0.051-2.709-0.09-4.229c0.08-0.52,0.339-0.86,0.78-1.021c0.44-0.159,0.7,0.081,0.78,0.72
		c0.039,1.521,0.069,2.94,0.09,4.261c0.02,1.319,0.069,2.58,0.15,3.779c1.04-0.199,2.07-0.409,3.09-0.63
		c1.02-0.219,2.05-0.429,3.09-0.63c0.279,0,0.48,0.07,0.6,0.21c0.12,0.141,0.16,0.3,0.12,0.48c-0.04,0.18-0.12,0.359-0.239,0.54
		c-0.121,0.18-0.262,0.33-0.42,0.449c-1.042,0.201-2.061,0.411-3.061,0.631c-1,0.22-2.021,0.41-3.06,0.569
		c0.12,2.2,0.229,4.391,0.33,6.57c0.099,2.181,0.189,4.69,0.27,7.53c-0.12,0.4-0.371,0.689-0.75,0.869
		c-0.381,0.181-0.651-0.01-0.81-0.569c-0.081-2.84-0.171-5.36-0.27-7.561c-0.101-2.199-0.21-4.399-0.33-6.6
		c-0.639,0.081-1.26,0.141-1.86,0.18C110.451,172.761,109.832,172.78,109.191,172.78z"/>
	<path d="M120.41,177.28c-0.16,0.08-0.44,0.261-0.839,0.54c-0.4,0.28-0.741,0.54-1.02,0.779c-0.081,0.321-0.24,0.57-0.48,0.75
		c-0.24,0.181-0.521,0.15-0.84-0.09l-0.12-0.12c-0.201-0.399-0.141-0.819,0.18-1.26c0.32-0.36,0.7-0.689,1.14-0.99
		c0.44-0.3,0.84-0.589,1.2-0.87c1.92-1.399,3.639-1.969,5.16-1.71c1.52,0.261,2.779,1.011,3.779,2.25c1,1.241,1.7,2.79,2.101,4.65
		c0.399,1.86,0.42,3.69,0.06,5.49c-0.08,0.319-0.25,0.579-0.51,0.78c-0.261,0.199-0.551,0.18-0.87-0.061
		c-0.32-0.479-0.6-0.979-0.84-1.5c-0.24-0.52-0.501-1.02-0.78-1.5c-0.28-0.479-0.609-0.93-0.99-1.35
		c-0.38-0.42-0.869-0.75-1.47-0.99c-0.239-0.12-0.6-0.229-1.079-0.33c-0.48-0.1-0.922-0.09-1.32,0.03
		c-0.16,0.08-0.431,0.22-0.811,0.42c-0.381,0.2-0.771,0.44-1.17,0.72c-0.4,0.28-0.75,0.561-1.05,0.84
		c-0.3,0.28-0.411,0.521-0.33,0.721c0.48,0.28,0.96,0.43,1.44,0.449c0.479,0.021,0.949-0.02,1.41-0.12
		c0.459-0.099,0.93-0.219,1.409-0.359c0.48-0.14,0.96-0.25,1.44-0.33c0.279,0,0.48,0.08,0.6,0.24c0.12,0.16,0.16,0.34,0.12,0.54
		s-0.141,0.39-0.3,0.569c-0.16,0.181-0.36,0.291-0.6,0.33c-0.121,0-0.441,0.081-0.961,0.24c-0.52,0.16-1.18,0.32-1.979,0.479
		c-1.48,0.281-2.53,0.251-3.15-0.09c-0.621-0.339-0.921-0.829-0.9-1.47c0.02-0.64,0.3-1.34,0.84-2.1s1.209-1.41,2.01-1.95
		c0.8-0.54,1.68-0.88,2.641-1.021c0.959-0.14,1.859,0.07,2.699,0.63c0.88,0.601,1.53,1.211,1.95,1.83
		c0.42,0.621,0.829,1.271,1.229,1.95c0-1.359-0.209-2.679-0.629-3.96c-0.42-1.279-1.021-2.319-1.801-3.12
		c-0.779-0.8-1.73-1.239-2.85-1.319C123.01,175.82,121.77,176.28,120.41,177.28z"/>
	<path d="M132.71,176.08c0.079-0.52,0.339-0.859,0.78-1.021c0.439-0.159,0.699,0.081,0.779,0.721l-0.119,3.66
		c0.959-1.359,2.07-2.28,3.33-2.761c1.26-0.479,2.439-0.499,3.539-0.06c1.1,0.44,2.011,1.33,2.73,2.67c0.721,1.341,1,3.13,0.84,5.37
		v0.06h-0.06c-0.12,0.36-0.36,0.621-0.72,0.78c-0.36,0.16-0.621-0.02-0.78-0.54v-0.72c0.039-1.92-0.33-3.41-1.11-4.471
		c-0.779-1.059-1.68-1.649-2.699-1.77c-1.021-0.12-2.031,0.261-3.031,1.14c-1,0.881-1.72,2.341-2.159,4.38
		c0,0.081-0.021,0.12-0.06,0.12V184h-0.181c-0.2,0.24-0.44,0.381-0.72,0.42c-0.281,0.04-0.48-0.159-0.6-0.6v-0.24
		c0.079-1.279,0.129-2.529,0.149-3.75C132.64,178.61,132.67,177.36,132.71,176.08z"/>
	<path d="M159.71,183.46c-0.2,0.561-0.521,0.86-0.96,0.9c-0.521,0-0.861-0.189-1.02-0.57c-0.16-0.38-0.24-0.819-0.24-1.32
		c0-0.499,0.029-1.02,0.09-1.56s0.049-0.97-0.03-1.29c-0.12-0.601-0.431-1.11-0.93-1.53c-0.501-0.42-1.061-0.759-1.681-1.02
		c-0.62-0.26-1.27-0.46-1.949-0.601c-0.682-0.14-1.281-0.21-1.801-0.21c-0.92-0.039-1.641,0.19-2.16,0.69s-0.869,1.12-1.049,1.859
		c-0.181,0.741-0.201,1.53-0.061,2.37c0.14,0.84,0.399,1.59,0.779,2.25c0.381,0.66,0.871,1.15,1.471,1.471s1.279,0.32,2.04,0
		c0.56-0.24,1.069-0.57,1.53-0.99c0.459-0.42,0.93-0.789,1.41-1.11c0.559-0.199,0.869-0.1,0.93,0.3c0.061,0.4-0.07,0.761-0.391,1.08
		c-0.561,0.4-1.09,0.84-1.59,1.32s-1.07,0.84-1.709,1.08c-1.001,0.36-1.891,0.381-2.671,0.06c-0.78-0.319-1.431-0.849-1.95-1.59
		c-0.52-0.739-0.91-1.609-1.17-2.609s-0.359-1.97-0.3-2.91c0.06-0.939,0.279-1.79,0.66-2.55c0.38-0.76,0.931-1.261,1.649-1.5
		c3.16-1.12,5.961-0.8,8.4,0.96c0.32,0.239,0.561,0.5,0.721,0.779c0-0.039-0.031-0.479-0.09-1.319
		c-0.061-0.841-0.131-1.891-0.211-3.15s-0.18-2.649-0.3-4.17c-0.12-1.52-0.239-2.99-0.36-4.41c-0.119-1.419-0.24-2.7-0.359-3.84
		c-0.12-1.14-0.24-1.989-0.36-2.55c0.079-0.52,0.339-0.86,0.78-1.021c0.439-0.159,0.699,0.081,0.779,0.721L159.71,183.46z"/>
	<path d="M164.75,177.28c-0.16,0.08-0.441,0.261-0.84,0.54c-0.4,0.28-0.741,0.54-1.021,0.779c-0.081,0.321-0.24,0.57-0.479,0.75
		c-0.24,0.181-0.521,0.15-0.84-0.09l-0.121-0.12c-0.2-0.399-0.141-0.819,0.18-1.26c0.32-0.36,0.7-0.689,1.141-0.99
		c0.439-0.3,0.84-0.589,1.2-0.87c1.92-1.399,3.64-1.969,5.159-1.71c1.521,0.261,2.78,1.011,3.781,2.25
		c0.999,1.241,1.699,2.79,2.1,4.65c0.399,1.86,0.42,3.69,0.061,5.49c-0.082,0.319-0.251,0.579-0.511,0.78
		c-0.261,0.199-0.55,0.18-0.87-0.061c-0.32-0.479-0.6-0.979-0.84-1.5c-0.24-0.52-0.5-1.02-0.779-1.5
		c-0.281-0.479-0.611-0.93-0.99-1.35c-0.381-0.42-0.871-0.75-1.471-0.99c-0.24-0.12-0.6-0.229-1.08-0.33
		c-0.479-0.1-0.92-0.09-1.32,0.03c-0.16,0.08-0.43,0.22-0.81,0.42s-0.771,0.44-1.17,0.72c-0.4,0.28-0.75,0.561-1.05,0.84
		c-0.301,0.28-0.41,0.521-0.33,0.721c0.48,0.28,0.96,0.43,1.439,0.449c0.48,0.021,0.95-0.02,1.41-0.12
		c0.46-0.099,0.93-0.219,1.41-0.359c0.48-0.14,0.961-0.25,1.44-0.33c0.279,0,0.479,0.08,0.6,0.24s0.159,0.34,0.12,0.54
		c-0.04,0.2-0.141,0.39-0.3,0.569c-0.161,0.181-0.36,0.291-0.601,0.33c-0.119,0-0.439,0.081-0.959,0.24
		c-0.521,0.16-1.181,0.32-1.98,0.479c-1.48,0.281-2.53,0.251-3.15-0.09c-0.62-0.339-0.92-0.829-0.9-1.47
		c0.021-0.64,0.301-1.34,0.841-2.1s1.21-1.41,2.01-1.95s1.681-0.88,2.64-1.021c0.961-0.14,1.86,0.07,2.701,0.63
		c0.879,0.601,1.529,1.211,1.949,1.83c0.42,0.621,0.83,1.271,1.23,1.95c0-1.359-0.211-2.679-0.631-3.96
		c-0.42-1.279-1.02-2.319-1.799-3.12c-0.781-0.8-1.731-1.239-2.851-1.319C167.35,175.82,166.109,176.28,164.75,177.28z"/>
	<path d="M176.989,175.3c0.08-0.52,0.339-0.859,0.78-1.02c0.439-0.159,0.699,0.08,0.779,0.72c0.04,0.921,0.141,1.83,0.301,2.73
		c0.159,0.899,0.34,1.81,0.54,2.729c0.12-0.64,0.42-1.38,0.899-2.22c0.48-0.84,1.06-1.63,1.74-2.37c0.68-0.74,1.42-1.359,2.221-1.86
		c0.799-0.499,1.579-0.75,2.34-0.75c0.24,0.081,0.398,0.261,0.479,0.54v0.12c0.04,0.4-0.101,0.72-0.42,0.96
		c-0.321,0.24-0.601,0.261-0.84,0.061c-2.16,1.079-3.61,2.5-4.351,4.26c-0.74,1.761-1.029,3.78-0.869,6.06
		c-0.081,0.321-0.281,0.601-0.601,0.84c-0.32,0.24-0.62,0.141-0.899-0.3c-0.4-1.6-0.82-3.219-1.26-4.859
		C177.389,179.301,177.109,177.421,176.989,175.3z"/>
	<path d="M200.148,183.46c-0.2,0.561-0.52,0.86-0.959,0.9c-0.521,0-0.861-0.189-1.021-0.57c-0.16-0.38-0.24-0.819-0.24-1.32
		c0-0.499,0.03-1.02,0.091-1.56c0.06-0.54,0.049-0.97-0.031-1.29c-0.119-0.601-0.43-1.11-0.93-1.53s-1.061-0.759-1.68-1.02
		c-0.621-0.26-1.271-0.46-1.95-0.601c-0.681-0.14-1.28-0.21-1.8-0.21c-0.921-0.039-1.641,0.19-2.16,0.69s-0.87,1.12-1.05,1.859
		c-0.181,0.741-0.2,1.53-0.06,2.37c0.139,0.84,0.398,1.59,0.779,2.25c0.38,0.66,0.87,1.15,1.471,1.471c0.6,0.32,1.279,0.32,2.039,0
		c0.561-0.24,1.07-0.57,1.53-0.99s0.931-0.789,1.41-1.11c0.56-0.199,0.87-0.1,0.931,0.3c0.06,0.4-0.07,0.761-0.391,1.08
		c-0.561,0.4-1.09,0.84-1.59,1.32c-0.501,0.48-1.07,0.84-1.71,1.08c-1.001,0.36-1.89,0.381-2.671,0.06
		c-0.779-0.319-1.43-0.849-1.949-1.59c-0.521-0.739-0.91-1.609-1.17-2.609c-0.261-1-0.36-1.97-0.301-2.91
		c0.061-0.939,0.279-1.79,0.66-2.55c0.38-0.76,0.931-1.261,1.65-1.5c3.159-1.12,5.96-0.8,8.4,0.96c0.319,0.239,0.56,0.5,0.72,0.779
		c0-0.039-0.03-0.479-0.09-1.319c-0.06-0.841-0.13-1.891-0.21-3.15c-0.081-1.26-0.18-2.649-0.301-4.17
		c-0.119-1.52-0.239-2.99-0.359-4.41c-0.12-1.419-0.24-2.7-0.36-3.84s-0.239-1.989-0.36-2.55c0.08-0.52,0.34-0.86,0.781-1.021
		c0.439-0.159,0.699,0.081,0.779,0.721L200.148,183.46z"/>
	<path d="M208.248,183.46c0.6-1.279,1.329-3,2.189-5.16s1.811-4.47,2.851-6.93s2.159-4.95,3.36-7.47
		c1.199-2.521,2.399-4.779,3.6-6.78c0.279-0.2,0.52-0.24,0.72-0.12s0.38,0.3,0.54,0.54c1.04,1.92,2,4.101,2.881,6.54
		c0.879,2.44,1.68,4.9,2.399,7.38c0.2,0,0.399-0.01,0.601-0.03c0.199-0.02,0.398-0.029,0.6-0.029c0.279,0,0.479,0.08,0.6,0.239
		c0.12,0.161,0.16,0.341,0.12,0.54c-0.04,0.201-0.141,0.391-0.3,0.57c-0.16,0.18-0.36,0.291-0.6,0.33h-0.601
		c0.399,1.4,0.77,2.751,1.11,4.05c0.339,1.301,0.649,2.5,0.93,3.601c0.279,1.101,0.529,2.061,0.75,2.88
		c0.219,0.82,0.43,1.47,0.63,1.949c-0.081,0.641-0.38,0.99-0.899,1.051c-0.521,0.06-0.922-0.17-1.201-0.69
		c-0.439-2.119-0.899-4.229-1.379-6.33c-0.48-2.1-1.021-4.209-1.621-6.33c-1.76,0.201-3.58,0.471-5.459,0.811
		c-1.881,0.34-4.021,0.569-6.42,0.689c-0.721,1.641-1.432,3.28-2.131,4.92c-0.699,1.641-1.37,3.301-2.01,4.98
		c-0.201,0.24-0.39,0.351-0.57,0.33c-0.18-0.02-0.34-0.11-0.479-0.271c-0.141-0.159-0.23-0.359-0.271-0.6
		C208.148,183.88,208.168,183.66,208.248,183.46z M220.908,159.4c-1.08,2.279-2.17,4.55-3.27,6.81
		c-1.102,2.261-2.171,4.53-3.211,6.81c1.801-0.119,3.58-0.329,5.34-0.63c1.76-0.3,3.541-0.549,5.34-0.75
		c-0.6-2.079-1.25-4.14-1.949-6.18C222.457,163.42,221.707,161.4,220.908,159.4z"/>
	<path d="M232.967,160.12c-0.279-0.039-0.459-0.15-0.539-0.33s-0.09-0.369-0.031-0.57c0.061-0.199,0.181-0.38,0.361-0.54
		c0.18-0.159,0.389-0.239,0.629-0.239c0.321,0.04,0.611,0.06,0.871,0.06s0.51,0,0.75,0v-0.6c0.079-0.52,0.339-0.86,0.779-1.021
		c0.439-0.159,0.699,0.081,0.78,0.72v0.96l2.76,0.301c0.72,0.08,1.579,0.2,2.58,0.359c0.999,0.16,1.95,0.42,2.851,0.78
		c0.899,0.36,1.639,0.851,2.219,1.47c0.58,0.621,0.83,1.471,0.75,2.55c-0.08,0.562-0.38,1.121-0.899,1.681
		c-0.521,0.561-1.17,1.109-1.95,1.649c-0.779,0.54-1.619,1.071-2.52,1.591s-1.75,1.02-2.551,1.5c0.84,0.04,1.67,0.08,2.49,0.119
		c0.82,0.041,1.63,0.12,2.43,0.24c2.68,0.36,4.461,1.071,5.341,2.13c0.88,1.061,1.119,2.261,0.72,3.601
		c-0.4,1.341-1.29,2.71-2.67,4.109c-1.38,1.401-2.961,2.621-4.74,3.66c-1.78,1.041-3.63,1.791-5.55,2.25
		c-1.92,0.46-3.62,0.411-5.101-0.149c-0.519-0.2-0.919-0.55-1.199-1.051c-0.279-0.499-0.6-0.969-0.96-1.409
		c-0.2-0.399-0.181-0.78,0.06-1.141c0.24-0.359,0.58-0.439,1.02-0.24c0.321,0.36,0.621,0.75,0.9,1.171
		c0.281,0.42,0.621,0.79,1.021,1.109c0.561,0.4,1.26,0.601,2.1,0.601c-0.04-4.24-0.13-8.45-0.271-12.631
		c-0.141-4.179-0.25-8.39-0.329-12.63c-0.44,0-0.841,0-1.2,0S233.207,160.16,232.967,160.12z M237.047,170.5v-0.06
		c0.76-0.561,1.55-1.08,2.37-1.561c0.819-0.479,1.63-0.97,2.431-1.47c0.799-0.5,1.56-1.029,2.279-1.59
		c0.721-0.56,1.381-1.18,1.98-1.86c-0.12-0.64-0.49-1.189-1.11-1.65c-0.62-0.459-1.39-0.819-2.31-1.079
		c-0.921-0.26-1.92-0.46-3-0.601c-1.08-0.14-2.1-0.249-3.061-0.33L237.047,170.5z M237.227,185.2c0,0.04-0.02,0.08-0.06,0.12
		c1.32-0.24,2.72-0.77,4.2-1.59c1.479-0.82,2.84-1.771,4.08-2.851c1.239-1.08,2.26-2.199,3.061-3.36
		c0.799-1.159,1.179-2.199,1.139-3.119c-0.84-0.64-1.779-1.12-2.819-1.44c-1.04-0.319-2.12-0.54-3.239-0.66
		c-1.121-0.12-2.25-0.18-3.391-0.18s-2.211,0-3.21,0h-0.06c0.079,2.2,0.139,4.38,0.18,6.54
		C237.146,180.82,237.188,183.001,237.227,185.2z"/>
	<path d="M252.287,186.76c-0.281-0.039-0.461-0.149-0.541-0.33c-0.08-0.18-0.09-0.369-0.029-0.569s0.18-0.38,0.359-0.54
		c0.181-0.16,0.391-0.24,0.631-0.24c0.559,0,1.119-0.01,1.68-0.03c0.56-0.02,1.119-0.05,1.68-0.09c0-1.88-0.01-3.96-0.029-6.24
		c-0.021-2.279-0.041-4.59-0.061-6.93c-0.021-2.34-0.04-4.63-0.061-6.87c-0.02-2.239-0.05-4.279-0.09-6.12
		c-0.4,0.04-0.79,0.07-1.17,0.09c-0.381,0.021-0.77,0.03-1.17,0.03c-0.279-0.039-0.46-0.14-0.539-0.3
		c-0.081-0.159-0.091-0.33-0.031-0.51c0.061-0.181,0.16-0.35,0.301-0.511c0.14-0.159,0.289-0.279,0.449-0.359
		c1.12-0.04,2.23-0.12,3.33-0.24s2.19-0.199,3.271-0.24c0.279,0,0.479,0.081,0.601,0.24c0.119,0.16,0.158,0.34,0.119,0.54
		c-0.04,0.2-0.141,0.39-0.3,0.57c-0.16,0.18-0.36,0.29-0.601,0.33l-2.699,0.18c0.039,1.881,0.069,3.96,0.09,6.24
		c0.02,2.279,0.039,4.59,0.061,6.93c0.02,2.34,0.039,4.641,0.06,6.9c0.02,2.26,0.03,4.311,0.03,6.149
		c0.279-0.039,0.56-0.06,0.84-0.06c0.279,0,0.579,0,0.9,0c0.279,0,0.479,0.08,0.6,0.239c0.119,0.161,0.159,0.341,0.119,0.54
		c-0.039,0.201-0.141,0.391-0.299,0.57c-0.16,0.18-0.36,0.291-0.601,0.33c-1.161,0-2.31,0.051-3.45,0.15
		C254.597,186.71,253.446,186.76,252.287,186.76z"/>
</g>
<path fill="#1D1D1B" d="M259.701,262.349c-4.797-2.922-9.055-6.529-13.386-10.09c-0.693-0.569-1.813,0.456-1.17,1.146
	c1.91,2.039,3.967,3.901,6.1,5.673c-7.11,0.516-13.821-0.889-19.192-6.238c-2.446-2.438-4.308-5.445-5.476-8.721
	c-0.575-1.62-0.988-3.309-1.214-5.021c-0.157-1.21,0.472-5.597-0.318-6.353c0.447,0.428,1.039-0.178,0.887-0.672
	c-0.025-0.087-0.053-0.173-0.078-0.259c-0.11-0.358-0.519-0.44-0.83-0.353c-2.722,0.767-1.679,6.877-1.365,8.961
	c0.67,4.462,2.493,8.753,5.307,12.239c5.662,7.021,15.93,10.957,24.808,8.449c0.79,0.619,1.584,1.234,2.386,1.843
	c-1.879,0.775-3.62,1.829-5.183,3.142c-0.442-0.104-0.955,0.063-1.227,0.595c-0.221,0.413-0.425,0.832-0.613,1.261
	c-0.529,1.145,0.99,2.465,1.976,1.569c2.495-2.263,5.071-3.879,8.255-4.931C260.23,264.304,260.52,262.847,259.701,262.349z"/>
<path fill="#1D1D1B" d="M177.727,293.411c0.391-1.071-0.964-1.804-1.576-0.799c-0.709,1.167-1.395,2.326-2.084,3.473
	c2.429-5.749,4.173-12.007,5.654-17.873c1.848-7.311,2.991-14.805,3.093-22.333c0.092-6.832-0.679-13.688-2.511-20.249
	c-1.537-5.504-3.768-13.082-8.94-16.157c-0.443-0.263-0.957,0.463-0.529,0.772c5.05,3.642,7.034,11.784,8.399,17.63
	c1.52,6.498,2.02,13.247,1.738,19.931c-0.306,7.283-1.6,14.519-3.502,21.562c-1.974,7.312-5.143,14.142-7.411,21.331
	c-0.134,0.424,0.087,0.739,0.407,0.881c-0.127,0.172-0.252,0.342-0.383,0.512c-0.43-3.086-0.73-6.19-1.235-9.265
	c-0.11-0.674-1.107-0.646-1.079,0.073c0.151,3.837,0.63,7.654,0.773,11.495c0.03,0.81,1.082,1.168,1.618,0.565
	C173.129,301.626,176.18,297.647,177.727,293.411z"/>
<path fill="#1D1D1B" d="M85.363,264.099c4.623-2.973,8.699-6.61,12.849-10.202c0.664-0.575,1.788,0.412,1.174,1.103
	c-1.818,2.047-3.785,3.921-5.828,5.708c6.978,0.362,13.514-1.156,18.636-6.531c2.334-2.448,4.08-5.447,5.139-8.693
	c0.523-1.608,0.883-3.277,1.06-4.967c0.124-1.194-0.606-5.498,0.149-6.259c-0.428,0.431-1.022-0.153-0.887-0.643
	c0.023-0.087,0.047-0.172,0.071-0.258c0.098-0.354,0.495-0.443,0.803-0.364c2.685,0.701,1.82,6.736,1.567,8.793
	c-0.542,4.403-2.217,8.665-4.882,12.155c-5.365,7.024-15.319,11.107-24.077,8.819c-0.758,0.627-1.52,1.247-2.289,1.862
	c1.859,0.725,3.592,1.727,5.156,2.987c0.43-0.112,0.936,0.042,1.216,0.561c0.227,0.401,0.438,0.81,0.633,1.229
	c0.548,1.115-0.905,2.445-1.895,1.584c-2.501-2.177-5.067-3.715-8.21-4.685C84.895,266.035,84.573,264.606,85.363,264.099z"/>
<g>
	<path d="M96.472,331.221c0.08-0.52,0.339-0.86,0.78-1.021c0.439-0.159,0.699,0.081,0.78,0.72c0.04,0.681,0.08,1.33,0.12,1.95
		c0.04,0.62,0.1,1.271,0.18,1.95h3.36c0.08,0,0.159-0.01,0.24-0.03c0.08-0.02,0.16-0.03,0.24-0.03c0.279,0,0.48,0.07,0.6,0.211
		s0.159,0.299,0.12,0.479c-0.041,0.18-0.12,0.36-0.24,0.54s-0.261,0.33-0.42,0.449c-0.441,0.081-0.99,0.131-1.65,0.15
		c-0.66,0.021-1.35,0.03-2.07,0.03c0.08,0.479,0.15,0.96,0.21,1.44c0.06,0.479,0.11,0.98,0.15,1.5c0.039,0.039,0.06,0.09,0.06,0.149
		s0.02,0.13,0.06,0.21v0.061c-0.12,0.4-0.37,0.689-0.75,0.869c-0.38,0.18-0.65-0.009-0.81-0.57c-0.12-0.6-0.22-1.209-0.3-1.829
		c-0.081-0.62-0.16-1.229-0.24-1.83c-0.801-0.04-1.57-0.069-2.31-0.091c-0.741-0.02-1.371-0.029-1.89-0.029
		c-0.28-0.039-0.46-0.15-0.54-0.33c-0.081-0.18-0.09-0.369-0.03-0.57c0.06-0.199,0.18-0.379,0.36-0.539s0.39-0.24,0.63-0.24h3.6
		c-0.081-0.6-0.13-1.2-0.15-1.801C96.541,332.42,96.511,331.82,96.472,331.221z"/>
	<path d="M114.291,337.279c-0.16,0.082-0.44,0.262-0.84,0.541c-0.4,0.279-0.741,0.539-1.02,0.779c-0.081,0.32-0.24,0.57-0.48,0.75
		c-0.24,0.18-0.521,0.15-0.84-0.09l-0.12-0.119c-0.201-0.4-0.141-0.82,0.18-1.261c0.32-0.36,0.7-0.69,1.14-0.989
		c0.44-0.301,0.84-0.59,1.2-0.871c1.92-1.399,3.639-1.969,5.16-1.709c1.52,0.26,2.78,1.01,3.781,2.25
		c0.999,1.24,1.699,2.789,2.1,4.649c0.399,1.86,0.42,3.69,0.061,5.49c-0.082,0.319-0.251,0.579-0.511,0.78
		c-0.261,0.199-0.55,0.18-0.87-0.061c-0.32-0.48-0.6-0.979-0.84-1.5c-0.24-0.52-0.5-1.02-0.779-1.5
		c-0.281-0.48-0.611-0.93-0.99-1.35c-0.381-0.42-0.871-0.75-1.471-0.99c-0.24-0.12-0.6-0.23-1.08-0.33s-0.921-0.09-1.32,0.029
		c-0.16,0.082-0.43,0.221-0.81,0.421c-0.38,0.2-0.771,0.44-1.17,0.72c-0.4,0.28-0.75,0.561-1.05,0.84
		c-0.3,0.281-0.411,0.521-0.33,0.721c0.48,0.279,0.96,0.43,1.44,0.449c0.48,0.021,0.95-0.02,1.41-0.119
		c0.459-0.1,0.93-0.22,1.41-0.36c0.48-0.14,0.96-0.249,1.44-0.33c0.279,0,0.48,0.081,0.6,0.239c0.12,0.161,0.16,0.341,0.12,0.541
		c-0.04,0.2-0.141,0.39-0.3,0.57c-0.161,0.18-0.36,0.29-0.6,0.329c-0.12,0-0.44,0.081-0.96,0.24c-0.521,0.16-1.18,0.321-1.98,0.479
		c-1.48,0.281-2.53,0.251-3.15-0.09c-0.621-0.339-0.921-0.83-0.9-1.47c0.02-0.64,0.3-1.34,0.84-2.101
		c0.54-0.759,1.209-1.409,2.01-1.949c0.8-0.54,1.68-0.879,2.64-1.02s1.86,0.07,2.701,0.629c0.879,0.601,1.529,1.211,1.949,1.83
		c0.42,0.621,0.83,1.271,1.23,1.95c0-1.359-0.211-2.679-0.631-3.96c-0.42-1.279-1.02-2.319-1.799-3.119
		c-0.781-0.801-1.731-1.24-2.851-1.32C116.89,335.82,115.65,336.281,114.291,337.279z"/>
	<path d="M139.791,343.46c-0.201,0.561-0.521,0.86-0.961,0.899c-0.52,0-0.86-0.189-1.02-0.569c-0.16-0.38-0.24-0.819-0.24-1.319
		s0.03-1.021,0.09-1.561c0.061-0.54,0.05-0.97-0.029-1.29c-0.121-0.601-0.431-1.11-0.93-1.53c-0.502-0.42-1.061-0.76-1.681-1.02
		s-1.271-0.459-1.95-0.6c-0.681-0.141-1.28-0.211-1.8-0.211c-0.921-0.039-1.641,0.19-2.16,0.69c-0.521,0.501-0.87,1.12-1.05,1.86
		s-0.201,1.529-0.061,2.369s0.4,1.59,0.78,2.25s0.87,1.15,1.47,1.471c0.601,0.32,1.28,0.32,2.041,0
		c0.559-0.24,1.069-0.57,1.529-0.99c0.459-0.42,0.93-0.789,1.41-1.11c0.56-0.2,0.87-0.099,0.93,0.3c0.061,0.4-0.07,0.761-0.39,1.08
		c-0.561,0.4-1.091,0.84-1.59,1.32c-0.501,0.48-1.071,0.84-1.71,1.08c-1,0.359-1.891,0.381-2.67,0.061
		c-0.78-0.32-1.432-0.85-1.95-1.591c-0.521-0.739-0.911-1.609-1.17-2.61c-0.261-0.999-0.36-1.969-0.3-2.91
		c0.06-0.938,0.279-1.789,0.66-2.549c0.379-0.76,0.93-1.26,1.649-1.5c3.159-1.119,5.96-0.801,8.399,0.959
		c0.32,0.24,0.561,0.501,0.721,0.781c0-0.04-0.03-0.48-0.09-1.32c-0.061-0.84-0.131-1.891-0.211-3.15s-0.18-2.649-0.299-4.17
		c-0.121-1.52-0.24-2.99-0.36-4.41s-0.24-2.699-0.36-3.84c-0.119-1.141-0.24-1.989-0.359-2.551c0.079-0.519,0.339-0.859,0.779-1.02
		c0.439-0.159,0.699,0.081,0.78,0.721L139.791,343.46z"/>
	<path d="M154.49,343.46c-0.201,0.561-0.521,0.86-0.96,0.899c-0.521,0-0.86-0.189-1.021-0.569s-0.24-0.819-0.24-1.319
		s0.031-1.021,0.091-1.561s0.05-0.97-0.03-1.29c-0.12-0.601-0.43-1.11-0.93-1.53c-0.501-0.42-1.061-0.76-1.68-1.02
		c-0.621-0.26-1.271-0.459-1.951-0.6s-1.279-0.211-1.799-0.211c-0.922-0.039-1.641,0.19-2.16,0.69
		c-0.521,0.501-0.871,1.12-1.051,1.86s-0.2,1.529-0.06,2.369c0.14,0.84,0.399,1.59,0.78,2.25c0.379,0.66,0.869,1.15,1.47,1.471
		s1.28,0.32,2.04,0c0.56-0.24,1.07-0.57,1.529-0.99c0.46-0.42,0.931-0.789,1.41-1.11c0.561-0.2,0.871-0.099,0.931,0.3
		c0.06,0.4-0.07,0.761-0.39,1.08c-0.561,0.4-1.091,0.84-1.59,1.32c-0.502,0.48-1.071,0.84-1.711,1.08
		c-1,0.359-1.89,0.381-2.67,0.061c-0.779-0.32-1.431-0.85-1.949-1.591c-0.521-0.739-0.911-1.609-1.17-2.61
		c-0.262-0.999-0.361-1.969-0.301-2.91c0.061-0.938,0.279-1.789,0.66-2.549c0.379-0.76,0.93-1.26,1.65-1.5
		c3.158-1.119,5.959-0.801,8.399,0.959c0.319,0.24,0.56,0.501,0.72,0.781c0-0.04-0.029-0.48-0.09-1.32
		c-0.06-0.84-0.13-1.891-0.21-3.15c-0.081-1.26-0.18-2.649-0.3-4.17c-0.12-1.52-0.24-2.99-0.359-4.41
		c-0.121-1.42-0.24-2.699-0.361-3.84c-0.119-1.141-0.239-1.989-0.359-2.551c0.08-0.519,0.34-0.859,0.78-1.02
		c0.439-0.159,0.699,0.081,0.78,0.721L154.49,343.46z"/>
	<path d="M155.93,335.3c0.08-0.519,0.34-0.859,0.78-1.021c0.439-0.158,0.699,0.082,0.78,0.721c0.039,0.92,0.139,1.83,0.3,2.73
		c0.159,0.899,0.339,1.811,0.54,2.729c0.119-0.64,0.42-1.38,0.9-2.22c0.479-0.84,1.059-1.629,1.739-2.37
		c0.68-0.739,1.419-1.359,2.22-1.86c0.801-0.5,1.58-0.75,2.34-0.75c0.24,0.081,0.4,0.261,0.48,0.54v0.12
		c0.039,0.4-0.1,0.721-0.42,0.96c-0.32,0.24-0.6,0.261-0.84,0.06c-2.16,1.08-3.61,2.501-4.35,4.261
		c-0.741,1.761-1.031,3.78-0.871,6.06c-0.08,0.32-0.279,0.6-0.6,0.84s-0.621,0.141-0.9-0.3c-0.4-1.599-0.82-3.22-1.26-4.86
		C156.329,339.301,156.05,337.42,155.93,335.3z"/>
	<path d="M172.85,335.359c0.68,0.641,1.109,1.252,1.29,1.83c0.181,0.581,0.169,1.131-0.03,1.65c-0.2,0.521-0.53,0.99-0.99,1.41
		s-0.99,0.76-1.59,1.02c-0.6,0.262-1.221,0.431-1.859,0.51c-0.641,0.082-1.221,0.041-1.74-0.119c0.32,2.16,1.279,3.43,2.88,3.811
		c1.6,0.38,3.62-0.41,6.06-2.371c0.279-0.199,0.51-0.279,0.69-0.24c0.181,0.041,0.31,0.131,0.39,0.271
		c0.08,0.141,0.1,0.321,0.061,0.54c-0.041,0.221-0.16,0.43-0.36,0.63c-1.04,0.841-2.091,1.53-3.149,2.07
		c-1.061,0.54-2.08,0.84-3.061,0.899c-0.98,0.061-1.89-0.18-2.73-0.72c-0.84-0.54-1.56-1.509-2.159-2.909
		c-0.24-0.601-0.39-1.42-0.45-2.461c-0.061-1.039,0.029-2.079,0.27-3.119s0.62-1.971,1.141-2.791c0.52-0.818,1.239-1.309,2.16-1.47
		c0.639-0.12,1.229,0.03,1.77,0.45S172.449,335.041,172.85,335.359z M168.17,337.279c-0.16,0.762-0.281,1.521-0.36,2.281
		c0.2,0.279,0.53,0.439,0.99,0.479c0.459,0.04,0.938,0,1.44-0.12c0.499-0.12,0.979-0.289,1.439-0.51
		c0.459-0.22,0.77-0.45,0.93-0.689c-0.08-0.52-0.32-1.061-0.72-1.621c-0.4-0.559-0.84-0.979-1.319-1.26
		c-0.48-0.279-0.951-0.34-1.41-0.18C168.699,335.82,168.369,336.36,168.17,337.279z"/>
	<path d="M190.369,336.26c0.08,0.201,0.08,0.42,0,0.66s-0.2,0.43-0.359,0.57c-0.16,0.141-0.33,0.2-0.51,0.18
		c-0.181-0.02-0.352-0.15-0.51-0.391c-0.201-0.439-0.562-0.759-1.08-0.959c-0.521-0.2-1.131-0.301-1.83-0.301
		c-0.701,0-1.451,0.07-2.25,0.211c-0.801,0.141-1.551,0.311-2.25,0.51c-0.701,0.2-1.311,0.42-1.83,0.66
		c-0.521,0.24-0.861,0.46-1.021,0.66c0.479,0.68,1.17,1.229,2.07,1.649c0.899,0.42,1.85,0.801,2.85,1.14
		c0.999,0.341,2.011,0.66,3.03,0.961c1.02,0.299,1.89,0.689,2.609,1.17c0.121,0.08,0.189,0.17,0.211,0.27
		c0.02,0.1,0.049,0.23,0.09,0.391c-0.12,1.08-0.561,1.939-1.32,2.58c-0.76,0.64-1.65,1.049-2.67,1.229
		c-1.02,0.18-2.051,0.14-3.09-0.12c-1.041-0.261-1.881-0.75-2.52-1.471c-0.201-0.398-0.181-0.779,0.06-1.139
		c0.239-0.361,0.579-0.44,1.02-0.24c0.399,0.4,0.97,0.72,1.71,0.959c0.74,0.24,1.479,0.371,2.221,0.391
		c0.739,0.021,1.399-0.09,1.979-0.33c0.579-0.24,0.909-0.66,0.99-1.26c-0.841-0.561-1.761-0.99-2.761-1.29s-2-0.601-3-0.9
		s-1.939-0.68-2.819-1.14c-0.88-0.459-1.62-1.149-2.22-2.07c-0.24-0.399-0.201-0.819,0.119-1.26c0.08-0.08,0.24-0.301,0.48-0.66
		s0.48-0.6,0.721-0.72c0.559-0.319,1.43-0.669,2.609-1.05c1.18-0.38,2.4-0.631,3.66-0.75c1.26-0.121,2.42-0.061,3.48,0.18
		C189.299,334.82,190.01,335.381,190.369,336.26z"/>
	<path d="M202.01,336.26c0.08,0.201,0.08,0.42,0,0.66s-0.201,0.43-0.359,0.57c-0.161,0.141-0.33,0.2-0.511,0.18
		c-0.181-0.02-0.351-0.15-0.51-0.391c-0.2-0.439-0.562-0.759-1.08-0.959c-0.521-0.2-1.131-0.301-1.83-0.301
		c-0.7,0-1.45,0.07-2.25,0.211c-0.801,0.141-1.551,0.311-2.25,0.51c-0.7,0.2-1.311,0.42-1.83,0.66c-0.521,0.24-0.86,0.46-1.021,0.66
		c0.48,0.68,1.17,1.229,2.07,1.649s1.85,0.801,2.85,1.14c1,0.341,2.011,0.66,3.031,0.961c1.02,0.299,1.889,0.689,2.609,1.17
		c0.12,0.08,0.189,0.17,0.21,0.27c0.02,0.1,0.05,0.23,0.09,0.391c-0.12,1.08-0.561,1.939-1.319,2.58
		c-0.761,0.64-1.65,1.049-2.67,1.229c-1.021,0.18-2.051,0.14-3.09-0.12c-1.041-0.261-1.881-0.75-2.521-1.471
		c-0.2-0.398-0.181-0.779,0.06-1.139c0.24-0.361,0.58-0.44,1.02-0.24c0.4,0.4,0.971,0.72,1.711,0.959
		c0.739,0.24,1.479,0.371,2.22,0.391c0.739,0.021,1.399-0.09,1.979-0.33s0.91-0.66,0.99-1.26c-0.84-0.561-1.76-0.99-2.76-1.29
		s-2-0.601-3-0.9s-1.94-0.68-2.82-1.14c-0.88-0.459-1.619-1.149-2.22-2.07c-0.239-0.399-0.2-0.819,0.12-1.26
		c0.08-0.08,0.24-0.301,0.48-0.66s0.479-0.6,0.72-0.72c0.56-0.319,1.43-0.669,2.61-1.05c1.179-0.38,2.399-0.631,3.66-0.75
		c1.26-0.121,2.419-0.061,3.479,0.18C200.939,334.82,201.65,335.381,202.01,336.26z"/>
	<path d="M211.129,334.58c-0.281-0.039-0.461-0.15-0.541-0.33s-0.09-0.369-0.029-0.57c0.06-0.199,0.18-0.379,0.359-0.539
		c0.181-0.16,0.391-0.24,0.631-0.24h8.279c0.08,0,0.16-0.01,0.24-0.03s0.159-0.03,0.24-0.03c0.279,0,0.48,0.07,0.6,0.21
		c0.12,0.141,0.16,0.3,0.12,0.479c-0.04,0.181-0.12,0.361-0.239,0.541c-0.121,0.18-0.262,0.33-0.421,0.449
		c-0.561,0.081-1.251,0.131-2.069,0.15c-0.82,0.021-1.66,0.021-2.521,0c-0.86-0.02-1.7-0.039-2.521-0.061
		C212.438,334.59,211.729,334.58,211.129,334.58z M211.129,338.42c-0.281-0.039-0.461-0.15-0.541-0.33s-0.09-0.369-0.029-0.57
		c0.06-0.199,0.18-0.379,0.359-0.539c0.181-0.16,0.391-0.24,0.631-0.24h8.279c0.08,0,0.16-0.01,0.24-0.03
		c0.08-0.02,0.159-0.03,0.24-0.03c0.279,0,0.48,0.07,0.6,0.211c0.12,0.141,0.16,0.299,0.12,0.479c-0.04,0.18-0.12,0.36-0.239,0.54
		c-0.121,0.18-0.262,0.33-0.421,0.449c-0.561,0.081-1.251,0.131-2.069,0.15c-0.82,0.021-1.66,0.021-2.521,0
		c-0.86-0.02-1.7-0.039-2.521-0.06S211.729,338.42,211.129,338.42z"/>
</g>
<path fill="#1D1D1B" d="M168.446,134.538c0.077,0.054,0.155,0.107,0.232,0.162c0.541,0.377,1.54,0.271,1.976-0.258
	c1.841-2.232,3.375-4.633,4.657-7.163c-0.194,6.008-0.521,12.018-0.553,18.025c-0.007,1.199,1.694,1.133,1.807-0.021
	c0.647-6.656,0.935-13.346,1.438-20.015c0.584,1.479,1.213,2.944,1.937,4.384c0.944,1.887,3.593,0.234,2.778-1.633
	c-0.56-1.28-1.127-2.557-1.687-3.836c-0.922-2.335-1.671-4.721-2.236-7.222c-0.36-1.59-2.726-1.527-3.117,0.02
	c-1.375,5.415-3.745,10.044-6.915,14.528c-0.113,0.058-0.224,0.126-0.327,0.215c-0.099,0.084-0.198,0.167-0.297,0.251
	C167.283,132.701,167.666,133.993,168.446,134.538z"/>
<path fill="#0D070B" d="M266.796,204.245c-14.169-1.453-27.711-4.646-41.689-6.685c-4.791-0.7-9.654-1.113-14.55-1.347
	c2.533,0.007,5.067,0.066,7.606,0.208c13.773,0.771,26.959,3.587,40.898,2.446c1.311-0.106,1.718-1.325,0.323-1.612
	c-22.243-4.575-45.267-3.619-68.214-3.331c-22.301,0.281-44.626,0.155-66.915,0.787c-0.641,0.019-0.641,0.655,0,0.671
	c6.041,0.158,12.089,0.2,18.141,0.188c-7.08,0.55-14.143,1.282-21.296,1.828c-9.229,0.704-20.237,0.513-27.645,4.856
	c-0.932,0.546,0.085,1.408,1.104,1.28c6.465-0.816,12.167-3.016,18.8-3.36c7.01-0.365,14.025-0.669,21.042-0.957
	c14.878-0.611,29.763-1.126,44.665-1.343c15.2-0.223,30.338-0.544,45.363,1.339c8.156,1.023,16.108,2.597,24.115,4.025
	c-9.871-0.843-19.705-1.954-29.685-2.163c-15.559-0.326-30.655,0.678-46.155,1.173c-14.658,0.468-29.278,0.408-43.845,1.789
	c-11.844,1.123-20.647,4.146-26.406,11.441c-1.008,1.277,1.908,2.415,2.864,1.13c7.615-10.245,21.866-11.255,37.303-11.988
	c13.587-0.644,27.242-0.255,40.833-0.965c13.755-0.719,27.241-0.979,41.041-0.623c14.075,0.364,27.854,2.672,41.973,2.845
	C267.828,205.895,268.19,204.387,266.796,204.245z M228.036,195.331c7.606,0.312,15.171,0.928,22.681,2.073
	C243.109,197.227,235.579,196.23,228.036,195.331z"/>
</svg>
