<?xml version="1.0" encoding="utf-8"?>
<!-- Generator: Adobe Illustrator 16.0.0, SVG Export Plug-In . SVG Version: 6.00 Build 0)  -->
<!DOCTYPE svg PUBLIC "-//W3C//DTD SVG 1.1//EN" "http://www.w3.org/Graphics/SVG/1.1/DTD/svg11.dtd">
<svg version="1.1" xmlns="http://www.w3.org/2000/svg" xmlns:xlink="http://www.w3.org/1999/xlink" x="0px" y="0px" width="504px"
	 height="369px" viewBox="0 0 504 369" enable-background="new 0 0 504 369" xml:space="preserve">
<g id="Background">
</g>
<g id="Objects">
	<g>
		<path fill-rule="evenodd" clip-rule="evenodd" fill="#15B858" d="M223.946,244.047c25.287,0,45.912-20.625,45.912-45.912
			c0-25.287-20.625-45.911-45.912-45.911s-45.911,20.624-45.911,45.911C178.035,223.422,198.659,244.047,223.946,244.047z"/>
		<g>
			<path fill-rule="evenodd" clip-rule="evenodd" fill="#E72C4F" d="M211.128,236.139l-1.941,5.484
				c-5.354-1.816-10.264-4.596-14.524-8.127l1.002-2.83C199.097,220.967,214.384,226.941,211.128,236.139z"/>
			<path fill-rule="evenodd" clip-rule="evenodd" fill="#E72C4F" d="M201.926,225.703h44.076v12.705
				c-6.545,3.594-14.062,5.639-22.057,5.639c-7.979,0-15.481-2.037-22.019-5.617V225.703z"/>
			<path fill-rule="evenodd" clip-rule="evenodd" fill="#CB1A3B" d="M211.715,225.703h24.5v1.539c0,6.736-5.513,12.25-12.25,12.25
				l0,0c-6.737,0-12.25-5.514-12.25-12.25V225.703z"/>
			<path fill-rule="evenodd" clip-rule="evenodd" fill="#FBD9BD" d="M223.965,192.944L223.965,192.944
				c5.475,0,9.953,4.479,9.953,9.953v22.806c0,5.475-4.479,9.953-9.953,9.953l0,0c-5.474,0-9.953-4.479-9.953-9.953v-22.806
				C214.012,197.422,218.491,192.944,223.965,192.944z"/>
			<path fill-rule="evenodd" clip-rule="evenodd" fill="#E72C4F" d="M236.428,236.139l1.976,5.582
				c5.361-1.777,10.283-4.516,14.564-8.012l-1.078-3.043C248.459,220.967,233.172,226.941,236.428,236.139z"/>
			<path fill-rule="evenodd" clip-rule="evenodd" fill="#F6C4A9" d="M233.918,208.161v15.007c-3.767,2.709-7.397,4.227-9.953,4.227
				c-2.557,0-6.188-1.518-9.953-4.227v-15.007C214.012,196.056,233.918,196.056,233.918,208.161z"/>
			
				<ellipse transform="matrix(-0.3128 -0.9498 0.9498 -0.3128 78.0748 446.5599)" fill-rule="evenodd" clip-rule="evenodd" fill="#FFDDCB" cx="200.585" cy="195.036" rx="5.701" ry="3.298"/>
			
				<ellipse transform="matrix(0.3128 -0.9498 0.9498 0.3128 -15.107 369.1914)" fill-rule="evenodd" clip-rule="evenodd" fill="#FFDDCB" cx="247.582" cy="195.036" rx="5.701" ry="3.296"/>
			<path fill-rule="evenodd" clip-rule="evenodd" fill="#F6C4A9" d="M212.713,207.421c3.041,2.168,20.205,2.049,23.246,0
				C233.317,218.832,216.218,219.184,212.713,207.421z"/>
			<path fill-rule="evenodd" clip-rule="evenodd" fill="#FBD9BD" d="M223.965,167.815c-32.956,0-21.104,39.821-18.952,42.992
				c2.374,3.494,13.627,12.762,18.952,12.762c5.325,0,16.578-9.266,18.951-12.762C245.07,207.636,256.92,167.815,223.965,167.815z"
				/>
			<path fill-rule="evenodd" clip-rule="evenodd" fill="#FFFFFF" d="M216.325,209.482c2.096,1.139,13.927,1.076,16.022,0
				C230.526,215.473,218.741,215.658,216.325,209.482z"/>
			<path fill-rule="evenodd" clip-rule="evenodd" fill="#E19C26" d="M258.236,198.042c-9.123-0.432-11.842-4.562-12.547-15.312
				c-1.244-18.915-35.599-20.93-40.412-9.188c-10.682,9.438-2.823,34.458-2.823,28.102c0-6.357,1.993-11.823,4.802-16.573
				c3.49,7.256,11.32,13.82,19.556,13.104c-5.644-4.735-8.774-6.779-10.086-14.406C220.77,195.266,239.385,202.504,258.236,198.042z
				"/>
		</g>
	</g>
	<g>
		<path d="M15.838,190.41c0.08-0.519,0.339-0.859,0.78-1.021c0.44-0.158,0.699,0.081,0.78,0.721c0.039,0.76,0.12,1.5,0.24,2.22
			s0.26,1.461,0.42,2.22c0.279-1.799,0.8-3.229,1.56-4.289c0.759-1.061,1.61-1.73,2.55-2.01c0.939-0.28,1.92-0.141,2.94,0.42
			s1.929,1.58,2.73,3.06c0.639,1.161,0.879,2.351,0.72,3.569c-0.16,1.221-0.59,2.25-1.29,3.09c-0.7,0.841-1.6,1.401-2.7,1.681
			c-1.101,0.28-2.25,0.06-3.45-0.66c-0.201-0.399-0.18-0.78,0.06-1.14c0.24-0.36,0.58-0.439,1.02-0.24
			c0.56,0.359,1.06,0.58,1.5,0.66c0.439,0.08,0.979-0.039,1.62-0.36c0.72-0.36,1.209-0.849,1.47-1.47
			c0.26-0.619,0.35-1.279,0.27-1.98c-0.081-0.699-0.291-1.389-0.63-2.07c-0.34-0.68-0.76-1.279-1.26-1.799
			c-0.5-0.52-1.041-0.91-1.62-1.17c-0.581-0.26-1.15-0.311-1.71-0.15c-0.441,0.119-0.791,0.41-1.05,0.869
			c-0.261,0.461-0.48,0.981-0.66,1.561c-0.18,0.58-0.321,1.15-0.42,1.71c-0.1,0.562-0.17,1.001-0.21,1.32
			c-0.24,1.479-0.38,2.97-0.42,4.47c-0.04,1.5-0.04,2.971,0,4.41c0.04,1.439,0.09,2.83,0.15,4.17c0.06,1.339,0.09,2.589,0.09,3.75
			c-0.12,0.32-0.34,0.6-0.66,0.84c-0.321,0.24-0.6,0.141-0.84-0.299c-0.081-0.281-0.13-1.08-0.15-2.4
			c-0.021-1.32-0.06-2.861-0.12-4.621s-0.161-3.59-0.3-5.489c-0.141-1.899-0.351-3.57-0.63-5.011c-0.16-0.799-0.321-1.56-0.48-2.279
			C15.978,191.969,15.877,191.21,15.838,190.41z"/>
		<path d="M29.998,188.85c0.08-0.52,0.339-0.859,0.78-1.021c0.439-0.159,0.699,0.081,0.78,0.72c0.04,0.921,0.14,1.83,0.3,2.73
			c0.159,0.9,0.339,1.811,0.54,2.73c0.12-0.64,0.42-1.381,0.9-2.221s1.059-1.629,1.74-2.369c0.68-0.74,1.419-1.359,2.22-1.861
			c0.8-0.499,1.58-0.75,2.34-0.75c0.24,0.082,0.399,0.262,0.48,0.541v0.119c0.04,0.4-0.1,0.721-0.42,0.961
			c-0.321,0.24-0.6,0.26-0.84,0.06c-2.16,1.08-3.61,2.501-4.35,4.261c-0.741,1.76-1.03,3.779-0.87,6.059
			c-0.081,0.321-0.28,0.601-0.6,0.841c-0.32,0.239-0.621,0.141-0.9-0.3c-0.4-1.6-0.82-3.22-1.26-4.86
			C30.397,192.85,30.118,190.97,29.998,188.85z"/>
		<path d="M42.297,189.33c0.32-0.079,0.74-0.099,1.26-0.06c0.52,0.04,1.05,0.119,1.59,0.24c0.54,0.119,1.05,0.279,1.53,0.479
			s0.84,0.44,1.08,0.72c0.879,1.161,1.25,2.311,1.11,3.45c-0.141,1.14-0.58,2.11-1.32,2.91c-0.741,0.801-1.69,1.351-2.85,1.649
			c-1.161,0.301-2.32,0.172-3.48-0.39c-0.321-0.159-0.63-0.3-0.93-0.42c-0.3-0.12-0.57-0.3-0.81-0.54
			c-0.4-0.399-0.591-1.05-0.57-1.949c0.02-0.9,0.18-1.801,0.48-2.701c0.3-0.899,0.71-1.689,1.23-2.369
			C41.136,189.67,41.697,189.33,42.297,189.33z M45.297,191.49c-0.921-0.52-1.74-0.601-2.46-0.239c-0.72,0.359-1.3,0.84-1.74,1.439
			c-0.081,0.08-0.17,0.27-0.27,0.57c-0.1,0.299-0.201,0.62-0.3,0.959c-0.1,0.341-0.15,0.682-0.15,1.021
			c0,0.341,0.099,0.591,0.3,0.75c0.68,0.601,1.38,0.96,2.1,1.08s1.38,0.09,1.98-0.09c0.6-0.181,1.11-0.489,1.53-0.931
			c0.42-0.439,0.69-0.93,0.81-1.47c0.12-0.54,0.04-1.079-0.24-1.62C46.577,192.42,46.056,191.93,45.297,191.49z"/>
		<path d="M50.277,190.41c0.08-0.519,0.339-0.859,0.78-1.021c0.44-0.158,0.699,0.081,0.78,0.721c0.039,0.76,0.12,1.5,0.24,2.22
			s0.26,1.461,0.42,2.22c0.279-1.799,0.8-3.229,1.56-4.289c0.759-1.061,1.61-1.73,2.55-2.01c0.939-0.28,1.92-0.141,2.94,0.42
			s1.929,1.58,2.73,3.06c0.639,1.161,0.879,2.351,0.72,3.569c-0.16,1.221-0.59,2.25-1.29,3.09c-0.7,0.841-1.6,1.401-2.7,1.681
			c-1.101,0.28-2.25,0.06-3.45-0.66c-0.201-0.399-0.18-0.78,0.06-1.14c0.24-0.36,0.58-0.439,1.02-0.24
			c0.56,0.359,1.06,0.58,1.5,0.66c0.439,0.08,0.979-0.039,1.62-0.36c0.72-0.36,1.209-0.849,1.47-1.47
			c0.26-0.619,0.35-1.279,0.27-1.98c-0.081-0.699-0.291-1.389-0.63-2.07c-0.34-0.68-0.76-1.279-1.26-1.799
			c-0.5-0.52-1.041-0.91-1.62-1.17c-0.581-0.26-1.15-0.311-1.71-0.15c-0.441,0.119-0.791,0.41-1.05,0.869
			c-0.261,0.461-0.48,0.981-0.66,1.561c-0.18,0.58-0.321,1.15-0.42,1.71c-0.1,0.562-0.17,1.001-0.21,1.32
			c-0.24,1.479-0.38,2.97-0.42,4.47c-0.04,1.5-0.04,2.971,0,4.41c0.04,1.439,0.09,2.83,0.15,4.17c0.06,1.339,0.09,2.589,0.09,3.75
			c-0.12,0.32-0.34,0.6-0.66,0.84c-0.321,0.24-0.6,0.141-0.84-0.299c-0.081-0.281-0.13-1.08-0.15-2.4
			c-0.021-1.32-0.06-2.861-0.12-4.621s-0.161-3.59-0.3-5.489c-0.141-1.899-0.351-3.57-0.63-5.011c-0.16-0.799-0.321-1.56-0.48-2.279
			C50.417,191.969,50.316,191.21,50.277,190.41z"/>
		<path d="M67.676,189.33c0.32-0.079,0.74-0.099,1.26-0.06c0.52,0.04,1.05,0.119,1.59,0.24c0.54,0.119,1.05,0.279,1.53,0.479
			s0.84,0.44,1.08,0.72c0.879,1.161,1.25,2.311,1.11,3.45c-0.141,1.14-0.58,2.11-1.32,2.91c-0.741,0.801-1.69,1.351-2.85,1.649
			c-1.161,0.301-2.32,0.172-3.48-0.39c-0.321-0.159-0.63-0.3-0.93-0.42c-0.3-0.12-0.57-0.3-0.81-0.54
			c-0.4-0.399-0.591-1.05-0.57-1.949c0.02-0.9,0.18-1.801,0.48-2.701c0.3-0.899,0.71-1.689,1.23-2.369
			C66.516,189.67,67.076,189.33,67.676,189.33z M70.676,191.49c-0.921-0.52-1.74-0.601-2.46-0.239c-0.72,0.359-1.3,0.84-1.74,1.439
			c-0.081,0.08-0.17,0.27-0.27,0.57c-0.1,0.299-0.201,0.62-0.3,0.959c-0.1,0.341-0.15,0.682-0.15,1.021
			c0,0.341,0.099,0.591,0.3,0.75c0.68,0.601,1.38,0.96,2.1,1.08s1.38,0.09,1.98-0.09c0.6-0.181,1.11-0.489,1.53-0.931
			c0.42-0.439,0.69-0.93,0.81-1.47c0.12-0.54,0.04-1.079-0.24-1.62C71.956,192.42,71.436,191.93,70.676,191.49z"/>
		<path d="M89.036,189.809c0.08,0.201,0.08,0.421,0,0.66c-0.081,0.24-0.201,0.431-0.36,0.57c-0.161,0.141-0.33,0.201-0.51,0.18
			c-0.18-0.02-0.351-0.149-0.51-0.39c-0.201-0.439-0.561-0.759-1.08-0.96c-0.521-0.199-1.131-0.3-1.83-0.3
			c-0.7,0-1.45,0.07-2.25,0.21c-0.801,0.141-1.551,0.311-2.25,0.51c-0.7,0.201-1.311,0.42-1.83,0.66
			c-0.52,0.24-0.86,0.461-1.02,0.66c0.48,0.681,1.17,1.23,2.07,1.65c0.9,0.42,1.85,0.801,2.85,1.14c1,0.341,2.01,0.659,3.03,0.96
			c1.02,0.3,1.89,0.689,2.61,1.17c0.12,0.08,0.189,0.17,0.21,0.27c0.02,0.101,0.05,0.23,0.09,0.391c-0.12,1.08-0.561,1.94-1.32,2.58
			c-0.76,0.641-1.65,1.05-2.67,1.23c-1.02,0.18-2.05,0.139-3.09-0.121c-1.041-0.26-1.881-0.75-2.52-1.47
			c-0.201-0.399-0.18-0.78,0.06-1.14c0.24-0.36,0.579-0.439,1.02-0.24c0.399,0.4,0.97,0.721,1.71,0.96
			c0.739,0.24,1.479,0.37,2.22,0.39c0.74,0.021,1.4-0.09,1.98-0.33c0.58-0.24,0.91-0.66,0.99-1.26c-0.84-0.56-1.761-0.99-2.76-1.289
			c-1-0.301-2-0.601-3-0.9c-1-0.301-1.94-0.68-2.82-1.141c-0.88-0.459-1.62-1.148-2.22-2.07c-0.24-0.398-0.201-0.818,0.12-1.26
			c0.08-0.079,0.24-0.3,0.48-0.66c0.24-0.359,0.48-0.6,0.72-0.719c0.56-0.32,1.43-0.67,2.61-1.051c1.179-0.379,2.4-0.63,3.66-0.75
			c1.26-0.12,2.419-0.061,3.48,0.18C87.965,188.37,88.676,188.93,89.036,189.809z"/>
		<path d="M97.255,188.91c0.68,0.641,1.11,1.251,1.29,1.83c0.18,0.581,0.169,1.131-0.03,1.649c-0.2,0.521-0.53,0.99-0.99,1.41
			c-0.46,0.42-0.99,0.761-1.59,1.021c-0.6,0.261-1.221,0.431-1.86,0.51c-0.64,0.081-1.221,0.04-1.74-0.12
			c0.32,2.16,1.28,3.431,2.88,3.811c1.6,0.381,3.62-0.41,6.06-2.37c0.279-0.2,0.51-0.279,0.69-0.24c0.18,0.04,0.31,0.13,0.39,0.271
			c0.08,0.141,0.099,0.32,0.06,0.539c-0.041,0.221-0.161,0.431-0.36,0.631c-1.041,0.84-2.09,1.529-3.15,2.07
			c-1.06,0.539-2.08,0.84-3.06,0.899c-0.98,0.06-1.89-0.181-2.73-0.72c-0.84-0.541-1.56-1.51-2.16-2.91
			c-0.24-0.6-0.39-1.42-0.45-2.46s0.03-2.079,0.27-3.12c0.24-1.039,0.62-1.97,1.14-2.79c0.519-0.819,1.239-1.31,2.16-1.47
			c0.64-0.12,1.23,0.029,1.77,0.449S96.855,188.59,97.255,188.91z M92.575,190.83c-0.16,0.761-0.28,1.521-0.36,2.28
			c0.2,0.28,0.53,0.44,0.99,0.48c0.459,0.039,0.939,0,1.44-0.121c0.5-0.119,0.979-0.289,1.44-0.51
			c0.459-0.219,0.77-0.449,0.93-0.689c-0.081-0.52-0.32-1.06-0.72-1.62c-0.4-0.56-0.84-0.979-1.32-1.261
			c-0.48-0.279-0.951-0.339-1.41-0.18C93.105,189.37,92.775,189.911,92.575,190.83z"/>
	</g>
	<g>
		<path d="M103.917,120.552c-0.12-0.199-0.16-0.42-0.12-0.66c0.04-0.239,0.14-0.429,0.3-0.569c0.159-0.14,0.33-0.229,0.51-0.271
			c0.18-0.039,0.37,0.061,0.57,0.3c0.56,0.681,1.029,1.36,1.41,2.04c0.38,0.681,0.729,1.371,1.05,2.07
			c0.319,0.7,0.63,1.41,0.93,2.13c0.3,0.72,0.65,1.461,1.05,2.22c0.48-0.84,0.93-1.859,1.35-3.06c0.42-1.2,0.81-2.379,1.17-3.54
			c0.36-1.159,0.709-2.189,1.05-3.09c0.339-0.9,0.69-1.449,1.05-1.65c0.199-0.159,0.39-0.249,0.57-0.27
			c0.18-0.02,0.369,0.07,0.57,0.27c0.04,0.12-0.03,0.471-0.21,1.051c-0.18,0.58-0.42,1.289-0.72,2.13
			c-0.3,0.84-0.63,1.761-0.99,2.76c-0.36,1-0.72,1.96-1.08,2.88c-0.36,0.921-0.69,1.74-0.99,2.46c-0.3,0.72-0.531,1.24-0.69,1.56
			c-0.12,0.24-0.28,0.352-0.48,0.33c-0.201-0.02-0.4,0.07-0.6,0.271c-0.081,0.12-0.261-0.03-0.54-0.45
			c-0.28-0.42-0.621-0.96-1.02-1.62c-0.4-0.66-0.81-1.399-1.23-2.22c-0.42-0.819-0.831-1.59-1.23-2.311
			c-0.4-0.72-0.75-1.339-1.05-1.859C104.247,120.933,104.037,120.633,103.917,120.552z"/>
		<path d="M118.917,118.573c0.32-0.08,0.74-0.1,1.26-0.061c0.52,0.041,1.05,0.12,1.59,0.24s1.05,0.28,1.53,0.48s0.84,0.44,1.08,0.72
			c0.879,1.16,1.25,2.31,1.11,3.45c-0.141,1.14-0.58,2.11-1.32,2.909c-0.741,0.801-1.69,1.351-2.85,1.65
			c-1.161,0.3-2.32,0.171-3.48-0.39c-0.321-0.159-0.63-0.3-0.93-0.42c-0.3-0.12-0.57-0.301-0.81-0.54
			c-0.4-0.399-0.591-1.051-0.57-1.95c0.02-0.9,0.18-1.8,0.48-2.7c0.3-0.9,0.71-1.689,1.23-2.37
			C117.756,118.913,118.316,118.573,118.917,118.573z M121.917,120.733c-0.921-0.52-1.74-0.601-2.46-0.24
			c-0.72,0.359-1.3,0.84-1.74,1.439c-0.081,0.081-0.17,0.271-0.27,0.57c-0.1,0.3-0.201,0.621-0.3,0.96
			c-0.1,0.341-0.15,0.681-0.15,1.021s0.099,0.59,0.3,0.75c0.68,0.6,1.38,0.96,2.1,1.079c0.72,0.12,1.38,0.091,1.98-0.09
			c0.6-0.18,1.11-0.489,1.53-0.93c0.42-0.439,0.69-0.93,0.81-1.47c0.12-0.54,0.04-1.08-0.24-1.62
			C123.196,121.663,122.676,121.173,121.917,120.733z"/>
		<path d="M123.476,115.573c-0.279-0.04-0.459-0.14-0.54-0.3c-0.08-0.16-0.09-0.33-0.03-0.511c0.06-0.18,0.16-0.35,0.3-0.51
			c0.141-0.159,0.291-0.279,0.45-0.36c0.6,0,1.18-0.02,1.74-0.06c0.561-0.039,1.12-0.1,1.68-0.18c-0.081-1.16-0.13-2.39-0.15-3.69
			c-0.021-1.299-0.051-2.709-0.09-4.229c0.08-0.52,0.339-0.86,0.78-1.021c0.44-0.159,0.7,0.081,0.78,0.72
			c0.039,1.521,0.069,2.94,0.09,4.261c0.02,1.319,0.069,2.58,0.15,3.779c1.04-0.199,2.07-0.409,3.09-0.63
			c1.02-0.219,2.05-0.429,3.09-0.63c0.279,0,0.48,0.07,0.6,0.21c0.12,0.141,0.159,0.3,0.12,0.48c-0.04,0.18-0.12,0.359-0.24,0.54
			c-0.12,0.18-0.261,0.33-0.42,0.449c-1.041,0.201-2.061,0.411-3.06,0.631c-1,0.22-2.021,0.41-3.06,0.569
			c0.12,2.2,0.229,4.391,0.33,6.57c0.099,2.181,0.189,4.69,0.27,7.53c-0.12,0.4-0.371,0.689-0.75,0.869
			c-0.381,0.181-0.651-0.01-0.81-0.569c-0.081-2.84-0.171-5.36-0.27-7.561c-0.101-2.199-0.21-4.399-0.33-6.6
			c-0.639,0.081-1.26,0.141-1.86,0.18C124.736,115.553,124.117,115.573,123.476,115.573z"/>
		<path d="M139.195,118.153c0.68,0.64,1.11,1.25,1.29,1.83s0.169,1.13-0.03,1.649c-0.2,0.521-0.53,0.99-0.99,1.41
			c-0.46,0.42-0.99,0.761-1.59,1.02c-0.6,0.261-1.221,0.431-1.86,0.511c-0.64,0.08-1.221,0.04-1.74-0.12
			c0.32,2.16,1.28,3.43,2.88,3.81c1.6,0.381,3.62-0.409,6.06-2.37c0.279-0.199,0.51-0.279,0.69-0.239s0.31,0.13,0.39,0.27
			c0.08,0.141,0.099,0.32,0.06,0.54c-0.041,0.221-0.161,0.431-0.36,0.63c-1.041,0.84-2.09,1.53-3.15,2.07
			c-1.06,0.54-2.08,0.84-3.06,0.899c-0.98,0.061-1.89-0.18-2.73-0.72c-0.84-0.54-1.56-1.509-2.16-2.91
			c-0.24-0.6-0.39-1.419-0.45-2.46c-0.06-1.039,0.03-2.079,0.27-3.12c0.24-1.039,0.62-1.97,1.14-2.79
			c0.519-0.819,1.239-1.31,2.16-1.47c0.64-0.12,1.23,0.03,1.77,0.45S138.795,117.833,139.195,118.153z M134.515,120.073
			c-0.16,0.76-0.28,1.521-0.36,2.279c0.2,0.28,0.53,0.441,0.99,0.48c0.459,0.04,0.939,0,1.44-0.12c0.5-0.12,0.979-0.29,1.44-0.51
			c0.459-0.22,0.77-0.45,0.93-0.69c-0.081-0.52-0.32-1.06-0.72-1.62c-0.4-0.56-0.84-0.979-1.32-1.26
			c-0.48-0.279-0.951-0.339-1.41-0.18C135.045,118.613,134.715,119.153,134.515,120.073z"/>
	</g>
	<g>
		<path d="M311.898,116.519c-0.201,0.561-0.521,0.861-0.96,0.9c-0.521,0-0.86-0.189-1.021-0.57c-0.16-0.38-0.24-0.819-0.24-1.32
			c0-0.5,0.031-1.02,0.091-1.56s0.05-0.97-0.03-1.29c-0.12-0.6-0.43-1.11-0.93-1.53c-0.501-0.42-1.061-0.759-1.68-1.02
			c-0.621-0.259-1.271-0.459-1.951-0.6c-0.68-0.14-1.279-0.21-1.799-0.21c-0.922-0.039-1.641,0.19-2.16,0.69
			c-0.521,0.5-0.871,1.12-1.051,1.86c-0.18,0.741-0.2,1.53-0.06,2.37c0.14,0.84,0.399,1.59,0.78,2.25
			c0.379,0.66,0.869,1.15,1.47,1.47c0.601,0.321,1.28,0.321,2.04,0c0.56-0.24,1.07-0.57,1.529-0.99c0.46-0.42,0.931-0.79,1.41-1.11
			c0.561-0.2,0.871-0.099,0.931,0.3c0.06,0.4-0.07,0.76-0.39,1.08c-0.561,0.4-1.091,0.84-1.59,1.32
			c-0.502,0.48-1.071,0.84-1.711,1.08c-1,0.36-1.89,0.38-2.67,0.06c-0.779-0.32-1.431-0.85-1.949-1.59
			c-0.521-0.739-0.911-1.609-1.17-2.61c-0.262-1-0.361-1.97-0.301-2.91c0.061-0.939,0.279-1.79,0.66-2.55
			c0.379-0.759,0.93-1.26,1.65-1.5c3.158-1.119,5.959-0.8,8.399,0.96c0.319,0.24,0.56,0.5,0.72,0.78c0-0.04-0.029-0.48-0.09-1.32
			c-0.06-0.84-0.13-1.89-0.21-3.15c-0.081-1.26-0.18-2.649-0.3-4.17c-0.12-1.52-0.24-2.99-0.359-4.41
			c-0.121-1.419-0.24-2.7-0.361-3.84c-0.119-1.14-0.239-1.989-0.359-2.55c0.08-0.519,0.34-0.859,0.78-1.02
			c0.439-0.159,0.699,0.081,0.78,0.72L311.898,116.519z"/>
		<path d="M320.059,108.418c0.68,0.641,1.109,1.251,1.289,1.83c0.181,0.581,0.17,1.131-0.029,1.65
			c-0.201,0.521-0.531,0.99-0.99,1.41c-0.461,0.42-0.99,0.76-1.59,1.02c-0.6,0.261-1.221,0.43-1.86,0.51
			c-0.64,0.081-1.221,0.041-1.739-0.12c0.319,2.16,1.279,3.43,2.879,3.81c1.6,0.38,3.62-0.41,6.061-2.37
			c0.279-0.2,0.51-0.279,0.689-0.24c0.181,0.041,0.311,0.13,0.391,0.27c0.08,0.141,0.1,0.321,0.061,0.54
			c-0.041,0.22-0.161,0.43-0.361,0.63c-1.04,0.84-2.09,1.53-3.149,2.07s-2.08,0.84-3.06,0.9c-0.98,0.06-1.891-0.18-2.73-0.72
			s-1.561-1.509-2.16-2.91c-0.24-0.6-0.39-1.419-0.449-2.46c-0.061-1.04,0.029-2.08,0.27-3.12c0.24-1.04,0.619-1.97,1.141-2.79
			c0.519-0.819,1.238-1.31,2.159-1.47c0.64-0.12,1.229,0.03,1.771,0.45C319.188,107.729,319.658,108.099,320.059,108.418z
			 M315.378,110.338c-0.16,0.761-0.28,1.521-0.36,2.28c0.2,0.28,0.53,0.44,0.99,0.48c0.459,0.04,0.939,0,1.44-0.12
			c0.499-0.12,0.979-0.29,1.44-0.51c0.459-0.22,0.77-0.45,0.93-0.69c-0.081-0.52-0.32-1.06-0.721-1.62
			c-0.4-0.56-0.84-0.98-1.319-1.26c-0.48-0.279-0.95-0.339-1.41-0.18C315.908,108.879,315.578,109.419,315.378,110.338z"/>
		<path d="M325.998,91.499c0.08-0.52,0.34-0.86,0.779-1.02c0.439-0.159,0.699,0.081,0.78,0.72c0.079,4.76,0.3,9.48,0.659,14.16
			c0.361,4.68,0.58,9.4,0.66,14.16c-0.119,0.4-0.369,0.69-0.75,0.87c-0.38,0.18-0.65-0.01-0.81-0.57
			c-0.081-4.759-0.3-9.489-0.66-14.19C326.297,100.929,326.078,96.219,325.998,91.499z"/>
		<path d="M337.277,108.418c0.68,0.641,1.109,1.251,1.29,1.83c0.181,0.581,0.169,1.131-0.03,1.65c-0.2,0.521-0.53,0.99-0.99,1.41
			s-0.99,0.76-1.59,1.02c-0.6,0.261-1.221,0.43-1.859,0.51c-0.641,0.081-1.221,0.041-1.74-0.12c0.32,2.16,1.279,3.43,2.88,3.81
			c1.6,0.38,3.62-0.41,6.06-2.37c0.279-0.2,0.51-0.279,0.69-0.24c0.181,0.041,0.31,0.13,0.39,0.27c0.08,0.141,0.1,0.321,0.061,0.54
			c-0.041,0.22-0.16,0.43-0.36,0.63c-1.04,0.84-2.091,1.53-3.149,2.07c-1.061,0.54-2.08,0.84-3.061,0.9s-1.89-0.18-2.73-0.72
			c-0.84-0.54-1.56-1.509-2.159-2.91c-0.24-0.6-0.39-1.419-0.45-2.46c-0.061-1.04,0.029-2.08,0.27-3.12
			c0.24-1.04,0.62-1.97,1.141-2.79c0.52-0.819,1.239-1.31,2.16-1.47c0.639-0.12,1.229,0.03,1.77,0.45
			S336.877,108.099,337.277,108.418z M332.598,110.338c-0.16,0.761-0.281,1.521-0.36,2.28c0.2,0.28,0.53,0.44,0.99,0.48
			c0.459,0.04,0.938,0,1.44-0.12c0.499-0.12,0.979-0.29,1.439-0.51c0.459-0.22,0.77-0.45,0.93-0.69c-0.08-0.52-0.32-1.06-0.72-1.62
			c-0.4-0.56-0.84-0.98-1.319-1.26c-0.48-0.279-0.951-0.339-1.41-0.18C333.127,108.879,332.797,109.419,332.598,110.338z"/>
		<path d="M349.697,107.759c0.479,0.2,0.639,0.51,0.479,0.93c-0.16,0.42-0.46,0.67-0.899,0.75c-1.361-0.519-2.512-0.62-3.45-0.3
			c-0.94,0.32-1.69,0.831-2.25,1.53c-0.562,0.701-0.911,1.47-1.05,2.31c-0.141,0.84-0.09,1.48,0.149,1.92
			c0.399,0.72,0.89,1.131,1.47,1.23c0.58,0.101,1.15,0.051,1.711-0.15c0.559-0.2,1.089-0.5,1.59-0.9
			c0.5-0.399,0.889-0.759,1.17-1.08l0.18-0.18c0.039-0.039,0.061-0.08,0.061-0.12c0.199-0.32,0.449-0.5,0.75-0.54
			c0.299-0.04,0.51,0.141,0.629,0.54c0.08,0.201,0.11,0.38,0.091,0.54c-0.021,0.16-0.03,0.34-0.03,0.54
			c0.279,1.08,0.529,2.21,0.75,3.39c0.219,1.181,0.34,2.36,0.359,3.54c0.021,1.18-0.119,2.34-0.42,3.48
			c-0.299,1.14-0.85,2.21-1.649,3.21c-1.001,1.28-2.331,2.29-3.989,3.03c-1.661,0.74-3.371,1.14-5.131,1.2s-3.439-0.25-5.04-0.93
			c-1.599-0.681-2.819-1.8-3.659-3.36c-0.08-0.4,0.05-0.771,0.389-1.11c0.341-0.34,0.671-0.31,0.99,0.09
			c0.641,1.2,1.66,2.1,3.061,2.7s2.88,0.89,4.439,0.87c1.561-0.021,3.07-0.321,4.53-0.9c1.46-0.581,2.569-1.431,3.33-2.55
			c0.601-0.88,1.01-1.81,1.229-2.79c0.221-0.98,0.33-1.98,0.33-3s-0.09-2.049-0.27-3.09c-0.18-1.04-0.37-2.06-0.57-3.06
			c-1.12,1.161-2.189,1.851-3.209,2.07c-1.021,0.221-1.911,0.141-2.67-0.24c-0.762-0.38-1.351-0.979-1.771-1.8
			c-0.421-0.82-0.601-1.71-0.54-2.67s0.41-1.91,1.05-2.85c0.64-0.939,1.659-1.689,3.06-2.25c0.801-0.32,1.681-0.45,2.641-0.39
			S349.217,107.559,349.697,107.759z"/>
		<path d="M355.576,110.338c-0.16,0.081-0.44,0.261-0.84,0.54c-0.4,0.28-0.74,0.54-1.02,0.78c-0.081,0.32-0.24,0.57-0.48,0.75
			c-0.24,0.18-0.521,0.15-0.84-0.09l-0.12-0.12c-0.2-0.399-0.141-0.819,0.18-1.26c0.319-0.36,0.7-0.69,1.14-0.99
			c0.44-0.3,0.84-0.59,1.201-0.87c1.92-1.4,3.639-1.97,5.159-1.71c1.521,0.261,2.78,1.011,3.78,2.25c1,1.24,1.699,2.79,2.1,4.65
			s0.42,3.69,0.061,5.49c-0.081,0.319-0.25,0.579-0.51,0.78c-0.262,0.2-0.551,0.18-0.871-0.06c-0.32-0.48-0.6-0.979-0.84-1.5
			c-0.24-0.52-0.5-1.02-0.779-1.5c-0.281-0.48-0.61-0.93-0.99-1.35c-0.381-0.42-0.87-0.75-1.471-0.99
			c-0.239-0.12-0.6-0.23-1.079-0.33c-0.479-0.1-0.921-0.09-1.32,0.03c-0.16,0.081-0.431,0.221-0.81,0.42
			c-0.381,0.2-0.771,0.44-1.17,0.72c-0.4,0.28-0.75,0.561-1.051,0.84c-0.3,0.281-0.41,0.521-0.33,0.72
			c0.48,0.28,0.961,0.43,1.44,0.45c0.479,0.021,0.95-0.02,1.41-0.12c0.46-0.1,0.93-0.219,1.409-0.36
			c0.48-0.14,0.961-0.25,1.441-0.33c0.279,0,0.479,0.081,0.6,0.24c0.119,0.161,0.159,0.34,0.119,0.54
			c-0.039,0.201-0.141,0.39-0.299,0.57c-0.161,0.18-0.361,0.291-0.601,0.33c-0.12,0-0.44,0.081-0.96,0.24
			c-0.521,0.16-1.18,0.321-1.98,0.48c-1.48,0.28-2.529,0.25-3.149-0.09c-0.62-0.339-0.921-0.83-0.9-1.47
			c0.021-0.639,0.3-1.34,0.841-2.1c0.539-0.759,1.209-1.41,2.01-1.95c0.799-0.54,1.68-0.879,2.64-1.02c0.96-0.14,1.86,0.07,2.7,0.63
			c0.879,0.6,1.529,1.21,1.949,1.83c0.42,0.621,0.83,1.27,1.23,1.95c0-1.359-0.21-2.679-0.63-3.96c-0.42-1.279-1.021-2.319-1.8-3.12
			c-0.78-0.8-1.73-1.24-2.85-1.32C358.176,108.879,356.936,109.339,355.576,110.338z"/>
		<path d="M364.275,105.838c-0.279-0.039-0.459-0.14-0.539-0.3c-0.08-0.159-0.091-0.33-0.031-0.51c0.061-0.18,0.16-0.35,0.301-0.51
			c0.141-0.159,0.291-0.279,0.449-0.36c0.601,0,1.181-0.02,1.74-0.06c0.561-0.04,1.121-0.1,1.68-0.18
			c-0.08-1.16-0.13-2.39-0.149-3.69c-0.021-1.299-0.051-2.709-0.09-4.23c0.079-0.52,0.339-0.86,0.78-1.02
			c0.439-0.159,0.699,0.081,0.779,0.72c0.039,1.521,0.07,2.94,0.09,4.26c0.02,1.32,0.07,2.58,0.15,3.78
			c1.039-0.2,2.07-0.41,3.09-0.63c1.02-0.219,2.05-0.429,3.09-0.63c0.279,0,0.48,0.07,0.601,0.21c0.12,0.141,0.159,0.3,0.12,0.48
			c-0.041,0.18-0.12,0.36-0.24,0.54c-0.12,0.18-0.261,0.33-0.42,0.45c-1.041,0.201-2.061,0.411-3.061,0.63
			c-1,0.22-2.02,0.411-3.06,0.57c0.12,2.201,0.229,4.391,0.33,6.57c0.099,2.181,0.189,4.69,0.271,7.53
			c-0.121,0.4-0.371,0.69-0.75,0.87c-0.381,0.18-0.651-0.01-0.811-0.57c-0.08-2.84-0.171-5.36-0.27-7.56
			c-0.102-2.2-0.211-4.4-0.33-6.6c-0.64,0.081-1.26,0.141-1.86,0.18C365.535,105.819,364.916,105.838,364.275,105.838z"/>
		<path d="M379.995,108.418c0.68,0.641,1.11,1.251,1.29,1.83c0.18,0.581,0.17,1.131-0.03,1.65c-0.2,0.521-0.53,0.99-0.989,1.41
			c-0.461,0.42-0.99,0.76-1.59,1.02c-0.601,0.261-1.221,0.43-1.861,0.51c-0.64,0.081-1.221,0.041-1.739-0.12
			c0.319,2.16,1.28,3.43,2.88,3.81c1.6,0.38,3.619-0.41,6.061-2.37c0.279-0.2,0.51-0.279,0.689-0.24
			c0.18,0.041,0.31,0.13,0.391,0.27c0.079,0.141,0.099,0.321,0.06,0.54c-0.04,0.22-0.161,0.43-0.36,0.63
			c-1.041,0.84-2.09,1.53-3.15,2.07c-1.06,0.54-2.08,0.84-3.06,0.9c-0.98,0.06-1.89-0.18-2.729-0.72s-1.561-1.509-2.16-2.91
			c-0.24-0.6-0.391-1.419-0.45-2.46c-0.06-1.04,0.03-2.08,0.271-3.12c0.239-1.04,0.619-1.97,1.14-2.79
			c0.519-0.819,1.239-1.31,2.159-1.47c0.641-0.12,1.23,0.03,1.771,0.45S379.595,108.099,379.995,108.418z M375.314,110.338
			c-0.16,0.761-0.279,1.521-0.359,2.28c0.199,0.28,0.529,0.44,0.99,0.48c0.459,0.04,0.939,0,1.439-0.12s0.98-0.29,1.44-0.51
			c0.46-0.22,0.77-0.45,0.93-0.69c-0.081-0.52-0.32-1.06-0.72-1.62c-0.4-0.56-0.84-0.98-1.32-1.26c-0.48-0.279-0.95-0.339-1.41-0.18
			C375.845,108.879,375.515,109.419,375.314,110.338z"/>
	</g>
	<g>
		<path d="M361.184,190.593c0.479,0.2,0.639,0.51,0.479,0.93c-0.16,0.42-0.46,0.671-0.899,0.75c-1.361-0.52-2.512-0.619-3.45-0.3
			c-0.94,0.32-1.69,0.83-2.25,1.53c-0.562,0.7-0.911,1.47-1.05,2.31c-0.141,0.84-0.09,1.48,0.149,1.92
			c0.399,0.72,0.89,1.131,1.47,1.23s1.15,0.051,1.711-0.15c0.559-0.199,1.089-0.5,1.59-0.9c0.5-0.398,0.889-0.759,1.17-1.079
			l0.18-0.181c0.039-0.039,0.061-0.079,0.061-0.12c0.199-0.319,0.449-0.499,0.75-0.54c0.299-0.039,0.51,0.141,0.629,0.54
			c0.08,0.201,0.11,0.381,0.091,0.54c-0.021,0.16-0.03,0.341-0.03,0.54c0.279,1.08,0.529,2.211,0.75,3.391
			c0.219,1.18,0.34,2.359,0.359,3.54c0.021,1.179-0.119,2.34-0.42,3.479c-0.299,1.139-0.85,2.209-1.649,3.209
			c-1.001,1.281-2.331,2.289-3.989,3.031c-1.661,0.738-3.371,1.139-5.131,1.199s-3.439-0.25-5.04-0.93
			c-1.599-0.682-2.819-1.801-3.659-3.359c-0.08-0.4,0.05-0.771,0.389-1.111c0.341-0.34,0.671-0.311,0.99,0.09
			c0.641,1.201,1.66,2.102,3.061,2.701s2.88,0.889,4.439,0.869c1.561-0.02,3.07-0.32,4.53-0.9s2.569-1.43,3.33-2.549
			c0.601-0.881,1.01-1.811,1.229-2.791c0.221-0.98,0.33-1.979,0.33-3c0-1.02-0.09-2.049-0.27-3.09c-0.18-1.04-0.37-2.06-0.57-3.06
			c-1.12,1.16-2.189,1.851-3.209,2.069c-1.021,0.221-1.911,0.141-2.67-0.24c-0.762-0.379-1.351-0.979-1.771-1.8
			c-0.421-0.819-0.601-1.71-0.54-2.67s0.41-1.909,1.05-2.85c0.64-0.939,1.659-1.689,3.06-2.25c0.801-0.32,1.681-0.45,2.641-0.391
			C359.983,190.263,360.703,190.393,361.184,190.593z"/>
		<path d="M370.183,191.253c0.68,0.64,1.11,1.25,1.29,1.83s0.17,1.13-0.03,1.649c-0.2,0.521-0.53,0.99-0.989,1.41
			c-0.461,0.42-0.99,0.761-1.59,1.02c-0.601,0.261-1.221,0.431-1.861,0.511c-0.64,0.08-1.221,0.04-1.739-0.12
			c0.319,2.16,1.28,3.43,2.88,3.81c1.6,0.381,3.619-0.409,6.061-2.37c0.279-0.199,0.51-0.279,0.689-0.239s0.31,0.13,0.391,0.27
			c0.079,0.141,0.099,0.32,0.06,0.54c-0.04,0.221-0.161,0.431-0.36,0.63c-1.041,0.84-2.09,1.53-3.15,2.07
			c-1.06,0.54-2.08,0.84-3.06,0.899c-0.98,0.061-1.89-0.18-2.729-0.72s-1.561-1.509-2.16-2.91c-0.24-0.6-0.391-1.419-0.45-2.46
			c-0.06-1.039,0.03-2.079,0.271-3.12c0.239-1.039,0.619-1.97,1.14-2.79c0.519-0.819,1.239-1.31,2.159-1.47
			c0.641-0.12,1.23,0.03,1.771,0.45S369.782,190.933,370.183,191.253z M365.502,193.173c-0.16,0.76-0.279,1.521-0.359,2.279
			c0.199,0.28,0.529,0.441,0.99,0.48c0.459,0.04,0.939,0,1.439-0.12s0.98-0.29,1.44-0.51s0.77-0.45,0.93-0.69
			c-0.081-0.52-0.32-1.06-0.72-1.62c-0.4-0.56-0.84-0.979-1.32-1.26c-0.48-0.279-0.95-0.339-1.41-0.18
			C366.032,191.713,365.702,192.253,365.502,193.173z"/>
		<path d="M372.042,188.673c-0.279-0.04-0.459-0.14-0.54-0.3c-0.08-0.16-0.09-0.33-0.029-0.511c0.06-0.18,0.16-0.35,0.3-0.51
			c0.141-0.159,0.29-0.279,0.45-0.36c0.6,0,1.18-0.02,1.74-0.06c0.561-0.039,1.119-0.1,1.68-0.18c-0.081-1.16-0.131-2.39-0.15-3.69
			c-0.021-1.299-0.051-2.709-0.09-4.229c0.08-0.52,0.34-0.86,0.779-1.021c0.44-0.159,0.7,0.081,0.781,0.72
			c0.039,1.521,0.068,2.94,0.09,4.261c0.02,1.319,0.068,2.58,0.149,3.779c1.04-0.199,2.07-0.409,3.09-0.63
			c1.021-0.219,2.05-0.429,3.091-0.63c0.279,0,0.479,0.07,0.6,0.21c0.119,0.141,0.159,0.3,0.119,0.48
			c-0.039,0.18-0.119,0.359-0.239,0.54c-0.12,0.18-0.261,0.33-0.42,0.449c-1.041,0.201-2.061,0.411-3.06,0.631
			c-1.001,0.22-2.021,0.41-3.061,0.569c0.12,2.2,0.229,4.391,0.33,6.57c0.1,2.181,0.189,4.69,0.27,7.53
			c-0.119,0.4-0.37,0.689-0.75,0.869c-0.381,0.181-0.65-0.01-0.81-0.569c-0.081-2.84-0.171-5.36-0.271-7.561
			c-0.1-2.199-0.209-4.399-0.33-6.6c-0.639,0.081-1.26,0.141-1.859,0.18C373.303,188.654,372.683,188.673,372.042,188.673z"/>
		<path d="M397.002,181.233c0.039,0.48-0.16,0.831-0.6,1.05c-0.441,0.221-0.741,0.051-0.9-0.51c-0.08-0.8-0.141-1.579-0.18-2.34
			c-0.041-0.76-0.18-1.5-0.42-2.22c-0.24-0.64-0.66-1.1-1.26-1.38c-0.601-0.28-1.221-0.24-1.861,0.119
			c-0.92,0.521-1.81,1.351-2.67,2.49c-0.859,1.141-1.63,2.431-2.31,3.87c-0.681,1.44-1.271,2.99-1.771,4.65s-0.83,3.27-0.989,4.83
			c-0.161,1.56-0.149,3.029,0.03,4.409c0.18,1.381,0.59,2.511,1.229,3.391c0.68,0.96,1.62,1.5,2.82,1.62s2.419-0.01,3.659-0.391
			c1.24-0.379,2.391-0.939,3.451-1.68c1.059-0.739,1.809-1.53,2.25-2.37c0.158-0.279,0.299-0.6,0.42-0.96
			c0.119-0.36,0.219-0.699,0.299-1.02c0.2-0.44,0.49-0.69,0.871-0.75c0.379-0.061,0.609,0.189,0.689,0.75
			c-0.44,1.521-1.109,2.85-2.01,3.989c-0.9,1.141-1.961,2.061-3.18,2.761c-1.221,0.7-2.551,1.14-3.99,1.319
			c-1.439,0.181-2.9,0.05-4.381-0.39c-1.52-0.439-2.59-1.43-3.209-2.97c-0.621-1.54-0.9-3.33-0.84-5.37
			c0.06-2.04,0.39-4.2,0.99-6.48c0.6-2.279,1.35-4.38,2.25-6.3c0.899-1.92,1.879-3.529,2.939-4.83c1.059-1.299,2.09-2.01,3.09-2.13
			c1.359-0.159,2.39-0.05,3.09,0.33c0.699,0.381,1.22,0.9,1.561,1.56c0.339,0.66,0.549,1.431,0.629,2.311
			S396.882,180.354,397.002,181.233z"/>
		<path d="M404.262,191.673c0.319-0.08,0.739-0.1,1.26-0.061c0.52,0.041,1.05,0.12,1.59,0.24s1.05,0.28,1.529,0.48
			c0.48,0.2,0.84,0.44,1.08,0.72c0.88,1.16,1.25,2.31,1.11,3.45c-0.141,1.14-0.58,2.11-1.319,2.909
			c-0.741,0.801-1.691,1.351-2.851,1.65c-1.161,0.3-2.32,0.171-3.479-0.39c-0.321-0.159-0.631-0.3-0.931-0.42
			s-0.569-0.301-0.81-0.54c-0.4-0.399-0.591-1.051-0.57-1.95c0.02-0.9,0.18-1.8,0.48-2.7c0.3-0.9,0.709-1.689,1.229-2.37
			C403.101,192.013,403.661,191.673,404.262,191.673z M407.262,193.833c-0.922-0.52-1.74-0.601-2.461-0.24
			c-0.72,0.359-1.3,0.84-1.74,1.439c-0.08,0.081-0.17,0.271-0.27,0.57s-0.201,0.621-0.3,0.96c-0.101,0.341-0.149,0.681-0.149,1.021
			s0.099,0.59,0.299,0.75c0.68,0.6,1.381,0.96,2.101,1.079c0.72,0.12,1.38,0.091,1.979-0.09c0.601-0.18,1.11-0.489,1.53-0.93
			c0.421-0.439,0.69-0.93,0.81-1.47c0.121-0.54,0.04-1.08-0.239-1.62C408.541,194.763,408.021,194.274,407.262,193.833z"/>
		<path d="M412.421,191.973c0.079-0.52,0.339-0.859,0.78-1.021c0.439-0.159,0.699,0.081,0.779,0.721l-0.119,3.66
			c0.959-1.359,2.07-2.28,3.33-2.761c1.26-0.479,2.439-0.499,3.539-0.06c1.1,0.44,2.011,1.33,2.73,2.67
			c0.721,1.341,1,3.13,0.84,5.37v0.06h-0.06c-0.12,0.36-0.36,0.621-0.72,0.78c-0.36,0.16-0.621-0.02-0.78-0.54v-0.72
			c0.039-1.92-0.33-3.41-1.11-4.471c-0.779-1.059-1.68-1.649-2.699-1.77c-1.021-0.12-2.031,0.261-3.031,1.14
			c-1,0.881-1.72,2.341-2.159,4.38c0,0.081-0.021,0.12-0.06,0.12v0.36h-0.181c-0.2,0.24-0.44,0.381-0.72,0.42
			c-0.281,0.04-0.48-0.159-0.6-0.6v-0.24c0.079-1.279,0.129-2.529,0.149-3.75C412.351,194.503,412.381,193.253,412.421,191.973z"/>
		<path d="M439.42,192.153c0.08,0.201,0.08,0.42,0,0.66s-0.199,0.431-0.359,0.57c-0.16,0.141-0.33,0.2-0.51,0.18
			c-0.18-0.02-0.35-0.15-0.51-0.39c-0.201-0.44-0.561-0.76-1.08-0.96c-0.521-0.2-1.131-0.301-1.83-0.301
			c-0.7,0-1.45,0.07-2.25,0.211c-0.801,0.141-1.551,0.31-2.25,0.51c-0.7,0.2-1.311,0.42-1.83,0.66c-0.52,0.239-0.86,0.46-1.02,0.659
			c0.479,0.681,1.17,1.23,2.07,1.65c0.899,0.42,1.85,0.801,2.85,1.14c0.999,0.341,2.01,0.66,3.029,0.96
			c1.021,0.301,1.891,0.69,2.611,1.171c0.119,0.08,0.188,0.17,0.209,0.27c0.02,0.101,0.049,0.23,0.09,0.39
			c-0.119,1.08-0.561,1.941-1.32,2.58c-0.76,0.641-1.649,1.05-2.67,1.23c-1.02,0.18-2.05,0.14-3.09-0.12
			c-1.041-0.261-1.881-0.75-2.52-1.47c-0.201-0.399-0.18-0.78,0.061-1.141c0.239-0.359,0.578-0.439,1.02-0.239
			c0.398,0.399,0.969,0.72,1.71,0.96c0.739,0.239,1.479,0.37,2.22,0.39c0.74,0.021,1.4-0.09,1.98-0.33
			c0.579-0.24,0.908-0.66,0.99-1.26c-0.841-0.56-1.762-0.99-2.761-1.29c-1-0.3-2.001-0.601-3-0.9c-1-0.3-1.94-0.68-2.819-1.14
			c-0.881-0.46-1.621-1.149-2.221-2.07c-0.24-0.399-0.201-0.819,0.12-1.26c0.079-0.08,0.24-0.3,0.479-0.66
			c0.24-0.36,0.48-0.6,0.721-0.72c0.56-0.32,1.43-0.67,2.609-1.05s2.4-0.631,3.66-0.75c1.26-0.12,2.42-0.061,3.48,0.18
			C438.35,190.713,439.061,191.274,439.42,192.153z"/>
		<path d="M447.64,191.253c0.68,0.64,1.11,1.25,1.29,1.83c0.181,0.58,0.17,1.13-0.029,1.649c-0.201,0.521-0.531,0.99-0.99,1.41
			c-0.46,0.42-0.99,0.761-1.59,1.02c-0.601,0.261-1.221,0.431-1.86,0.511c-0.641,0.08-1.221,0.04-1.74-0.12
			c0.32,2.16,1.28,3.43,2.881,3.81c1.599,0.381,3.619-0.409,6.06-2.37c0.279-0.199,0.51-0.279,0.69-0.239
			c0.18,0.04,0.309,0.13,0.39,0.27c0.079,0.141,0.1,0.32,0.06,0.54c-0.04,0.221-0.16,0.431-0.359,0.63
			c-1.041,0.84-2.091,1.53-3.15,2.07c-1.061,0.54-2.08,0.84-3.06,0.899c-0.981,0.061-1.891-0.18-2.73-0.72s-1.56-1.509-2.16-2.91
			c-0.239-0.6-0.39-1.419-0.45-2.46c-0.06-1.039,0.03-2.079,0.271-3.12c0.24-1.039,0.62-1.97,1.14-2.79
			c0.52-0.819,1.239-1.31,2.16-1.47c0.64-0.12,1.23,0.03,1.771,0.45S447.24,190.933,447.64,191.253z M442.96,193.173
			c-0.16,0.76-0.28,1.521-0.359,2.279c0.199,0.28,0.529,0.441,0.989,0.48c0.46,0.04,0.939,0,1.44-0.12
			c0.5-0.12,0.979-0.29,1.439-0.51s0.771-0.45,0.931-0.69c-0.081-0.52-0.321-1.06-0.721-1.62c-0.399-0.56-0.84-0.979-1.319-1.26
			c-0.48-0.279-0.951-0.339-1.41-0.18C443.49,191.713,443.16,192.253,442.96,193.173z"/>
		<path d="M454.84,191.973c0.079-0.52,0.339-0.859,0.779-1.021c0.44-0.159,0.7,0.081,0.78,0.721l-0.12,3.66
			c0.96-1.359,2.07-2.28,3.33-2.761c1.26-0.479,2.439-0.499,3.54-0.06c1.1,0.44,2.01,1.33,2.73,2.67
			c0.72,1.341,0.999,3.13,0.84,5.37v0.06h-0.061c-0.12,0.36-0.359,0.621-0.72,0.78c-0.36,0.16-0.62-0.02-0.78-0.54v-0.72
			c0.04-1.92-0.33-3.41-1.109-4.471c-0.78-1.059-1.681-1.649-2.7-1.77c-1.021-0.12-2.03,0.261-3.03,1.14
			c-1,0.881-1.72,2.341-2.16,4.38c0,0.081-0.021,0.12-0.06,0.12v0.36h-0.18c-0.201,0.24-0.441,0.381-0.721,0.42
			c-0.28,0.04-0.479-0.159-0.6-0.6v-0.24c0.079-1.279,0.129-2.529,0.149-3.75C454.77,194.503,454.799,193.253,454.84,191.973z"/>
		<path d="M481.839,192.153c0.08,0.201,0.08,0.42,0,0.66s-0.2,0.431-0.359,0.57c-0.16,0.141-0.33,0.2-0.51,0.18
			c-0.181-0.02-0.351-0.15-0.511-0.39c-0.2-0.44-0.561-0.76-1.08-0.96s-1.13-0.301-1.83-0.301s-1.45,0.07-2.25,0.211
			s-1.55,0.31-2.25,0.51s-1.311,0.42-1.829,0.66c-0.521,0.239-0.861,0.46-1.021,0.659c0.48,0.681,1.17,1.23,2.07,1.65
			c0.899,0.42,1.85,0.801,2.85,1.14c1,0.341,2.01,0.66,3.03,0.96c1.02,0.301,1.89,0.69,2.61,1.171c0.119,0.08,0.188,0.17,0.21,0.27
			c0.02,0.101,0.049,0.23,0.09,0.39c-0.12,1.08-0.561,1.941-1.32,2.58c-0.761,0.641-1.65,1.05-2.67,1.23
			c-1.021,0.18-2.051,0.14-3.09-0.12c-1.041-0.261-1.881-0.75-2.521-1.47c-0.2-0.399-0.18-0.78,0.061-1.141
			c0.24-0.359,0.579-0.439,1.02-0.239c0.399,0.399,0.97,0.72,1.71,0.96c0.74,0.239,1.479,0.37,2.221,0.39
			c0.739,0.021,1.399-0.09,1.979-0.33c0.579-0.24,0.909-0.66,0.99-1.26c-0.84-0.56-1.761-0.99-2.76-1.29
			c-1.001-0.3-2.001-0.601-3-0.9c-1.001-0.3-1.941-0.68-2.82-1.14c-0.881-0.46-1.62-1.149-2.22-2.07
			c-0.24-0.399-0.201-0.819,0.12-1.26c0.079-0.08,0.239-0.3,0.479-0.66s0.48-0.6,0.72-0.72c0.56-0.32,1.43-0.67,2.61-1.05
			c1.18-0.38,2.4-0.631,3.66-0.75c1.26-0.12,2.42-0.061,3.479,0.18S481.479,191.274,481.839,192.153z"/>
	</g>
	<g>
		<path d="M313.741,272.418c0.079,0.201,0.079,0.42,0,0.66c-0.081,0.24-0.201,0.431-0.36,0.57c-0.161,0.141-0.33,0.2-0.511,0.18
			c-0.18-0.02-0.35-0.15-0.51-0.39c-0.2-0.44-0.561-0.76-1.08-0.96s-1.131-0.301-1.83-0.301s-1.449,0.07-2.25,0.211
			s-1.551,0.31-2.25,0.51s-1.311,0.42-1.83,0.66c-0.52,0.239-0.859,0.46-1.02,0.659c0.48,0.681,1.17,1.23,2.07,1.65
			s1.85,0.801,2.85,1.14c1,0.341,2.01,0.66,3.03,0.96c1.021,0.301,1.89,0.69,2.61,1.171c0.119,0.08,0.189,0.17,0.209,0.27
			c0.02,0.101,0.051,0.23,0.09,0.39c-0.119,1.08-0.561,1.941-1.319,2.58c-0.761,0.641-1.649,1.05-2.67,1.23
			c-1.021,0.18-2.05,0.14-3.09-0.12c-1.041-0.261-1.881-0.75-2.521-1.47c-0.2-0.399-0.18-0.78,0.061-1.141
			c0.24-0.359,0.579-0.439,1.02-0.239c0.399,0.399,0.97,0.72,1.711,0.96c0.738,0.239,1.479,0.37,2.219,0.39
			c0.74,0.021,1.4-0.09,1.98-0.33s0.91-0.66,0.99-1.26c-0.84-0.56-1.761-0.99-2.76-1.29c-1-0.3-2.001-0.601-3-0.9
			c-1-0.3-1.941-0.68-2.82-1.14c-0.881-0.46-1.62-1.149-2.221-2.07c-0.239-0.399-0.2-0.819,0.121-1.26
			c0.079-0.08,0.24-0.3,0.479-0.66c0.24-0.36,0.479-0.6,0.72-0.72c0.561-0.32,1.43-0.67,2.61-1.05c1.179-0.38,2.399-0.631,3.66-0.75
			c1.26-0.12,2.419-0.061,3.479,0.18C312.67,270.979,313.381,271.539,313.741,272.418z"/>
		<path d="M321.96,271.519c0.68,0.64,1.109,1.25,1.29,1.83s0.169,1.13-0.03,1.649c-0.2,0.521-0.53,0.99-0.99,1.41
			s-0.99,0.761-1.59,1.02c-0.6,0.261-1.221,0.431-1.859,0.511c-0.641,0.08-1.221,0.04-1.74-0.12c0.32,2.16,1.279,3.43,2.88,3.81
			c1.6,0.381,3.62-0.409,6.06-2.37c0.279-0.199,0.51-0.279,0.69-0.239s0.31,0.13,0.39,0.27c0.08,0.141,0.1,0.32,0.061,0.54
			c-0.041,0.221-0.16,0.431-0.36,0.63c-1.04,0.84-2.091,1.53-3.149,2.07c-1.061,0.54-2.08,0.84-3.061,0.899
			c-0.98,0.061-1.89-0.18-2.73-0.72c-0.84-0.54-1.56-1.509-2.159-2.91c-0.24-0.6-0.39-1.419-0.45-2.46
			c-0.061-1.039,0.029-2.079,0.27-3.12c0.24-1.039,0.62-1.97,1.141-2.79c0.52-0.819,1.239-1.31,2.16-1.47
			c0.639-0.12,1.229,0.03,1.77,0.45S321.56,271.198,321.96,271.519z M317.28,273.438c-0.16,0.76-0.281,1.521-0.36,2.279
			c0.2,0.28,0.53,0.441,0.99,0.48c0.459,0.04,0.938,0,1.44-0.12c0.499-0.12,0.979-0.29,1.439-0.51c0.459-0.22,0.77-0.45,0.93-0.69
			c-0.08-0.52-0.32-1.06-0.72-1.62c-0.4-0.56-0.84-0.979-1.319-1.26c-0.48-0.279-0.951-0.339-1.41-0.18
			C317.81,271.979,317.479,272.519,317.28,273.438z"/>
		<path d="M329.159,272.238c0.08-0.52,0.34-0.859,0.78-1.021c0.439-0.159,0.699,0.081,0.78,0.721l-0.121,3.66
			c0.961-1.359,2.07-2.28,3.33-2.761c1.261-0.479,2.439-0.499,3.541-0.06c1.1,0.44,2.01,1.33,2.729,2.67
			c0.72,1.341,0.999,3.13,0.841,5.37v0.06h-0.061c-0.12,0.36-0.36,0.621-0.721,0.78c-0.359,0.16-0.62-0.02-0.779-0.54v-0.72
			c0.039-1.92-0.33-3.41-1.11-4.471c-0.78-1.059-1.68-1.649-2.7-1.77c-1.02-0.12-2.03,0.261-3.029,1.14
			c-1,0.881-1.721,2.341-2.16,4.38c0,0.081-0.021,0.12-0.061,0.12v0.36h-0.18c-0.201,0.24-0.44,0.381-0.72,0.42
			c-0.28,0.04-0.479-0.159-0.601-0.6v-0.24c0.08-1.279,0.13-2.529,0.15-3.75C329.089,274.769,329.119,273.519,329.159,272.238z"/>
		<path d="M356.159,279.618c-0.201,0.561-0.521,0.86-0.961,0.9c-0.52,0-0.86-0.189-1.02-0.57c-0.16-0.38-0.24-0.819-0.24-1.32
			c0-0.499,0.03-1.02,0.09-1.56c0.061-0.54,0.05-0.97-0.029-1.29c-0.121-0.601-0.431-1.11-0.93-1.53
			c-0.502-0.42-1.061-0.759-1.681-1.02c-0.62-0.26-1.271-0.46-1.95-0.601c-0.681-0.14-1.28-0.21-1.8-0.21
			c-0.921-0.039-1.641,0.19-2.16,0.69c-0.521,0.5-0.87,1.12-1.05,1.859c-0.18,0.741-0.201,1.53-0.061,2.37s0.4,1.59,0.78,2.25
			s0.87,1.15,1.47,1.471c0.601,0.32,1.28,0.32,2.041,0c0.559-0.24,1.069-0.57,1.529-0.99c0.459-0.42,0.93-0.789,1.41-1.11
			c0.56-0.199,0.87-0.1,0.93,0.3c0.061,0.4-0.07,0.761-0.39,1.08c-0.561,0.4-1.091,0.84-1.59,1.32c-0.501,0.48-1.071,0.84-1.71,1.08
			c-1,0.36-1.891,0.381-2.67,0.06c-0.78-0.319-1.432-0.849-1.95-1.59c-0.521-0.739-0.911-1.609-1.17-2.609
			c-0.261-1-0.36-1.97-0.3-2.91c0.06-0.939,0.279-1.79,0.66-2.55c0.379-0.76,0.93-1.261,1.649-1.5c3.159-1.12,5.96-0.8,8.399,0.96
			c0.32,0.239,0.561,0.5,0.721,0.779c0-0.039-0.03-0.479-0.09-1.319c-0.061-0.841-0.131-1.891-0.211-3.15s-0.18-2.649-0.299-4.17
			c-0.121-1.52-0.24-2.99-0.36-4.41c-0.12-1.419-0.24-2.7-0.36-3.84c-0.119-1.14-0.24-1.989-0.359-2.55
			c0.079-0.52,0.339-0.86,0.779-1.021c0.439-0.159,0.699,0.081,0.78,0.721L356.159,279.618z"/>
		<path d="M376.559,255.078c0.319,0.32,0.36,0.67,0.12,1.05c-0.24,0.381-0.58,0.551-1.02,0.511c-0.721-0.28-1.59-0.55-2.61-0.811
			c-1.021-0.26-2.091-0.459-3.21-0.6c-1.12-0.14-2.24-0.189-3.359-0.15c-1.121,0.04-2.171,0.21-3.15,0.51
			c-0.98,0.301-1.83,0.771-2.551,1.41c-0.72,0.641-1.221,1.48-1.5,2.521c-0.359,1.439-0.39,2.609-0.09,3.51
			c0.301,0.899,0.811,1.62,1.53,2.16s1.61,0.94,2.67,1.2s2.169,0.47,3.33,0.63c1.159,0.16,2.31,0.31,3.45,0.449
			c1.14,0.141,2.189,0.371,3.15,0.69c2.318,0.761,3.789,1.761,4.41,3c0.619,1.24,0.68,2.53,0.18,3.87
			c-0.501,1.341-1.421,2.631-2.76,3.87c-1.342,1.24-2.82,2.22-4.44,2.939c-1.62,0.721-3.251,1.091-4.89,1.11
			c-1.641,0.021-2.98-0.51-4.021-1.59c-0.36-0.399-0.831-0.939-1.41-1.62c-0.58-0.68-1.03-1.38-1.35-2.1
			c-0.321-0.721-0.44-1.39-0.36-2.011c0.08-0.619,0.6-1.05,1.561-1.29c0.24,0.201,0.39,0.42,0.449,0.66
			c0.061,0.24,0.1,0.501,0.12,0.78c0.021,0.28,0.04,0.591,0.06,0.93c0.021,0.341,0.11,0.711,0.271,1.11
			c0.279,0.681,0.75,1.29,1.41,1.83s1.351,0.91,2.069,1.109c0.88,0.24,1.851,0.271,2.91,0.091c1.061-0.181,2.101-0.5,3.121-0.96
			c1.02-0.46,1.959-1.03,2.819-1.711c0.86-0.68,1.53-1.419,2.011-2.22c0.68-1.159,0.979-2.13,0.899-2.91
			c-0.081-0.779-0.42-1.409-1.021-1.89c-0.6-0.48-1.379-0.859-2.34-1.14c-0.96-0.279-1.979-0.511-3.06-0.69s-2.16-0.33-3.24-0.45
			s-2.021-0.3-2.819-0.54c-1.401-0.399-2.561-0.8-3.48-1.199c-0.921-0.399-1.62-0.92-2.1-1.561c-0.48-0.64-0.761-1.449-0.84-2.43
			c-0.081-0.979,0.02-2.25,0.299-3.811c0.561-1.959,1.59-3.39,3.09-4.29c1.5-0.899,3.181-1.439,5.041-1.62
			c1.859-0.18,3.75-0.09,5.67,0.271S375.158,254.519,376.559,255.078z"/>
		<path d="M379.558,256.038c0.08-0.52,0.34-0.859,0.779-1.02c0.44-0.16,0.7,0.08,0.781,0.72c0.079,0.72,0.129,1.62,0.149,2.7
			c0.02,1.08,0.069,2.511,0.149,4.29c0.08,1.78,0.23,3.989,0.451,6.63c0.219,2.64,0.569,5.9,1.049,9.78
			c0.88-1.96,1.951-3.44,3.211-4.44c1.26-0.999,2.459-1.46,3.6-1.38s2.13,0.7,2.971,1.859c0.84,1.161,1.279,2.921,1.319,5.28v0.3
			c-0.12,0.4-0.36,0.681-0.72,0.841c-0.36,0.16-0.641,0-0.84-0.48v-0.36c-0.041-0.999-0.191-1.979-0.45-2.939
			c-0.261-0.96-0.651-1.71-1.171-2.25s-1.189-0.76-2.01-0.66c-0.82,0.101-1.79,0.711-2.91,1.83c-0.719,0.76-1.229,1.62-1.529,2.58
			c-0.301,0.96-0.65,1.9-1.051,2.82c-0.16,0.28-0.38,0.479-0.659,0.6c-0.28,0.12-0.521,0-0.72-0.36
			c-0.281-1.599-0.541-3.35-0.78-5.25c-0.24-1.899-0.45-3.81-0.63-5.729s-0.34-3.79-0.48-5.61c-0.14-1.819-0.249-3.439-0.33-4.86
			c-0.08-1.419-0.139-2.569-0.18-3.449C379.519,256.599,379.519,256.119,379.558,256.038z"/>
		<path d="M399.298,273.438c-0.16,0.08-0.441,0.261-0.84,0.54c-0.4,0.28-0.741,0.54-1.021,0.779c-0.081,0.321-0.24,0.57-0.479,0.75
			c-0.24,0.181-0.521,0.15-0.84-0.09l-0.121-0.12c-0.2-0.399-0.141-0.819,0.18-1.26c0.32-0.36,0.7-0.689,1.141-0.99
			c0.439-0.3,0.84-0.589,1.2-0.87c1.92-1.399,3.64-1.969,5.159-1.71c1.521,0.261,2.78,1.011,3.781,2.25
			c0.999,1.241,1.699,2.79,2.1,4.65c0.399,1.86,0.42,3.69,0.061,5.49c-0.082,0.319-0.251,0.579-0.511,0.78
			c-0.261,0.199-0.55,0.18-0.87-0.061c-0.32-0.479-0.6-0.979-0.84-1.5c-0.24-0.52-0.5-1.02-0.779-1.5
			c-0.281-0.479-0.611-0.93-0.99-1.35c-0.381-0.42-0.871-0.75-1.471-0.99c-0.24-0.12-0.6-0.229-1.08-0.33
			c-0.479-0.1-0.92-0.09-1.32,0.03c-0.16,0.08-0.43,0.22-0.81,0.42s-0.771,0.44-1.17,0.72c-0.4,0.28-0.75,0.561-1.05,0.84
			c-0.301,0.28-0.41,0.521-0.33,0.721c0.48,0.28,0.96,0.43,1.439,0.449c0.48,0.021,0.95-0.02,1.41-0.12
			c0.46-0.099,0.93-0.219,1.41-0.359c0.48-0.14,0.961-0.25,1.44-0.33c0.279,0,0.479,0.08,0.6,0.24s0.159,0.34,0.12,0.54
			c-0.04,0.2-0.141,0.39-0.3,0.569c-0.161,0.181-0.36,0.291-0.601,0.33c-0.119,0-0.439,0.081-0.959,0.24
			c-0.521,0.16-1.181,0.32-1.98,0.479c-1.48,0.281-2.53,0.251-3.15-0.09c-0.62-0.339-0.92-0.829-0.9-1.47
			c0.021-0.64,0.301-1.34,0.841-2.1s1.21-1.41,2.01-1.95s1.681-0.88,2.64-1.021c0.961-0.14,1.86,0.07,2.701,0.63
			c0.879,0.601,1.529,1.211,1.949,1.83c0.42,0.621,0.83,1.271,1.23,1.95c0-1.359-0.211-2.679-0.631-3.96
			c-0.42-1.279-1.02-2.319-1.799-3.12c-0.781-0.8-1.731-1.239-2.851-1.319C401.897,271.979,400.657,272.438,399.298,273.438z"/>
		<path d="M411.536,271.458c0.08-0.52,0.34-0.859,0.781-1.02c0.439-0.159,0.699,0.08,0.779,0.72c0.039,0.921,0.14,1.83,0.301,2.73
			c0.158,0.899,0.339,1.81,0.539,2.729c0.12-0.64,0.42-1.38,0.9-2.22s1.059-1.63,1.74-2.37c0.68-0.74,1.419-1.359,2.22-1.86
			c0.8-0.499,1.579-0.75,2.34-0.75c0.24,0.081,0.399,0.261,0.479,0.54v0.12c0.04,0.4-0.1,0.72-0.42,0.96s-0.6,0.261-0.84,0.061
			c-2.16,1.079-3.609,2.5-4.35,4.26c-0.74,1.761-1.03,3.78-0.87,6.06c-0.081,0.321-0.28,0.601-0.601,0.84
			c-0.32,0.24-0.62,0.141-0.899-0.3c-0.4-1.6-0.82-3.219-1.26-4.859C411.937,275.459,411.657,273.579,411.536,271.458z"/>
		<path d="M428.456,271.519c0.68,0.64,1.11,1.25,1.291,1.83c0.18,0.58,0.169,1.13-0.031,1.649c-0.199,0.521-0.529,0.99-0.989,1.41
			s-0.99,0.761-1.59,1.02c-0.601,0.261-1.221,0.431-1.86,0.511c-0.641,0.08-1.221,0.04-1.74-0.12c0.32,2.16,1.28,3.43,2.881,3.81
			c1.6,0.381,3.619-0.409,6.06-2.37c0.279-0.199,0.51-0.279,0.69-0.239c0.18,0.04,0.309,0.13,0.39,0.27
			c0.079,0.141,0.099,0.32,0.06,0.54c-0.04,0.221-0.16,0.431-0.359,0.63c-1.041,0.84-2.091,1.53-3.15,2.07
			c-1.061,0.54-2.08,0.84-3.061,0.899c-0.98,0.061-1.889-0.18-2.729-0.72c-0.84-0.54-1.56-1.509-2.159-2.91
			c-0.24-0.6-0.391-1.419-0.451-2.46c-0.06-1.039,0.03-2.079,0.271-3.12c0.239-1.039,0.62-1.97,1.14-2.79
			c0.52-0.819,1.24-1.31,2.16-1.47c0.64-0.12,1.23,0.03,1.77,0.45C427.587,270.828,428.056,271.198,428.456,271.519z
			 M423.776,273.438c-0.16,0.76-0.28,1.521-0.359,2.279c0.199,0.28,0.529,0.441,0.99,0.48c0.459,0.04,0.938,0,1.439-0.12
			c0.5-0.12,0.979-0.29,1.439-0.51s0.77-0.45,0.93-0.69c-0.08-0.52-0.32-1.06-0.719-1.62c-0.4-0.56-0.84-0.979-1.32-1.26
			c-0.48-0.279-0.951-0.339-1.41-0.18C424.306,271.979,423.976,272.519,423.776,273.438z"/>
		<path d="M445.977,272.418c0.079,0.201,0.079,0.42,0,0.66c-0.081,0.24-0.2,0.431-0.36,0.57c-0.16,0.141-0.33,0.2-0.51,0.18
			c-0.18-0.02-0.351-0.15-0.51-0.39c-0.201-0.44-0.561-0.76-1.08-0.96c-0.521-0.2-1.131-0.301-1.83-0.301
			c-0.7,0-1.45,0.07-2.25,0.211c-0.801,0.141-1.551,0.31-2.25,0.51c-0.7,0.2-1.311,0.42-1.83,0.66c-0.52,0.239-0.86,0.46-1.02,0.659
			c0.479,0.681,1.17,1.23,2.07,1.65c0.899,0.42,1.85,0.801,2.85,1.14c0.999,0.341,2.01,0.66,3.029,0.96
			c1.021,0.301,1.891,0.69,2.61,1.171c0.12,0.08,0.189,0.17,0.21,0.27c0.02,0.101,0.05,0.23,0.09,0.39
			c-0.119,1.08-0.561,1.941-1.32,2.58c-0.76,0.641-1.649,1.05-2.67,1.23c-1.02,0.18-2.05,0.14-3.09-0.12
			c-1.041-0.261-1.881-0.75-2.52-1.47c-0.201-0.399-0.18-0.78,0.061-1.141c0.239-0.359,0.578-0.439,1.02-0.239
			c0.398,0.399,0.969,0.72,1.71,0.96c0.739,0.239,1.479,0.37,2.22,0.39c0.74,0.021,1.4-0.09,1.98-0.33
			c0.579-0.24,0.909-0.66,0.99-1.26c-0.841-0.56-1.762-0.99-2.761-1.29c-1-0.3-2.001-0.601-3-0.9c-1-0.3-1.94-0.68-2.819-1.14
			c-0.881-0.46-1.621-1.149-2.221-2.07c-0.24-0.399-0.201-0.819,0.12-1.26c0.079-0.08,0.24-0.3,0.479-0.66
			c0.24-0.36,0.48-0.6,0.721-0.72c0.56-0.32,1.43-0.67,2.609-1.05s2.4-0.631,3.66-0.75c1.26-0.12,2.42-0.061,3.48,0.18
			C444.905,270.979,445.616,271.539,445.977,272.418z"/>
	</g>
	<path fill="#1D1D1B" d="M280.798,139.174c-5.916,4.84-11.943,9.559-17.721,14.555c-1.155,0.997,0.335,2.568,1.529,1.711
		c6.916-4.949,13.562-10.273,20.368-15.372c7.389-5.936,6.897-4.356,8.816-6.991c1.224-1.677-0.992-4.169-2.628-2.969
		C285.22,134.477,289.228,131.839,280.798,139.174z"/>
	<path fill="#1D1D1B" d="M313.318,195.485c-9.092-0.352-18.188-0.9-27.28-1.005c-1.816-0.021-1.729,2.555,0.013,2.732
		c10.071,1.044,20.196,1.541,30.286,2.366c11.269,0.537,9.586,1.559,13.375,0.723c2.413-0.529,2.406-4.499-0.001-4.72
		C320.966,194.787,326.62,195.598,313.318,195.485z"/>
	<path fill="#1D1D1B" d="M132.896,196.22c7.634-0.381,15.286-0.598,22.901-1.187c1.521-0.117,1.255-2.266-0.214-2.285
		c-8.503-0.125-17.013,0.212-25.516,0.272c-9.47,0.388-8.137-0.592-11.246,0.39c-1.979,0.622-1.677,3.943,0.352,3.949
		C126.548,197.374,121.757,197.116,132.896,196.22z"/>
	<path fill="#1D1D1B" d="M161.247,252.235c6.104-4.602,12.314-9.075,18.285-13.839c1.194-0.951-0.233-2.579-1.46-1.771
		c-7.107,4.669-13.959,9.727-20.962,14.55c-7.621,5.637-7.066,4.078-9.089,6.635c-1.288,1.627,0.826,4.205,2.508,3.071
		C156.641,256.753,152.531,259.229,161.247,252.235z"/>
	<path fill="#1D1D1B" d="M170.117,138.968c6.188,4.488,12.286,9.115,18.588,13.429c1.259,0.862,2.398-0.979,1.265-1.914
		c-6.548-5.428-13.389-10.499-20.052-15.781c-7.623-5.634-5.969-5.561-9.007-6.745c-1.932-0.756-3.778,2.021-2.201,3.298
		C164.45,135.889,160.878,132.685,170.117,138.968z"/>
	<path fill="#1D1D1B" d="M221.776,97.937c0.34,13.478,0.393,26.98,1.102,40.435c0.138,2.688,3.94,2.312,4.038-0.279
		c0.589-14.99,0.363-30.01,0.626-45.007c-0.274-16.717,1.394-14.322-0.201-19.848c-1.011-3.516-6.88-3.128-6.979,0.45
		C220.017,86.694,220.678,78.258,221.776,97.937z"/>
	<g>
		<path d="M130.242,45.023c0.159,0.199,0.24,0.41,0.24,0.629c0,0.221-0.06,0.412-0.181,0.57c-0.119,0.16-0.279,0.27-0.479,0.33
			s-0.42,0.01-0.66-0.15l-1.26-1.139c-0.601,0-1.08,0.209-1.44,0.629c-0.359,0.42-0.629,0.91-0.81,1.471s-0.261,1.15-0.24,1.77
			c0.02,0.621,0.129,1.17,0.33,1.65c0.36,0.84,0.92,1.379,1.681,1.619c0.759,0.24,1.568,0.301,2.43,0.18
			c0.859-0.119,1.71-0.369,2.55-0.75c0.84-0.379,1.54-0.809,2.101-1.289c0.079-0.32,0.26-0.549,0.539-0.689s0.561-0.051,0.84,0.27
			l0.061,0.119c0.199,0.4,0.1,0.801-0.301,1.201c-0.52,0.48-1.1,0.879-1.739,1.199s-1.28,0.621-1.92,0.9
			c-0.601,0.24-1.19,0.43-1.771,0.57s-1.21,0.23-1.89,0.27c-1.319,0.041-2.301-0.27-2.94-0.93c-0.64-0.66-1.05-1.471-1.23-2.43
			c-0.18-0.961-0.16-1.971,0.06-3.031c0.219-1.059,0.51-1.969,0.87-2.729c0.12-0.24,0.33-0.5,0.63-0.781
			c0.3-0.279,0.63-0.52,0.99-0.719c0.36-0.201,0.729-0.32,1.11-0.361c0.38-0.039,0.71,0.061,0.989,0.301
			c0.279,0.201,0.53,0.41,0.75,0.629C129.771,44.552,130.003,44.783,130.242,45.023z"/>
		<path d="M137.261,43.283c0.08-0.52,0.34-0.859,0.781-1.02c0.439-0.16,0.699,0.08,0.779,0.719c0.039,0.922,0.14,1.83,0.301,2.73
			c0.158,0.9,0.339,1.811,0.539,2.73c0.12-0.641,0.42-1.381,0.9-2.221s1.059-1.629,1.74-2.369c0.68-0.74,1.419-1.359,2.22-1.861
			c0.8-0.498,1.579-0.75,2.34-0.75c0.24,0.082,0.399,0.262,0.479,0.541v0.119c0.04,0.4-0.1,0.721-0.42,0.961s-0.6,0.26-0.84,0.061
			c-2.16,1.078-3.609,2.5-4.35,4.26s-1.03,3.779-0.87,6.059c-0.081,0.322-0.28,0.602-0.601,0.84c-0.32,0.24-0.62,0.141-0.899-0.299
			c-0.4-1.6-0.82-3.219-1.26-4.859C137.661,47.283,137.382,45.404,137.261,43.283z"/>
		<path d="M154.182,43.343c0.68,0.639,1.11,1.25,1.29,1.83s0.17,1.129-0.03,1.648c-0.2,0.521-0.53,0.99-0.989,1.41
			c-0.461,0.42-0.99,0.762-1.59,1.02c-0.601,0.262-1.221,0.432-1.861,0.512c-0.64,0.08-1.221,0.039-1.739-0.121
			c0.319,2.16,1.28,3.43,2.88,3.811s3.619-0.41,6.061-2.371c0.279-0.199,0.51-0.279,0.689-0.238c0.18,0.039,0.31,0.129,0.391,0.27
			c0.079,0.141,0.099,0.32,0.06,0.539c-0.04,0.221-0.161,0.432-0.36,0.631c-1.041,0.84-2.09,1.529-3.15,2.07
			c-1.06,0.539-2.08,0.84-3.06,0.898c-0.98,0.061-1.89-0.18-2.729-0.719c-0.84-0.541-1.561-1.51-2.16-2.91
			c-0.24-0.6-0.391-1.42-0.45-2.461c-0.06-1.039,0.03-2.078,0.271-3.119c0.239-1.039,0.619-1.971,1.14-2.791
			c0.519-0.818,1.239-1.309,2.159-1.469c0.641-0.121,1.23,0.029,1.771,0.449S153.781,43.023,154.182,43.343z M149.501,45.263
			c-0.16,0.76-0.279,1.52-0.359,2.279c0.199,0.279,0.529,0.441,0.99,0.48c0.459,0.039,0.939,0,1.439-0.121
			c0.5-0.119,0.98-0.289,1.44-0.51c0.46-0.219,0.77-0.449,0.93-0.689c-0.081-0.52-0.32-1.061-0.72-1.621
			c-0.4-0.559-0.84-0.979-1.32-1.26c-0.48-0.279-0.95-0.338-1.41-0.18C150.031,43.802,149.701,44.343,149.501,45.263z"/>
		<path d="M162.941,45.263c-0.16,0.08-0.44,0.26-0.84,0.539c-0.4,0.281-0.741,0.541-1.021,0.779c-0.08,0.322-0.24,0.57-0.479,0.75
			c-0.24,0.182-0.521,0.15-0.84-0.09l-0.12-0.119c-0.201-0.4-0.141-0.82,0.18-1.26c0.32-0.361,0.699-0.689,1.141-0.99
			c0.439-0.301,0.84-0.59,1.199-0.871c1.92-1.398,3.64-1.969,5.16-1.709c1.52,0.26,2.779,1.01,3.78,2.25
			c0.999,1.24,1.7,2.789,2.101,4.65c0.398,1.859,0.42,3.689,0.06,5.49c-0.081,0.318-0.251,0.578-0.511,0.779
			c-0.26,0.199-0.55,0.18-0.869-0.061c-0.32-0.479-0.6-0.979-0.84-1.5c-0.24-0.52-0.501-1.02-0.78-1.5
			c-0.28-0.479-0.61-0.93-0.99-1.35s-0.87-0.75-1.47-0.99c-0.24-0.119-0.6-0.229-1.08-0.33c-0.48-0.1-0.921-0.09-1.32,0.031
			c-0.16,0.08-0.43,0.219-0.811,0.42c-0.38,0.199-0.77,0.439-1.17,0.719c-0.4,0.281-0.75,0.561-1.049,0.84
			c-0.301,0.281-0.411,0.521-0.33,0.721c0.479,0.281,0.959,0.43,1.439,0.449c0.48,0.021,0.949-0.02,1.41-0.119
			c0.459-0.1,0.93-0.219,1.41-0.359s0.96-0.25,1.439-0.33c0.279,0,0.48,0.08,0.6,0.24c0.121,0.16,0.16,0.34,0.121,0.539
			c-0.041,0.201-0.141,0.391-0.301,0.57s-0.359,0.291-0.6,0.33c-0.12,0-0.44,0.08-0.96,0.24c-0.521,0.16-1.181,0.32-1.979,0.479
			c-1.48,0.281-2.531,0.252-3.15-0.09c-0.621-0.338-0.921-0.828-0.9-1.469c0.02-0.641,0.301-1.34,0.84-2.1
			c0.541-0.76,1.21-1.41,2.01-1.951c0.801-0.539,1.681-0.879,2.641-1.02s1.859,0.07,2.7,0.629c0.88,0.602,1.53,1.211,1.95,1.83
			c0.42,0.621,0.829,1.271,1.229,1.951c0-1.359-0.21-2.68-0.63-3.961c-0.42-1.279-1.02-2.318-1.8-3.119s-1.731-1.24-2.851-1.32
			C165.541,43.802,164.301,44.263,162.941,45.263z"/>
		<path d="M171.641,40.763c-0.279-0.041-0.459-0.141-0.54-0.301c-0.08-0.16-0.09-0.33-0.029-0.51c0.06-0.18,0.16-0.35,0.3-0.51
			c0.141-0.16,0.29-0.279,0.45-0.361c0.6,0,1.18-0.02,1.74-0.059s1.119-0.1,1.68-0.18c-0.081-1.16-0.131-2.391-0.15-3.691
			c-0.021-1.299-0.051-2.709-0.09-4.229c0.08-0.52,0.34-0.861,0.779-1.021c0.44-0.158,0.7,0.082,0.781,0.721
			c0.039,1.52,0.068,2.939,0.09,4.26c0.02,1.32,0.068,2.58,0.149,3.779c1.04-0.199,2.07-0.408,3.09-0.629
			c1.021-0.219,2.05-0.43,3.091-0.631c0.279,0,0.479,0.07,0.6,0.211c0.119,0.141,0.159,0.299,0.119,0.48
			c-0.039,0.18-0.119,0.359-0.239,0.539s-0.261,0.33-0.42,0.449c-1.041,0.201-2.061,0.412-3.06,0.631
			c-1.001,0.221-2.021,0.41-3.061,0.57c0.12,2.199,0.229,4.391,0.33,6.57c0.1,2.18,0.189,4.689,0.27,7.529
			c-0.119,0.4-0.37,0.689-0.75,0.869c-0.381,0.182-0.65-0.01-0.81-0.568c-0.081-2.84-0.171-5.361-0.271-7.561s-0.209-4.4-0.33-6.6
			c-0.639,0.08-1.26,0.141-1.859,0.18C172.901,40.744,172.281,40.763,171.641,40.763z"/>
		<path d="M187.36,43.343c0.68,0.639,1.109,1.25,1.29,1.83s0.169,1.129-0.03,1.648c-0.2,0.521-0.53,0.99-0.99,1.41
			s-0.99,0.762-1.59,1.02c-0.6,0.262-1.221,0.432-1.859,0.512c-0.641,0.08-1.221,0.039-1.74-0.121c0.32,2.16,1.279,3.43,2.88,3.811
			c1.6,0.381,3.62-0.41,6.06-2.371c0.279-0.199,0.51-0.279,0.69-0.238c0.181,0.039,0.31,0.129,0.39,0.27s0.1,0.32,0.061,0.539
			c-0.041,0.221-0.16,0.432-0.36,0.631c-1.04,0.84-2.091,1.529-3.149,2.07c-1.061,0.539-2.08,0.84-3.061,0.898
			c-0.98,0.061-1.89-0.18-2.73-0.719c-0.84-0.541-1.56-1.51-2.159-2.91c-0.24-0.6-0.39-1.42-0.45-2.461
			c-0.061-1.039,0.029-2.078,0.27-3.119c0.24-1.039,0.62-1.971,1.141-2.791c0.52-0.818,1.239-1.309,2.16-1.469
			c0.639-0.121,1.229,0.029,1.77,0.449S186.96,43.023,187.36,43.343z M182.681,45.263c-0.16,0.76-0.281,1.52-0.36,2.279
			c0.2,0.279,0.53,0.441,0.99,0.48c0.459,0.039,0.938,0,1.44-0.121c0.499-0.119,0.979-0.289,1.439-0.51
			c0.459-0.219,0.77-0.449,0.93-0.689c-0.08-0.52-0.32-1.061-0.72-1.621c-0.4-0.559-0.84-0.979-1.319-1.26
			c-0.48-0.279-0.951-0.338-1.41-0.18C183.21,43.802,182.88,44.343,182.681,45.263z"/>
		<path d="M206.739,24.382c2.039,0.32,3.75,1,5.129,2.041c1.381,1.039,2.461,2.299,3.24,3.779c0.781,1.48,1.279,3.111,1.5,4.891
			c0.219,1.779,0.199,3.568-0.061,5.369s-0.75,3.539-1.469,5.221c-0.721,1.68-1.631,3.16-2.73,4.439
			c-1.1,1.281-2.391,2.291-3.869,3.029c-1.48,0.74-3.101,1.051-4.86,0.93c-2.001-0.119-3.65-0.648-4.95-1.59
			c-1.3-0.939-2.301-2.139-3-3.6c-0.7-1.459-1.12-3.09-1.26-4.891c-0.141-1.799-0.051-3.629,0.27-5.488
			c0.32-1.861,0.85-3.67,1.59-5.432c0.74-1.76,1.63-3.299,2.671-4.619c1.04-1.32,2.22-2.359,3.54-3.119
			S205.219,24.263,206.739,24.382z M203.979,52.642c1.92-0.08,3.639-0.74,5.16-1.98c1.52-1.238,2.748-2.779,3.689-4.619
			c0.939-1.84,1.561-3.85,1.859-6.029c0.301-2.18,0.211-4.24-0.27-6.182c-0.48-1.939-1.381-3.609-2.701-5.01
			c-1.318-1.398-3.141-2.279-5.459-2.639c-1.68-0.041-3.209,0.539-4.59,1.74c-1.38,1.199-2.53,2.729-3.449,4.59
			c-0.921,1.859-1.561,3.891-1.92,6.09c-0.36,2.199-0.341,4.289,0.06,6.27c0.399,1.98,1.209,3.689,2.43,5.129
			C200.009,51.443,201.739,52.322,203.979,52.642z"/>
		<path d="M218.079,43.283c0.08-0.52,0.34-0.859,0.779-1.02s0.699,0.08,0.781,0.719c0.039,0.922,0.139,1.83,0.299,2.73
			s0.34,1.811,0.541,2.73c0.119-0.641,0.42-1.381,0.898-2.221c0.48-0.84,1.061-1.629,1.74-2.369s1.42-1.359,2.221-1.861
			c0.799-0.498,1.58-0.75,2.34-0.75c0.24,0.082,0.4,0.262,0.48,0.541v0.119c0.039,0.4-0.102,0.721-0.42,0.961
			c-0.32,0.24-0.6,0.26-0.84,0.061c-2.16,1.078-3.611,2.5-4.352,4.26s-1.029,3.779-0.869,6.059c-0.08,0.322-0.279,0.602-0.6,0.84
			c-0.32,0.24-0.621,0.141-0.9-0.299c-0.4-1.6-0.82-3.219-1.26-4.859C218.478,47.283,218.198,45.404,218.079,43.283z"/>
		<path d="M235.839,42.683c0.48,0.199,0.639,0.51,0.48,0.93c-0.16,0.42-0.461,0.67-0.9,0.75c-1.361-0.52-2.512-0.619-3.451-0.301
			c-0.939,0.32-1.689,0.83-2.25,1.531c-0.561,0.699-0.91,1.469-1.049,2.309c-0.141,0.84-0.09,1.48,0.15,1.92
			c0.398,0.721,0.889,1.131,1.469,1.23s1.15,0.051,1.711-0.15c0.559-0.199,1.09-0.5,1.59-0.9c0.5-0.398,0.889-0.758,1.17-1.078
			l0.18-0.182c0.039-0.039,0.061-0.078,0.061-0.119c0.199-0.32,0.449-0.5,0.75-0.541c0.299-0.039,0.51,0.141,0.629,0.541
			c0.08,0.201,0.109,0.381,0.09,0.539c-0.02,0.16-0.029,0.342-0.029,0.541c0.279,1.08,0.529,2.211,0.75,3.391
			c0.219,1.18,0.34,2.359,0.359,3.539s-0.119,2.34-0.42,3.48c-0.299,1.139-0.85,2.209-1.648,3.209
			c-1.002,1.281-2.332,2.289-3.99,3.031c-1.66,0.738-3.371,1.139-5.131,1.199s-3.439-0.25-5.039-0.93
			c-1.6-0.682-2.82-1.801-3.66-3.359c-0.08-0.4,0.051-0.771,0.389-1.111c0.342-0.34,0.672-0.311,0.99,0.09
			c0.641,1.201,1.66,2.102,3.061,2.701s2.881,0.889,4.439,0.869c1.561-0.02,3.07-0.32,4.531-0.9c1.459-0.58,2.568-1.43,3.33-2.549
			c0.6-0.881,1.01-1.811,1.229-2.791c0.221-0.98,0.33-1.979,0.33-3c0-1.02-0.09-2.049-0.27-3.09c-0.18-1.039-0.371-2.059-0.57-3.059
			c-1.119,1.16-2.189,1.85-3.209,2.068c-1.021,0.221-1.912,0.141-2.67-0.24c-0.762-0.379-1.352-0.979-1.771-1.799
			s-0.6-1.711-0.539-2.67c0.061-0.961,0.41-1.91,1.051-2.85c0.639-0.939,1.658-1.689,3.059-2.25c0.801-0.32,1.68-0.451,2.641-0.391
			C234.638,42.353,235.358,42.482,235.839,42.683z"/>
		<path d="M241.718,45.263c-0.16,0.08-0.441,0.26-0.84,0.539c-0.4,0.281-0.74,0.541-1.02,0.779c-0.082,0.322-0.24,0.57-0.48,0.75
			c-0.24,0.182-0.52,0.15-0.84-0.09l-0.121-0.119c-0.199-0.4-0.141-0.82,0.182-1.26c0.318-0.361,0.699-0.689,1.139-0.99
			s0.84-0.59,1.201-0.871c1.92-1.398,3.639-1.969,5.16-1.709c1.52,0.26,2.779,1.01,3.779,2.25s1.699,2.789,2.1,4.65
			c0.4,1.859,0.42,3.689,0.061,5.49c-0.08,0.318-0.25,0.578-0.51,0.779c-0.262,0.199-0.551,0.18-0.871-0.061
			c-0.32-0.479-0.6-0.979-0.84-1.5c-0.24-0.52-0.5-1.02-0.779-1.5c-0.281-0.479-0.611-0.93-0.99-1.35
			c-0.381-0.42-0.869-0.75-1.471-0.99c-0.24-0.119-0.6-0.229-1.08-0.33c-0.479-0.1-0.92-0.09-1.318,0.031
			c-0.162,0.08-0.432,0.219-0.811,0.42c-0.381,0.199-0.771,0.439-1.17,0.719c-0.4,0.281-0.75,0.561-1.051,0.84
			c-0.299,0.281-0.41,0.521-0.33,0.721c0.48,0.281,0.961,0.43,1.441,0.449c0.479,0.021,0.949-0.02,1.408-0.119
			c0.461-0.1,0.932-0.219,1.41-0.359c0.48-0.141,0.961-0.25,1.441-0.33c0.279,0,0.479,0.08,0.6,0.24
			c0.119,0.16,0.158,0.34,0.119,0.539c-0.039,0.201-0.141,0.391-0.299,0.57c-0.16,0.18-0.361,0.291-0.602,0.33
			c-0.119,0-0.439,0.08-0.959,0.24s-1.18,0.32-1.98,0.479c-1.48,0.281-2.529,0.252-3.15-0.09c-0.619-0.338-0.92-0.828-0.898-1.469
			c0.02-0.641,0.299-1.34,0.84-2.1c0.539-0.76,1.209-1.41,2.01-1.951c0.799-0.539,1.68-0.879,2.639-1.02
			c0.961-0.141,1.861,0.07,2.701,0.629c0.879,0.602,1.529,1.211,1.949,1.83c0.42,0.621,0.83,1.271,1.23,1.951
			c0-1.359-0.209-2.68-0.631-3.961c-0.42-1.279-1.02-2.318-1.799-3.119s-1.73-1.24-2.85-1.32
			C244.317,43.802,243.077,44.263,241.718,45.263z"/>
		<path d="M254.019,44.062c0.078-0.52,0.338-0.859,0.779-1.02c0.439-0.16,0.699,0.08,0.779,0.721l-0.119,3.66
			c0.959-1.359,2.07-2.281,3.33-2.762c1.26-0.479,2.439-0.498,3.539-0.059s2.01,1.33,2.73,2.67s1,3.129,0.84,5.369v0.061h-0.061
			c-0.119,0.359-0.359,0.621-0.719,0.779c-0.361,0.16-0.621-0.02-0.781-0.539v-0.721c0.041-1.92-0.33-3.41-1.109-4.471
			c-0.779-1.059-1.68-1.648-2.699-1.77c-1.021-0.119-2.031,0.262-3.031,1.141c-1,0.881-1.719,2.34-2.16,4.379
			c0,0.082-0.02,0.121-0.059,0.121v0.359h-0.18c-0.201,0.24-0.441,0.381-0.721,0.42c-0.281,0.041-0.48-0.158-0.6-0.6v-0.24
			c0.078-1.279,0.129-2.529,0.148-3.75C253.948,46.593,253.978,45.343,254.019,44.062z"/>
		<path d="M269.497,44.662c0.08-0.52,0.34-0.859,0.781-1.02c0.439-0.158,0.699,0.08,0.779,0.721c-0.041,1.641-0.15,3.25-0.33,4.83
			s-0.291,3.189-0.33,4.83c-0.119,0.4-0.371,0.689-0.75,0.869c-0.381,0.18-0.65-0.01-0.811-0.57c0.039-1.639,0.15-3.26,0.33-4.859
			S269.458,46.263,269.497,44.662z M271.657,37.582c-0.279,0.041-0.49,0-0.629-0.119c-0.141-0.119-0.211-0.27-0.211-0.449
			c0-0.182,0.051-0.361,0.15-0.541s0.25-0.33,0.449-0.449c0.201-0.439,0.49-0.691,0.871-0.75c0.379-0.061,0.609,0.189,0.689,0.75
			c-0.08,0.359-0.221,0.68-0.42,0.959C272.356,37.263,272.058,37.462,271.657,37.582z"/>
		<path d="M286.478,44.242c0.08,0.201,0.08,0.42,0,0.66s-0.201,0.432-0.359,0.57c-0.16,0.141-0.33,0.201-0.51,0.18
			c-0.182-0.02-0.352-0.15-0.512-0.389c-0.199-0.441-0.561-0.76-1.08-0.961c-0.52-0.199-1.129-0.301-1.83-0.301
			c-0.699,0-1.449,0.07-2.25,0.211c-0.799,0.141-1.549,0.311-2.25,0.51c-0.699,0.201-1.311,0.42-1.828,0.66
			c-0.521,0.24-0.861,0.461-1.021,0.66c0.48,0.68,1.17,1.23,2.07,1.65s1.85,0.801,2.85,1.139c1,0.342,2.01,0.66,3.031,0.961
			c1.02,0.301,1.889,0.689,2.609,1.17c0.119,0.08,0.189,0.17,0.211,0.27c0.02,0.102,0.049,0.23,0.09,0.391
			c-0.121,1.08-0.561,1.941-1.32,2.58c-0.762,0.641-1.65,1.049-2.67,1.23c-1.021,0.18-2.051,0.139-3.09-0.121
			c-1.041-0.26-1.881-0.75-2.521-1.469c-0.199-0.4-0.18-0.781,0.061-1.141s0.58-0.439,1.02-0.24c0.4,0.4,0.971,0.721,1.711,0.961
			c0.74,0.238,1.479,0.369,2.221,0.389c0.738,0.021,1.398-0.09,1.979-0.33s0.91-0.66,0.99-1.26c-0.84-0.559-1.76-0.99-2.76-1.289
			c-1-0.301-2-0.602-3-0.9c-1-0.301-1.941-0.68-2.82-1.141c-0.881-0.459-1.619-1.148-2.219-2.07c-0.24-0.398-0.201-0.818,0.119-1.26
			c0.08-0.08,0.24-0.299,0.48-0.66c0.24-0.359,0.48-0.6,0.719-0.719c0.561-0.32,1.43-0.67,2.611-1.051
			c1.18-0.379,2.4-0.631,3.66-0.75s2.42-0.061,3.479,0.18C285.407,42.802,286.118,43.363,286.478,44.242z"/>
		<path d="M290.138,45.263c-0.16,0.08-0.441,0.26-0.84,0.539c-0.4,0.281-0.74,0.541-1.02,0.779c-0.082,0.322-0.24,0.57-0.48,0.75
			c-0.24,0.182-0.52,0.15-0.84-0.09l-0.121-0.119c-0.199-0.4-0.141-0.82,0.182-1.26c0.318-0.361,0.699-0.689,1.139-0.99
			s0.84-0.59,1.201-0.871c1.92-1.398,3.639-1.969,5.16-1.709c1.52,0.26,2.779,1.01,3.779,2.25s1.699,2.789,2.1,4.65
			c0.4,1.859,0.42,3.689,0.061,5.49c-0.08,0.318-0.25,0.578-0.51,0.779c-0.262,0.199-0.551,0.18-0.871-0.061
			c-0.32-0.479-0.6-0.979-0.84-1.5c-0.24-0.52-0.5-1.02-0.779-1.5c-0.281-0.479-0.611-0.93-0.99-1.35
			c-0.381-0.42-0.869-0.75-1.471-0.99c-0.24-0.119-0.6-0.229-1.08-0.33c-0.479-0.1-0.92-0.09-1.318,0.031
			c-0.162,0.08-0.432,0.219-0.811,0.42c-0.381,0.199-0.771,0.439-1.17,0.719c-0.4,0.281-0.75,0.561-1.051,0.84
			c-0.299,0.281-0.41,0.521-0.33,0.721c0.48,0.281,0.961,0.43,1.441,0.449c0.479,0.021,0.949-0.02,1.408-0.119
			c0.461-0.1,0.932-0.219,1.41-0.359c0.48-0.141,0.961-0.25,1.441-0.33c0.279,0,0.479,0.08,0.6,0.24
			c0.119,0.16,0.158,0.34,0.119,0.539c-0.039,0.201-0.141,0.391-0.299,0.57c-0.16,0.18-0.361,0.291-0.602,0.33
			c-0.119,0-0.439,0.08-0.959,0.24s-1.18,0.32-1.98,0.479c-1.48,0.281-2.529,0.252-3.15-0.09c-0.619-0.338-0.92-0.828-0.898-1.469
			c0.02-0.641,0.299-1.34,0.84-2.1c0.539-0.76,1.209-1.41,2.01-1.951c0.799-0.539,1.68-0.879,2.639-1.02
			c0.961-0.141,1.861,0.07,2.701,0.629c0.879,0.602,1.529,1.211,1.949,1.83c0.42,0.621,0.83,1.271,1.23,1.951
			c0-1.359-0.209-2.68-0.631-3.961c-0.42-1.279-1.02-2.318-1.799-3.119s-1.73-1.24-2.85-1.32
			C292.737,43.802,291.497,44.263,290.138,45.263z"/>
		<path d="M298.837,40.763c-0.279-0.041-0.459-0.141-0.541-0.301c-0.078-0.16-0.09-0.33-0.029-0.51s0.16-0.35,0.301-0.51
			s0.289-0.279,0.449-0.361c0.6,0,1.18-0.02,1.74-0.059s1.121-0.1,1.68-0.18c-0.08-1.16-0.131-2.391-0.15-3.691
			c-0.02-1.299-0.051-2.709-0.09-4.229c0.08-0.52,0.34-0.861,0.781-1.021c0.439-0.158,0.699,0.082,0.779,0.721
			c0.039,1.52,0.068,2.939,0.09,4.26c0.02,1.32,0.07,2.58,0.15,3.779c1.039-0.199,2.07-0.408,3.09-0.629
			c1.02-0.219,2.049-0.43,3.09-0.631c0.279,0,0.48,0.07,0.6,0.211c0.121,0.141,0.16,0.299,0.121,0.48
			c-0.041,0.18-0.121,0.359-0.24,0.539c-0.121,0.18-0.262,0.33-0.42,0.449c-1.041,0.201-2.061,0.412-3.061,0.631
			c-1,0.221-2.02,0.41-3.061,0.57c0.121,2.199,0.23,4.391,0.33,6.57s0.189,4.689,0.27,7.529c-0.119,0.4-0.369,0.689-0.75,0.869
			c-0.379,0.182-0.65-0.01-0.809-0.568c-0.082-2.84-0.172-5.361-0.271-7.561s-0.209-4.4-0.328-6.6
			c-0.641,0.08-1.262,0.141-1.861,0.18C300.097,40.744,299.478,40.763,298.837,40.763z"/>
		<path d="M311.376,44.662c0.08-0.52,0.34-0.859,0.781-1.02c0.439-0.158,0.699,0.08,0.779,0.721c-0.041,1.641-0.15,3.25-0.33,4.83
			s-0.291,3.189-0.33,4.83c-0.119,0.4-0.371,0.689-0.75,0.869c-0.381,0.18-0.65-0.01-0.811-0.57c0.039-1.639,0.15-3.26,0.33-4.859
			S311.337,46.263,311.376,44.662z M313.536,37.582c-0.279,0.041-0.49,0-0.629-0.119c-0.141-0.119-0.211-0.27-0.211-0.449
			c0-0.182,0.051-0.361,0.15-0.541s0.25-0.33,0.449-0.449c0.201-0.439,0.49-0.691,0.871-0.75c0.379-0.061,0.609,0.189,0.689,0.75
			c-0.08,0.359-0.221,0.68-0.42,0.959C314.235,37.263,313.937,37.462,313.536,37.582z"/>
		<path d="M319.776,43.763c0.318-0.08,0.738-0.1,1.26-0.061c0.52,0.041,1.049,0.119,1.59,0.24c0.539,0.119,1.051,0.279,1.529,0.48
			c0.48,0.199,0.84,0.439,1.08,0.719c0.879,1.16,1.25,2.311,1.111,3.451c-0.141,1.139-0.582,2.109-1.32,2.908
			c-0.74,0.801-1.691,1.352-2.85,1.65c-1.162,0.301-2.32,0.172-3.48-0.389c-0.32-0.16-0.631-0.301-0.93-0.42
			c-0.301-0.121-0.57-0.301-0.811-0.541c-0.4-0.398-0.592-1.051-0.57-1.949c0.02-0.9,0.18-1.801,0.48-2.701
			c0.299-0.9,0.709-1.689,1.23-2.369C318.614,44.103,319.177,43.763,319.776,43.763z M322.776,45.923
			c-0.922-0.52-1.74-0.602-2.461-0.24c-0.719,0.359-1.301,0.84-1.74,1.439c-0.08,0.08-0.17,0.27-0.27,0.57
			c-0.1,0.299-0.201,0.621-0.301,0.959c-0.1,0.342-0.148,0.682-0.148,1.021s0.1,0.59,0.299,0.75c0.68,0.6,1.381,0.959,2.1,1.078
			c0.721,0.121,1.381,0.092,1.98-0.09c0.6-0.18,1.111-0.488,1.531-0.93c0.42-0.439,0.689-0.93,0.809-1.469
			c0.121-0.541,0.039-1.08-0.24-1.621C324.056,46.853,323.536,46.363,322.776,45.923z"/>
		<path d="M327.937,44.062c0.078-0.52,0.338-0.859,0.779-1.02c0.439-0.16,0.699,0.08,0.779,0.721l-0.119,3.66
			c0.959-1.359,2.07-2.281,3.33-2.762c1.26-0.479,2.439-0.498,3.539-0.059s2.01,1.33,2.73,2.67s1,3.129,0.84,5.369v0.061h-0.061
			c-0.119,0.359-0.359,0.621-0.719,0.779c-0.361,0.16-0.621-0.02-0.781-0.539v-0.721c0.041-1.92-0.33-3.41-1.109-4.471
			c-0.779-1.059-1.68-1.648-2.699-1.77c-1.021-0.119-2.031,0.262-3.031,1.141c-1,0.881-1.719,2.34-2.16,4.379
			c0,0.082-0.02,0.121-0.059,0.121v0.359h-0.18c-0.201,0.24-0.441,0.381-0.721,0.42c-0.281,0.041-0.48-0.158-0.6-0.6v-0.24
			c0.078-1.279,0.129-2.529,0.148-3.75C327.866,46.593,327.896,45.343,327.937,44.062z"/>
	</g>
	<path fill="#1D1D1B" d="M286.214,248.709c-5.109-4.205-10.137-8.526-15.353-12.587c-1.043-0.812-2.124,0.719-1.195,1.587
		c5.371,5.036,11.015,9.779,16.492,14.696c6.289,5.271,4.865,5.121,7.428,6.306c1.63,0.754,3.372-1.548,2.077-2.734
		C290.948,251.669,293.864,254.627,286.214,248.709z"/>
	<text transform="matrix(1 0 0 1 10.8384 284)" font-family="'wherestarsshinethebrightest'" font-size="60">voteEvolution</text>
</g>
</svg>
