<?xml version="1.0" encoding="utf-8"?>
<!-- Generator: Adobe Illustrator 16.0.0, SVG Export Plug-In . SVG Version: 6.00 Build 0)  -->
<!DOCTYPE svg PUBLIC "-//W3C//DTD SVG 1.1//EN" "http://www.w3.org/Graphics/SVG/1.1/DTD/svg11.dtd">
<svg version="1.1" id="Layer_1" xmlns="http://www.w3.org/2000/svg" xmlns:xlink="http://www.w3.org/1999/xlink" x="0px" y="0px"
	 width="59.063px" height="43.558px" viewBox="0 0 59.063 43.558" enable-background="new 0 0 59.063 43.558" xml:space="preserve">
<path fill-rule="evenodd" clip-rule="evenodd" fill="#454545" d="M51.218,31.133c2.71,0.119,7.96,0.161,7.843-1.308
	c-0.117-1.469-4.914-1.93-7.372-2.07c-0.226-0.333-0.43-0.765-0.61-1.328c-1.413-4.415-2.472-8.927-3.415-13.456
	c-0.473-2.268-0.914-4.542-1.361-6.813c-0.394-1.995-0.491-4.38-1.686-6.111c-0.539-0.779-6.842,8.311-7.205,8.813
	c-0.389,0.537-1.268,1.204-1.791,1.113c-4.027-0.709-7.969-0.365-11.939,0.392c-0.658,0.125-1.747-0.323-2.169-0.855
	c-2.169-2.734-4.242-7.429-7.466-9.055c-1.557,1.674-1.333,4.427-1.572,6.547c-0.291,2.57-0.565,5.141-0.88,7.709
	c-0.27,2.199-1.83,11.443-3.985,14.329c-2.28,0.351-8.084,1.471-7.579,3.675c0.502,2.188,6.215,0.393,8.49-0.416
	c0.151,0.194,0.284,0.438,0.4,0.744c0.095,0.25,0.148,0.471,0.167,0.669c-1.703,0.799-6.948,3.448-5.76,5.237
	c1.088,1.639,5.523-0.867,7.508-2.107c0.136,0.049,0.255,0.111,0.339,0.192c5.552,5.278,12.421,6.777,19.859,6.491
	c5.75-0.222,11.325-1.485,15.581-5.417c1.046-0.965,1.958-1.871,2.959-2.331c1.867,0.971,6.156,2.933,7.131,1.043
	c1.003-1.944-4.002-3.304-6.057-3.773C50.561,32.014,50.771,31.473,51.218,31.133z M22.459,24.185
	c-0.118,1.118-0.696,2.269-1.705,2.904c-3.791,2.384-6.438-2.732-3.562-5.529C20.521,18.323,22.756,21.373,22.459,24.185z
	 M43.502,23.329c-0.61,3.957-3.468,3.987-4.851,2.543c-1.772-1.851-1.727-6.026,2.128-6.416
	C42.865,19.246,43.729,21.86,43.502,23.329z"/>
</svg>
