<?xml version="1.0" encoding="utf-8"?>
<!-- Generator: Adobe Illustrator 16.0.0, SVG Export Plug-In . SVG Version: 6.00 Build 0)  -->
<!DOCTYPE svg PUBLIC "-//W3C//DTD SVG 1.1//EN" "http://www.w3.org/Graphics/SVG/1.1/DTD/svg11.dtd">
<svg version="1.1" id="Layer_1" xmlns="http://www.w3.org/2000/svg" xmlns:xlink="http://www.w3.org/1999/xlink" x="0px" y="0px"
	 width="403.796px" height="326.994px" viewBox="0 0 403.796 326.994" enable-background="new 0 0 403.796 326.994"
	 xml:space="preserve">
<g id="Background">
</g>
<g id="Objects">
	<g>
		<path fill="#E0351A" d="M45.912,326.994c25.287,0,45.911-20.625,45.911-45.912s-20.624-45.91-45.911-45.91S0,255.795,0,281.082
			S20.625,326.994,45.912,326.994z"/>
		<g>
			<path fill="#497193" d="M34.219,318.847l-1.936,6.092c-5.413-1.681-10.397-4.336-14.747-7.76l1.048-3.302
				C21.7,304.072,37.172,309.545,34.219,318.847z"/>
			<path fill="#497193" d="M57.838,318.847l1.914,6.022c5.408-1.709,10.383-4.392,14.721-7.843l-1.001-3.149
				C70.358,304.072,54.884,309.545,57.838,318.847z"/>
			<path fill="#497193" d="M23.903,308.649h44.076v12.699c-6.548,3.598-14.068,5.646-22.067,5.646
				c-7.975,0-15.474-2.033-22.009-5.611V308.649z"/>
			<path fill="#FFFFFF" d="M36.441,320.92l9.531-2.967l10.841,4.223l-1.122,3.771c-3.151,0.685-6.423,1.048-9.779,1.048
				c-2.728,0-5.398-0.24-7.996-0.695L36.441,320.92z"/>
			<path fill="#FBD9BD" d="M45.941,275.892L45.941,275.892c5.475,0,9.953,4.479,9.953,9.952v22.808c0,5.475-4.479,9.953-9.953,9.953
				l0,0c-5.475,0-9.953-4.479-9.953-9.953v-22.808C35.988,280.369,40.466,275.892,45.941,275.892z"/>
			<path fill="#ECC2A0" d="M55.76,289.349v15.008c-3.716,2.709-7.297,4.227-9.819,4.227c-2.521,0-6.103-1.518-9.818-4.227v-15.008
				C36.123,277.242,55.76,277.242,55.76,289.349z"/>
			<g>
				<path fill="#4D1B02" d="M62.394,248.94c4.838,0.773,7.514,4.091,8.659,8.591c2.982,11.719-3.261,37.133-24.869,37.436
					c-11.144,0.156-19.169-2.678-22.093-11.696c-2.925-9.021-4.125-23.554,2.23-31.699C34.318,241.322,51.103,241.228,62.394,248.94
					z"/>
				<path fill="#FBD9BD" d="M45.985,250.762c-32.956,0-21.104,39.822-18.952,42.992c2.374,3.494,13.628,12.763,18.952,12.763
					c5.324,0,16.577-9.267,18.951-12.763C67.089,290.584,78.941,250.762,45.985,250.762z"/>
				<path fill="#ECC2A0" d="M54.762,294.396c-7.727,0.355-15.367-2.487-20.039-6.707C35.014,294.084,49.735,299.062,54.762,294.396z
					"/>
				<path fill="#ECC2A0" d="M36.754,287.133c-1.611,0.627-2.914,1.898-3.488,3.185C32.889,288.567,35.457,286.192,36.754,287.133z"
					/>
				
					<ellipse transform="matrix(-0.9498 0.3128 -0.3128 -0.9498 130.7097 534.9854)" fill="#FBD9BD" cx="22.435" cy="277.979" rx="3.298" ry="5.701"/>
				
					<ellipse transform="matrix(-0.9498 -0.3128 0.3128 -0.9498 48.4198 563.748)" fill="#FBD9BD" cx="69.434" cy="277.99" rx="3.298" ry="5.701"/>
				<path fill="#4D1B02" d="M62.139,260.668c-5.791,3.562-12.679,2.31-10.005-0.81c2.673-3.118-0.266-0.944-5.494,1.336
					c-5.229,2.279-11.243,1.902-7.679-0.028c4.321-2.34-12.549-3.873-15.635,20.224c-4.948-17.476,3.407-32.109,22.274-32.939
					c20.15-0.887,28.311,15.062,22.739,32.422C68.707,271.467,66.434,265.312,62.139,260.668z"/>
			</g>
			<path fill="#E5E5E5" d="M35.771,305.265l-0.884,3.438l2.415,17.479c0.136,0.027,0.271,0.055,0.407,0.08l8.229-8.348
				L35.771,305.265z"/>
			<path fill="#9C3421" d="M41.537,322.603l2.449,3.795c1.267,0,2.534,0,3.8,0l2.45-3.795l-4.297-4.687L41.537,322.603z"/>
			<path fill="#9C3421" d="M43.986,326.396l-0.078,0.551c0.665,0.029,1.332,0.048,2.004,0.048c0.654,0,1.305-0.019,1.953-0.045
				l-0.079-0.554H43.986L43.986,326.396z"/>
			<path fill="#E5E5E5" d="M56.001,305.265l0.697,3.383l-2.249,17.551c-0.182,0.035-0.363,0.07-0.546,0.102l-7.965-8.383
				L56.001,305.265z"/>
			<path fill="#FFFFFF" d="M35.771,305.265l-0.884,3.108l2.475,16.205l8.611-6.625L35.771,305.265z"/>
			<path fill="#FFFFFF" d="M56.001,305.265l0.697,3.059l-2.325,16.418l-8.401-6.787L56.001,305.265z"/>
			<path fill="#304D66" d="M56.39,307.524l1.202,5.336l-3.383,13.384c2.228-0.406,4.399-0.974,6.503-1.688l-1.221-0.863l7.762-3.486
				l-7.676-11.191L56.39,307.524z"/>
			<path fill="#497193" d="M56.39,307.524l-0.312,3.521l-3.224,15.426c2.468-0.375,4.869-0.949,7.19-1.699l-2.317-1.641l7.762-3.484
				l-5.911-10.635L56.39,307.524z"/>
			<path fill="#304D66" d="M36.088,307.524l-1.201,5.336l3.411,13.502c-2.31-0.387-4.56-0.942-6.739-1.659l1.427-1.013l-7.761-3.485
				l7.676-11.19L36.088,307.524z"/>
			<path fill="#497193" stroke="#497193" stroke-width="0.216" stroke-miterlimit="22.9256" d="M36.088,307.524l0.312,3.521
				l3.243,15.52c-2.544-0.348-5.022-0.899-7.415-1.646l2.521-1.787l-7.761-3.483l5.911-10.635L36.088,307.524z"/>
		</g>
	</g>
	<g>
		<path fill="#4D15B8" d="M45.911,91.822c25.288,0,45.912-20.624,45.912-45.911S71.199,0,45.911,0C20.624,0,0,20.624,0,45.911
			S20.624,91.822,45.911,91.822z"/>
		<g>
			<path fill="#D56C2B" d="M13.089,78.009c-0.136-1.512,0.935-2.887,2.719-3.896c3.6-2.035,2.699-5.217-1.741-7.251
				c-4.44-2.034-5.279-8.144-0.6-11.513c4.681-3.369,5.878-6.073,2.576-10.653c-3.302-4.58-0.824-12.335,4.216-13.352
				c5.041-1.018,4.28-1.615,5.355-5.646c1.872-7.011,9.939-12.36,14.26-7.781c6.177-7.561,20.066-1.788,22.581,5.206
				c2.664,7.412,5.075,7.338,9.036,9.387c3.961,2.047,5.255,11.288,2.251,15.142c-3.974,5.097-1.786,7.37,3.074,9.786
				c4.859,2.417,3.67,5.982-0.2,7.984c-3.869,2-6.271,5.574-2.67,7.609c2.636,1.49,3.413,3.615,2.397,6.859
				c-0.062,0.194-0.133,0.385-0.206,0.576C68.062,87.535,57.488,91.82,45.91,91.82C33.049,91.822,21.424,86.531,13.089,78.009z"/>
			<path fill="#FBD9BD" d="M57.647,86.895l0.863,3.178c4.295-1.224,8.333-3.057,12.015-5.399l-0.132-0.787
				C68.257,74.041,55.141,77.666,57.647,86.895z"/>
			<path fill="#E2687F" d="M71.752,83.864c-1.535-6.459-8.815-7.299-11.795-3.777l0.572,9.359
				C64.547,88.097,68.316,86.208,71.752,83.864z"/>
			<path fill="#FBD9BD" d="M34.28,86.895l-0.871,3.204c-4.295-1.213-8.333-3.035-12.018-5.367l0.142-0.846
				C23.67,74.041,36.786,77.666,34.28,86.895z"/>
			<path fill="#E2687F" d="M20.16,83.925c1.504-6.515,8.82-7.371,11.81-3.838l-0.574,9.392C27.375,88.14,23.601,86.261,20.16,83.925
				z"/>
			<path fill="#FF93A7" d="M66.505,78.032l-0.513,9.176c-6.066,2.955-12.879,4.614-20.081,4.614c-7.203,0-14.018-1.66-20.084-4.616
				l-0.513-9.174H66.505z"/>
			<path fill="#FF93A7" d="M35.378,78.032l10.531,9.545l9.954-9.676l6.132,11.022c-5.005,1.872-10.425,2.898-16.084,2.898
				c-5.796,0-11.339-1.076-16.446-3.036L35.378,78.032z"/>
			
				<ellipse transform="matrix(-0.9188 -0.3948 0.3948 -0.9188 108.0857 125.4458)" fill="#FBD9BD" cx="66.947" cy="51.605" rx="3.297" ry="5.701"/>
			<path fill="#FBD9BD" d="M53.92,57.312v23.166c-2.199,2.103-4.611,4.527-8.01,7.099c-2.887-2.184-5.772-5.115-7.968-7.099V57.312
				C37.942,46.744,53.92,46.745,53.92,57.312z"/>
			<path fill="#ECC2A0" d="M53.92,57.312v13.104c-3.023,2.365-5.938,3.689-7.989,3.689c-2.051,0-4.966-1.324-7.988-3.689V57.312
				C37.942,46.744,53.92,46.744,53.92,57.312z"/>
			<path fill="#FBD9BD" d="M45.932,70.852c-5.202,0-16.19-8.178-19.587-19.89c-3.43-11.826,3.029-28.789,19.587-28.789
				c16.556,0,23.017,16.962,19.586,28.789C62.12,62.674,51.133,70.852,45.932,70.852z"/>
			<path fill="#FF386A" d="M39.665,59.061c2.651-2.565,4.718-0.642,6.266-0.642c1.548,0,3.615-1.924,6.266,0.642
				C50.772,65.827,41.555,66.036,39.665,59.061z"/>
			<path fill="#FFFFFF" d="M40.479,59.41c1.449-0.37,8.828-0.445,10.903-0.08C49.669,62.484,41.93,62.302,40.479,59.41z"/>
			<path fill="#FF386A" d="M39.665,59.061c2.65-2.565,4.718-0.642,6.267-0.642c1.547,0,3.614-1.924,6.265,0.642
				C48.144,61.057,42.394,60.125,39.665,59.061z"/>
			<path fill="#D56C2B" d="M62.8,62.524c-3.991,7.492,16.048-18.937-1.214-36.471C51.28,15.585,34.202,16.318,27.527,27.94
				c3.267,4.948,10.256,9.366,18.446,9.196c13.924-0.291-1.079,8.468,10.264,9.962c8.259,1.088,6.647,2.585,2.61,7.102
				C56.02,57.362,56.82,61.479,62.8,62.524z"/>
			
				<ellipse transform="matrix(-0.9188 0.3947 -0.3947 -0.9188 68.8645 89.0342)" fill="#FBD9BD" cx="25.275" cy="51.6" rx="3.297" ry="5.701"/>
			<path fill="#D56C2B" d="M35.27,28.178c-1.554,6.382,1.028,11.354-4.236,11.978c-6.851,0.812-3.59,5.116-4.118,10.402
				C23.133,45.843,21.913,24.899,35.27,28.178z"/>
			<polygon fill="#E2687F" points="49.741,80.279 45.909,87.577 58.527,78.032 55.863,75.102 			"/>
			<polygon fill="#E2687F" points="42.078,80.279 45.909,87.577 33.293,78.032 35.957,75.102 			"/>
			<path fill="#FFFFFF" d="M35.957,75.102l-2.664,2.931l2.548,11.027l6.237-8.78L35.957,75.102L35.957,75.102z M55.863,75.102
				l2.664,2.931L55.979,89.06l-6.238-8.78L55.863,75.102z"/>
		</g>
	</g>
	<g>
		<path fill="#15B858" d="M45.911,209.408c25.287,0,45.912-20.624,45.912-45.911s-20.625-45.911-45.912-45.911
			C20.625,117.586,0,138.21,0,163.497S20.625,209.408,45.911,209.408z"/>
		<g>
			<path fill="#E72C4F" d="M33.093,201.501l-1.941,5.482c-5.354-1.815-10.264-4.594-14.524-8.127l1.002-2.83
				C21.062,186.329,36.349,192.304,33.093,201.501z"/>
			<path fill="#E72C4F" d="M23.892,191.063h44.076v12.707c-6.545,3.592-14.062,5.638-22.057,5.638
				c-7.979,0-15.481-2.036-22.019-5.616V191.063z"/>
			<path fill="#CB1A3B" d="M33.681,191.063h24.5v1.539c0,6.737-5.513,12.25-12.25,12.25l0,0c-6.737,0-12.25-5.513-12.25-12.25
				V191.063z"/>
			<path fill="#FBD9BD" d="M45.93,158.306L45.93,158.306c5.475,0,9.953,4.479,9.953,9.953v22.807c0,5.475-4.479,9.953-9.953,9.953
				l0,0c-5.474,0-9.953-4.479-9.953-9.953v-22.807C35.977,162.784,40.456,158.306,45.93,158.306z"/>
			<path fill="#E72C4F" d="M58.394,201.501l1.976,5.582c5.362-1.777,10.284-4.516,14.564-8.014l-1.077-3.043
				C70.425,186.329,55.138,192.304,58.394,201.501z"/>
			<path fill="#F6C4A9" d="M55.884,173.522v15.008c-3.767,2.709-7.397,4.227-9.953,4.227c-2.557,0-6.188-1.518-9.953-4.227v-15.008
				C35.978,161.418,55.884,161.418,55.884,173.522z"/>
			
				<ellipse transform="matrix(-0.9498 0.3128 -0.3128 -0.9498 94.1258 305.6933)" fill="#FFDDCB" cx="22.546" cy="160.396" rx="3.298" ry="5.701"/>
			
				<ellipse transform="matrix(-0.9498 -0.3128 0.3128 -0.9498 85.4169 334.5085)" fill="#FFDDCB" cx="69.545" cy="160.402" rx="3.297" ry="5.701"/>
			<path fill="#F6C4A9" d="M34.679,172.783c3.041,2.169,20.205,2.05,23.246,0C55.282,184.194,38.183,184.546,34.679,172.783z"/>
			<path fill="#FBD9BD" d="M45.93,133.177c-32.956,0-21.104,39.821-18.952,42.991c2.374,3.495,13.627,12.763,18.952,12.763
				c5.325,0,16.578-9.267,18.952-12.763C67.035,172.998,78.886,133.177,45.93,133.177z"/>
			<path fill="#FFFFFF" d="M38.29,174.844c2.096,1.14,13.927,1.076,16.022,0C52.491,180.835,40.706,181.021,38.29,174.844z"/>
			<path fill="#E19C26" d="M80.202,163.403c-9.123-0.432-11.842-4.562-12.548-15.312c-1.243-18.915-35.598-20.93-40.411-9.188
				c-10.682,9.438-2.823,34.458-2.823,28.102c0-6.357,1.993-11.823,4.802-16.573c3.49,7.256,11.32,13.82,19.556,13.104
				c-5.644-4.735-8.774-6.779-10.086-14.406C42.735,160.628,61.351,167.866,80.202,163.403z"/>
		</g>
	</g>
	<g>
		<path fill="#E0C61A" d="M200.209,307.128c25.289,0,45.912-20.625,45.912-45.912s-20.623-45.912-45.912-45.912
			c-25.287,0-45.912,20.625-45.912,45.912S174.922,307.128,200.209,307.128z"/>
		<g>
			<path fill="#FBD9BD" d="M213.61,301.026l1.086,3.766c5.429-1.805,10.406-4.59,14.724-8.152l-0.047-0.16
				C226.519,286.595,210.905,291.653,213.61,301.026z"/>
			<path fill="#FBD9BD" d="M186.706,301.026l-1.078,3.735c-5.426-1.815-10.4-4.616-14.709-8.192l0.025-0.09
				C173.797,286.595,189.411,291.653,186.706,301.026z"/>
			<path fill="#497193" d="M221.996,291.104h-43.675c-3.172-0.082-6.256,1.494-7.377,5.375l-0.025,0.09
				c7.949,6.594,18.156,10.559,29.291,10.559c11.096,0,21.272-3.938,29.208-10.488l-0.045-0.16
				C228.251,292.599,225.167,291.022,221.996,291.104z"/>
			<g>
				<path fill="#779AB9" d="M182.092,303.411h36.234c-2.798,1.203-5.738,2.137-8.791,2.768h-18.651
					C187.833,305.548,184.891,304.614,182.092,303.411z"/>
				<path fill="#779AB9" d="M172.247,297.63h55.924c-1.287,0.988-2.629,1.914-4.021,2.766h-47.885
					C174.875,299.544,173.535,298.618,172.247,297.63z"/>
				<path fill="#779AB9" d="M174.674,291.845h50.967c1.178,0.568,2.207,1.475,2.948,2.769h-56.865
					C172.466,293.319,173.496,292.413,174.674,291.845z"/>
			</g>
			<path fill="#FBD9BD" d="M200.228,258.345L200.228,258.345c-5.474,0-9.953,4.479-9.953,9.953v22.807
				c0,5.476,4.479,9.953,9.953,9.953l0,0c5.475,0,9.955-4.479,9.955-9.953v-22.807C210.183,262.823,205.703,258.345,200.228,258.345
				z"/>
			<path fill="#ECC2A0" d="M210.048,273.462v15.01c-3.715,2.707-7.297,4.226-9.819,4.226c-2.521,0-6.104-1.519-9.818-4.226v-15.01
				C190.411,261.358,210.048,261.358,210.048,273.462z"/>
			<path fill="#FBD9BD" d="M200.229,233.218c-32.957,0-21.104,39.82-18.952,42.99c2.374,3.496,13.628,12.762,18.952,12.762
				c5.325,0,16.579-9.266,18.952-12.762C221.333,273.038,233.185,233.218,200.229,233.218z"/>
			<path fill="#ECC2A0" d="M189.663,272.724c2.765,2.17,18.37,2.049,21.133,0C208.394,284.136,192.848,284.485,189.663,272.724z"/>
			<path fill="#FFFFFF" d="M192.946,274.784c1.906,1.139,12.661,1.076,14.567,0C205.856,280.776,195.141,280.96,192.946,274.784z"/>
			
				<ellipse transform="matrix(-0.9498 0.3128 -0.3128 -0.9498 426.7718 457.4796)" fill="#FBD9BD" cx="176.684" cy="262.978" rx="3.298" ry="5.702"/>
			
				<ellipse transform="matrix(-0.9498 -0.3127 0.3127 -0.9498 353.8802 582.7026)" fill="#FBD9BD" cx="223.667" cy="262.974" rx="3.298" ry="5.701"/>
			<path fill="#FFC55D" d="M182.456,253.858c-1.962,2.428-3.174,4.258-3.606,11.906c-1.579-9.554-4.2-22.99,2.114-31.642
				c4.297-5.89,26.051-12.879,35.006-2.445c15.086,0.222,7.85,27.052,6.98,32.384c-0.564-12.271-7.117-10.854-10.457-19.861
				C207.962,247.364,198.961,253.081,182.456,253.858z"/>
			<path fill="#27557D" d="M209.796,269.12c0.213-0.004,0.432-0.014,0.66-0.031c4.987-0.391,6.143-2.471,6.61-5.1
				c0.515-2.885,0.521-3.889,1.313-4.154c0.582-0.197,0.703-0.842,0.658-1.594c-0.047-0.75-0.076-0.83-1.063-1.145
				c-0.772-0.246-4.998-0.599-8.181-0.421v0.779c2.496-0.121,4.906,0.155,5.619,0.576c1.644,0.961,1.338,5.604,0.066,7.905
				c-0.895,1.625-3.42,2.441-5.686,2.449v0.734H209.796z M200.192,258.206c-1.104,0.027-5.661-1.176-8.883-1.432
				c-0.205-0.019-0.416-0.031-0.632-0.041v0.776c2.597,0.113,5.282,0.66,6.249,1.941c1.598,2.116-0.951,7.293-3.377,8.446
				c-0.764,0.365-1.789,0.545-2.872,0.543v0.73c4.421,0.061,5.938-2.871,6.442-3.846c0.94-1.814,0.643-4.311,3.116-4.318
				c2.474-0.006,2.233,2.449,3.185,4.256c0.509,0.969,1.992,3.918,6.375,3.855v-0.732c-1.067,0.004-2.078-0.17-2.834-0.524
				c-2.434-1.144-5.009-6.304-3.426-8.429c0.963-1.291,3.658-1.854,6.26-1.979v-0.779c-0.225,0.014-0.442,0.029-0.655,0.047
				C206.257,256.97,202.791,258.142,200.192,258.206z M190.677,256.733c-3.185-0.164-7.431,0.213-8.203,0.463
				c-0.986,0.32-1.015,0.4-1.057,1.152c-0.042,0.75,0.083,1.395,0.667,1.588c0.796,0.262,0.806,1.268,1.338,4.147
				c0.483,2.625,1.648,4.699,6.641,5.062c0.211,0.015,0.416,0.023,0.614,0.025v-0.73c-2.255-0.006-4.76-0.809-5.66-2.418
				c-1.282-2.295-1.612-6.936,0.022-7.907c0.713-0.425,3.134-0.716,5.638-0.605V256.733z"/>
		</g>
	</g>
	<path fill="#1D1D1B" d="M119.348,268.651c-0.04,0.084-0.08,0.17-0.122,0.256c-0.285,0.595-0.016,1.562,0.576,1.906
		c2.501,1.455,5.118,2.578,7.822,3.434c-5.96,0.782-11.942,1.438-17.875,2.38c-1.185,0.188-0.842,1.854,0.314,1.779
		c6.672-0.441,13.321-1.245,19.981-1.829c-1.365,0.816-2.706,1.676-4.011,2.622c-1.709,1.239,0.353,3.583,2.062,2.477
		c1.172-0.76,2.342-1.526,3.512-2.286c2.155-1.287,4.387-2.414,6.763-3.38c1.512-0.612,1.065-2.936-0.527-3.071
		c-5.566-0.479-10.518-2.065-15.457-4.465c-0.076-0.104-0.161-0.201-0.266-0.289c-0.098-0.084-0.197-0.168-0.295-0.252
		C120.971,267.206,119.759,267.792,119.348,268.651z"/>
	<path fill="#1D1D1B" d="M275.255,96.612c-1.654-1.693-4.506,0.334-3.211,2.408c1.504,2.406,3.014,4.752,4.496,7.101
		c-8.529-9.749-18.767-18.594-28.524-26.581c-12.166-9.957-25.429-18.693-39.865-25.409c-13.097-6.092-27.157-10.512-41.77-12.588
		c-12.263-1.741-29.261-3.917-40.682,3.59c-0.98,0.644-0.122,2.283,0.93,1.708c12.384-6.773,30.214-3.625,42.952-1.251
		c14.161,2.638,27.729,7.494,40.342,13.834c13.74,6.901,26.347,15.706,37.937,25.541c12.032,10.21,21.867,22.35,33.349,33.03
		c0.679,0.632,1.52,0.469,2.133-0.039c0.197,0.397,0.393,0.796,0.584,1.2c-6.413-1.829-12.733-3.926-19.204-5.593
		c-1.421-0.365-2.421,1.619-1.003,2.186c7.574,3.024,15.453,5.385,23.021,8.428c1.6,0.642,3.407-1.119,2.812-2.69
		C286.253,112.76,281.8,103.32,275.255,96.612z"/>
	<path fill="#1D1D1B" d="M248.487,139.734c-2.03-0.782-3.646,2.02-1.771,3.258c2.177,1.436,4.34,2.821,6.478,4.217
		c-10.868-4.881-22.817-8.346-34.045-11.276c-13.991-3.655-28.439-5.859-43.098-5.921c-13.298-0.053-26.764,1.668-39.798,5.566
		c-10.939,3.272-26.01,8.008-32.714,18.708c-0.575,0.918,0.771,1.961,1.432,1.074c7.79-10.457,23.929-14.698,35.507-17.624
		c12.871-3.253,26.092-4.417,39.078-3.969c14.146,0.484,28.068,3.001,41.533,6.774c13.978,3.917,26.852,10.299,40.545,14.824
		c0.812,0.269,1.451-0.194,1.771-0.856c0.318,0.258,0.635,0.516,0.948,0.781c-6.071,0.942-12.167,1.622-18.226,2.722
		c-1.328,0.242-1.41,2.292-0.006,2.219c7.502-0.387,15.002-1.449,22.506-1.817c1.584-0.078,2.428-2.253,1.328-3.341
		C263.867,149.028,256.531,142.833,248.487,139.734z"/>
	<path fill="#1D1D1B" d="M256.927,211.257c0.025,0.139,0.048,0.276,0.07,0.418c0.155,0.973,1.17,2.074,2.039,2.143
		c3.687,0.283,7.237,0.055,10.678-0.588c-5.557,4.939-11.232,9.725-16.637,14.856c-1.08,1.026,0.539,3.004,1.674,2.146
		c6.547-4.955,12.797-10.373,19.227-15.508c-0.788,1.974-1.52,3.986-2.146,6.094c-0.822,2.758,3.082,4.504,4.008,1.922
		c0.633-1.772,1.257-3.555,1.889-5.323c1.246-3.115,2.693-6.067,4.413-8.899c1.095-1.8-1.129-4.574-2.876-3.714
		c-6.105,3.015-12.417,4.162-19.335,4.226c-0.156-0.084-0.317-0.157-0.492-0.205c-0.166-0.049-0.33-0.094-0.494-0.141
		C257.505,208.282,256.701,209.853,256.927,211.257z"/>
	<g enable-background="new    ">
		<path d="M327.849,178.582c0-0.04-0.1-0.35-0.299-0.931c-0.201-0.579-0.391-1.239-0.57-1.979s-0.33-1.46-0.45-2.16
			c-0.12-0.699-0.12-1.189,0-1.47l0.66-0.3c1.279,0.6,2.529,0.83,3.75,0.689c1.22-0.14,2.289-0.579,3.21-1.32
			c0.92-0.739,1.65-1.749,2.189-3.029c0.541-1.28,0.75-2.78,0.631-4.5c-0.121-2.08-0.521-3.819-1.201-5.221
			c-0.68-1.399-1.55-2.399-2.609-3c-1.061-0.6-2.26-0.779-3.6-0.539c-1.341,0.239-2.751,0.96-4.23,2.159
			c-0.119,0.201-0.28,0.33-0.48,0.391c-0.2,0.06-0.389,0.06-0.569,0c-0.181-0.061-0.341-0.17-0.479-0.33
			c-0.141-0.159-0.191-0.38-0.15-0.66c2.24-2.04,4.35-3.14,6.33-3.3c1.98-0.159,3.669,0.351,5.07,1.529
			c1.398,1.181,2.408,2.871,3.029,5.07c0.619,2.2,0.67,4.62,0.15,7.26c-0.48,2.521-1.521,4.381-3.12,5.58
			c-1.601,1.2-3.899,1.561-6.899,1.08c0.079,0.321,0.18,0.7,0.299,1.141c0.121,0.44,0.25,0.88,0.391,1.319
			c0.14,0.44,0.26,0.861,0.359,1.261s0.15,0.72,0.15,0.96c-0.12,0.399-0.37,0.689-0.75,0.869
			C328.279,179.332,328.009,179.143,327.849,178.582z M328.21,182.182c0.039,0,0.059-0.009,0.059-0.03
			c0-0.02,0.021-0.029,0.061-0.029c0.439-0.44,0.87-0.57,1.29-0.391c0.42,0.181,0.511,0.61,0.271,1.29
			c-0.081,0.28-0.18,0.49-0.301,0.63c-0.119,0.141-0.279,0.271-0.479,0.391c-0.161,0-0.28,0.04-0.36,0.12
			c-0.28,0.04-0.5,0-0.66-0.12s-0.26-0.271-0.3-0.45s-0.04-0.39,0-0.63s0.14-0.46,0.3-0.66L328.21,182.182z"/>
		<path d="M343.99,178.582c0-0.04-0.101-0.35-0.301-0.931c-0.2-0.579-0.39-1.239-0.57-1.979c-0.18-0.74-0.329-1.46-0.449-2.16
			c-0.12-0.699-0.12-1.189,0-1.47l0.66-0.3c1.279,0.6,2.529,0.83,3.75,0.689c1.219-0.14,2.289-0.579,3.21-1.32
			c0.919-0.739,1.649-1.749,2.19-3.029c0.539-1.28,0.75-2.78,0.629-4.5c-0.119-2.08-0.52-3.819-1.199-5.221
			c-0.682-1.399-1.551-2.399-2.61-3c-1.06-0.6-2.261-0.779-3.601-0.539c-1.34,0.239-2.75,0.96-4.229,2.159
			c-0.12,0.201-0.28,0.33-0.479,0.391c-0.201,0.06-0.391,0.06-0.57,0c-0.18-0.061-0.34-0.17-0.48-0.33
			c-0.141-0.159-0.189-0.38-0.149-0.66c2.239-2.04,4.35-3.14,6.329-3.3c1.98-0.159,3.67,0.351,5.07,1.529
			c1.4,1.181,2.41,2.871,3.03,5.07c0.62,2.2,0.669,4.62,0.149,7.26c-0.479,2.521-1.52,4.381-3.119,5.58
			c-1.601,1.2-3.9,1.561-6.9,1.08c0.08,0.321,0.18,0.7,0.301,1.141c0.119,0.44,0.249,0.88,0.39,1.319
			c0.14,0.44,0.259,0.861,0.36,1.261c0.099,0.399,0.149,0.72,0.149,0.96c-0.12,0.399-0.37,0.689-0.75,0.869
			C344.419,179.332,344.149,179.143,343.99,178.582z M344.349,182.182c0.039,0,0.061-0.009,0.061-0.03c0-0.02,0.02-0.029,0.06-0.029
			c0.44-0.44,0.87-0.57,1.29-0.391c0.42,0.181,0.51,0.61,0.27,1.29c-0.08,0.28-0.18,0.49-0.299,0.63
			c-0.121,0.141-0.281,0.271-0.48,0.391c-0.16,0-0.28,0.04-0.36,0.12c-0.28,0.04-0.501,0-0.659-0.12
			c-0.161-0.12-0.262-0.271-0.301-0.45c-0.04-0.18-0.04-0.39,0-0.63c0.039-0.24,0.14-0.46,0.301-0.66L344.349,182.182z"/>
		<path d="M360.129,178.582c0-0.04-0.101-0.35-0.3-0.931c-0.201-0.579-0.391-1.239-0.57-1.979s-0.33-1.46-0.449-2.16
			c-0.121-0.699-0.121-1.189,0-1.47l0.66-0.3c1.279,0.6,2.529,0.83,3.75,0.689c1.219-0.14,2.289-0.579,3.209-1.32
			c0.92-0.739,1.65-1.749,2.19-3.029s0.75-2.78,0.63-4.5c-0.12-2.08-0.521-3.819-1.2-5.221c-0.681-1.399-1.55-2.399-2.61-3
			c-1.06-0.6-2.26-0.779-3.6-0.539c-1.34,0.239-2.75,0.96-4.23,2.159c-0.119,0.201-0.279,0.33-0.479,0.391
			c-0.2,0.06-0.39,0.06-0.569,0c-0.181-0.061-0.341-0.17-0.48-0.33c-0.141-0.159-0.19-0.38-0.15-0.66c2.24-2.04,4.35-3.14,6.33-3.3
			c1.98-0.159,3.67,0.351,5.07,1.529c1.399,1.181,2.409,2.871,3.029,5.07c0.62,2.2,0.67,4.62,0.15,7.26
			c-0.48,2.521-1.521,4.381-3.119,5.58c-1.602,1.2-3.9,1.561-6.9,1.08c0.08,0.321,0.18,0.7,0.3,1.141s0.249,0.88,0.39,1.319
			c0.141,0.44,0.26,0.861,0.36,1.261c0.099,0.399,0.149,0.72,0.149,0.96c-0.119,0.399-0.369,0.689-0.75,0.869
			C360.559,179.332,360.289,179.143,360.129,178.582z M360.49,182.182c0.039,0,0.06-0.009,0.06-0.03c0-0.02,0.021-0.029,0.06-0.029
			c0.44-0.44,0.871-0.57,1.291-0.391c0.42,0.181,0.51,0.61,0.27,1.29c-0.08,0.28-0.18,0.49-0.3,0.63
			c-0.12,0.141-0.28,0.271-0.479,0.391c-0.161,0-0.281,0.04-0.361,0.12c-0.279,0.04-0.5,0-0.659-0.12
			c-0.161-0.12-0.261-0.271-0.3-0.45c-0.041-0.18-0.041-0.39,0-0.63c0.039-0.24,0.139-0.46,0.3-0.66L360.49,182.182z"/>
	</g>
	<path fill="#282828" d="M399.173,147.981c-7.557-11.211-21.33-15.283-35.605-15.546c-6.762-4.321-15.309-6.728-22.178-7.514
		c-17.207-1.969-33.234,3.561-43.629,17.903c-10.76,14.849-7.965,34.394,4.062,47.463c11.939,12.976,32.035,16.015,48.705,14.642
		c15.982-1.313,36.404-5.342,46.139-19.574C404.142,174.423,406.917,159.476,399.173,147.981z M383.585,191.379
		c-12.848,8.296-32.357,10.597-47.281,10.118c-20.068-0.645-37.811-11.051-42.658-31.377c-5.338-22.383,17.43-39.747,37.516-41.102
		c7.859-0.53,17.746,0.297,26.166,3.54c-10.426,0.565-20.678,2.891-28.539,5.707c-9.945,3.562-19.957,9.659-24.787,19.396
		c-0.564,1.14,1.113,2.143,1.717,1.003c10.203-19.284,37.705-24.937,58.295-22.791c4.232,2.72,7.643,6.357,9.543,11.132
		c0.25,0.627,1.172,0.4,1.025-0.283c-0.854-3.987-2.992-7.361-5.865-10.201c10.518,1.781,21.428,5.443,27.59,14.691
		C405.355,164.794,395.632,183.599,383.585,191.379z"/>
</g>
</svg>
