<?xml version="1.0" encoding="UTF-8" standalone="no"?>
<svg width="93px" height="106px" viewBox="0 0 93 106" version="1.1" xmlns="http://www.w3.org/2000/svg" xmlns:xlink="http://www.w3.org/1999/xlink" xmlns:sketch="http://www.bohemiancoding.com/sketch/ns">
    <!-- Generator: Sketch 3.5.2 (25235) - http://www.bohemiancoding.com/sketch -->
    <title>Group 2</title>
    <desc>Created with Sketch.</desc>
    <defs></defs>
    <g id="Page-1" stroke="none" stroke-width="1" fill="none" fill-rule="evenodd" sketch:type="MSPage">
        <g id="Group-2" sketch:type="MSLayerGroup" transform="translate(0.000000, -54.000000)" fill="#000000">
            <path d="M4.72030238,54 C2.11750756,54 0,56.1223168 0,58.7310231 L0,110.268977 C0,112.877683 2.11750756,115 4.72030238,115 L88.2796976,115 C90.8824924,115 93,112.877683 93,110.268977 L93,58.7310231 C93,56.1223168 90.8824924,54 88.2796976,54 L4.72030238,54 L4.72030238,54 Z M89.987041,110.268977 C89.987041,111.212564 89.2211469,111.980198 88.2796976,111.980198 L4.72030238,111.980198 C3.77885313,111.980198 3.01295896,111.212564 3.01295896,110.268977 L3.01295896,58.7310231 C3.01295896,57.7874356 3.77885313,57.019802 4.72030238,57.019802 L88.2796976,57.019802 C89.2211469,57.019802 89.987041,57.7874356 89.987041,58.7310231 L89.987041,110.268977 L89.987041,110.268977 L89.987041,110.268977 Z" id="Shape" sketch:type="MSShapeGroup"></path>
            <path d="M85.2667387,60.4422442 L8.1349892,60.4422442 C7.30280994,60.4422442 6.62850972,61.1182772 6.62850972,61.9521452 L6.62850972,107.047855 C6.62850972,107.881723 7.30280994,108.557756 8.1349892,108.557756 L85.2667387,108.557756 C86.0989179,108.557756 86.7732181,107.881723 86.7732181,107.047855 L86.7732181,61.9521452 C86.7732181,61.1182772 86.0989179,60.4422442 85.2667387,60.4422442 L85.2667387,60.4422442 L85.2667387,60.4422442 Z M83.7602592,105.537954 L9.64146868,105.537954 L9.64146868,63.4620462 L83.7602592,63.4620462 L83.7602592,105.537954 L83.7602592,105.537954 L83.7602592,105.537954 Z" id="Shape" sketch:type="MSShapeGroup"></path>
            <path d="M30.4308855,100.50495 C33.9889892,100.50495 37.2783369,99.3316568 39.9359676,97.3520759 C39.9610756,97.3353663 39.9877905,97.3224818 40.0122959,97.3039604 C40.0594989,97.2685281 40.1032873,97.2302772 40.145067,97.1906172 C43.9444082,94.2622145 46.399568,89.664264 46.399568,84.5 C46.399568,75.6749307 39.2361577,68.4950495 30.4308855,68.4950495 C21.6256134,68.4950495 14.462203,75.6749307 14.462203,84.5 C14.462203,93.3250693 21.6256134,100.50495 30.4308855,100.50495 L30.4308855,100.50495 L30.4308855,100.50495 Z M17.5655508,86.009901 L29.6776458,86.009901 L36.9426933,95.7185644 C35.0278575,96.8395149 32.803892,97.4851485 30.4308855,97.4851485 C23.7969525,97.4851485 18.3147732,92.460802 17.5655508,86.009901 L17.5655508,86.009901 L17.5655508,86.009901 Z M43.3866091,84.5 C43.3866091,88.1976469 41.8339309,91.5367426 39.350851,93.9038647 L31.937365,83.9966997 L31.937365,71.6054455 C38.3736479,72.3563696 43.3866091,77.851 43.3866091,84.5 L43.3866091,84.5 L43.3866091,84.5 Z M28.924406,71.6054455 L28.924406,82.990099 L17.5655508,82.990099 C18.2571253,77.0350495 22.982851,72.2985908 28.924406,71.6054455 L28.924406,71.6054455 L28.924406,71.6054455 Z" id="Shape" sketch:type="MSShapeGroup"></path>
            <path d="M51.3207343,73.1254125 L70.6036717,73.1254125 C71.435851,73.1254125 72.1101512,72.4493795 72.1101512,71.6155116 C72.1101512,70.7816436 71.435851,70.1056106 70.6036717,70.1056106 L51.3207343,70.1056106 C50.4885551,70.1056106 49.8142549,70.7816436 49.8142549,71.6155116 C49.8142549,72.4493795 50.4885551,73.1254125 51.3207343,73.1254125 L51.3207343,73.1254125 L51.3207343,73.1254125 Z" id="Shape" sketch:type="MSShapeGroup"></path>
            <path d="M77.0313175,82.990099 L59.3554924,82.990099 C58.5233132,82.990099 57.849013,83.666132 57.849013,84.5 C57.849013,85.333868 58.5233132,86.009901 59.3554924,86.009901 L77.0313175,86.009901 C77.8634968,86.009901 78.537797,85.333868 78.537797,84.5 C78.537797,83.666132 77.8634968,82.990099 77.0313175,82.990099 L77.0313175,82.990099 L77.0313175,82.990099 Z" id="Shape" sketch:type="MSShapeGroup"></path>
            <path d="M51.3207343,86.009901 L52.9278467,86.009901 C53.7600259,86.009901 54.4343261,85.333868 54.4343261,84.5 C54.4343261,83.666132 53.7600259,82.990099 52.9278467,82.990099 L51.3207343,82.990099 C50.4885551,82.990099 49.8142549,83.666132 49.8142549,84.5 C49.8142549,85.333868 50.4885551,86.009901 51.3207343,86.009901 L51.3207343,86.009901 L51.3207343,86.009901 Z" id="Shape" sketch:type="MSShapeGroup"></path>
            <path d="M77.0313175,89.4323432 L59.3554924,89.4323432 C58.5233132,89.4323432 57.849013,90.1083762 57.849013,90.9422442 C57.849013,91.7761122 58.5233132,92.4521452 59.3554924,92.4521452 L77.0313175,92.4521452 C77.8634968,92.4521452 78.537797,91.7761122 78.537797,90.9422442 C78.537797,90.1083762 77.8634968,89.4323432 77.0313175,89.4323432 L77.0313175,89.4323432 L77.0313175,89.4323432 Z" id="Shape" sketch:type="MSShapeGroup"></path>
            <path d="M51.3207343,92.4521452 L52.9278467,92.4521452 C53.7600259,92.4521452 54.4343261,91.7761122 54.4343261,90.9422442 C54.4343261,90.1083762 53.7600259,89.4323432 52.9278467,89.4323432 L51.3207343,89.4323432 C50.4885551,89.4323432 49.8142549,90.1083762 49.8142549,90.9422442 C49.8142549,91.7761122 50.4885551,92.4521452 51.3207343,92.4521452 L51.3207343,92.4521452 L51.3207343,92.4521452 Z" id="Shape" sketch:type="MSShapeGroup"></path>
            <path d="M77.0313175,95.8745875 L59.3554924,95.8745875 C58.5233132,95.8745875 57.849013,96.5506205 57.849013,97.3844884 C57.849013,98.2183564 58.5233132,98.8943894 59.3554924,98.8943894 L77.0313175,98.8943894 C77.8634968,98.8943894 78.537797,98.2183564 78.537797,97.3844884 C78.537797,96.5506205 77.8634968,95.8745875 77.0313175,95.8745875 L77.0313175,95.8745875 L77.0313175,95.8745875 Z" id="Shape" sketch:type="MSShapeGroup"></path>
            <path d="M51.3207343,98.8943894 L52.9278467,98.8943894 C53.7600259,98.8943894 54.4343261,98.2183564 54.4343261,97.3844884 C54.4343261,96.5506205 53.7600259,95.8745875 52.9278467,95.8745875 L51.3207343,95.8745875 C50.4885551,95.8745875 49.8142549,96.5506205 49.8142549,97.3844884 C49.8142549,98.2183564 50.4885551,98.8943894 51.3207343,98.8943894 L51.3207343,98.8943894 L51.3207343,98.8943894 Z" id="Shape" sketch:type="MSShapeGroup"></path>
            <path d="M51.3207343,79.5676568 L77.0313175,79.5676568 C77.8634968,79.5676568 78.537797,78.8916238 78.537797,78.0577558 C78.537797,77.2238878 77.8634968,76.5478548 77.0313175,76.5478548 L51.3207343,76.5478548 C50.4885551,76.5478548 49.8142549,77.2238878 49.8142549,78.0577558 C49.8142549,78.8916238 50.4885551,79.5676568 51.3207343,79.5676568 L51.3207343,79.5676568 L51.3207343,79.5676568 Z" id="Shape" sketch:type="MSShapeGroup"></path>
            <g id="Group" transform="translate(18.000000, 129.000000)" sketch:type="MSShapeGroup">
                <path d="M0.632309809,1.69014348 C0.59243422,1.41014208 0.672184202,1.16014458 0.871562146,0.940143481 C1.07094009,0.720142381 1.33012753,0.610143481 1.64913224,0.610143481 C3.96191639,-0.149860319 6.08525964,-0.199859819 8.0192257,0.460143481 C9.95319175,1.12014678 11.6578476,2.21013588 13.1332444,3.73014348 C14.6086412,5.25015108 15.8048909,7.07013288 16.7220294,9.19014348 C17.639168,11.3101541 18.2073866,13.4501327 18.4267023,15.6101435 C18.6460181,17.7701543 18.4964869,19.8201338 17.9781042,21.7601435 C17.4597215,23.7001532 16.4827843,25.2301379 15.0472631,26.3501435 C13.6516175,27.4701491 12.4753052,28.2901409 11.5182911,28.8101435 C10.561277,29.3301461 9.60427721,29.7001424 8.64726308,29.9201435 C7.69024895,30.1401446 6.6136242,30.300143 5.41735654,30.4001435 C4.22108887,30.500144 2.68590173,30.6901421 0.811749061,30.9701435 C0.492744351,31.0101437 0.273431903,30.9601442 0.153805136,30.8201435 C0.0341783699,30.6801428 -0.0156653685,30.5101445 0.00427242593,30.3101435 C0.0242102203,30.1101425 0.103960202,29.9101445 0.243524762,29.7101435 C0.383089323,29.5101425 0.552558033,29.3701439 0.751935977,29.2901435 C2.107706,29.0901425 3.39367444,28.9501439 4.6098799,28.8701435 C5.82608536,28.7901431 6.98246009,28.6401446 8.07903878,28.4201435 C9.17561747,28.2001424 10.2323047,27.840146 11.2491322,27.3401435 C12.2659598,26.840141 13.2728033,26.0901485 14.269693,25.0901435 C15.5058362,23.8501373 16.3133048,22.3201526 16.6921229,20.5001435 C17.070941,18.6801344 17.1008472,16.8001532 16.7818425,14.8601435 C16.4628378,12.9201338 15.8547442,11.0301527 14.9575435,9.19014348 C14.0603427,7.35013428 12.9538117,5.80014978 11.6379173,4.54014348 C10.3220229,3.28013718 8.85661695,2.43014568 7.2416556,1.99014348 C5.62669426,1.55014128 3.9619134,1.73013948 2.24726308,2.53014348 C2.56626779,6.69016428 2.78558024,10.8401228 2.90520701,14.9801435 C3.02483377,19.1201642 3.22420872,23.2701227 3.50333785,27.4301435 C3.38371108,27.8301455 3.13449239,28.1201426 2.7556743,28.3001435 C2.3768562,28.4801444 2.10770001,28.2901463 1.94819766,27.7301435 C1.66906854,23.3701217 1.45972484,19.0301651 1.32016028,14.7101435 C1.18059572,10.3901219 0.951314519,6.05016528 0.632309809,1.69014348 L0.632309809,1.69014348 Z M26.08648,19.0000005 C26.764365,19.6400037 27.1930211,20.2499976 27.3724613,20.8300005 C27.5519014,21.4100034 27.5419327,21.9599979 27.3425547,22.4800005 C27.1431768,23.0000031 26.8142081,23.4699984 26.3556389,23.8900005 C25.8970696,24.3100026 25.368726,24.6499992 24.7705921,24.9100005 C24.1724583,25.1700018 23.5543959,25.3400001 22.9163865,25.4200005 C22.2783771,25.5000009 21.7001897,25.4600013 21.1818071,25.3000005 C21.5008118,27.4600113 22.4578116,28.7299986 24.0528351,29.1100005 C25.6478587,29.4900024 27.6615457,28.7000103 30.0939566,26.7400005 C30.3730857,26.5399995 30.6023669,26.4600003 30.7818071,26.5000005 C30.9612472,26.5400007 31.090841,26.6299998 31.1705921,26.7700005 C31.2503433,26.9100012 31.2702808,27.0899994 31.2304052,27.3100005 C31.1905296,27.5300016 31.0709047,27.7399995 30.8715267,27.9400005 C29.8347614,28.7800047 28.7880429,29.4699978 27.7313398,30.0100005 C26.6746367,30.5500032 25.6578244,30.8500002 24.6808725,30.9100005 C23.7039206,30.9700008 22.7967645,30.7300032 21.9593772,30.1900005 C21.1219898,29.6499978 20.40424,28.6800075 19.8061061,27.2800005 C19.5668526,26.6799975 19.4173214,25.8600057 19.357508,24.8200005 C19.2976946,23.7799953 19.3874134,22.7400057 19.6266669,21.7000005 C19.8659204,20.6599953 20.2447328,19.7300046 20.7631155,18.9100005 C21.2814981,18.0899964 21.999248,17.6000013 22.9163865,17.4400005 C23.5543959,17.3199999 24.1425521,17.4699984 24.6808725,17.8900005 C25.219193,18.3100026 25.6877241,18.6799989 26.08648,19.0000005 L26.08648,19.0000005 Z M21.2934579,20.9072734 C21.1339556,21.6672772 21.0143306,22.4272696 20.9345794,23.1872734 C21.1339574,23.4672748 21.4629261,23.6272732 21.9214953,23.6672734 C22.3800646,23.7072736 22.8585645,23.667274 23.3570093,23.5472734 C23.8554542,23.4272728 24.3339541,23.2572745 24.7925234,23.0372734 C25.2510926,22.8172723 25.5601238,22.5872746 25.7196262,22.3472734 C25.639875,21.8272708 25.400625,21.2872762 25.0018692,20.7272734 C24.6031133,20.1672706 24.1644884,19.7472748 23.6859813,19.4672734 C23.2074742,19.187272 22.7389431,19.1272726 22.2803738,19.2872734 C21.8218046,19.4472742 21.4928359,19.9872688 21.2934579,20.9072734 L21.2934579,20.9072734 Z M31.8604361,17.8680006 C31.9401873,17.347998 32.1993748,17.0080014 32.6380062,16.8480006 C33.0766377,16.6879998 33.3358251,16.9279974 33.4155763,17.5680006 C33.4155763,18.6080058 33.4056076,19.6279956 33.3856698,20.6280006 C33.365732,21.6280056 33.3358257,22.6479954 33.2959502,23.6880006 C34.2130887,22.367994 35.0006198,21.3780039 35.658567,20.7180006 C36.3165142,20.0579973 36.9345765,19.7480004 37.5127726,19.7880006 C38.0909686,19.8280008 38.6591872,20.2379967 39.2174455,21.0180006 C39.7757037,21.7980045 40.4137036,22.9279932 41.1314642,24.4080006 C41.4504689,21.887988 42.3277187,20.2480044 43.7632399,19.4880006 C45.1987611,18.7279968 46.9931357,19.007994 49.1464174,20.3280006 C49.8243025,20.7680028 50.3725836,21.3279972 50.7912773,22.0080006 C51.2099709,22.688004 51.5389396,23.4179967 51.7781931,24.1980006 C52.0174467,24.9780045 52.1968841,25.7779965 52.3165109,26.5980006 C52.4361377,27.4180047 52.5358251,28.187997 52.6155763,28.9080006 C52.6554519,29.388003 52.456077,29.7379995 52.0174455,29.9580006 C51.578814,30.1780017 51.2797516,30.0080034 51.1202492,29.4480006 C51.040498,28.727997 50.9408106,28.0180041 50.8211838,27.3180006 C50.701557,26.6179971 50.5420571,25.9480038 50.3426791,25.3080006 C50.1433012,24.6679974 49.8641762,24.0580035 49.505296,23.4780006 C49.1464157,22.8979977 48.6679158,22.3480032 48.0697819,21.8280006 C47.0728922,20.9479962 46.0361425,20.6179995 44.9595016,20.8380006 C43.8828607,21.0580017 43.1651108,21.8479938 42.8062305,23.2080006 C42.566977,24.1280052 42.4373833,24.9179973 42.4174455,25.5780006 C42.3975077,26.2380039 42.3875389,26.9879964 42.3875389,27.8280006 C42.2679122,28.1480022 42.0485997,28.4279994 41.729595,28.6680006 C41.4105903,28.9080018 41.1314654,28.8080028 40.8922118,28.3680006 C40.6928339,27.7679976 40.4834902,27.1380039 40.2641745,26.4780006 C40.0448587,25.8179973 39.7856713,25.1780037 39.4866044,24.5580006 C39.1875374,23.9379975 38.8386313,23.3480034 38.4398754,22.7880006 C38.0411195,22.2279978 37.5825571,21.7680024 37.0641745,21.4080006 C36.625543,21.5680014 36.2267931,21.8479986 35.8679128,22.2480006 C35.5090325,22.6480026 35.1800638,23.0979981 34.8809969,23.5980006 C34.58193,24.0980031 34.2928363,24.607998 34.0137072,25.1280006 C33.734578,25.6480032 33.4753906,26.0879988 33.2361371,26.4480006 C33.0367591,26.728002 32.7975092,26.928 32.5183801,27.0480006 C32.2392509,27.1680012 32.000001,27.0480024 31.8006231,26.6880006 C31.6012451,26.2079982 31.5015576,25.5680046 31.5015576,24.7680006 C31.5015576,23.9679966 31.5214951,23.1380049 31.5613707,22.2780006 C31.6012463,21.4179963 31.6610588,20.5880046 31.74081,19.7880006 C31.8205611,18.9879966 31.8604361,18.348003 31.8604361,17.8680006 L31.8604361,17.8680006 Z M57.412016,19.4800002 C57.7310208,19.3999998 58.1497082,19.38 58.6680908,19.4200002 C59.1864735,19.4600004 59.7148171,19.5399996 60.2531375,19.6600002 C60.791458,19.7800008 61.2998641,19.9399992 61.7783712,20.1400002 C62.2568783,20.3400012 62.6157532,20.5799988 62.8550067,20.8600002 C63.7322697,22.020006 64.1011133,23.1699945 63.9615488,24.3100002 C63.8219842,25.4500059 63.3833593,26.4199962 62.6456609,27.2200002 C61.9079625,28.0200042 60.9609315,28.5699987 59.8045394,28.8700002 C58.6481473,29.1700017 57.4917726,29.040003 56.3353805,28.4800002 C56.0163758,28.3199994 55.7073446,28.1800008 55.4082777,28.0600002 C55.1092108,27.9399996 54.8400546,27.7600014 54.6008011,27.5200002 C54.2020452,27.1199982 54.012639,26.4700047 54.0325768,25.5700002 C54.0525146,24.6699957 54.2120146,23.7700047 54.5110815,22.8700002 C54.8101484,21.9699957 55.218867,21.1800036 55.7372497,20.5000002 C56.2556323,19.8199968 56.8138822,19.4800002 57.412016,19.4800002 L57.412016,19.4800002 Z M60.3314642,21.6609106 C59.4143256,21.140908 58.5968883,21.0609088 57.8791277,21.4209106 C57.1613671,21.7809124 56.5831798,22.2609076 56.1445483,22.8609106 C56.0647971,22.940911 55.9750784,23.1309091 55.8753894,23.4309106 C55.7757004,23.7309121 55.676013,24.0509089 55.576324,24.3909106 C55.476635,24.7309123 55.4267913,25.0709089 55.4267913,25.4109106 C55.4267913,25.7509123 55.5264788,26.0009098 55.7258567,26.1609106 C56.4037417,26.7609136 57.101554,27.12091 57.8193146,27.2409106 C58.5370752,27.3609112 59.1950126,27.3309115 59.7931464,27.1509106 C60.3912802,26.9709097 60.8996864,26.6609128 61.3183801,26.2209106 C61.7370737,25.7809084 62.0062299,25.2909133 62.1258567,24.7509106 C62.2454835,24.2109079 62.1657335,23.6709133 61.8866044,23.1309106 C61.6074752,22.5909079 61.0891004,22.1009128 60.3314642,21.6609106 L60.3314642,21.6609106 Z" id="Demo"></path>
            </g>
        </g>
    </g>
</svg>