<?xml version="1.0" encoding="UTF-8" standalone="no"?>
<!DOCTYPE svg PUBLIC "-//W3C//DTD SVG 1.1//EN"
 "http://www.w3.org/Graphics/SVG/1.1/DTD/svg11.dtd">
<!-- Generated by graphviz version 2.38.0 (20140413.2041)
 -->
<!-- Title: %3 Pages: 1 -->
<svg width="377pt" height="260pt"
 viewBox="0.00 0.00 376.52 260.00" xmlns="http://www.w3.org/2000/svg" xmlns:xlink="http://www.w3.org/1999/xlink">
<g id="graph0" class="graph" transform="scale(1 1) rotate(0) translate(4 256)">
<title>%3</title>
<polygon fill="white" stroke="none" points="-4,4 -4,-256 372.516,-256 372.516,4 -4,4"/>
<!-- bmc -->
<g id="node1" class="node"><title>bmc</title>
<ellipse fill="none" stroke="black" cx="277.85" cy="-162" rx="90.8308" ry="18"/>
<text text-anchor="middle" x="277.85" y="-157.8" font-family="Times,serif" font-size="14.00">business model canvas</text>
</g>
<!-- lp -->
<g id="node2" class="node"><title>lp</title>
<ellipse fill="none" stroke="black" cx="91.8502" cy="-90" rx="55.5751" ry="18"/>
<text text-anchor="middle" x="91.8502" y="-85.8" font-family="Times,serif" font-size="14.00">landing page</text>
</g>
<!-- bmc&#45;&gt;lp -->
<g id="edge5" class="edge"><title>bmc&#45;&gt;lp</title>
<path fill="none" stroke="black" d="M237.491,-145.811C207.7,-134.599 167.164,-119.344 136.421,-107.774"/>
<polygon fill="black" stroke="black" points="137.402,-104.403 126.81,-104.157 134.936,-110.955 137.402,-104.403"/>
</g>
<!-- mm -->
<g id="node3" class="node"><title>mm</title>
<ellipse fill="none" stroke="black" cx="277.85" cy="-90" rx="43.5233" ry="18"/>
<text text-anchor="middle" x="277.85" y="-85.8" font-family="Times,serif" font-size="14.00">mindmap</text>
</g>
<!-- bmc&#45;&gt;mm -->
<g id="edge2" class="edge"><title>bmc&#45;&gt;mm</title>
<path fill="none" stroke="black" d="M271.935,-143.697C271.139,-135.983 270.912,-126.712 271.255,-118.112"/>
<polygon fill="black" stroke="black" points="274.749,-118.324 271.955,-108.104 267.766,-117.836 274.749,-118.324"/>
</g>
<!-- rs -->
<g id="node5" class="node"><title>rs</title>
<ellipse fill="none" stroke="black" cx="91.8502" cy="-18" rx="91.3074" ry="18"/>
<text text-anchor="middle" x="91.8502" y="-13.8" font-family="Times,serif" font-size="14.00">rocketship to the moon</text>
</g>
<!-- lp&#45;&gt;rs -->
<g id="edge8" class="edge"><title>lp&#45;&gt;rs</title>
<path fill="none" stroke="black" d="M91.8502,-71.6966C91.8502,-63.9827 91.8502,-54.7125 91.8502,-46.1124"/>
<polygon fill="black" stroke="black" points="95.3503,-46.1043 91.8502,-36.1043 88.3503,-46.1044 95.3503,-46.1043"/>
</g>
<!-- mm&#45;&gt;bmc -->
<g id="edge3" class="edge"><title>mm&#45;&gt;bmc</title>
<path fill="none" stroke="black" d="M283.745,-108.104C284.551,-115.791 284.787,-125.054 284.454,-133.665"/>
<polygon fill="black" stroke="black" points="280.959,-133.48 283.766,-143.697 287.942,-133.96 280.959,-133.48"/>
</g>
<!-- wip -->
<g id="node4" class="node"><title>wip</title>
<ellipse fill="none" stroke="black" cx="91.8502" cy="-162" rx="77.2916" ry="18"/>
<text text-anchor="middle" x="91.8502" y="-157.8" font-family="Times,serif" font-size="14.00">WIP Name + Logo</text>
</g>
<!-- wip&#45;&gt;lp -->
<g id="edge7" class="edge"><title>wip&#45;&gt;lp</title>
<path fill="none" stroke="black" d="M91.8502,-143.697C91.8502,-135.983 91.8502,-126.712 91.8502,-118.112"/>
<polygon fill="black" stroke="black" points="95.3503,-118.104 91.8502,-108.104 88.3503,-118.104 95.3503,-118.104"/>
</g>
<!-- name -->
<g id="node6" class="node"><title>name</title>
<ellipse fill="none" stroke="black" cx="91.8502" cy="-234" rx="29.0172" ry="18"/>
<text text-anchor="middle" x="91.8502" y="-229.8" font-family="Times,serif" font-size="14.00">name</text>
</g>
<!-- name&#45;&gt;bmc -->
<g id="edge1" class="edge"><title>name&#45;&gt;bmc</title>
<path fill="none" stroke="black" d="M116.166,-223.849C144.46,-213.201 191.916,-195.341 228.117,-181.717"/>
<polygon fill="black" stroke="black" points="229.404,-184.972 237.53,-178.174 226.938,-178.421 229.404,-184.972"/>
</g>
<!-- name&#45;&gt;lp -->
<g id="edge4" class="edge"><title>name&#45;&gt;lp</title>
<path fill="none" stroke="black" d="M66.4236,-225.079C45.9969,-217.217 18.6755,-202.969 5.85023,-180 -1.95008,-166.03 -1.95008,-157.97 5.85023,-144 14.713,-128.127 30.4983,-116.419 46.1471,-108.106"/>
<polygon fill="black" stroke="black" points="47.8703,-111.158 55.2917,-103.597 44.7748,-104.88 47.8703,-111.158"/>
</g>
<!-- name&#45;&gt;wip -->
<g id="edge6" class="edge"><title>name&#45;&gt;wip</title>
<path fill="none" stroke="black" d="M91.8502,-215.697C91.8502,-207.983 91.8502,-198.712 91.8502,-190.112"/>
<polygon fill="black" stroke="black" points="95.3503,-190.104 91.8502,-180.104 88.3503,-190.104 95.3503,-190.104"/>
</g>
</g>
</svg>
