<?xml version="1.0" encoding="UTF-8" standalone="no"?>
<svg width="45px" height="21px" viewBox="0 0 45 21" version="1.1" xmlns="http://www.w3.org/2000/svg" xmlns:xlink="http://www.w3.org/1999/xlink" xmlns:sketch="http://www.bohemiancoding.com/sketch/ns">
    <!-- Generator: Sketch 3.5.2 (25235) - http://www.bohemiancoding.com/sketch -->
    <title>Group</title>
    <desc>Created with Sketch.</desc>
    <defs></defs>
    <g id="Page-1" stroke="none" stroke-width="1" fill="none" fill-rule="evenodd" sketch:type="MSPage">
        <g id="Group" sketch:type="MSLayerGroup" transform="translate(0.000000, 0.244161)" fill="#000000">
            <path d="M19.6851091,20.7558386 C20.3247593,20.7558386 20.8430568,20.2395563 20.8430568,19.6027365 L20.8430568,13.4528584 C20.8430568,12.7322464 21.4317574,12.1460093 22.1553973,12.1460093 C22.8790375,12.1460093 23.4677379,12.7322464 23.4677379,13.4528584 L23.4677379,19.6027365 C23.4677379,20.2395563 23.9860353,20.7558386 24.6256855,20.7558386 C25.2653359,20.7558386 25.7836331,20.2395563 25.7836331,19.6027365 L25.7836331,13.4528584 C25.7836331,12.7322464 26.3723337,12.1460093 27.0959739,12.1460093 C27.8196138,12.1460093 28.4083144,12.7322464 28.4083144,13.4528584 L28.4083144,19.6027365 C28.4083144,20.2395563 28.9266117,20.7558386 29.566262,20.7558386 C30.2059122,20.7558386 30.7242097,20.2395563 30.7242097,19.6027365 L30.7242097,13.4528584 C30.7242097,11.4606054 29.0965983,9.83980498 27.0959739,9.83980498 C26.1422881,9.83980498 25.2739818,10.2086439 24.6256855,10.8099483 C23.9773892,10.2086439 23.109083,9.83980498 22.1553973,9.83980498 C21.5756515,9.83980498 21.0277108,9.97663977 20.5412184,10.21833 C20.3293912,9.98632584 20.0247738,9.83980498 19.6851091,9.83980498 C19.0454589,9.83980498 18.5271615,10.3560873 18.5271615,10.9929071 L18.5271615,19.6027365 C18.5271615,20.2395563 19.0454589,20.7558386 19.6851091,20.7558386 L19.6851091,20.7558386 L19.6851091,20.7558386 Z" id="Shape" sketch:type="MSShapeGroup"></path>
            <path d="M1.1579476,20.7558386 L8.56881222,20.7558386 C9.20846247,20.7558386 9.72675982,20.2395563 9.72675982,19.6027365 C9.72675982,18.9659166 9.20846247,18.4496343 8.56881222,18.4496343 L2.3158952,18.4496343 L2.3158952,13.3759849 L6.09852401,13.3759849 C6.73817427,13.3759849 7.25647162,12.8597026 7.25647162,12.2228827 C7.25647162,11.5860629 6.73817427,11.0697806 6.09852401,11.0697806 L2.3158952,11.0697806 L2.3158952,5.99613115 L8.56881222,5.99613115 C9.20846247,5.99613115 9.72675982,5.47984889 9.72675982,4.84302902 C9.72675982,4.20620914 9.20846247,3.68992687 8.56881222,3.68992687 L1.1579476,3.68992687 C0.518297344,3.68992687 0,4.20620914 0,4.84302902 L0,19.6027365 C0,20.2395563 0.518297344,20.7558386 1.1579476,20.7558386 L1.1579476,20.7558386 L1.1579476,20.7558386 Z" id="Shape" sketch:type="MSShapeGroup"></path>
            <path d="M12.2742445,13.3759849 L14.7445327,13.3759849 C15.384183,13.3759849 15.9024803,12.8597026 15.9024803,12.2228827 C15.9024803,11.5860629 15.384183,11.0697806 14.7445327,11.0697806 L12.2742445,11.0697806 C11.6345943,11.0697806 11.1162969,11.5860629 11.1162969,12.2228827 C11.1162969,12.8597026 11.6345943,13.3759849 12.2742445,13.3759849 L12.2742445,13.3759849 L12.2742445,13.3759849 Z" id="Shape" sketch:type="MSShapeGroup"></path>
            <path d="M12.2742445,18.2958874 L14.7445327,18.2958874 C15.384183,18.2958874 15.9024803,17.7796051 15.9024803,17.1427852 C15.9024803,16.5059654 15.384183,15.9896831 14.7445327,15.9896831 L12.2742445,15.9896831 C11.6345943,15.9896831 11.1162969,16.5059654 11.1162969,17.1427852 C11.1162969,17.7796051 11.6345943,18.2958874 12.2742445,18.2958874 L12.2742445,18.2958874 L12.2742445,18.2958874 Z" id="Shape" sketch:type="MSShapeGroup"></path>
            <path d="M36.9771265,20.7558386 C38.286225,20.7558386 39.5144213,20.1794412 40.4356845,19.1328858 C40.8571774,18.6539641 40.8091612,17.925511 40.3283813,17.5057818 C39.847447,17.0858989 39.1157786,17.1338679 38.6942857,17.6127897 C38.2190639,18.1524415 37.6093659,18.4497881 36.9771265,18.4497881 C35.572459,18.4497881 34.4296418,17.0359311 34.4296418,15.2979756 C34.4296418,13.56002 35.572459,12.146163 36.9771265,12.146163 C37.6093659,12.146163 38.2190639,12.4435096 38.6942857,12.9831614 C39.1157786,13.4620832 39.847447,13.5100522 40.3283813,13.0901693 C40.8091612,12.6704401 40.8573318,11.9418333 40.4356845,11.4630653 C39.5144213,10.4162023 38.286225,9.83980498 36.9771265,9.83980498 C34.2954743,9.83980498 32.1137468,12.2882252 32.1137468,15.2978218 C32.1137468,18.3074184 34.2954743,20.7558386 36.9771265,20.7558386 L36.9771265,20.7558386 L36.9771265,20.7558386 Z" id="Shape" sketch:type="MSShapeGroup"></path>
            <path d="M39.4474149,9.68605803 L43.7704191,9.68605803 C44.4100695,9.68605803 44.9283668,9.16977576 44.9283668,8.53295589 C44.9283668,7.89613601 44.4100695,7.37985374 43.7704191,7.37985374 L40.6053623,7.37985374 L40.6053623,6.68799245 C40.6053623,6.30654626 40.9170819,5.99613115 41.300131,5.99613115 L41.9177031,5.99613115 C43.5777366,5.99613115 44.9283668,4.65115281 44.9283668,2.99806558 C44.9283668,1.34497834 43.5777366,0 41.9177031,0 L40.6825589,0 C39.3629618,0 38.2894673,1.06900256 38.2894673,2.38307776 C38.2894673,3.01989765 38.8077645,3.53617991 39.4474149,3.53617991 C40.0870651,3.53617991 40.6053623,3.01989765 40.6053623,2.38307776 C40.6053623,2.34064361 40.6401008,2.3062043 40.6825589,2.3062043 L41.9177031,2.3062043 C42.3007521,2.3062043 42.6124715,2.61661938 42.6124715,2.99806558 C42.6124715,3.37951177 42.3007521,3.68992687 41.9177031,3.68992687 L41.300131,3.68992687 C39.6400972,3.68992687 38.2894673,5.03490522 38.2894673,6.68799245 L38.2894673,8.53295589 C38.2894673,9.16977576 38.8077645,9.68605803 39.4474149,9.68605803 L39.4474149,9.68605803 L39.4474149,9.68605803 Z" id="Shape" sketch:type="MSShapeGroup"></path>
        </g>
    </g>
</svg>