<?xml version="1.0" encoding="utf-8"?>
<!-- Generator: Adobe Illustrator 16.0.0, SVG Export Plug-In . SVG Version: 6.00 Build 0)  -->
<!DOCTYPE svg PUBLIC "-//W3C//DTD SVG 1.1//EN" "http://www.w3.org/Graphics/SVG/1.1/DTD/svg11.dtd">
<svg version="1.1" id="Layer_1" xmlns="http://www.w3.org/2000/svg" xmlns:xlink="http://www.w3.org/1999/xlink" x="0px" y="0px"
	 width="356.814px" height="268.672px" viewBox="0 0 356.814 268.672" enable-background="new 0 0 356.814 268.672"
	 xml:space="preserve">
<g id="Background">
</g>
<g id="Objects">
	<g>
		<path fill="#4D15B8" d="M45.911,136.29c25.288,0,45.912-20.624,45.912-45.911S71.199,44.467,45.911,44.467
			C20.624,44.467,0,65.091,0,90.378S20.624,136.29,45.911,136.29z"/>
		<g>
			<path fill="#D56C2B" d="M13.089,122.476c-0.136-1.512,0.935-2.887,2.719-3.896c3.6-2.035,2.699-5.217-1.741-7.251
				c-4.44-2.034-5.279-8.144-0.6-11.513c4.681-3.369,5.878-6.073,2.576-10.653c-3.302-4.58-0.824-12.335,4.216-13.352
				c5.041-1.018,4.28-1.615,5.355-5.646c1.872-7.011,9.939-12.36,14.26-7.781c6.177-7.561,20.066-1.788,22.581,5.206
				c2.664,7.412,5.075,7.338,9.036,9.387c3.961,2.047,5.255,11.288,2.251,15.142c-3.974,5.097-1.786,7.37,3.074,9.786
				c4.859,2.417,3.67,5.982-0.2,7.984c-3.869,2-6.271,5.574-2.67,7.609c2.636,1.49,3.413,3.615,2.397,6.859
				c-0.062,0.194-0.133,0.385-0.206,0.576c-8.075,7.069-18.649,11.354-30.227,11.354C33.049,136.29,21.424,130.999,13.089,122.476z"
				/>
			<path fill="#FBD9BD" d="M57.647,131.362l0.863,3.178c4.295-1.223,8.333-3.057,12.015-5.398l-0.132-0.787
				C68.257,118.508,55.141,122.133,57.647,131.362z"/>
			<path fill="#E2687F" d="M71.752,128.333c-1.535-6.46-8.815-7.3-11.795-3.778l0.572,9.36
				C64.547,132.565,68.316,130.676,71.752,128.333z"/>
			<path fill="#FBD9BD" d="M34.28,131.362l-0.871,3.205c-4.295-1.213-8.333-3.035-12.018-5.367l0.142-0.846
				C23.67,118.508,36.786,122.133,34.28,131.362z"/>
			<path fill="#E2687F" d="M20.16,128.393c1.504-6.516,8.82-7.372,11.81-3.839l-0.574,9.392
				C27.375,132.608,23.601,130.729,20.16,128.393z"/>
			<path fill="#FF93A7" d="M66.505,122.5l-0.513,9.177c-6.066,2.955-12.879,4.613-20.081,4.613c-7.203,0-14.018-1.66-20.084-4.615
				l-0.513-9.175H66.505z"/>
			<path fill="#FF93A7" d="M35.378,122.5l10.531,9.546l9.954-9.677l6.132,11.022c-5.005,1.873-10.425,2.898-16.084,2.898
				c-5.796,0-11.339-1.076-16.446-3.035L35.378,122.5z"/>
			
				<ellipse transform="matrix(-0.9188 -0.3948 0.3948 -0.9188 90.5289 210.7714)" fill="#FBD9BD" cx="66.945" cy="96.073" rx="3.297" ry="5.701"/>
			<path fill="#FBD9BD" d="M53.92,101.78v23.166c-2.199,2.104-4.611,4.527-8.01,7.1c-2.887-2.184-5.772-5.115-7.968-7.1V101.78
				C37.942,91.211,53.92,91.212,53.92,101.78z"/>
			<path fill="#ECC2A0" d="M53.92,101.78v13.104c-3.023,2.365-5.938,3.689-7.989,3.689c-2.051,0-4.966-1.324-7.988-3.689V101.78
				C37.942,91.211,53.92,91.211,53.92,101.78z"/>
			<path fill="#FBD9BD" d="M45.932,115.319c-5.202,0-16.19-8.178-19.587-19.89c-3.43-11.826,3.029-28.789,19.587-28.789
				c16.556,0,23.017,16.962,19.586,28.789C62.12,107.141,51.133,115.319,45.932,115.319z"/>
			<path fill="#FF386A" d="M39.665,103.528c2.651-2.565,4.718-0.642,6.266-0.642c1.548,0,3.615-1.924,6.266,0.642
				C50.772,110.294,41.555,110.503,39.665,103.528z"/>
			<path fill="#FFFFFF" d="M40.479,103.877c1.449-0.37,8.828-0.445,10.903-0.08C49.669,106.952,41.93,106.769,40.479,103.877z"/>
			<path fill="#FF386A" d="M39.665,103.528c2.65-2.565,4.718-0.642,6.267-0.642c1.547,0,3.614-1.924,6.265,0.642
				C48.144,105.524,42.394,104.592,39.665,103.528z"/>
			<path fill="#D56C2B" d="M62.8,106.992c-3.991,7.492,16.048-18.937-1.214-36.471c-10.306-10.469-27.384-9.735-34.059,1.887
				c3.267,4.948,10.256,9.366,18.446,9.196c13.924-0.291-1.079,8.468,10.264,9.962c8.259,1.088,6.647,2.585,2.61,7.102
				C56.02,101.83,56.82,105.947,62.8,106.992z"/>
			
				<ellipse transform="matrix(-0.9188 0.3948 -0.3948 -0.9188 86.418 174.3517)" fill="#FBD9BD" cx="25.274" cy="96.065" rx="3.297" ry="5.701"/>
			<path fill="#D56C2B" d="M35.27,72.645c-1.554,6.382,1.028,11.353-4.236,11.977c-6.851,0.812-3.59,5.116-4.118,10.402
				C23.133,90.31,21.913,69.367,35.27,72.645z"/>
			<polygon fill="#E2687F" points="49.741,124.747 45.909,132.045 58.527,122.5 55.863,119.569 			"/>
			<polygon fill="#E2687F" points="42.078,124.747 45.909,132.045 33.293,122.5 35.957,119.569 			"/>
			<path fill="#FFFFFF" d="M35.957,119.569l-2.664,2.931l2.548,11.028l6.237-8.781L35.957,119.569L35.957,119.569z M55.863,119.569
				l2.664,2.931l-2.548,11.028l-6.238-8.781L55.863,119.569z"/>
		</g>
	</g>
	<g>
		<path fill="#15B858" d="M310.902,199.844c25.287,0,45.912-20.625,45.912-45.912c0-25.287-20.625-45.91-45.912-45.91
			c-25.286,0-45.911,20.623-45.911,45.91C264.991,179.219,285.616,199.844,310.902,199.844z"/>
		<g>
			<path fill="#E72C4F" d="M298.085,191.936l-1.941,5.484c-5.354-1.816-10.264-4.596-14.523-8.127l1.002-2.83
				C286.054,176.764,301.341,182.739,298.085,191.936z"/>
			<path fill="#E72C4F" d="M288.883,181.5h44.076v12.705c-6.546,3.594-14.062,5.639-22.058,5.639c-7.979,0-15.48-2.037-22.02-5.617
				L288.883,181.5L288.883,181.5z"/>
			<path fill="#CB1A3B" d="M298.672,181.5h24.499v1.539c0,6.736-5.512,12.25-12.25,12.25l0,0c-6.736,0-12.249-5.514-12.249-12.25
				V181.5z"/>
			<path fill="#FBD9BD" d="M310.921,148.741L310.921,148.741c5.476,0,9.953,4.479,9.953,9.952V181.5
				c0,5.475-4.479,9.953-9.953,9.953l0,0c-5.474,0-9.953-4.479-9.953-9.953v-22.807
				C300.968,153.219,305.447,148.741,310.921,148.741z"/>
			<path fill="#E72C4F" d="M323.385,191.936l1.977,5.582c5.361-1.776,10.283-4.516,14.563-8.012l-1.077-3.043
				C335.416,176.764,320.129,182.739,323.385,191.936z"/>
			<path fill="#F6C4A9" d="M320.875,163.958v15.008c-3.767,2.709-7.397,4.228-9.953,4.228c-2.557,0-6.188-1.519-9.953-4.228v-15.008
				C300.969,151.854,320.875,151.854,320.875,163.958z"/>
			
				<ellipse transform="matrix(-0.9498 0.3127 -0.3127 -0.9498 607.8141 204.1946)" fill="#FFDDCB" cx="287.533" cy="150.838" rx="3.298" ry="5.7"/>
			
				<ellipse transform="matrix(-0.9498 -0.3128 0.3128 -0.9498 605.0964 398.7775)" fill="#FFDDCB" cx="334.541" cy="150.844" rx="3.298" ry="5.701"/>
			<path fill="#F6C4A9" d="M299.67,163.219c3.041,2.168,20.204,2.049,23.245,0C320.273,174.629,303.175,174.98,299.67,163.219z"/>
			<path fill="#FBD9BD" d="M310.921,123.612c-32.955,0-21.104,39.822-18.951,42.992c2.374,3.494,13.627,12.763,18.951,12.763
				c5.325,0,16.578-9.267,18.952-12.763C332.026,163.434,343.877,123.612,310.921,123.612z"/>
			<path fill="#FFFFFF" d="M303.281,165.28c2.097,1.139,13.927,1.075,16.021,0C317.482,171.27,305.697,171.456,303.281,165.28z"/>
			<path fill="#E19C26" d="M345.193,153.838c-9.123-0.432-11.843-4.562-12.549-15.312c-1.242-18.914-35.598-20.929-40.411-9.188
				c-10.683,9.438-2.822,34.457-2.822,28.102c0-6.356,1.992-11.823,4.802-16.573c3.49,7.256,11.319,13.819,19.556,13.104
				c-5.644-4.733-8.773-6.778-10.086-14.405C307.727,151.062,326.342,158.301,345.193,153.838z"/>
		</g>
	</g>
	<g>
		<path fill="#E0C61A" d="M45.912,268.67c25.287,0,45.911-20.623,45.911-45.91s-20.624-45.912-45.911-45.912S0,197.473,0,222.76
			S20.625,268.67,45.912,268.67z"/>
		<g>
			<path fill="#FBD9BD" d="M59.313,262.571l1.086,3.766c5.427-1.805,10.405-4.592,14.722-8.151l-0.047-0.162
				C72.221,248.139,56.608,253.198,59.313,262.571z"/>
			<path fill="#FBD9BD" d="M32.408,262.571l-1.078,3.733c-5.426-1.815-10.4-4.617-14.709-8.19l0.025-0.093
				C19.5,248.139,35.113,253.198,32.408,262.571z"/>
			<path fill="#497193" d="M67.697,252.648H24.023c-3.172-0.082-6.256,1.494-7.377,5.373l-0.025,0.093
				c7.949,6.594,18.156,10.559,29.291,10.559c11.096,0,21.271-3.938,29.208-10.487l-0.046-0.162
				C73.954,254.143,70.869,252.566,67.697,252.648z"/>
			<g>
				<path fill="#779AB9" d="M27.795,264.956h36.232c-2.797,1.203-5.738,2.137-8.791,2.769H36.587
					C33.535,267.092,30.594,266.159,27.795,264.956z"/>
				<path fill="#779AB9" d="M17.949,259.172h55.925c-1.288,0.99-2.629,1.916-4.021,2.768H21.969
					C20.578,261.088,19.237,260.163,17.949,259.172z"/>
				<path fill="#779AB9" d="M20.377,253.389h50.967c1.179,0.568,2.208,1.476,2.949,2.769H17.428
					C18.169,254.864,19.198,253.958,20.377,253.389z"/>
			</g>
			<path fill="#FBD9BD" d="M45.931,219.889L45.931,219.889c-5.474,0-9.953,4.479-9.953,9.953v22.807
				c0,5.476,4.479,9.953,9.953,9.953l0,0c5.475,0,9.954-4.479,9.954-9.953v-22.807C55.885,224.368,51.405,219.889,45.931,219.889z"
				/>
			<path fill="#ECC2A0" d="M55.75,235.006v15.008c-3.715,2.709-7.297,4.228-9.818,4.228s-6.104-1.519-9.818-4.228v-15.008
				C36.113,222.902,55.75,222.902,55.75,235.006z"/>
			<path fill="#FBD9BD" d="M45.932,194.76c-32.957,0-21.104,39.822-18.952,42.992c2.374,3.496,13.628,12.762,18.952,12.762
				c5.324,0,16.578-9.266,18.951-12.762C67.036,234.583,78.888,194.76,45.932,194.76z"/>
			<path fill="#ECC2A0" d="M35.365,234.268c2.765,2.168,18.369,2.049,21.133,0C54.096,245.678,38.551,246.03,35.365,234.268z"/>
			<path fill="#FFFFFF" d="M38.648,236.329c1.906,1.139,12.661,1.076,14.566,0C51.559,242.318,40.844,242.504,38.648,236.329z"/>
			
				<ellipse transform="matrix(-0.9498 0.3128 -0.3128 -0.9498 113.8857 430.7448)" fill="#FBD9BD" cx="22.388" cy="224.508" rx="3.298" ry="5.701"/>
			
				<ellipse transform="matrix(-0.9498 -0.313 0.313 -0.9498 65.0069 459.4801)" fill="#FBD9BD" cx="69.382" cy="224.522" rx="3.298" ry="5.701"/>
			<path fill="#FFC55D" d="M28.158,215.402c-1.962,2.429-3.174,4.259-3.606,11.904c-1.579-9.551-4.2-22.988,2.114-31.639
				c4.297-5.889,26.052-12.879,35.007-2.447c15.085,0.223,7.849,27.053,6.979,32.385c-0.564-12.271-7.117-10.854-10.457-19.862
				C53.664,208.909,44.664,214.625,28.158,215.402z"/>
			<path fill="#27557D" d="M55.498,230.665c0.213-0.004,0.433-0.015,0.66-0.031c4.989-0.391,6.143-2.471,6.611-5.1
				c0.515-2.886,0.52-3.89,1.314-4.156c0.582-0.194,0.703-0.842,0.658-1.592c-0.047-0.752-0.076-0.832-1.064-1.146
				c-0.772-0.246-4.998-0.598-8.18-0.42v0.777c2.496-0.121,4.906,0.158,5.62,0.576c1.642,0.963,1.337,5.604,0.066,7.908
				c-0.896,1.623-3.42,2.44-5.687,2.449v0.733H55.498z M45.895,219.75c-1.104,0.027-5.661-1.178-8.883-1.434
				c-0.205-0.017-0.416-0.029-0.632-0.039v0.776c2.597,0.113,5.282,0.66,6.249,1.941c1.598,2.114-0.951,7.293-3.377,8.446
				c-0.764,0.363-1.789,0.545-2.872,0.543v0.73c4.421,0.061,5.938-2.871,6.442-3.846c0.94-1.814,0.643-4.311,3.116-4.318
				c2.474-0.006,2.233,2.447,3.185,4.256c0.508,0.969,1.992,3.918,6.375,3.855v-0.732c-1.067,0.004-2.078-0.172-2.834-0.524
				c-2.433-1.144-5.01-6.306-3.426-8.431c0.963-1.289,3.658-1.852,6.26-1.979v-0.777c-0.225,0.014-0.443,0.027-0.656,0.047
				C51.959,218.512,48.492,219.686,45.895,219.75z M36.38,218.277c-3.185-0.163-7.431,0.214-8.203,0.464
				c-0.986,0.319-1.015,0.399-1.057,1.151c-0.042,0.75,0.083,1.396,0.667,1.588c0.796,0.263,0.806,1.269,1.338,4.148
				c0.483,2.625,1.648,4.697,6.641,5.061c0.211,0.017,0.416,0.023,0.614,0.027v-0.73c-2.255-0.006-4.76-0.809-5.66-2.418
				c-1.282-2.295-1.612-6.938,0.022-7.907c0.713-0.425,3.134-0.718,5.638-0.604V218.277z"/>
		</g>
	</g>
	<path fill="#454545" d="M163.731,163.751c2.845,0.125,8.355,0.168,8.233-1.373c-0.123-1.541-5.159-2.024-7.738-2.173
		c-0.236-0.35-0.452-0.803-0.64-1.393c-1.483-4.636-2.595-9.371-3.584-14.125c-0.496-2.381-0.959-4.768-1.429-7.151
		c-0.413-2.095-0.515-4.597-1.77-6.414c-0.564-0.817-7.181,8.723-7.562,9.25c-0.408,0.563-1.331,1.265-1.879,1.169
		c-4.228-0.745-8.365-0.383-12.532,0.411c-0.691,0.131-1.834-0.341-2.277-0.897c-2.277-2.869-4.452-7.798-7.836-9.506
		c-1.634,1.758-1.399,4.648-1.65,6.873c-0.306,2.697-0.593,5.396-0.924,8.092c-0.284,2.309-1.921,12.012-4.184,15.041
		c-2.393,0.367-8.486,1.543-7.955,3.856c0.527,2.297,6.524,0.413,8.912-0.437c0.159,0.205,0.298,0.461,0.42,0.78
		c0.1,0.265,0.156,0.494,0.175,0.702c-1.788,0.839-7.292,3.619-6.046,5.497c1.142,1.721,5.797-0.91,7.881-2.212
		c0.143,0.052,0.268,0.117,0.356,0.201c5.828,5.539,13.038,7.115,20.845,6.812c6.036-0.232,11.888-1.558,16.355-5.686
		c1.097-1.014,2.055-1.965,3.106-2.446c1.96,1.021,6.461,3.079,7.485,1.095c1.054-2.041-4.2-3.468-6.357-3.961
		C163.042,164.677,163.262,164.107,163.731,163.751z M133.544,156.458c-0.124,1.174-0.73,2.382-1.789,3.048
		c-3.979,2.501-6.757-2.867-3.738-5.803C131.51,150.305,133.856,153.507,133.544,156.458z M155.633,155.559
		c-0.641,4.154-3.64,4.187-5.091,2.67c-1.861-1.942-1.813-6.324,2.233-6.733C154.964,151.275,155.87,154.018,155.633,155.559z"/>
	<path fill="#333333" d="M128.885,118.299c15.121-1.575,30.898-1.177,43.438,7.364c9.945,6.773,17.88,14.729,22.468,25.151
		c10.375,23.568-15.457,41.72-40.468,37.184c-0.069,0.105-0.1,0.218-0.193,0.32c-7.651,8.527-18.63,14.121-24.576,23.896
		c-0.833,1.369-3.482,0.784-3.373-0.806c0.33-4.767,0.97-9.503,1.404-14.263c0.522-5.715-0.734-7.056-6.419-8.773
		c-5.762-1.74-11.393-3.723-16.794-6.202c-10.876-4.991-16.166-12.983-19.106-23.181
		C78.244,134.617,105.602,120.724,128.885,118.299z M129.35,188.82c0.458,0.154,0.813,0.474,0.806,0.934
		c-0.068,4.834-0.27,9.652-0.354,14.477c5.352-7.304,14.298-12.506,21.173-18.691c1.203-1.083,2.643-0.602,3.31,0.359
		c13.884,2.845,27.514-0.948,36.409-11.227c7.81-9.021,3.763-20.66-1.649-29.585c-4.496-7.413-11.859-14.526-20.051-18.858
		c-10.398-5.498-25.405-4.557-36.985-3.58c-21.491,1.811-44.773,11.422-44.096,33.207C88.564,176.77,110.845,182.639,129.35,188.82z
		"/>
	<g>
		<path fill="#333333" d="M79.301,31.584c0.065-0.64,1.086-0.652,1.132,0c1.588,22.375,38.073,20.216,56.257,21.855
			c1.222,0.109,2.173,0.992,1.834,2.135c-1.224,4.113-2.839,7.992-4.76,11.76c5.1-4.436,10.578-8.541,16.882-11.377
			c0.101-0.045,0.2-0.066,0.299-0.074c0.039-0.014,0.062-0.037,0.104-0.049c17.897-4.641,54.052-7.705,47.688-31.789
			c-3.75-14.189-28.459-17.601-41.849-19.084c-25.765-2.854-63.429,0.634-76.294,23.9c-0.112,0.204-0.501,0.06-0.414-0.155
			C92.311-1.215,139.354-3.451,168.849,2.888c14.511,3.119,32.183,10.307,33.208,25.269c0.479,6.976-7.064,15.03-12.892,18.804
			c-11.146,7.221-24.185,8.646-37.095,12.164c-0.967,0.264-1.69-0.141-2.071-0.74c-7.429,6.617-15.386,12.732-22.611,19.568
			c-1.469,1.387-3.991-0.396-2.933-2.006c3.31-5.025,6.233-10.029,8.523-15.502c2.256-5.391-1.94-4.207-6.656-4.551
			c-8.176-0.598-16.173-1.525-24.158-3.229C90.3,50.136,78.034,43.708,79.301,31.584z"/>
		<g enable-background="new    ">
			<path d="M87.188,37.102c0.36-0.768,0.797-1.8,1.314-3.096c0.516-1.296,1.085-2.683,1.71-4.158
				c0.624-1.476,1.296-2.97,2.016-4.482c0.72-1.512,1.44-2.867,2.16-4.067c0.168-0.12,0.312-0.145,0.432-0.072
				c0.12,0.072,0.228,0.18,0.324,0.324c0.624,1.151,1.2,2.46,1.728,3.924c0.527,1.464,1.008,2.94,1.44,4.428
				c0.12,0,0.239-0.006,0.36-0.018c0.12-0.012,0.24-0.019,0.36-0.019c0.168,0,0.288,0.049,0.36,0.145
				c0.072,0.096,0.095,0.204,0.072,0.324c-0.024,0.12-0.084,0.233-0.18,0.342c-0.096,0.107-0.216,0.174-0.36,0.198h-0.36
				c0.24,0.84,0.462,1.65,0.666,2.43c0.204,0.78,0.39,1.5,0.558,2.16c0.167,0.66,0.317,1.236,0.45,1.728
				c0.132,0.492,0.258,0.882,0.378,1.17c-0.048,0.385-0.228,0.595-0.54,0.63c-0.312,0.036-0.552-0.102-0.72-0.414
				c-0.265-1.271-0.54-2.537-0.828-3.798c-0.288-1.26-0.612-2.525-0.972-3.798c-1.056,0.12-2.148,0.282-3.276,0.486
				c-1.128,0.204-2.412,0.342-3.852,0.414c-0.432,0.984-0.858,1.968-1.278,2.952c-0.42,0.984-0.822,1.979-1.206,2.987
				c-0.121,0.145-0.234,0.211-0.342,0.198c-0.108-0.012-0.205-0.065-0.288-0.162c-0.084-0.096-0.139-0.216-0.162-0.359
				C87.128,37.354,87.14,37.222,87.188,37.102z M94.784,22.666c-0.648,1.367-1.302,2.729-1.962,4.086
				c-0.66,1.355-1.302,2.718-1.926,4.086c1.08-0.072,2.147-0.198,3.204-0.378c1.056-0.181,2.124-0.33,3.204-0.45
				c-0.36-1.248-0.75-2.484-1.17-3.708C95.714,25.077,95.264,23.866,94.784,22.666z"/>
			<path d="M100.472,32.781c-0.048-0.144-0.036-0.281,0.036-0.414c0.072-0.131,0.156-0.228,0.252-0.288
				c0.096-0.06,0.198-0.077,0.306-0.054c0.108,0.024,0.198,0.12,0.27,0.288c0.264,0.912,0.576,1.83,0.936,2.754
				c0.36,0.925,0.852,1.746,1.476,2.466h0.108c0.144-0.264,0.27-0.594,0.378-0.989c0.108-0.396,0.228-0.798,0.36-1.206
				s0.282-0.78,0.45-1.116c0.167-0.336,0.396-0.563,0.684-0.685c0.167-0.071,0.312-0.071,0.432,0
				c0.312,0.288,0.582,0.606,0.81,0.954c0.228,0.349,0.456,0.702,0.684,1.062c0.228,0.36,0.468,0.708,0.72,1.044
				s0.545,0.624,0.882,0.864c0.12-0.84,0.149-1.68,0.09-2.521c-0.06-0.84-0.102-1.68-0.126-2.52
				c-0.096-0.072-0.144-0.192-0.144-0.36s0.048-0.312,0.144-0.432c0.048-0.048,0.084-0.072,0.108-0.072
				c0.192-0.168,0.384-0.204,0.576-0.108c0.023,0,0.048,0.013,0.072,0.036c0.072,0.072,0.113,0.139,0.126,0.198
				c0.012,0.061,0.03,0.139,0.054,0.234c0,0.48,0.03,0.989,0.09,1.529c0.06,0.54,0.102,1.08,0.126,1.62
				c0.023,0.54,0.012,1.074-0.036,1.603c-0.048,0.528-0.192,1.021-0.432,1.476c-0.12,0.216-0.288,0.337-0.504,0.36
				c-0.384,0.023-0.744-0.114-1.08-0.414c-0.336-0.3-0.66-0.654-0.972-1.062c-0.312-0.407-0.594-0.833-0.846-1.277
				s-0.486-0.798-0.702-1.062c-0.216,0.601-0.408,1.194-0.576,1.782s-0.42,1.158-0.756,1.71c-0.072,0.12-0.144,0.21-0.216,0.27
				c-0.072,0.061-0.168,0.103-0.288,0.126c-0.121-0.023-0.24-0.029-0.36-0.018c-0.121,0.013-0.24-0.006-0.36-0.054
				c-0.312-0.12-0.618-0.433-0.918-0.937c-0.3-0.504-0.576-1.062-0.828-1.674s-0.468-1.212-0.648-1.8
				C100.67,33.508,100.544,33.069,100.472,32.781z"/>
			<path d="M115.375,32.241c0.408,0.385,0.666,0.751,0.774,1.099c0.108,0.348,0.102,0.678-0.018,0.989
				c-0.12,0.312-0.318,0.595-0.594,0.847c-0.276,0.252-0.594,0.456-0.954,0.611c-0.36,0.157-0.732,0.259-1.116,0.307
				c-0.384,0.048-0.732,0.024-1.044-0.072c0.192,1.296,0.768,2.059,1.728,2.286c0.96,0.229,2.172-0.246,3.636-1.422
				c0.167-0.12,0.306-0.168,0.414-0.145c0.108,0.024,0.186,0.078,0.234,0.162c0.048,0.085,0.06,0.192,0.036,0.324
				c-0.024,0.132-0.096,0.258-0.216,0.378c-0.624,0.504-1.254,0.918-1.89,1.242c-0.636,0.324-1.249,0.504-1.836,0.54
				c-0.588,0.036-1.134-0.108-1.638-0.432c-0.504-0.324-0.936-0.906-1.296-1.746c-0.144-0.36-0.234-0.852-0.27-1.477
				c-0.036-0.624,0.018-1.247,0.162-1.872c0.144-0.624,0.372-1.182,0.684-1.674c0.312-0.491,0.744-0.786,1.296-0.882
				c0.383-0.072,0.738,0.018,1.062,0.27C114.854,31.827,115.135,32.05,115.375,32.241z M112.567,33.394
				c-0.096,0.456-0.168,0.912-0.216,1.368c0.12,0.168,0.318,0.265,0.594,0.288c0.275,0.024,0.563,0,0.864-0.072
				c0.3-0.072,0.588-0.174,0.864-0.306s0.462-0.271,0.558-0.414c-0.048-0.312-0.192-0.636-0.432-0.973
				c-0.24-0.335-0.504-0.587-0.792-0.756c-0.288-0.167-0.571-0.203-0.846-0.107C112.885,32.518,112.688,32.842,112.567,33.394z"/>
			<path d="M125.888,32.781c0.047,0.121,0.047,0.252,0,0.396c-0.049,0.144-0.121,0.258-0.216,0.342
				c-0.096,0.084-0.198,0.12-0.306,0.108c-0.108-0.012-0.21-0.091-0.306-0.234c-0.121-0.264-0.336-0.456-0.648-0.576
				c-0.312-0.119-0.679-0.18-1.098-0.18c-0.42,0-0.87,0.042-1.35,0.126c-0.48,0.084-0.93,0.187-1.35,0.306
				c-0.42,0.121-0.786,0.252-1.098,0.396c-0.312,0.144-0.517,0.276-0.612,0.396c0.288,0.408,0.702,0.738,1.242,0.99
				s1.11,0.48,1.71,0.684c0.6,0.205,1.206,0.396,1.818,0.576c0.612,0.181,1.134,0.414,1.566,0.702
				c0.072,0.049,0.114,0.103,0.126,0.162c0.012,0.061,0.03,0.139,0.054,0.234c-0.072,0.647-0.336,1.164-0.792,1.548
				c-0.456,0.384-0.99,0.63-1.602,0.737c-0.612,0.108-1.23,0.084-1.854-0.071c-0.625-0.156-1.128-0.45-1.512-0.882
				c-0.121-0.24-0.108-0.469,0.036-0.685s0.348-0.264,0.612-0.144c0.239,0.24,0.582,0.432,1.026,0.576
				c0.444,0.144,0.888,0.222,1.332,0.233c0.444,0.013,0.84-0.054,1.188-0.198c0.348-0.144,0.545-0.396,0.594-0.756
				c-0.504-0.336-1.056-0.594-1.656-0.773c-0.6-0.181-1.2-0.36-1.8-0.54c-0.601-0.181-1.165-0.408-1.692-0.685
				c-0.528-0.275-0.972-0.689-1.332-1.242c-0.144-0.239-0.12-0.491,0.072-0.756c0.048-0.048,0.144-0.18,0.288-0.396
				s0.288-0.36,0.432-0.433c0.336-0.191,0.858-0.401,1.566-0.63c0.708-0.228,1.44-0.378,2.196-0.449
				c0.756-0.072,1.452-0.036,2.088,0.107C125.245,31.918,125.671,32.254,125.888,32.781z"/>
			<path d="M128.047,32.493c0.192-0.048,0.444-0.06,0.756-0.035c0.312,0.023,0.63,0.071,0.954,0.144s0.63,0.168,0.918,0.288
				s0.504,0.265,0.648,0.432c0.528,0.696,0.75,1.387,0.666,2.07c-0.084,0.684-0.348,1.267-0.792,1.746
				c-0.444,0.48-1.014,0.81-1.71,0.99c-0.696,0.18-1.392,0.102-2.088-0.234c-0.192-0.096-0.378-0.18-0.558-0.252
				s-0.342-0.18-0.486-0.324c-0.24-0.239-0.354-0.63-0.342-1.17s0.108-1.08,0.288-1.62c0.18-0.54,0.426-1.014,0.738-1.422
				C127.351,32.698,127.688,32.493,128.047,32.493z M129.847,33.79c-0.552-0.312-1.044-0.36-1.476-0.145
				c-0.432,0.216-0.78,0.504-1.044,0.864c-0.048,0.048-0.102,0.162-0.162,0.342c-0.061,0.18-0.121,0.372-0.18,0.576
				c-0.06,0.204-0.09,0.408-0.09,0.612s0.06,0.354,0.18,0.449c0.408,0.36,0.828,0.576,1.26,0.648s0.828,0.054,1.188-0.054
				c0.36-0.108,0.666-0.294,0.918-0.559c0.252-0.264,0.414-0.558,0.486-0.882c0.072-0.324,0.024-0.648-0.144-0.972
				C130.615,34.348,130.303,34.054,129.847,33.79z"/>
			<path d="M133.195,31.485c0.048-0.312,0.204-0.516,0.468-0.611c0.264-0.096,0.419,0.048,0.468,0.432
				c0,0.624-0.006,1.236-0.018,1.836c-0.013,0.601-0.031,1.212-0.054,1.836c0.552-0.792,1.026-1.386,1.422-1.782
				c0.396-0.396,0.768-0.581,1.116-0.558c0.348,0.024,0.689,0.27,1.026,0.738c0.336,0.468,0.72,1.146,1.152,2.033
				c0.192-1.512,0.72-2.495,1.584-2.951c0.864-0.456,1.944-0.288,3.24,0.504c0.408,0.264,0.738,0.6,0.99,1.008
				s0.45,0.846,0.594,1.313c0.144,0.469,0.252,0.949,0.324,1.44c0.072,0.492,0.132,0.954,0.18,1.386
				c0.023,0.288-0.096,0.499-0.36,0.63c-0.265,0.133-0.444,0.03-0.54-0.306c-0.048-0.432-0.108-0.857-0.18-1.278
				c-0.072-0.419-0.168-0.821-0.288-1.206c-0.12-0.383-0.288-0.749-0.504-1.098c-0.216-0.348-0.504-0.678-0.864-0.99
				c-0.6-0.527-1.224-0.726-1.872-0.594s-1.08,0.606-1.296,1.422c-0.144,0.553-0.222,1.026-0.234,1.422
				c-0.012,0.396-0.018,0.847-0.018,1.351c-0.072,0.192-0.205,0.359-0.396,0.504c-0.192,0.144-0.36,0.084-0.504-0.181
				c-0.12-0.359-0.246-0.737-0.378-1.134c-0.132-0.396-0.288-0.779-0.468-1.151c-0.18-0.372-0.391-0.726-0.63-1.062
				c-0.24-0.336-0.517-0.612-0.828-0.828c-0.265,0.097-0.504,0.265-0.72,0.504c-0.216,0.24-0.414,0.511-0.594,0.811
				c-0.18,0.3-0.354,0.606-0.522,0.918c-0.168,0.312-0.324,0.576-0.468,0.792c-0.12,0.168-0.264,0.288-0.432,0.359
				c-0.168,0.072-0.312,0-0.432-0.216c-0.121-0.288-0.18-0.671-0.18-1.151s0.012-0.978,0.036-1.494
				c0.023-0.516,0.06-1.014,0.108-1.494C133.171,32.158,133.195,31.773,133.195,31.485z"/>
			<path d="M150.619,32.241c0.408,0.385,0.666,0.751,0.774,1.099c0.108,0.348,0.102,0.678-0.018,0.989
				c-0.12,0.312-0.318,0.595-0.594,0.847c-0.276,0.252-0.594,0.456-0.954,0.611c-0.36,0.157-0.732,0.259-1.116,0.307
				c-0.384,0.048-0.732,0.024-1.044-0.072c0.192,1.296,0.768,2.059,1.728,2.286c0.96,0.229,2.172-0.246,3.636-1.422
				c0.167-0.12,0.306-0.168,0.414-0.145c0.108,0.024,0.186,0.078,0.234,0.162c0.048,0.085,0.06,0.192,0.036,0.324
				c-0.024,0.132-0.096,0.258-0.216,0.378c-0.624,0.504-1.254,0.918-1.89,1.242c-0.636,0.324-1.249,0.504-1.836,0.54
				c-0.588,0.036-1.134-0.108-1.638-0.432c-0.504-0.324-0.936-0.906-1.296-1.746c-0.144-0.36-0.234-0.852-0.27-1.477
				c-0.036-0.624,0.018-1.247,0.162-1.872c0.144-0.624,0.372-1.182,0.684-1.674c0.312-0.491,0.744-0.786,1.296-0.882
				c0.383-0.072,0.738,0.018,1.062,0.27C150.097,31.827,150.378,32.05,150.619,32.241z M147.811,33.394
				c-0.096,0.456-0.168,0.912-0.216,1.368c0.12,0.168,0.318,0.265,0.594,0.288c0.275,0.024,0.563,0,0.864-0.072
				c0.3-0.072,0.588-0.174,0.864-0.306s0.462-0.271,0.558-0.414c-0.048-0.312-0.192-0.636-0.432-0.973
				c-0.24-0.335-0.504-0.587-0.792-0.756c-0.288-0.167-0.571-0.203-0.846-0.107C148.128,32.518,147.931,32.842,147.811,33.394z"/>
			<path d="M157.53,33.25c0.096,0.12,0.144,0.246,0.144,0.378s-0.036,0.246-0.108,0.342c-0.072,0.096-0.168,0.162-0.288,0.198
				c-0.12,0.035-0.252,0.006-0.396-0.091l-0.756-0.684c-0.36,0-0.648,0.126-0.864,0.378c-0.216,0.252-0.378,0.546-0.486,0.882
				c-0.108,0.337-0.156,0.69-0.144,1.062c0.012,0.372,0.078,0.702,0.198,0.99c0.216,0.504,0.552,0.827,1.008,0.972
				c0.456,0.144,0.941,0.18,1.458,0.107c0.516-0.071,1.026-0.222,1.53-0.449c0.504-0.229,0.924-0.486,1.26-0.774
				c0.048-0.191,0.156-0.329,0.324-0.414c0.168-0.084,0.336-0.029,0.504,0.162l0.036,0.072c0.12,0.24,0.06,0.48-0.18,0.72
				c-0.312,0.288-0.661,0.528-1.044,0.72c-0.384,0.192-0.769,0.373-1.152,0.54c-0.36,0.145-0.714,0.259-1.062,0.342
				c-0.348,0.085-0.726,0.139-1.134,0.162c-0.792,0.024-1.38-0.162-1.764-0.558c-0.384-0.396-0.63-0.882-0.738-1.458
				s-0.096-1.182,0.036-1.818c0.131-0.636,0.306-1.182,0.522-1.638c0.072-0.144,0.198-0.3,0.378-0.468
				c0.18-0.168,0.378-0.312,0.594-0.433c0.216-0.119,0.438-0.191,0.666-0.216c0.228-0.023,0.426,0.036,0.594,0.181
				c0.167,0.12,0.318,0.246,0.45,0.378S157.386,33.105,157.53,33.25z"/>
			<path d="M163.686,32.493c0.192-0.048,0.444-0.06,0.756-0.035c0.312,0.023,0.63,0.071,0.954,0.144s0.63,0.168,0.918,0.288
				s0.504,0.265,0.648,0.432c0.528,0.696,0.75,1.387,0.666,2.07c-0.084,0.684-0.348,1.267-0.792,1.746
				c-0.444,0.48-1.014,0.81-1.71,0.99c-0.696,0.18-1.392,0.102-2.088-0.234c-0.192-0.096-0.378-0.18-0.558-0.252
				s-0.342-0.18-0.486-0.324c-0.24-0.239-0.354-0.63-0.342-1.17s0.108-1.08,0.288-1.62c0.18-0.54,0.426-1.014,0.738-1.422
				C162.989,32.698,163.326,32.493,163.686,32.493z M165.485,33.79c-0.552-0.312-1.044-0.36-1.476-0.145
				c-0.432,0.216-0.78,0.504-1.044,0.864c-0.048,0.048-0.102,0.162-0.162,0.342c-0.061,0.18-0.121,0.372-0.18,0.576
				c-0.06,0.204-0.09,0.408-0.09,0.612s0.06,0.354,0.18,0.449c0.408,0.36,0.828,0.576,1.26,0.648s0.828,0.054,1.188-0.054
				c0.36-0.108,0.666-0.294,0.918-0.559c0.252-0.264,0.414-0.558,0.486-0.882c0.072-0.324,0.024-0.648-0.144-0.972
				C166.253,34.348,165.941,34.054,165.485,33.79z"/>
			<path d="M168.546,32.206c0.048-0.312,0.204-0.517,0.468-0.612c0.264-0.096,0.419,0.048,0.468,0.432
				c0.023,0.553,0.083,1.099,0.18,1.639c0.096,0.539,0.204,1.086,0.324,1.638c0.072-0.384,0.252-0.828,0.54-1.332
				s0.635-0.978,1.044-1.422c0.408-0.444,0.852-0.815,1.332-1.116c0.479-0.3,0.948-0.45,1.404-0.45
				c0.144,0.049,0.24,0.156,0.288,0.324v0.072c0.023,0.24-0.06,0.432-0.252,0.575c-0.192,0.145-0.36,0.157-0.504,0.036
				c-1.296,0.648-2.167,1.501-2.61,2.557c-0.444,1.056-0.618,2.268-0.522,3.636c-0.048,0.192-0.168,0.36-0.36,0.504
				c-0.192,0.144-0.373,0.084-0.54-0.18c-0.24-0.96-0.492-1.932-0.756-2.916C168.785,34.605,168.618,33.478,168.546,32.206z"/>
			<path d="M174.773,33.142c0.048-0.312,0.204-0.516,0.468-0.612c0.264-0.096,0.419,0.049,0.468,0.433
				c0.023,0.456,0.072,0.899,0.144,1.332c0.072,0.432,0.156,0.876,0.252,1.332c0.167-1.08,0.48-1.938,0.936-2.574
				c0.456-0.636,0.966-1.038,1.53-1.206s1.153-0.084,1.764,0.252c0.612,0.336,1.158,0.948,1.639,1.836
				c0.383,0.696,0.527,1.41,0.432,2.142c-0.096,0.732-0.354,1.351-0.774,1.854s-0.96,0.84-1.62,1.008s-1.35,0.036-2.07-0.396
				c-0.12-0.24-0.108-0.469,0.036-0.685s0.348-0.264,0.612-0.144c0.336,0.216,0.636,0.348,0.9,0.396
				c0.264,0.049,0.588-0.023,0.972-0.216c0.433-0.216,0.726-0.51,0.882-0.882s0.21-0.768,0.162-1.188
				c-0.049-0.419-0.174-0.833-0.378-1.241s-0.456-0.769-0.756-1.08s-0.624-0.546-0.972-0.702c-0.349-0.156-0.69-0.186-1.026-0.09
				c-0.264,0.071-0.474,0.246-0.63,0.521c-0.157,0.276-0.288,0.589-0.396,0.937s-0.192,0.689-0.252,1.025
				c-0.061,0.337-0.103,0.601-0.126,0.792c-0.144,0.889-0.229,1.782-0.252,2.683c-0.024,0.899-0.024,1.781,0,2.646
				s0.054,1.697,0.09,2.502c0.036,0.804,0.054,1.554,0.054,2.25c-0.072,0.192-0.204,0.36-0.396,0.504
				c-0.192,0.145-0.36,0.084-0.504-0.18c-0.048-0.168-0.078-0.648-0.09-1.44c-0.012-0.792-0.036-1.716-0.072-2.771
				c-0.036-1.057-0.096-2.154-0.18-3.294c-0.084-1.14-0.21-2.143-0.378-3.006c-0.096-0.48-0.192-0.937-0.288-1.368
				C174.857,34.077,174.797,33.622,174.773,33.142z"/>
		</g>
	</g>
	<g>
		<path fill="#333333" d="M303.827,82.875c-0.072-0.679-1.202-0.692-1.254,0c-1.759,23.731-42.178,21.442-62.321,23.18
			c-1.353,0.117-2.405,1.051-2.03,2.264c1.354,4.363,3.145,8.477,5.271,12.473c-5.649-4.705-11.717-9.059-18.701-12.066
			c-0.109-0.049-0.223-0.07-0.329-0.078c-0.044-0.014-0.067-0.041-0.114-0.053c-19.828-4.922-59.881-8.172-52.832-33.716
			c4.154-15.049,31.528-18.668,46.361-20.242c28.542-3.026,70.266,0.673,84.519,25.35c0.124,0.215,0.556,0.062,0.46-0.164
			c-13.439-31.736-65.555-34.107-98.229-27.384c-16.076,3.308-35.652,10.932-36.789,26.801c-0.531,7.398,7.826,15.941,14.279,19.945
			c12.348,7.658,26.793,9.17,41.096,12.9c1.07,0.279,1.87-0.148,2.293-0.785c8.23,7.02,17.045,13.506,25.051,20.756
			c1.627,1.471,4.42-0.42,3.248-2.129c-3.666-5.33-6.906-10.637-9.443-16.438c-2.497-5.719,2.15-4.463,7.375-4.828
			c9.057-0.633,17.916-1.617,26.763-3.424C291.644,102.551,305.231,95.733,303.827,82.875z"/>
		<g enable-background="new    ">
			<path d="M190.335,72.618c1.224,0.192,2.25,0.601,3.078,1.225s1.476,1.38,1.943,2.268c0.469,0.889,0.768,1.866,0.9,2.935
				c0.131,1.067,0.119,2.142-0.036,3.222c-0.157,1.08-0.45,2.124-0.882,3.132s-0.979,1.896-1.639,2.664
				c-0.66,0.769-1.434,1.374-2.322,1.818c-0.888,0.444-1.859,0.63-2.916,0.558c-1.199-0.072-2.189-0.39-2.969-0.954
				c-0.781-0.563-1.381-1.283-1.801-2.16c-0.42-0.876-0.672-1.854-0.756-2.934s-0.03-2.178,0.162-3.294
				c0.191-1.116,0.51-2.202,0.954-3.258c0.444-1.057,0.978-1.98,1.603-2.772c0.623-0.792,1.331-1.416,2.123-1.872
				C188.57,72.739,189.423,72.547,190.335,72.618z M188.679,89.574c1.152-0.048,2.184-0.443,3.096-1.188s1.65-1.668,2.215-2.772
				c0.562-1.104,0.936-2.31,1.115-3.618c0.18-1.308,0.126-2.543-0.162-3.708c-0.287-1.163-0.828-2.165-1.619-3.006
				c-0.793-0.84-1.885-1.368-3.277-1.584c-1.008-0.023-1.926,0.324-2.754,1.044c-0.828,0.721-1.518,1.639-2.069,2.754
				c-0.552,1.116-0.937,2.335-1.152,3.654c-0.216,1.32-0.204,2.574,0.036,3.762c0.24,1.188,0.726,2.215,1.458,3.078
				C186.296,88.854,187.334,89.383,188.679,89.574z"/>
			<path d="M200.126,73.375c0.264-0.096,0.42,0.048,0.469,0.432c0.071,0.432,0.221,0.979,0.449,1.638
				c0.229,0.66,0.492,1.368,0.792,2.124s0.612,1.512,0.937,2.269c0.324,0.756,0.623,1.439,0.899,2.052s0.504,1.104,0.685,1.476
				c0.18,0.373,0.281,0.547,0.306,0.522c0.72-1.416,1.397-2.832,2.034-4.248c0.635-1.416,1.211-2.694,1.728-3.834
				s0.948-2.052,1.296-2.736c0.348-0.684,0.582-1.002,0.702-0.954c0.144,0.049,0.258,0.373,0.343,0.973
				c0.083,0.6,0.161,1.386,0.233,2.357c0.071,0.973,0.132,2.095,0.181,3.366c0.047,1.272,0.107,2.616,0.18,4.032
				s0.155,2.874,0.252,4.374c0.096,1.5,0.216,2.958,0.359,4.374c-0.072,0.191-0.216,0.359-0.432,0.504
				c-0.217,0.144-0.396,0.084-0.54-0.181c-0.265-2.808-0.468-5.663-0.612-8.567c-0.144-2.903-0.275-5.772-0.396-8.604
				c-0.024,0.024-0.162,0.307-0.414,0.847s-0.558,1.218-0.918,2.033c-0.36,0.816-0.751,1.687-1.171,2.61s-0.827,1.782-1.223,2.574
				c-0.396,0.792-0.751,1.452-1.062,1.979c-0.312,0.528-0.528,0.78-0.648,0.757c-0.072,0-0.229-0.21-0.468-0.631
				c-0.24-0.419-0.511-0.947-0.81-1.584c-0.301-0.635-0.619-1.325-0.955-2.069s-0.642-1.446-0.918-2.106
				c-0.275-0.659-0.504-1.218-0.684-1.674s-0.27-0.72-0.27-0.792c-0.121,0.769-0.258,1.65-0.414,2.646
				c-0.156,0.997-0.324,2.011-0.504,3.043c-0.18,1.031-0.354,2.04-0.522,3.023c-0.168,0.984-0.33,1.866-0.485,2.646
				c-0.156,0.779-0.289,1.416-0.396,1.907c-0.107,0.492-0.186,0.738-0.234,0.738c-0.12,0.168-0.287,0.282-0.504,0.342
				c-0.216,0.06-0.384-0.006-0.504-0.197v-0.036c-0.023-0.072-0.035-0.168-0.035-0.288s0.035-0.181,0.107-0.181
				c0.023,0,0.096-0.27,0.216-0.81s0.265-1.26,0.433-2.16c0.167-0.899,0.354-1.92,0.558-3.06s0.396-2.305,0.576-3.492
				c0.18-1.188,0.354-2.352,0.522-3.492c0.167-1.14,0.299-2.165,0.396-3.078v-0.071v-0.181
				C199.706,73.675,199.862,73.471,200.126,73.375z"/>
			<path d="M224.894,81.942c0,0.049-0.006,0.085-0.018,0.108c-0.013,0.023-0.018,0.048-0.018,0.071
				c-0.121,2.041-0.211,3.925-0.271,5.652c-0.06,1.729-0.139,3.061-0.233,3.996v0.18h-0.072c-0.121,0.192-0.276,0.3-0.469,0.324
				c-0.191,0.023-0.324-0.096-0.396-0.36c0.023-0.624,0.042-1.115,0.054-1.476s0.018-0.666,0.018-0.918s-0.006-0.486-0.018-0.702
				s-0.018-0.491-0.018-0.828c-0.432,0.601-0.942,1.093-1.53,1.477c-0.589,0.384-1.218,0.66-1.89,0.828s-1.356,0.222-2.053,0.161
				c-0.695-0.06-1.367-0.233-2.016-0.521c-0.889-0.312-1.62-0.996-2.195-2.052c-0.576-1.056-0.932-2.28-1.062-3.672
				c-0.132-1.392-0.006-2.85,0.378-4.374s1.092-2.935,2.124-4.23c0.408-0.504,0.966-1.056,1.674-1.656
				c0.707-0.6,1.458-1.056,2.25-1.368c0.792-0.312,1.578-0.39,2.357-0.233c0.78,0.156,1.459,0.738,2.035,1.746
				c0.264,0.48,0.407,0.99,0.432,1.53c0.023,0.539,0.084,1.086,0.18,1.638c0.023,0.288-0.096,0.498-0.359,0.63
				c-0.265,0.132-0.445,0.03-0.541-0.306c-0.096-0.48-0.162-0.96-0.197-1.44c-0.036-0.479-0.15-0.936-0.342-1.368
				c-0.36-0.84-0.864-1.313-1.512-1.422c-0.648-0.108-1.314-0.018-1.998,0.271c-0.685,0.287-1.339,0.689-1.963,1.205
				c-0.624,0.517-1.092,0.979-1.404,1.387c-0.48,0.624-0.881,1.338-1.205,2.142c-0.324,0.805-0.559,1.65-0.703,2.538
				c-0.143,0.889-0.197,1.771-0.161,2.646s0.161,1.698,0.378,2.466c0.384,1.32,1.02,2.244,1.908,2.771
				c0.887,0.528,1.836,0.751,2.844,0.666c1.008-0.084,1.962-0.443,2.861-1.08c0.9-0.636,1.543-1.458,1.927-2.466
				c0-0.167,0.012-0.401,0.036-0.702c0.023-0.3,0.041-0.617,0.054-0.954c0.012-0.335,0.03-0.653,0.054-0.953
				s0.049-0.546,0.072-0.738c-0.48-0.12-1.002-0.132-1.566-0.036c-0.563,0.096-1.086,0.168-1.565,0.216
				c-0.169-0.023-0.276-0.084-0.324-0.18s-0.054-0.198-0.019-0.307c0.037-0.107,0.096-0.209,0.181-0.306
				c0.084-0.096,0.174-0.168,0.271-0.216c0.287-0.023,0.6-0.06,0.936-0.108c0.336-0.048,0.678-0.09,1.025-0.126
				s0.685-0.048,1.009-0.036c0.323,0.013,0.617,0.091,0.882,0.234L224.894,81.942z"/>
			<path d="M238.069,84.534c0.047,0.121,0.047,0.252,0,0.396c-0.049,0.144-0.121,0.258-0.217,0.342s-0.197,0.12-0.306,0.108
				s-0.21-0.091-0.306-0.234c-0.121-0.264-0.336-0.456-0.648-0.576c-0.312-0.119-0.678-0.18-1.098-0.18s-0.87,0.042-1.35,0.126
				c-0.48,0.084-0.931,0.187-1.351,0.306c-0.42,0.121-0.786,0.252-1.098,0.396c-0.312,0.144-0.517,0.276-0.612,0.396
				c0.288,0.408,0.702,0.738,1.242,0.99s1.109,0.48,1.71,0.684c0.6,0.205,1.206,0.396,1.817,0.576
				c0.613,0.181,1.135,0.414,1.566,0.702c0.072,0.049,0.113,0.103,0.126,0.162c0.013,0.061,0.03,0.139,0.054,0.234
				c-0.071,0.647-0.336,1.164-0.791,1.548c-0.457,0.384-0.99,0.63-1.603,0.737c-0.612,0.108-1.229,0.084-1.854-0.071
				c-0.624-0.156-1.128-0.45-1.512-0.882c-0.12-0.24-0.107-0.469,0.036-0.685s0.348-0.264,0.612-0.144
				c0.239,0.24,0.582,0.432,1.025,0.576c0.444,0.144,0.889,0.222,1.332,0.233c0.444,0.013,0.84-0.054,1.188-0.198
				c0.348-0.144,0.546-0.396,0.594-0.756c-0.504-0.336-1.056-0.594-1.655-0.773c-0.601-0.181-1.201-0.36-1.801-0.54
				c-0.6-0.181-1.164-0.408-1.691-0.685c-0.528-0.275-0.973-0.689-1.332-1.242c-0.145-0.239-0.121-0.491,0.072-0.756
				c0.047-0.048,0.144-0.18,0.287-0.396c0.145-0.216,0.288-0.36,0.432-0.433c0.336-0.191,0.858-0.401,1.566-0.63
				c0.708-0.228,1.44-0.378,2.196-0.449c0.756-0.072,1.452-0.036,2.088,0.107C237.427,83.671,237.853,84.007,238.069,84.534z"/>
			<path d="M239.437,83.923c0.096-0.12,0.198-0.204,0.307-0.252c0.107-0.048,0.209-0.055,0.305-0.019s0.162,0.103,0.199,0.198
				c0.035,0.096,0.029,0.229-0.019,0.396c-0.265,0.409-0.408,0.883-0.433,1.423c-0.023,0.54,0.061,1.05,0.252,1.529
				c0.192,0.48,0.48,0.882,0.865,1.206c0.383,0.324,0.863,0.486,1.439,0.486c0.552-0.023,1.008-0.18,1.368-0.468
				s0.647-0.643,0.864-1.062c0.216-0.42,0.371-0.852,0.468-1.296c0.096-0.443,0.155-0.821,0.18-1.134v-0.252
				c0-0.072,0.013-0.132,0.036-0.181c0-0.023,0.006-0.041,0.018-0.054c0.012-0.012,0.019-0.029,0.019-0.054
				c0.048-0.048,0.071-0.084,0.071-0.108l0.108-0.107l0.216-0.108c0.168-0.048,0.289,0,0.36,0.145
				c0.048,0.048,0.072,0.107,0.072,0.18c0,0.024,0.005,0.036,0.018,0.036s0.019,0.012,0.019,0.036v0.035
				c0,0.841,0.113,1.776,0.342,2.809c0.228,1.032,0.432,2.094,0.611,3.186c0.181,1.092,0.282,2.202,0.307,3.33
				c0.023,1.128-0.18,2.22-0.612,3.276c-0.168,0.407-0.546,0.743-1.134,1.008c-0.588,0.264-1.213,0.426-1.872,0.486
				c-0.66,0.06-1.284,0.005-1.872-0.162c-0.588-0.168-0.967-0.468-1.134-0.9c-0.048-0.144-0.036-0.282,0.036-0.414
				s0.156-0.229,0.252-0.288s0.197-0.078,0.306-0.054c0.108,0.023,0.198,0.12,0.271,0.288c0.455,0.144,0.936,0.258,1.439,0.342
				s0.979,0.084,1.422,0c0.444-0.084,0.828-0.27,1.152-0.558s0.545-0.72,0.666-1.296c0.119-0.648,0.174-1.32,0.162-2.017
				c-0.013-0.696-0.072-1.398-0.18-2.105c-0.108-0.708-0.234-1.41-0.379-2.106c-0.144-0.695-0.287-1.355-0.432-1.979
				c-0.312,0.744-0.744,1.374-1.296,1.89c-0.552,0.517-1.236,0.738-2.052,0.666c-0.721-0.072-1.332-0.312-1.836-0.72
				s-0.883-0.906-1.135-1.494s-0.365-1.218-0.342-1.89S239.077,84.498,239.437,83.923z"/>
			<path d="M255.528,84.534c0.048,0.121,0.048,0.252,0,0.396c-0.049,0.144-0.12,0.258-0.216,0.342
				c-0.097,0.084-0.198,0.12-0.306,0.108c-0.108-0.012-0.211-0.091-0.307-0.234c-0.12-0.264-0.336-0.456-0.647-0.576
				c-0.312-0.119-0.679-0.18-1.099-0.18s-0.869,0.042-1.35,0.126s-0.93,0.187-1.35,0.306c-0.42,0.121-0.787,0.252-1.098,0.396
				c-0.312,0.144-0.518,0.276-0.613,0.396c0.289,0.408,0.703,0.738,1.242,0.99c0.541,0.252,1.11,0.48,1.711,0.684
				c0.6,0.205,1.205,0.396,1.817,0.576c0.612,0.181,1.134,0.414,1.565,0.702c0.072,0.049,0.114,0.103,0.127,0.162
				c0.012,0.061,0.029,0.139,0.054,0.234c-0.071,0.647-0.337,1.164-0.792,1.548c-0.456,0.384-0.99,0.63-1.602,0.737
				c-0.612,0.108-1.23,0.084-1.854-0.071c-0.624-0.156-1.128-0.45-1.512-0.882c-0.12-0.24-0.108-0.469,0.036-0.685
				c0.144-0.216,0.348-0.264,0.611-0.144c0.24,0.24,0.582,0.432,1.026,0.576c0.444,0.144,0.888,0.222,1.332,0.233
				c0.444,0.013,0.84-0.054,1.188-0.198c0.348-0.144,0.545-0.396,0.594-0.756c-0.504-0.336-1.057-0.594-1.656-0.773
				c-0.6-0.181-1.2-0.36-1.8-0.54c-0.601-0.181-1.165-0.408-1.692-0.685c-0.527-0.275-0.972-0.689-1.332-1.242
				c-0.145-0.239-0.12-0.491,0.072-0.756c0.048-0.048,0.145-0.18,0.288-0.396s0.288-0.36,0.432-0.433
				c0.336-0.191,0.858-0.401,1.566-0.63c0.708-0.228,1.44-0.378,2.196-0.449c0.756-0.072,1.451-0.036,2.088,0.107
				C254.886,83.671,255.312,84.007,255.528,84.534z"/>
			<path d="M254.304,82.446c-0.168-0.023-0.275-0.084-0.324-0.18c-0.047-0.096-0.053-0.198-0.018-0.306
				c0.036-0.108,0.096-0.21,0.18-0.307c0.085-0.096,0.175-0.167,0.271-0.216c0.36,0,0.708-0.012,1.044-0.036
				c0.336-0.023,0.672-0.06,1.008-0.107c-0.049-0.696-0.078-1.435-0.09-2.215c-0.012-0.779-0.03-1.625-0.055-2.537
				c0.049-0.312,0.204-0.517,0.469-0.612c0.264-0.096,0.42,0.048,0.468,0.432c0.024,0.912,0.042,1.765,0.054,2.557
				s0.042,1.548,0.09,2.268c0.625-0.12,1.242-0.246,1.854-0.378s1.229-0.258,1.854-0.378c0.168,0,0.287,0.042,0.359,0.126
				s0.096,0.18,0.072,0.288c-0.024,0.107-0.072,0.216-0.145,0.324c-0.071,0.107-0.156,0.197-0.252,0.27
				c-0.624,0.12-1.236,0.246-1.836,0.378s-1.212,0.246-1.836,0.342c0.072,1.32,0.139,2.635,0.198,3.942
				c0.06,1.309,0.114,2.814,0.162,4.518c-0.071,0.24-0.222,0.414-0.45,0.522c-0.229,0.107-0.391-0.006-0.486-0.342
				c-0.048-1.704-0.102-3.216-0.162-4.536c-0.06-1.319-0.125-2.64-0.197-3.96c-0.384,0.048-0.756,0.084-1.116,0.107
				C255.06,82.435,254.688,82.446,254.304,82.446z"/>
			<path d="M263.735,83.994c0.408,0.385,0.666,0.751,0.773,1.099c0.109,0.348,0.103,0.678-0.018,0.989
				c-0.12,0.312-0.318,0.595-0.594,0.847c-0.276,0.252-0.594,0.456-0.954,0.611c-0.36,0.157-0.732,0.259-1.116,0.307
				s-0.732,0.024-1.044-0.072c0.192,1.296,0.769,2.059,1.728,2.286c0.961,0.229,2.172-0.246,3.637-1.422
				c0.168-0.12,0.307-0.168,0.414-0.145c0.107,0.024,0.186,0.078,0.234,0.162c0.047,0.085,0.059,0.192,0.035,0.324
				s-0.096,0.258-0.216,0.378c-0.624,0.504-1.255,0.918-1.89,1.242c-0.637,0.324-1.248,0.504-1.836,0.54s-1.135-0.108-1.639-0.432
				c-0.504-0.324-0.936-0.906-1.295-1.746c-0.145-0.36-0.234-0.852-0.271-1.477c-0.036-0.624,0.019-1.247,0.162-1.872
				c0.144-0.624,0.372-1.182,0.684-1.674c0.312-0.491,0.743-0.786,1.296-0.882c0.384-0.072,0.738,0.018,1.062,0.27
				S263.495,83.803,263.735,83.994z M260.927,85.146c-0.096,0.456-0.168,0.912-0.215,1.368c0.119,0.168,0.317,0.265,0.594,0.288
				c0.275,0.024,0.563,0,0.863-0.072c0.301-0.072,0.588-0.174,0.864-0.306s0.462-0.271,0.558-0.414
				c-0.048-0.312-0.191-0.636-0.432-0.973c-0.24-0.335-0.504-0.587-0.791-0.756c-0.289-0.167-0.571-0.203-0.847-0.107
				C261.245,84.271,261.048,84.595,260.927,85.146z"/>
			<path d="M267.299,83.238c0.048-0.312,0.204-0.516,0.468-0.611s0.42,0.048,0.469,0.432c0,0.624-0.006,1.236-0.018,1.836
				c-0.014,0.601-0.031,1.212-0.055,1.836c0.552-0.792,1.025-1.386,1.422-1.782c0.396-0.396,0.768-0.581,1.116-0.558
				c0.348,0.024,0.689,0.27,1.026,0.738c0.336,0.468,0.72,1.146,1.151,2.033c0.192-1.512,0.72-2.495,1.584-2.951
				s1.944-0.288,3.24,0.504c0.407,0.264,0.737,0.6,0.989,1.008s0.451,0.846,0.595,1.313c0.144,0.469,0.252,0.949,0.323,1.44
				c0.072,0.492,0.133,0.954,0.181,1.386c0.023,0.288-0.097,0.499-0.36,0.63c-0.264,0.133-0.443,0.03-0.539-0.306
				c-0.049-0.432-0.108-0.857-0.181-1.278c-0.071-0.419-0.168-0.821-0.288-1.206c-0.12-0.383-0.287-0.749-0.504-1.098
				c-0.216-0.348-0.504-0.678-0.863-0.99c-0.601-0.527-1.225-0.726-1.873-0.594c-0.647,0.132-1.08,0.606-1.295,1.422
				c-0.145,0.553-0.223,1.026-0.234,1.422c-0.013,0.396-0.018,0.847-0.018,1.351c-0.072,0.192-0.205,0.359-0.396,0.504
				c-0.192,0.144-0.36,0.084-0.504-0.181c-0.121-0.359-0.246-0.737-0.379-1.134c-0.131-0.396-0.287-0.779-0.467-1.151
				c-0.181-0.372-0.391-0.726-0.631-1.062c-0.24-0.336-0.516-0.612-0.828-0.828c-0.264,0.097-0.504,0.265-0.72,0.504
				c-0.216,0.24-0.414,0.511-0.594,0.811c-0.181,0.3-0.354,0.606-0.522,0.918s-0.324,0.576-0.468,0.792
				c-0.12,0.168-0.265,0.288-0.433,0.359c-0.168,0.072-0.312,0-0.432-0.216c-0.12-0.288-0.18-0.671-0.18-1.151
				s0.012-0.978,0.036-1.494c0.023-0.516,0.06-1.014,0.108-1.494C267.274,83.911,267.299,83.526,267.299,83.238z"/>
			<path d="M288.647,84.534c0.047,0.121,0.047,0.252,0,0.396c-0.049,0.144-0.121,0.258-0.217,0.342s-0.197,0.12-0.307,0.108
				c-0.107-0.012-0.209-0.091-0.305-0.234c-0.121-0.264-0.337-0.456-0.648-0.576c-0.312-0.119-0.679-0.18-1.098-0.18
				c-0.421,0-0.871,0.042-1.351,0.126c-0.48,0.084-0.931,0.187-1.351,0.306c-0.42,0.121-0.785,0.252-1.098,0.396
				c-0.312,0.144-0.516,0.276-0.611,0.396c0.287,0.408,0.701,0.738,1.242,0.99c0.539,0.252,1.109,0.48,1.709,0.684
				c0.6,0.205,1.207,0.396,1.818,0.576c0.612,0.181,1.135,0.414,1.566,0.702c0.072,0.049,0.113,0.103,0.125,0.162
				c0.013,0.061,0.031,0.139,0.055,0.234c-0.072,0.647-0.336,1.164-0.792,1.548s-0.989,0.63-1.603,0.737
				c-0.611,0.108-1.229,0.084-1.854-0.071c-0.625-0.156-1.129-0.45-1.512-0.882c-0.121-0.24-0.108-0.469,0.035-0.685
				c0.145-0.216,0.348-0.264,0.613-0.144c0.238,0.24,0.581,0.432,1.025,0.576c0.443,0.144,0.888,0.222,1.332,0.233
				c0.443,0.013,0.84-0.054,1.188-0.198c0.348-0.144,0.546-0.396,0.594-0.756c-0.504-0.336-1.056-0.594-1.655-0.773
				c-0.601-0.181-1.2-0.36-1.8-0.54c-0.601-0.181-1.164-0.408-1.692-0.685c-0.528-0.275-0.972-0.689-1.332-1.242
				c-0.144-0.239-0.12-0.491,0.072-0.756c0.048-0.048,0.144-0.18,0.288-0.396s0.287-0.36,0.432-0.433
				c0.336-0.191,0.857-0.401,1.566-0.63c0.707-0.228,1.439-0.378,2.195-0.449c0.756-0.072,1.452-0.036,2.088,0.107
				C288.005,83.671,288.431,84.007,288.647,84.534z"/>
		</g>
	</g>
</g>
</svg>
