<?xml version="1.0" encoding="UTF-8" standalone="no"?>
<svg width="70px" height="98px" viewBox="0 0 70 98" version="1.1" xmlns="http://www.w3.org/2000/svg" xmlns:xlink="http://www.w3.org/1999/xlink" xmlns:sketch="http://www.bohemiancoding.com/sketch/ns">
    <!-- Generator: Sketch 3.5.2 (25235) - http://www.bohemiancoding.com/sketch -->
    <title>Shape</title>
    <desc>Created with Sketch.</desc>
    <defs></defs>
    <g id="Page-1" stroke="none" stroke-width="1" fill="none" fill-rule="evenodd" sketch:type="MSPage">
        <path d="M-14,19.4290429 L-14,78.5709571 C-14,81.5645545 -11.7686479,84 -9.02591793,84 L79.0259179,84 C81.7686479,84 84,81.5645545 84,78.5709571 L84,19.4290429 C84,16.4354455 81.7686479,14 79.0259179,14 L-9.02591793,14 C-11.7686479,14 -14,16.4354455 -14,19.4290429 Z M79.0259179,80.5346535 L-9.02591793,80.5346535 C-10.0179827,80.5346535 -10.825054,79.6537624 -10.825054,78.5709571 L-10.825054,19.4290429 C-10.825054,18.3462376 -10.0179827,17.4653465 -9.02591793,17.4653465 L79.0259179,17.4653465 C80.0179827,17.4653465 80.825054,18.3462376 80.825054,19.4290429 L80.825054,78.5709571 C80.825054,79.6537624 80.0179827,80.5346535 79.0259179,80.5346535 Z" id="Shape" fill="#000000" sketch:type="MSShapeGroup" transform="translate(35.000000, 49.000000) rotate(-270.000000) translate(-35.000000, -49.000000) "></path>
    </g>
</svg>