<?xml version="1.0" encoding="UTF-8" standalone="no"?>
<!DOCTYPE svg PUBLIC "-//W3C//DTD SVG 1.1//EN"
 "http://www.w3.org/Graphics/SVG/1.1/DTD/svg11.dtd">
<!-- Generated by graphviz version 2.38.0 (20140413.2041)
 -->
<!-- Title: trie Pages: 1 -->
<svg width="315pt" height="222pt"
 viewBox="0.00 0.00 315.44 222.00" xmlns="http://www.w3.org/2000/svg" xmlns:xlink="http://www.w3.org/1999/xlink">
<g id="graph0" class="graph" transform="scale(1 1) rotate(0) translate(4 218)">
<title>trie</title>
<polygon fill="white" stroke="none" points="-4,4 -4,-218 311.438,-218 311.438,4 -4,4"/>
<!-- b -->
<g id="node1" class="node"><title>b</title>
<ellipse fill="none" stroke="black" cx="62.4379" cy="-124" rx="62.3758" ry="18"/>
<text text-anchor="middle" x="62.4379" y="-119.8" font-family="Times,serif" font-size="14.00">OMG Systems</text>
</g>
<!-- aa -->
<g id="node2" class="node"><title>aa</title>
<polygon fill="none" stroke="black" points="195.547,-53 39.3284,-53 39.3284,-17 195.547,-17 195.547,-53"/>
<text text-anchor="middle" x="117.438" y="-30.8" font-family="Times,serif" font-size="14.00">&quot;Black and white image&quot;</text>
</g>
<!-- ab -->
<g id="node3" class="node"><title>ab</title>
<image xlink:href="cat.png" width="94px" height="70px" preserveAspectRatio="xMinYMin meet" x="213.438" y="-70"/>
<text text-anchor="middle" x="260.438" y="-30.8" font-family="Times,serif" font-size="14.00">ab</text>
</g>
<!-- a -->
<g id="node4" class="node"><title>a</title>
<ellipse fill="none" stroke="black" cx="188.438" cy="-124" rx="45.6169" ry="18"/>
<text text-anchor="middle" x="188.438" y="-119.8" font-family="Times,serif" font-size="14.00">&quot;cat corp&quot;</text>
</g>
<!-- a&#45;&gt;aa -->
<g id="edge3" class="edge"><title>a&#45;&gt;aa</title>
<path fill="none" stroke="black" d="M175.083,-106.636C164.674,-93.8805 150.034,-75.942 138.113,-61.3348"/>
<polygon fill="black" stroke="black" points="140.496,-58.7181 131.461,-53.1835 135.072,-63.144 140.496,-58.7181"/>
</g>
<!-- a&#45;&gt;ab -->
<g id="edge4" class="edge"><title>a&#45;&gt;ab</title>
<path fill="none" stroke="black" d="M201.981,-106.636C208.732,-98.4774 217.239,-88.1984 225.657,-78.027"/>
<polygon fill="black" stroke="black" points="228.367,-80.2421 232.046,-70.3066 222.974,-75.7791 228.367,-80.2421"/>
</g>
<!-- Start -->
<g id="node5" class="node"><title>Start</title>
<ellipse fill="none" stroke="black" cx="125.438" cy="-196" rx="27" ry="18"/>
<text text-anchor="middle" x="125.438" y="-191.8" font-family="Times,serif" font-size="14.00">Start</text>
</g>
<!-- Start&#45;&gt;b -->
<g id="edge1" class="edge"><title>Start&#45;&gt;b</title>
<path fill="none" stroke="black" d="M112.077,-180.155C104.018,-171.2 93.5559,-159.576 84.3158,-149.309"/>
<polygon fill="black" stroke="black" points="86.8392,-146.881 77.548,-141.789 81.6361,-151.563 86.8392,-146.881"/>
</g>
<!-- Start&#45;&gt;a -->
<g id="edge2" class="edge"><title>Start&#45;&gt;a</title>
<path fill="none" stroke="black" d="M138.799,-180.155C146.973,-171.072 157.619,-159.243 166.955,-148.87"/>
<polygon fill="black" stroke="black" points="169.688,-151.065 173.776,-141.29 164.485,-146.382 169.688,-151.065"/>
</g>
</g>
</svg>
