<?xml version="1.0" encoding="UTF-8" standalone="no"?>
<svg width="143px" height="143px" viewBox="0 0 143 143" version="1.1" xmlns="http://www.w3.org/2000/svg" xmlns:xlink="http://www.w3.org/1999/xlink" xmlns:sketch="http://www.bohemiancoding.com/sketch/ns">
    <!-- Generator: Sketch 3.5.2 (25235) - http://www.bohemiancoding.com/sketch -->
    <title>Group 3</title>
    <desc>Created with Sketch.</desc>
    <defs></defs>
    <g id="Page-1" stroke="none" stroke-width="1" fill="none" fill-rule="evenodd" sketch:type="MSPage">
        <g id="Group-3" sketch:type="MSLayerGroup" transform="translate(0.000000, -1.000000)" fill="#000000">
            <path d="M91.8516251,59.9648851 C91.8516251,60.7589387 91.0943471,61.4029886 90.1606938,61.4029886 L51.8337884,61.4029886 C50.9003213,61.4029886 50.1428571,60.7589387 50.1428571,59.9648851 C50.1428571,59.1708315 50.9003213,58.5267817 51.8337884,58.5267817 L90.1606938,58.5267817 C91.0943471,58.5267817 91.8516251,59.1708315 91.8516251,59.9648851 L91.8516251,59.9648851 L91.8516251,59.9648851 Z" id="Shape-path" sketch:type="MSShapeGroup"></path>
            <path d="M91.8516251,23.6954724 C91.8516251,24.489526 91.0943471,25.1335759 90.1606938,25.1335759 L51.8337884,25.1335759 C50.9003213,25.1335759 50.1428571,24.489526 50.1428571,23.6954724 C50.1428571,22.9014189 50.9003213,22.257369 51.8337884,22.257369 L90.1606938,22.257369 C91.0943471,22.257369 91.8516251,22.9014189 91.8516251,23.6954724 L91.8516251,23.6954724 L91.8516251,23.6954724 Z" id="Shape-path-Copy-3" sketch:type="MSShapeGroup"></path>
            <path d="M70.6618911,14.1081161 C70.6618911,14.9021697 70.2893409,15.5462196 69.8300211,15.5462196 L50.9747272,15.5462196 C50.515499,15.5462196 50.1428571,14.9021697 50.1428571,14.1081161 C50.1428571,13.3140625 50.515499,12.6700127 50.9747272,12.6700127 L69.8300211,12.6700127 C70.2893409,12.6700127 70.6618911,13.3140625 70.6618911,14.1081161 L70.6618911,14.1081161 L70.6618911,14.1081161 Z" id="Shape-path-Copy-3" sketch:type="MSShapeGroup"></path>
            <path d="M91.8516251,69.5522414 C91.8516251,70.346295 91.0943471,70.9903449 90.1606938,70.9903449 L51.8337884,70.9903449 C50.9003213,70.9903449 50.1428571,70.346295 50.1428571,69.5522414 C50.1428571,68.7581878 50.9003213,68.114138 51.8337884,68.114138 L90.1606938,68.114138 C91.0943471,68.114138 91.8516251,68.7581878 91.8516251,69.5522414 L91.8516251,69.5522414 L91.8516251,69.5522414 Z" id="Shape-path-Copy" sketch:type="MSShapeGroup"></path>
            <path d="M91.8516251,79.1395977 C91.8516251,79.9336513 91.0943471,80.5777012 90.1606938,80.5777012 L51.8337884,80.5777012 C50.9003213,80.5777012 50.1428571,79.9336513 50.1428571,79.1395977 C50.1428571,78.3455441 50.9003213,77.7014943 51.8337884,77.7014943 L90.1606938,77.7014943 C91.0943471,77.7014943 91.8516251,78.3455441 91.8516251,79.1395977 L91.8516251,79.1395977 L91.8516251,79.1395977 Z" id="Shape-path-Copy-2" sketch:type="MSShapeGroup"></path>
            <g id="Group" transform="translate(51.071429, 31.916270)" sketch:type="MSShapeGroup">
                <path d="M18.2790299,19.8993621 C18.8729908,19.8993621 19.354267,19.4043838 19.354267,18.7938419 L19.354267,12.8977347 C19.354267,12.2068583 19.9009176,11.6448119 20.572869,11.6448119 C21.2448205,11.6448119 21.7914709,12.2068583 21.7914709,12.8977347 L21.7914709,18.7938419 C21.7914709,19.4043838 22.2727471,19.8993621 22.866708,19.8993621 C23.460669,19.8993621 23.941945,19.4043838 23.941945,18.7938419 L23.941945,12.8977347 C23.941945,12.2068583 24.4885956,11.6448119 25.1605472,11.6448119 C25.8324985,11.6448119 26.3791491,12.2068583 26.3791491,12.8977347 L26.3791491,18.7938419 C26.3791491,19.4043838 26.8604251,19.8993621 27.4543862,19.8993621 C28.048347,19.8993621 28.5296233,19.4043838 28.5296233,18.7938419 L28.5296233,12.8977347 C28.5296233,10.9876907 27.0182699,9.43377164 25.1605472,9.43377164 C24.2749818,9.43377164 23.4686974,9.78739067 22.866708,10.3638826 C22.2647186,9.78739067 21.4584342,9.43377164 20.572869,9.43377164 C20.0345336,9.43377164 19.5257314,9.56496002 19.0739885,9.79667705 C18.8772918,9.5742464 18.5944328,9.43377164 18.2790299,9.43377164 C17.685069,9.43377164 17.2037929,9.92874984 17.2037929,10.5392918 L17.2037929,18.7938419 C17.2037929,19.4043838 17.685069,19.8993621 18.2790299,19.8993621 L18.2790299,19.8993621 L18.2790299,19.8993621 Z" id="Shape"></path>
                <path d="M1.07523706,19.8993621 L7.9567542,19.8993621 C8.55071515,19.8993621 9.03199126,19.4043838 9.03199126,18.7938419 C9.03199126,18.1833 8.55071515,17.6883218 7.9567542,17.6883218 L2.15047412,17.6883218 L2.15047412,12.8240333 L5.66291516,12.8240333 C6.2568761,12.8240333 6.73815221,12.3290551 6.73815221,11.7185132 C6.73815221,11.1079713 6.2568761,10.6129931 5.66291516,10.6129931 L2.15047412,10.6129931 L2.15047412,5.74870458 L7.9567542,5.74870458 C8.55071515,5.74870458 9.03199126,5.25372638 9.03199126,4.64318449 C9.03199126,4.03264257 8.55071515,3.53766437 7.9567542,3.53766437 L1.07523706,3.53766437 C0.481276105,3.53766437 0,4.03264257 0,4.64318449 L0,18.7938419 C0,19.4043838 0.481276105,19.8993621 1.07523706,19.8993621 L1.07523706,19.8993621 L1.07523706,19.8993621 Z" id="Shape"></path>
                <path d="M11.3975128,12.8240333 L13.6913518,12.8240333 C14.2853128,12.8240333 14.7665889,12.3290551 14.7665889,11.7185132 C14.7665889,11.1079713 14.2853128,10.6129931 13.6913518,10.6129931 L11.3975128,10.6129931 C10.8035518,10.6129931 10.3222757,11.1079713 10.3222757,11.7185132 C10.3222757,12.3290551 10.8035518,12.8240333 11.3975128,12.8240333 L11.3975128,12.8240333 L11.3975128,12.8240333 Z" id="Shape"></path>
                <path d="M11.3975128,17.5409191 L13.6913518,17.5409191 C14.2853128,17.5409191 14.7665889,17.0459409 14.7665889,16.435399 C14.7665889,15.8248571 14.2853128,15.3298789 13.6913518,15.3298789 L11.3975128,15.3298789 C10.8035518,15.3298789 10.3222757,15.8248571 10.3222757,16.435399 C10.3222757,17.0459409 10.8035518,17.5409191 11.3975128,17.5409191 L11.3975128,17.5409191 L11.3975128,17.5409191 Z" id="Shape"></path>
                <path d="M34.3359032,19.8993621 C35.5514947,19.8993621 36.6919627,19.3467493 37.5474213,18.3433793 C37.9388076,17.88422 37.8942211,17.1858261 37.4477827,16.7834168 C37.0012008,16.38086 36.3217944,16.4268497 35.9304082,16.886009 C35.4891308,17.4033924 34.9229827,17.6884692 34.3359032,17.6884692 C33.0315691,17.6884692 31.9703817,16.3329542 31.9703817,14.6667142 C31.9703817,13.0004743 33.0315691,11.6449593 34.3359032,11.6449593 C34.9229827,11.6449593 35.4891308,11.9300361 35.9304082,12.4474195 C36.3217944,12.9065788 37.0012008,12.9525685 37.4477827,12.5500117 C37.8942211,12.1476024 37.938951,11.4490611 37.5474213,10.9900492 C36.6919627,9.98638429 35.5514947,9.43377164 34.3359032,9.43377164 C31.8457975,9.43377164 29.8199077,11.7811594 29.8199077,14.6665669 C29.8199077,17.5519744 31.8457975,19.8993621 34.3359032,19.8993621 L34.3359032,19.8993621 L34.3359032,19.8993621 Z" id="Shape"></path>
                <path d="M36.6297424,9.28636895 L40.6439606,9.28636895 C41.2379217,9.28636895 41.7191977,8.79139075 41.7191977,8.18084885 C41.7191977,7.57030694 41.2379217,7.07532873 40.6439606,7.07532873 L37.7049793,7.07532873 L37.7049793,6.41201666 C37.7049793,6.0463106 37.9944332,5.74870458 38.3501216,5.74870458 L38.9235814,5.74870458 C40.4650411,5.74870458 41.7191977,4.45922592 41.7191977,2.87435229 C41.7191977,1.28947866 40.4650411,0 38.9235814,0 L37.7766618,0 C36.5513217,0 35.5545053,1.02489085 35.5545053,2.28474156 C35.5545053,2.89528347 36.0357813,3.39026168 36.6297424,3.39026168 C37.2237033,3.39026168 37.7049793,2.89528347 37.7049793,2.28474156 C37.7049793,2.24405843 37.7372364,2.21104024 37.7766618,2.21104024 L38.9235814,2.21104024 C39.2792698,2.21104024 39.5687236,2.50864624 39.5687236,2.87435229 C39.5687236,3.24005835 39.2792698,3.53766437 38.9235814,3.53766437 L38.3501216,3.53766437 C36.8086617,3.53766437 35.5545053,4.82714303 35.5545053,6.41201666 L35.5545053,8.18084885 C35.5545053,8.79139075 36.0357813,9.28636895 36.6297424,9.28636895 L36.6297424,9.28636895 L36.6297424,9.28636895 Z" id="Shape"></path>
            </g>
            <g id="Group-2" transform="translate(0.000000, 102.000000)" sketch:type="MSShapeGroup">
                <path d="M0.120168067,2.35119617 C-6.00840319e-07,2.15023823 -0.0300423172,1.92918781 0.0300420168,1.68803828 C0.0901263508,1.44688875 0.200279311,1.24593382 0.360504202,1.08516746 C0.520729092,0.92440111 0.700979391,0.833971392 0.901260504,0.813875598 C1.10154162,0.793779804 1.26176411,0.904305014 1.38193277,1.14545455 C1.54215766,1.42679567 1.86260264,2.23061538 2.34327731,3.5569378 C2.82395198,4.88326022 3.38473069,6.45070866 4.02563025,8.25933014 C4.66652982,10.0679516 5.34747539,11.9971189 6.06848739,14.04689 C6.7894994,16.096661 7.47044497,18.0057328 8.11134454,19.7741627 C8.7522441,21.5425926 9.292995,23.029659 9.73361345,24.2354067 C10.1742319,25.4411544 10.4546212,26.1244011 10.5747899,26.2851675 C10.6949586,26.2449759 10.9252784,25.9535912 11.2657563,25.4110048 C11.6062342,24.8684183 11.9967765,24.1650761 12.437395,23.3009569 C12.8780134,22.4368378 13.3386531,21.4923496 13.8193277,20.4674641 C14.3000024,19.4425786 14.7606421,18.4177085 15.2012605,17.392823 C15.641879,16.3679375 16.0324213,15.4134016 16.3728992,14.5291866 C16.7133771,13.6449717 16.9637247,12.9416294 17.1239496,12.4191388 C17.3242307,11.9770313 17.614634,11.7258376 17.9951681,11.6655502 C18.3757022,11.6052629 18.606022,11.8564565 18.6861345,12.4191388 C18.6460782,12.7004799 18.7261895,13.1626762 18.9264706,13.8057416 C19.1267517,14.448807 19.3971271,15.202388 19.737605,16.0665072 C20.0780829,16.9306263 20.4786392,17.8449713 20.9392857,18.8095694 C21.3999323,19.7741675 21.8605719,20.6985602 22.3212185,21.5827751 C22.781865,22.4669901 23.2324908,23.2708098 23.6731092,23.9942584 C24.1137277,24.717707 24.4942561,25.2602853 24.8147059,25.6220096 C24.8547621,25.6220096 25.0350124,25.0191448 25.3554622,23.8133971 C25.675912,22.6076495 26.0464265,21.1004875 26.4670168,19.291866 C26.8876071,17.4832445 27.3382329,15.5138862 27.8189076,13.3837321 C28.2995822,11.2535779 28.750208,9.28421957 29.1707983,7.47559809 C29.5913887,5.6669766 29.9318614,4.15981464 30.1922269,2.95406699 L30.5827731,1.14545455 C30.6228293,1.10526296 30.6328432,1.07511972 30.6128151,1.05502392 C30.592787,1.03492813 30.6028009,0.984689397 30.6428571,0.90430622 C30.803082,0.582773512 31.0434158,0.341627598 31.3638655,0.180861244 C31.6843153,0.02009489 31.9446769,0.180858833 32.144958,0.663157895 L32.144958,0.783732057 L32.205042,0.783732057 C32.205042,0.823923646 32.1950281,0.844019139 32.175,0.844019139 C32.1549719,0.844019139 32.144958,0.864114632 32.144958,0.90430622 C32.144958,0.944497809 32.1549719,0.964593301 32.175,0.964593301 C32.1950281,0.964593301 32.205042,0.984688794 32.205042,1.02488038 C32.205042,1.34641309 32.1449586,1.587559 32.0247899,1.74832536 C32.0247899,1.86890012 31.9446787,2.35119195 31.7844538,3.19521531 C31.6242289,4.03923867 31.4139369,5.10429979 31.1535714,6.39043062 C30.893206,7.67656145 30.5827749,9.12343694 30.2222689,10.7311005 C29.8617629,12.338764 29.4812345,13.9765467 29.0806723,15.6444976 C28.68011,17.3124485 28.2895677,18.9401834 27.9090336,20.5277512 C27.5284995,22.1153189 27.1679989,23.5119557 26.827521,24.7177033 C26.4870431,25.923451 26.1966399,26.8880347 25.9563025,27.6114833 C25.7159652,28.3349318 25.5357149,28.6765552 25.4155462,28.6363636 C25.014984,28.6363636 24.6745112,28.5358862 24.3941176,28.3349282 C23.913443,27.8124376 23.3626782,27.0588566 22.7418067,26.0741627 C22.1209353,25.0894688 21.4900592,24.0043121 20.8491597,22.8186603 C20.2082601,21.6330084 19.6074258,20.4272789 19.0466387,19.2014354 C18.4858515,17.975592 18.0252119,16.8401966 17.6647059,15.7952153 C17.6246497,15.8354069 17.4544133,16.1669825 17.1539916,16.7899522 C16.8535699,17.4129218 16.4930693,18.1765505 16.072479,19.0808612 C15.6518887,19.985172 15.1812351,20.9598034 14.6605042,22.0047847 C14.1397733,23.049766 13.6691198,24.0243974 13.2485294,24.9287081 C12.8279391,25.8330189 12.4774524,26.5865999 12.1970588,27.1894737 C11.9166653,27.7923475 11.7764706,28.0937799 11.7764706,28.0937799 C11.5761895,28.6564621 11.2557445,28.9277513 10.8151261,28.9076555 C10.3745076,28.8875597 9.99397919,28.5559841 9.67352941,27.9129187 C9.4732483,27.7119607 9.09271989,26.9382842 8.53193277,25.591866 C7.97114566,24.2454478 7.35028352,22.6378084 6.66932773,20.7688995 C5.98837195,18.8999907 5.27738466,16.9004891 4.53634454,14.7703349 C3.79530442,12.6401807 3.10434494,10.6708224 2.46344538,8.86220096 C1.82254582,7.05357947 1.28179492,5.53636977 0.841176471,4.31052632 C0.400558021,3.08468287 0.16022429,2.43157935 0.120168067,2.35119617 L0.120168067,2.35119617 Z M33.5869748,2.29090909 C33.6670872,1.76841844 33.9274488,1.42679506 34.3680672,1.26602871 C34.8086857,1.10526235 35.0690472,1.34640827 35.1491597,1.98947368 C35.2292721,2.71292228 35.2793416,3.61721945 35.2993697,4.70239234 C35.3193979,5.78756523 35.3694674,7.22439297 35.4495798,9.01291866 C35.5296923,10.8014443 35.6799009,13.0219963 35.9002101,15.6746411 C36.1205193,18.327286 36.471006,21.6028513 36.9516807,25.5014354 C37.8329176,23.5320476 38.9044055,22.0449811 40.1661765,21.0401914 C41.4279475,20.0354017 42.6296161,19.5732053 43.7712185,19.6535885 C44.9128208,19.7339717 45.9041975,20.356932 46.7453782,21.522488 C47.5865588,22.6880441 48.0271707,24.4564475 48.0672269,26.8277512 L48.0672269,27.1291866 C47.9470582,27.5311025 47.7067245,27.8124394 47.3462185,27.9732057 C46.9857125,28.1339721 46.7053231,27.9732082 46.505042,27.4909091 L46.505042,27.1291866 C46.4649858,26.1243969 46.3147772,25.1397177 46.0544118,24.1751196 C45.7940463,23.2105215 45.403504,22.4569405 44.8827731,21.9143541 C44.3620422,21.3717676 43.6911105,21.1507172 42.869958,21.2511962 C42.0488054,21.3516751 41.0774566,21.9645877 39.9558824,23.0899522 C39.2348703,23.8535923 38.7241612,24.7176985 38.4237395,25.6822967 C38.1233178,26.6468948 37.7728311,27.5913829 37.3722689,28.5157895 C37.212044,28.7971306 36.9917381,28.9980855 36.7113445,29.1186603 C36.430951,29.2392351 36.1906172,29.1186621 35.9903361,28.7569378 C35.7099426,27.1492743 35.449581,25.3909186 35.2092437,23.4818182 C34.9689064,21.5727177 34.7586143,19.6535982 34.5783613,17.7244019 C34.3981083,15.7952057 34.2378859,13.9162771 34.0976891,12.0875598 C33.9574923,10.2588425 33.8473393,8.63110761 33.7672269,7.20430622 C33.6871144,5.77750483 33.627031,4.62201399 33.5869748,3.73779904 C33.5469186,2.8535841 33.5469186,2.37129227 33.5869748,2.29090909 L33.5869748,2.29090909 Z M51.4920168,19.1712919 C51.5721293,18.6488012 51.8324908,18.3071778 52.2731092,18.1464115 C52.7137277,17.9856451 52.9740892,18.226791 53.0542017,18.8698565 C53.0141455,20.5177116 52.9039925,22.1353988 52.7237395,23.7229665 C52.5434865,25.3105343 52.4333335,26.9282214 52.3932773,28.5760766 C52.2731086,28.9779924 52.022761,29.2693771 51.6422269,29.4502392 C51.2616928,29.6311014 50.9913173,29.4401942 50.8310924,28.877512 C50.8711487,27.2296568 50.9813016,25.6019219 51.1615546,23.9942584 C51.3418076,22.3865948 51.4519606,20.7789554 51.4920168,19.1712919 L51.4920168,19.1712919 Z M53.655042,12.0574163 C53.3746485,12.0976079 53.1643564,12.0574169 53.0241597,11.9368421 C52.8839629,11.8162673 52.8138655,11.6655511 52.8138655,11.484689 C52.8138655,11.3038268 52.8639351,11.1229674 52.9640756,10.9421053 C53.0642162,10.7612431 53.2144248,10.6105269 53.4147059,10.4899522 C53.614987,10.0478447 53.9053903,9.79665102 54.2859244,9.73636364 C54.6664585,9.67607625 54.8967783,9.92726991 54.9768908,10.4899522 C54.8967783,10.8516764 54.7565836,11.1732043 54.5563025,11.4545455 C54.3560214,11.7358866 54.0556042,11.9368415 53.655042,12.0574163 L53.655042,12.0574163 Z M55.6978992,15.2526316 C55.4175056,15.21244 55.2372553,15.1119625 55.1571429,14.9511962 C55.0770304,14.7904298 55.0670165,14.6196181 55.1271008,14.438756 C55.1871852,14.2578938 55.2873242,14.0870821 55.427521,13.9263158 C55.5677178,13.7655494 55.7179264,13.6449765 55.8781513,13.5645933 C56.4789946,13.5645933 57.0598011,13.5444978 57.6205882,13.5043062 C58.1813754,13.4641146 58.7421541,13.4038282 59.3029412,13.323445 C59.2228287,12.1578889 59.1727592,10.9220161 59.1527311,9.61578947 C59.132703,8.30956285 59.1026613,6.8928306 59.062605,5.36555024 C59.1427175,4.84305959 59.403079,4.50143621 59.8436975,4.34066986 C60.2843159,4.1799035 60.5446775,4.42104942 60.6247899,5.06411483 C60.6648461,6.5913952 60.6948879,8.01817519 60.714916,9.34449761 C60.7349441,10.67082 60.7850136,11.9368361 60.8651261,13.1425837 C61.9065878,12.9416258 62.9380201,12.7306231 63.9594538,12.5095694 C64.9808875,12.2885156 66.0123197,12.077513 67.0537815,11.876555 C67.3341751,11.876555 67.5344532,11.9468892 67.6546218,12.0875598 C67.7747905,12.2282304 67.8148461,12.3889943 67.7747899,12.5698565 C67.7347337,12.7507186 67.6546224,12.931578 67.5344538,13.1124402 C67.4142851,13.2933023 67.2740904,13.4440185 67.1138655,13.5645933 C66.0724038,13.7655512 65.0509854,13.9765539 64.0495798,14.1976077 C63.0481743,14.4186614 62.0267559,14.6095686 60.9852941,14.7703349 C61.1054628,16.9808723 61.2156157,19.1813288 61.3157563,21.3717703 C61.4158969,23.5622119 61.506022,26.0841963 61.5861345,28.937799 C61.4659658,29.3397149 61.2156181,29.6310996 60.835084,29.8119617 C60.4545499,29.9928239 60.1841745,29.8019167 60.0239496,29.2392344 C59.9438371,26.3856317 59.853712,23.8535996 59.7535714,21.6430622 C59.6534309,19.4325248 59.5432779,17.2220206 59.4231092,15.0114833 C58.7822097,15.0918664 58.1613475,15.1521529 57.5605042,15.1923445 C56.9596609,15.2325361 56.3387987,15.2526316 55.6978992,15.2526316 L55.6978992,15.2526316 Z M71.439916,17.8449761 C72.1208718,18.4880415 72.5514697,19.100954 72.7317227,19.6837321 C72.9119757,20.2665101 72.9019618,20.8191361 72.7016807,21.3416268 C72.5013996,21.8641174 72.1709407,22.3363615 71.7102941,22.7583732 C71.2496476,23.1803849 70.7189106,23.5220083 70.1180672,23.7832536 C69.5172239,24.0444989 68.8963617,24.2153106 68.2554622,24.2956938 C67.6145626,24.376077 67.0337561,24.335886 66.5130252,24.1751196 C66.833475,26.3454654 67.7948099,27.6215292 69.3970588,28.0033493 C70.9993077,28.3851694 73.0221166,27.5913974 75.4655462,25.6220096 C75.7459398,25.4210516 75.9762596,25.3406697 76.1565126,25.3808612 C76.3367656,25.4210528 76.4669464,25.5114826 76.5470588,25.6521531 C76.6271713,25.7928237 76.6471991,25.9736831 76.6071429,26.1947368 C76.5670866,26.4157906 76.4469198,26.6267933 76.2466387,26.8277512 C75.2051769,27.6717746 74.1537168,28.3650691 73.0922269,28.9076555 C72.030737,29.4502419 71.0093186,29.7516743 70.0279412,29.8119617 C69.0465637,29.8722491 68.1352983,29.6311032 67.2941176,29.0885167 C66.452937,28.5459303 65.7319358,27.5712989 65.1310924,26.1645933 C64.8907551,25.5617195 64.7405465,24.7378043 64.6804622,23.692823 C64.6203779,22.6478417 64.710503,21.602876 64.9508403,20.5578947 C65.1911777,19.5129134 65.5717061,18.578473 66.092437,17.7545455 C66.6131679,16.9306179 67.3341691,16.4382783 68.2554622,16.277512 C68.8963617,16.1569372 69.4871822,16.3076534 70.0279412,16.7296651 C70.5687002,17.1516768 71.0393537,17.5234434 71.439916,17.8449761 L71.439916,17.8449761 Z M66.7533613,19.7741627 C66.5931365,20.5378029 66.4729696,21.3014316 66.3928571,22.0650718 C66.5931383,22.3464129 66.9235971,22.5071768 67.3842437,22.5473684 C67.8448903,22.58756 68.3255577,22.547369 68.8262605,22.4267943 C69.3269633,22.3062195 69.8076308,22.1354078 70.2682773,21.9143541 C70.7289239,21.6933003 71.0393549,21.4622022 71.1995798,21.2210526 C71.1194674,20.698562 70.8791337,20.1559837 70.4785714,19.5933014 C70.0780092,19.0306192 69.6373974,18.6086138 69.1567227,18.3272727 C68.676048,18.0459316 68.2053945,17.9856451 67.7447479,18.1464115 C67.2841013,18.3071778 66.9536425,18.8497561 66.7533613,19.7741627 L66.7533613,19.7741627 Z M76.1865546,19.3521531 C76.2666671,18.8296625 76.5270286,18.4880391 76.9676471,18.3272727 C77.4082655,18.1665064 77.6686271,18.4076523 77.7487395,19.0507177 C77.7887957,19.8143579 77.868907,20.5578911 77.9890756,21.2813397 C78.1092443,22.0047883 78.249439,22.7483215 78.4096639,23.5119617 C78.6900574,21.7033402 79.2107805,20.2665125 79.9718487,19.2014354 C80.732917,18.1363583 81.5840989,17.4631593 82.5254202,17.1818182 C83.4667414,16.9004771 84.4481041,17.0411455 85.4695378,17.6038278 C86.4909715,18.16651 87.4022369,19.1913801 88.2033613,20.6784689 C88.8442609,21.844025 89.0845946,23.0397068 88.9243697,24.2655502 C88.7641449,25.4913937 88.3335469,26.5263116 87.632563,27.3703349 C86.9315791,28.2143583 86.0303276,28.7770321 84.9287815,29.0583732 C83.8272354,29.3397143 82.6756363,29.1186639 81.4739496,28.3952153 C81.2736685,27.9932994 81.2936963,27.6114851 81.5340336,27.2497608 C81.7743709,26.8880365 82.1148437,26.8076545 82.5554622,27.0086124 C83.1162493,27.3703367 83.6169446,27.5913872 84.057563,27.6717703 C84.4981815,27.7521535 85.0389324,27.6315806 85.6798319,27.3100478 C86.4008439,26.9483236 86.8915253,26.455984 87.1518908,25.8330144 C87.4122562,25.2100447 87.5023814,24.5468935 87.4222689,23.8435407 C87.3421565,23.1401879 87.1318644,22.4468934 86.7913866,21.7636364 C86.4509087,21.0803794 86.0303246,20.4775146 85.5296218,19.9550239 C85.0289191,19.4325333 84.4881682,19.0406712 83.9073529,18.7794258 C83.3265377,18.5181805 82.7557451,18.4679418 82.194958,18.6287081 C81.7543395,18.7492829 81.4038528,19.0406675 81.1434874,19.5028708 C80.8831219,19.9650741 80.662816,20.4875569 80.482563,21.0703349 C80.30231,21.653113 80.1621153,22.2258345 80.0619748,22.7885167 C79.9618342,23.351199 79.8917369,23.7932998 79.8516807,24.1148325 C79.6113433,25.6019213 79.4711487,27.0990355 79.4310924,28.6062201 C79.3910362,30.1134047 79.3910362,31.5904234 79.4310924,33.0373206 C79.4711487,34.4842178 79.5212182,35.8808545 79.5813025,37.2272727 C79.6413869,38.5736909 79.6714286,39.8296592 79.6714286,40.9952153 C79.5512599,41.316748 79.330954,41.5980849 79.0105042,41.8392344 C78.6900544,42.080384 78.4096651,41.9799065 78.1693277,41.537799 C78.0892153,41.2564579 78.0391458,40.4526382 78.0191176,39.1263158 C77.9990895,37.7999934 77.9590339,36.2526404 77.8989496,34.4842105 C77.8388652,32.7157806 77.7387262,30.877043 77.5985294,28.9679426 C77.4583326,27.0588421 77.2480406,25.3808685 76.9676471,23.9339713 C76.8074222,23.1301395 76.6471997,22.3665108 76.4869748,21.6430622 C76.3267499,20.9196136 76.2266108,20.1559849 76.1865546,19.3521531 L76.1865546,19.3521531 Z M93.9714286,19.7741627 C93.8112037,19.8545459 93.5308143,20.0354053 93.1302521,20.3167464 C92.7296899,20.5980875 92.3892171,20.8593289 92.1088235,21.1004785 C92.0287111,21.4220112 91.8684886,21.6732048 91.6281513,21.854067 C91.3878139,22.0349291 91.1074246,22.0047859 90.7869748,21.7636364 C90.7068623,21.6832532 90.6668067,21.6430622 90.6668067,21.6430622 C90.4665256,21.2411463 90.526609,20.819141 90.8470588,20.3770335 C91.1675086,20.0153092 91.548037,19.6837336 91.9886555,19.3822967 C92.4292739,19.0808597 92.8298301,18.7894751 93.1903361,18.508134 C95.1130348,17.1014284 96.8354266,16.5287068 98.357563,16.7899522 C99.8796995,17.0511975 101.141452,17.8047785 102.142857,19.0507177 C103.144263,20.2966569 103.845236,21.8540576 104.245798,23.7229665 C104.646361,25.5918754 104.666388,27.430613 104.305882,29.2392344 C104.22577,29.5607672 104.055534,29.8220086 103.795168,30.0229665 C103.534803,30.2239244 103.244399,30.203829 102.92395,29.9626794 C102.6035,29.4803804 102.32311,28.977993 102.082773,28.4555024 C101.842436,27.9330117 101.582074,27.4306244 101.301681,26.9483254 C101.021287,26.4660263 100.690828,26.0138777 100.310294,25.591866 C99.92976,25.1698543 99.4390786,24.8382787 98.8382353,24.5971292 C98.597898,24.4765544 98.2373974,24.3660292 97.7567227,24.2655502 C97.276048,24.1650713 96.8354362,24.175119 96.4348739,24.2956938 C96.2746491,24.376077 96.0042736,24.5167454 95.6237395,24.7177033 C95.2432054,24.9186613 94.8526631,25.1598072 94.4521008,25.4411483 C94.0515386,25.7224894 93.7010519,26.0038263 93.4006303,26.2851675 C93.1002086,26.5665086 92.9900556,26.8076545 93.0701681,27.0086124 C93.5508427,27.2899536 94.0315102,27.4406698 94.5121849,27.4607656 C94.9928595,27.4808613 95.4635131,27.4406704 95.9241597,27.3401914 C96.3848062,27.2397124 96.8554598,27.1191395 97.3361345,26.9784689 C97.8168091,26.8377983 98.2974766,26.7272731 98.7781513,26.64689 C99.0585448,26.64689 99.2588229,26.7272719 99.3789916,26.8880383 C99.4991603,27.0488046 99.5392159,27.2296641 99.4991597,27.430622 C99.4591034,27.63158 99.3589644,27.8224871 99.1987395,28.0033493 C99.0385146,28.1842114 98.8382365,28.2947366 98.5978992,28.3349282 C98.4777305,28.3349282 98.1572855,28.4153102 97.6365546,28.5760766 C97.1158237,28.7368429 96.454906,28.8976069 95.6537815,29.0583732 C94.1717013,29.3397143 93.1202412,29.3095711 92.4993697,28.9679426 C91.8784983,28.6263141 91.5780811,28.1339745 91.5981092,27.4909091 C91.6181374,26.8478437 91.8985267,26.1445014 92.4392857,25.3808612 C92.9800447,24.6172211 93.6509764,23.9641175 94.4521008,23.4215311 C95.2532253,22.8789447 96.134449,22.5373213 97.0957983,22.3966507 C98.0571477,22.2559802 98.9583992,22.4669828 99.7995798,23.0296651 C100.680817,23.6325389 101.331721,24.2454514 101.752311,24.8684211 C102.172901,25.4913907 102.583471,26.1444942 102.984034,26.8277512 C102.984034,25.4612372 102.773742,24.1349347 102.353151,22.8488038 C101.932561,21.562673 101.331727,20.5177074 100.55063,19.7138756 C99.7695339,18.9100438 98.8182129,18.467943 97.6966387,18.3875598 C96.5750644,18.3071766 95.3333401,18.769373 93.9714286,19.7741627 L93.9714286,19.7741627 Z M106.108403,19.3521531 C106.188516,18.8296625 106.448877,18.4880391 106.889496,18.3272727 C107.330114,18.1665064 107.590476,18.4076523 107.670588,19.0507177 C107.710644,19.8143579 107.790756,20.5578911 107.910924,21.2813397 C108.031093,22.0047883 108.171288,22.7483215 108.331513,23.5119617 C108.611906,21.7033402 109.132629,20.2665125 109.893697,19.2014354 C110.654766,18.1363583 111.505948,17.4631593 112.447269,17.1818182 C113.38859,16.9004771 114.369953,17.0411455 115.391387,17.6038278 C116.41282,18.16651 117.324086,19.1913801 118.12521,20.6784689 C118.76611,21.844025 119.006443,23.0397068 118.846218,24.2655502 C118.685994,25.4913937 118.255396,26.5263116 117.554412,27.3703349 C116.853428,28.2143583 115.952176,28.7770321 114.85063,29.0583732 C113.749084,29.3397143 112.597485,29.1186639 111.395798,28.3952153 C111.195517,27.9932994 111.215545,27.6114851 111.455882,27.2497608 C111.69622,26.8880365 112.036692,26.8076545 112.477311,27.0086124 C113.038098,27.3703367 113.538793,27.5913872 113.979412,27.6717703 C114.42003,27.7521535 114.960781,27.6315806 115.601681,27.3100478 C116.322693,26.9483236 116.813374,26.455984 117.073739,25.8330144 C117.334105,25.2100447 117.42423,24.5468935 117.344118,23.8435407 C117.264005,23.1401879 117.053713,22.4468934 116.713235,21.7636364 C116.372757,21.0803794 115.952173,20.4775146 115.451471,19.9550239 C114.950768,19.4325333 114.410017,19.0406712 113.829202,18.7794258 C113.248386,18.5181805 112.677594,18.4679418 112.116807,18.6287081 C111.676188,18.7492829 111.325702,19.0406675 111.065336,19.5028708 C110.804971,19.9650741 110.584665,20.4875569 110.404412,21.0703349 C110.224159,21.653113 110.083964,22.2258345 109.983824,22.7885167 C109.883683,23.351199 109.813586,23.7932998 109.773529,24.1148325 C109.533192,25.6019213 109.392997,27.0990355 109.352941,28.6062201 C109.312885,30.1134047 109.312885,31.5904234 109.352941,33.0373206 C109.392997,34.4842178 109.443067,35.8808545 109.503151,37.2272727 C109.563236,38.5736909 109.593277,39.8296592 109.593277,40.9952153 C109.473109,41.316748 109.252803,41.5980849 108.932353,41.8392344 C108.611903,42.080384 108.331514,41.9799065 108.091176,41.537799 C108.011064,41.2564579 107.960994,40.4526382 107.940966,39.1263158 C107.920938,37.7999934 107.880883,36.2526404 107.820798,34.4842105 C107.760714,32.7157806 107.660575,30.877043 107.520378,28.9679426 C107.380181,27.0588421 107.169889,25.3808685 106.889496,23.9339713 C106.729271,23.1301395 106.569048,22.3665108 106.408824,21.6430622 C106.248599,20.9196136 106.14846,20.1559849 106.108403,19.3521531 L106.108403,19.3521531 Z M127.017647,17.8449761 C127.698603,18.4880415 128.129201,19.100954 128.309454,19.6837321 C128.489707,20.2665101 128.479693,20.8191361 128.279412,21.3416268 C128.079131,21.8641174 127.748672,22.3363615 127.288025,22.7583732 C126.827379,23.1803849 126.296642,23.5220083 125.695798,23.7832536 C125.094955,24.0444989 124.474093,24.2153106 123.833193,24.2956938 C123.192294,24.376077 122.611487,24.335886 122.090756,24.1751196 C122.411206,26.3454654 123.372541,27.6215292 124.97479,28.0033493 C126.577039,28.3851694 128.599848,27.5913974 131.043277,25.6220096 C131.323671,25.4210516 131.553991,25.3406697 131.734244,25.3808612 C131.914497,25.4210528 132.044677,25.5114826 132.12479,25.6521531 C132.204902,25.7928237 132.22493,25.9736831 132.184874,26.1947368 C132.144818,26.4157906 132.024651,26.6267933 131.82437,26.8277512 C130.782908,27.6717746 129.731448,28.3650691 128.669958,28.9076555 C127.608468,29.4502419 126.58705,29.7516743 125.605672,29.8119617 C124.624295,29.8722491 123.713029,29.6311032 122.871849,29.0885167 C122.030668,28.5459303 121.309667,27.5712989 120.708824,26.1645933 C120.468486,25.5617195 120.318278,24.7378043 120.258193,23.692823 C120.198109,22.6478417 120.288234,21.602876 120.528571,20.5578947 C120.768909,19.5129134 121.149437,18.578473 121.670168,17.7545455 C122.190899,16.9306179 122.9119,16.4382783 123.833193,16.277512 C124.474093,16.1569372 125.064913,16.3076534 125.605672,16.7296651 C126.146431,17.1516768 126.617085,17.5234434 127.017647,17.8449761 L127.017647,17.8449761 Z M122.331092,19.7741627 C122.170868,20.5378029 122.050701,21.3014316 121.970588,22.0650718 C122.170869,22.3464129 122.501328,22.5071768 122.961975,22.5473684 C123.422621,22.58756 123.903289,22.547369 124.403992,22.4267943 C124.904694,22.3062195 125.385362,22.1354078 125.846008,21.9143541 C126.306655,21.6933003 126.617086,21.4622022 126.777311,21.2210526 C126.697198,20.698562 126.456865,20.1559837 126.056303,19.5933014 C125.65574,19.0306192 125.215128,18.6086138 124.734454,18.3272727 C124.253779,18.0459316 123.783126,17.9856451 123.322479,18.1464115 C122.861832,18.3071778 122.531374,18.8497561 122.331092,19.7741627 L122.331092,19.7741627 Z M132.72563,18.3875598 C132.805743,17.8650692 133.066104,17.5234458 133.506723,17.3626794 C133.947341,17.2019131 134.207703,17.443059 134.287815,18.0861244 C134.327871,19.0105309 134.42801,19.9248759 134.588235,20.8291866 C134.74846,21.7334973 134.92871,22.6478423 135.128992,23.5722488 C135.24916,22.9291834 135.549577,22.1856502 136.030252,21.3416268 C136.510927,20.4976034 137.091733,19.7038315 137.772689,18.9602871 C138.453645,18.2167427 139.194674,17.5937824 139.995798,17.0913876 C140.796923,16.5889927 141.578007,16.337799 142.339076,16.337799 C142.579413,16.4181822 142.739635,16.5990417 142.819748,16.8803828 L142.819748,17.0009569 C142.859804,17.4028728 142.719609,17.7244007 142.39916,17.9655502 C142.07871,18.2066998 141.798321,18.2267953 141.557983,18.0258373 C139.394947,19.1110102 137.942931,20.5377902 137.201891,22.3062201 C136.460851,24.07465 136.170447,26.1042948 136.330672,28.3952153 C136.25056,28.716748 136.050282,28.9980849 135.729832,29.2392344 C135.409382,29.480384 135.108965,29.3799065 134.828571,28.937799 C134.428009,27.3301355 134.007425,25.7024006 133.566807,24.0545455 C133.126188,22.4066903 132.845799,20.517714 132.72563,18.3875598 L132.72563,18.3875598 Z" id="Whitepaper"></path>
            </g>
            <path d="M99.8507302,1.52195409 L43.1492698,1.52195409 C40.2792013,1.52195409 37.9442529,3.59392385 37.9442529,6.14074459 L37.9442529,87.9031636 C37.9442529,90.4499843 40.2792013,92.5219541 43.1492698,92.5219541 L99.8507302,92.5219541 C102.720799,92.5219541 105.055747,90.4499843 105.055747,87.9031636 L105.055747,6.14074459 C105.055747,3.59392385 102.720799,1.52195409 99.8507302,1.52195409 Z M41.2666041,87.9031636 L41.2666041,6.14074459 C41.2666041,5.21954156 42.1111458,4.47011824 43.1492698,4.47011824 L99.8507302,4.47011824 C100.888854,4.47011824 101.733396,5.21954156 101.733396,6.14074459 L101.733396,87.9031636 C101.733396,88.8243666 100.888854,89.5737899 99.8507302,89.5737899 L43.1492698,89.5737899 C42.1111458,89.5737899 41.2666041,88.8243666 41.2666041,87.9031636 Z" id="Shape" sketch:type="MSShapeGroup"></path>
        </g>
    </g>
</svg>